<svg id="icon_scroll.svg" xmlns="http://www.w3.org/2000/svg" width="48.468" height="32.437" viewBox="0 0 48.468 32.437">
  <defs>
    <style>
      .cls-1 {
        fill: #29d5cb;
      }

      .cls-1, .cls-2, .cls-3 {
        fill-rule: evenodd;
      }

      .cls-2 {
        fill: #66d4e8;
      }

      .cls-3 {
        fill: #78d7e8;
      }
    </style>
  </defs>
  <path id="SCROLL" class="cls-1" d="M924.082,392.091a0.922,0.922,0,0,1,.791-0.371,1.332,1.332,0,0,1,.455.091c0.163,0.061.345,0.127,0.546,0.2s0.42,0.136.658,0.2a3.232,3.232,0,0,0,.791.09,1.293,1.293,0,0,0,.938-0.271,0.856,0.856,0,0,0,.266-0.615,0.658,0.658,0,0,0-.154-0.443,1.21,1.21,0,0,0-.441-0.3,6.155,6.155,0,0,0-.679-0.245q-0.393-.12-0.882-0.265-0.435-.132-0.868-0.3a2.761,2.761,0,0,1-.77-0.456,2.17,2.17,0,0,1-.546-0.715,2.412,2.412,0,0,1-.21-1.065,2.873,2.873,0,0,1,.294-1.336,2.688,2.688,0,0,1,.791-0.94,3.494,3.494,0,0,1,1.141-.555,4.869,4.869,0,0,1,1.358-.186,4.264,4.264,0,0,1,2.1.42,1.236,1.236,0,0,1,.728,1.078,1.078,1.078,0,0,1-.28.763,0.949,0.949,0,0,1-.728.3,1.738,1.738,0,0,1-.469-0.056,4.18,4.18,0,0,1-.406-0.133,3.613,3.613,0,0,0-.448-0.133,2.819,2.819,0,0,0-.609-0.056,1.231,1.231,0,0,0-.749.212,0.659,0.659,0,0,0-.287.556,0.492,0.492,0,0,0,.112.331,0.936,0.936,0,0,0,.364.238,6.4,6.4,0,0,0,.658.226q0.4,0.119.994,0.3a7.855,7.855,0,0,1,.9.344,2.951,2.951,0,0,1,.777.517,2.346,2.346,0,0,1,.546.774,2.8,2.8,0,0,1,.2,1.132,3.083,3.083,0,0,1-.3,1.4,2.834,2.834,0,0,1-.812.986,3.391,3.391,0,0,1-1.2.576,5.734,5.734,0,0,1-1.491.186,6.478,6.478,0,0,1-1.085-.1,5.147,5.147,0,0,1-1.085-.3,2.728,2.728,0,0,1-.84-0.511,0.956,0.956,0,0,1-.336-0.728A1.373,1.373,0,0,1,924.082,392.091Zm8.6-4.515a4.566,4.566,0,0,1,.994-1.581,4.463,4.463,0,0,1,1.561-1.032,5.409,5.409,0,0,1,2.037-.369,7.379,7.379,0,0,1,1.05.077,3.761,3.761,0,0,1,.966.267,2.109,2.109,0,0,1,.714.489,1.062,1.062,0,0,1,.28.749,1.151,1.151,0,0,1-.07.4,1.19,1.19,0,0,1-.2.343,0.921,0.921,0,0,1-.308.245,0.894,0.894,0,0,1-.406.091,1.16,1.16,0,0,1-.406-0.077l-0.448-.161c-0.159-.056-0.329-0.109-0.511-0.161a2.255,2.255,0,0,0-.609-0.077,2.647,2.647,0,0,0-1.176.24,2.27,2.27,0,0,0-.8.628,2.476,2.476,0,0,0-.448.894,3.823,3.823,0,0,0-.14,1.035,3.5,3.5,0,0,0,.154,1.043,2.6,2.6,0,0,0,.448.867,2.148,2.148,0,0,0,.735.589,2.273,2.273,0,0,0,1.029.22,4.267,4.267,0,0,0,.861-0.07,3.482,3.482,0,0,0,.56-0.161c0.154-.06.289-0.114,0.406-0.161a1.076,1.076,0,0,1,.4-0.07,1.014,1.014,0,0,1,.539.126,0.948,0.948,0,0,1,.308.294,0.936,0.936,0,0,1,.133.343,1.993,1.993,0,0,1,.028.287,1.078,1.078,0,0,1-.315.784,2.429,2.429,0,0,1-.784.525,4.1,4.1,0,0,1-1.022.287,6.813,6.813,0,0,1-1.015.085,5.181,5.181,0,0,1-2.086-.4,4.542,4.542,0,0,1-1.54-1.072,4.491,4.491,0,0,1-.952-1.587,5.74,5.74,0,0,1-.322-1.93A5.555,5.555,0,0,1,932.677,387.576Zm8.49-1.857a1.033,1.033,0,0,1,.343-0.833,1.186,1.186,0,0,1,.791-0.292h2.73a4,4,0,0,1,1.372.224,3.065,3.065,0,0,1,1.05.63,2.8,2.8,0,0,1,.672.974,3.25,3.25,0,0,1,.238,1.266,2.8,2.8,0,0,1-.623,1.855,2.77,2.77,0,0,1-1.7.945l1.974,2.085a2.279,2.279,0,0,1,.357.467,1.022,1.022,0,0,1,.119.494,0.991,0.991,0,0,1-.056.3,1.026,1.026,0,0,1-.2.336,1.205,1.205,0,0,1-.364.281,1.446,1.446,0,0,1-1.2-.029,2.032,2.032,0,0,1-.42-0.41l-2.786-3.484-0.028-.035v2.871a1.182,1.182,0,0,1-.322.9,1.249,1.249,0,0,1-1.624,0,1.161,1.161,0,0,1-.322-0.895v-7.65Zm2.268,3.173h1.5a1.072,1.072,0,0,0,1.162-1.12,0.986,0.986,0,0,0-.336-0.791,1.231,1.231,0,0,0-.826-0.287h-1.5v2.2Zm12.719-3.942a4.335,4.335,0,0,1,2.541,2.572,6.217,6.217,0,0,1,0,4.113,4.335,4.335,0,0,1-2.541,2.572,5.847,5.847,0,0,1-4.018,0,4.335,4.335,0,0,1-2.541-2.572,6.217,6.217,0,0,1,0-4.113,4.335,4.335,0,0,1,2.541-2.572A5.847,5.847,0,0,1,956.154,384.95Zm-3.136,1.991a2.2,2.2,0,0,0-.763.65,2.77,2.77,0,0,0-.434.922,4.125,4.125,0,0,0,0,2.131,2.761,2.761,0,0,0,.434.922,2.189,2.189,0,0,0,.763.65,2.7,2.7,0,0,0,2.254,0,2.189,2.189,0,0,0,.763-0.65,2.761,2.761,0,0,0,.434-0.922,4.125,4.125,0,0,0,0-2.131,2.77,2.77,0,0,0-.434-0.922,2.2,2.2,0,0,0-.763-0.65A2.695,2.695,0,0,0,953.018,386.941Zm6.966-1.153a1.162,1.162,0,0,1,.322-0.9,1.138,1.138,0,0,1,1.946.893v6.676h2.436a1.179,1.179,0,0,1,.833.28,1.126,1.126,0,0,1,0,1.533,1.156,1.156,0,0,1-.833.288h-3.57a1.188,1.188,0,0,1-.791-0.292,1.031,1.031,0,0,1-.343-0.833v-7.65Zm6.455,0a1.162,1.162,0,0,1,.322-0.9,1.138,1.138,0,0,1,1.946.893v6.676h2.436a1.179,1.179,0,0,1,.833.28,1.126,1.126,0,0,1,0,1.533,1.156,1.156,0,0,1-.833.288h-3.57a1.188,1.188,0,0,1-.791-0.292,1.031,1.031,0,0,1-.343-0.833v-7.65Z" transform="translate(-923.813 -384.594)"/>
  <path id="形狀_17" data-name="形狀 17" class="cls-2" d="M958,402.47a1.429,1.429,0,0,1-.456,1.043l-7.457,7.059a1.6,1.6,0,0,1-2.175,0l-7.457-7.059a1.422,1.422,0,0,1-.007-2.079,1.6,1.6,0,0,1,2.182-.007l6.37,6.029,6.369-6.029a1.6,1.6,0,0,1,2.183.007A1.436,1.436,0,0,1,958,402.47Z" transform="translate(-923.813 -384.594)"/>
  <path id="形狀_17_拷貝" data-name="形狀 17 拷貝" class="cls-3" d="M958,408.47a1.429,1.429,0,0,1-.456,1.043l-7.457,7.059a1.6,1.6,0,0,1-2.175,0l-7.457-7.059a1.422,1.422,0,0,1-.007-2.079,1.6,1.6,0,0,1,2.182-.008l6.37,6.03,6.369-6.03a1.6,1.6,0,0,1,2.183.008A1.438,1.438,0,0,1,958,408.47Z" transform="translate(-923.813 -384.594)"/>
</svg>
