<svg xmlns="http://www.w3.org/2000/svg" width="38pt" height="38pt" viewBox="0 0 38 38"><path d="M23.79 18.621v1.594c0 .61-.458 1.066-1.067 1.066a1.04 1.04 0 01-1.063-1.066V18.62h-5.473v1.594a1.04 1.04 0 01-1.062 1.066c-.61 0-1.066-.457-1.066-1.066V18.62h-3.114a6.542 6.542 0 01-4.41-1.75v12.617a4.41 4.41 0 004.41 4.407h15.809a4.409 4.409 0 004.406-4.407V16.871a6.532 6.532 0 01-4.406 1.75h-2.965zm0 0M26.902 7.066H11.098a4.413 4.413 0 00-4.41 4.41v.684a4.41 4.41 0 004.41 4.406h3.113v-.605c0-.61.457-1.066 1.066-1.066a1.04 1.04 0 011.063 1.066v.605h5.473v-.605c0-.61.457-1.066 1.062-1.066.61 0 1.066.457 1.066 1.066v.605h3.114a4.41 4.41 0 004.41-4.406v-.61c-.152-2.507-2.13-4.484-4.563-4.484zm0 0" fill="#fbca5a"/><path d="M33.363 11.172c-.226-3.418-3.039-6.156-6.46-6.156h-1.52C24.93 2.586 22.8.762 20.293.762h-2.586c-2.508 0-4.637 1.824-5.09 4.254h-1.52a6.449 6.449 0 00-6.46 6.156C2.05 11.398 0 13.605 0 16.34v10.11c0 2.812 2.203 5.09 4.941 5.167.836 2.582 3.266 4.406 6.157 4.406h15.804c2.891 0 5.32-1.824 6.157-4.406C35.797 31.465 38 29.184 38 26.45V16.34c0-2.734-2.05-4.94-4.637-5.167zM4.637 29.488c-1.446-.304-2.508-1.52-2.508-3.039V16.34c0-1.519 1.062-2.812 2.508-3.038zm13.07-26.675h2.586c1.367 0 2.582.91 2.965 2.203h-8.516a3.104 3.104 0 012.965-2.204zm13.605 26.75a4.413 4.413 0 01-4.41 4.41H11.098a4.413 4.413 0 01-4.41-4.41V16.87a6.542 6.542 0 004.41 1.75h3.113v1.594c0 .61.457 1.066 1.066 1.066a1.04 1.04 0 001.063-1.066V18.62h5.473v1.594c0 .61.457 1.066 1.062 1.066.61 0 1.066-.457 1.066-1.066V18.62h3.114c1.672 0 3.27-.683 4.41-1.75zm0-17.403a4.41 4.41 0 01-4.41 4.406H23.79v-.605c0-.61-.457-1.066-1.066-1.066a1.04 1.04 0 00-1.063 1.066v.605h-5.473v-.605a1.04 1.04 0 00-1.062-1.066c-.61 0-1.066.457-1.066 1.066v.605h-3.114a4.41 4.41 0 01-4.41-4.406v-.61a4.412 4.412 0 014.41-4.405h15.809a4.411 4.411 0 014.406 4.406v.61zm4.637 14.29c0 1.519-1.066 2.812-2.508 3.038V13.223c1.442.304 2.508 1.52 2.508 3.043zm0 0" fill="#231815"/><path d="M26.371 23.105H11.63c-.61 0-1.066.454-1.066 1.063V28.5a3.41 3.41 0 003.421 3.422h10.032a3.41 3.41 0 003.422-3.422v-4.332c0-.61-.536-1.063-1.067-1.063zm0 0" fill="#231815"/><path d="M25.309 25.156v3.27c0 .758-.61 1.289-1.293 1.289H13.984a1.279 1.279 0 01-1.293-1.29v-3.269zm0 0" fill="#ea5457"/></svg>