<svg xmlns="http://www.w3.org/2000/svg" width="38pt" height="38pt" viewBox="0 0 38 38"><path d="M24.93 34.047c-.762 0-1.14-.305-1.14-.91V32.3c-.99-.078-1.977-.38-2.813-.762-.684-.379-.762-.836-.305-1.441.226-.305.531-.457.988-.535.38-.075.762.078 1.14.23.606.227 1.141.305 1.673.305 1.14 0 1.672-.383 1.672-1.141 0-.305-.23-.61-.684-.914-.23-.152-.762-.379-1.52-.684-.304-.074-.457-.226-.609-.226-.836-.38-1.52-.762-1.898-1.14-.61-.532-.914-1.141-.914-1.825 0-.836.304-1.598.835-2.129.61-.605 1.368-.91 2.434-1.14v-.91c0-.61.379-.915 1.14-.915.759 0 1.063.305 1.063.914v.91c.836.079 1.598.383 2.356.762.609.38.609.91.078 1.367-.305.23-.61.38-.914.457-.38 0-.684-.078-1.063-.226a3.165 3.165 0 00-1.219-.23c-.988 0-1.52.378-1.52 1.066 0 .3.231.531.61.758.227.152.758.378 1.446.609 1.136.453 1.898.836 2.43 1.14.835.606 1.214 1.29 1.214 2.126 0 .835-.3 1.597-.836 2.128-.605.61-1.441.989-2.508 1.215v.914c-.074.758-.378 1.063-1.136 1.063zm0 0M28.195 16.719c-.53 0-.836-.227-.836-.606v-.61c-.757-.073-1.445-.226-2.05-.53-.457-.305-.532-.61-.23-1.067a.806.806 0 01.687-.379c.3 0 .53 0 .836.153.453.152.835.226 1.214.226.836 0 1.215-.3 1.215-.836 0-.226-.152-.453-.457-.605-.226-.152-.531-.305-1.137-.531-.23-.079-.382-.153-.457-.153-.609-.304-1.14-.535-1.367-.836a1.608 1.608 0 01-.61-1.293c0-.609.227-1.14.61-1.597.38-.38.989-.684 1.746-.836v-.606c0-.457.305-.61.836-.61.532 0 .762.227.762.61v.606c.605.078 1.215.23 1.672.61.379.304.457.609.074.987a.96.96 0 01-.683.305c-.227 0-.532-.078-.758-.152-.305-.078-.535-.153-.836-.153-.762 0-1.14.227-1.14.758 0 .23.151.383.452.535.153.075.535.227 1.067.454.836.304 1.441.609 1.746.835.61.457.836.989.836 1.598 0 .61-.227 1.14-.606 1.598-.457.453-1.066.758-1.824.91v.684c0 .378-.23.53-.762.53zm0 0M34.809 27.89c-.532 0-.836-.226-.836-.605v-.683c-.762-.079-1.446-.23-2.051-.536-.457-.3-.535-.605-.23-1.062a.8.8 0 01.683-.379c.305 0 .531 0 .836.152.457.153.836.227 1.219.227.836 0 1.215-.305 1.215-.836 0-.227-.153-.457-.458-.61-.226-.152-.53-.3-1.14-.53-.227-.075-.379-.153-.453-.153-.61-.305-1.14-.531-1.371-.836a1.61 1.61 0 01-.606-1.293c0-.605.227-1.137.606-1.594.382-.379.988-.683 1.75-.836v-.683c0-.457.304-.61.836-.61.53 0 .757.23.757.61v.605c.61.078 1.22.23 1.672.61.383.304.457.609.078.988-.226.152-.457.305-.683.305-.23 0-.531-.078-.762-.153-.305-.078-.531-.152-.836-.152-.758 0-1.14.227-1.14.762 0 .226.152.379.457.53.152.075.53.227 1.062.458.84.3 1.445.605 1.75.836.61.453.836.984.836 1.594 0 .609-.227 1.14-.61 1.597-.453.453-1.062.758-1.824.91v.684c0 .457-.226.684-.757.684zm0 0M13.07 31.313H7.754c-.078 0-.23.074-.23.226 0 1.52 1.367 2.356 2.886 2.356 1.524 0 2.965-.758 2.89-2.356 0-.152-.077-.227-.23-.227zm0 0M10.41 3.8C.38 3.876-3.723 16.188 4.027 22.497c.836.684 1.903 1.215 2.356 2.281.457 1.368.078 2.278 1.976 2.203 1.215-.078 2.434-.078 3.575-.078 2.355.153 1.824-.379 2.582-2.277.457-.836 1.293-1.367 2.05-1.977 7.907-6.082 4.637-18.468-6.156-18.847zm0 0M14.29 27.438H6.913c-.148 0-.3.152-.3.3v.762c0 .152.152.305.3.305h7.375a.328.328 0 00.305-.305v-.762c0-.148-.153-.3-.305-.3zm0 0M14.29 29.262H6.913c-.148 0-.3.148-.3.3v.762c0 .153.152.305.3.305h7.375a.328.328 0 00.305-.305v-.762c0-.152-.153-.3-.305-.3zm0 0" fill="#231815"/><path d="M19.152 13.758c-.152-2.13-1.062-4.184-2.586-5.703-1.136-1.063-3.039-2.43-5.851-2.508h-.227c-2.281 0-4.484.914-6.156 2.508a8.328 8.328 0 00-2.586 5.777c-.226 3.953 2.281 6.461 4.258 7.98.074.075.226.153.379.227.23.152.457.305.683.531.61.688.989 1.524 1.372 2.434 0 .074 0 .074.074.152h4.105c.453-1.824 1.672-2.734 2.813-3.722.605-.536 1.215-.989 1.746-1.598.988-1.367 2.203-3.27 1.976-6.078zm0 0" fill="#acdcec"/><path d="M13.07 15.125c-.605 0-1.289.758-1.898 1.367-.152.153-.227.305-.379.38-.152.151-.23.304-.383.382 0 .074-.074.074-.074.148-.074-.074-.227-.226-.305-.3-.074-.079-.152-.153-.152-.153-.074-.078-.152-.152-.305-.304-.758-.762-1.367-1.446-1.82-1.446-.305 0-.688.23-.762.531-.152.61.61 1.293 1.063 1.672.078.078.152.153.23.153l.531.535c.227.226.457.453.836.836v3.113c0 .836-.078 1.977.684 1.977.152 0 .305-.075.457-.153.379-.379.305-1.215.305-1.898v-.38c0-.23 0-.534-.078-.839-.075-.683-.075-1.367 0-1.82 0-.153.226-.305.457-.457.074-.078.152-.078.152-.153.531-.457.91-.836 1.441-1.367.305-.304.61-.61.61-.914 0-.226-.075-.457-.227-.605-.078-.23-.23-.305-.383-.305zm0 0" fill="#231815"/></svg>