<svg xmlns="http://www.w3.org/2000/svg" width="60" height="38pt" viewBox="0 0 45 38"><path d="M44.102 31.313h-.528L31.2 9.195l1.727-3.039c.3-.457.074-1.062-.375-1.367-.45-.23-1.051-.078-1.352.379l-1.05 1.977-1.047-1.977c-.301-.457-.903-.61-1.352-.379-.45.305-.602.91-.375 1.367l1.2 1.977h-11.7L18 6.156c.3-.457.074-1.062-.375-1.367-.523-.23-1.125-.078-1.426.453L15.15 7.22l-1.047-1.977c-.301-.453-.903-.605-1.352-.379-.45.305-.602.914-.375 1.367l1.727 3.043-12.454 22.04H.977c-.528 0-.977.457-.977.988 0 .531.45.988.977.988h42.972c.528 0 .977-.457.977-.988.148-.531-.301-.989-.824-.989zm0 0" fill="#231815"/><path d="M15.148 22.8l1.875 8.512H13.2zm0 0" fill="#ea5457"/><path d="M16.125 18.164l3 13.148h7.2l-10.2-18.242zm0 0M11.176 31.313l3-13.149V13.07L3.898 31.312zm0 0M29.477 10.184H16.875l11.773 21.129h12.676zm0 0" fill="#fbca5a"/></svg>