<svg xmlns="http://www.w3.org/2000/svg" width="38pt" height="29pt" viewBox="0 0 38 29"><path d="M38 4.313C37.848 2.175 36.023.417 33.82.417h-.078c-1.898 0-3.57 1.3-4.027 3.055H8.359C7.83 1.719 6.23.418 4.332.418H4.18C1.977.418.152 2.176 0 4.313V22.934c0 3.128 2.586 5.722 5.7 5.722h26.6c3.114 0 5.7-2.593 5.7-5.722V4.464v-.152zm0 0" fill="#231815"/><path d="M35.95 22.855c0 2.063-1.673 3.743-3.65 3.743H5.7c-2.052 0-3.65-1.68-3.65-3.664v-.079c.079-1.144 1.067-1.984 2.208-1.984h.074c1.14 0 2.05.918 2.203 1.984.078.536.457.918.988.918.532 0 .989-.457.989-.992V5.531h21.05v5.192c-.835.609-1.593 1.144-2.277 1.832-.383.379-.383 1.066 0 1.449.227.23.453.305.684.305.226 0 .531-.075.683-.305a7.68 7.68 0 01.836-.762v9.54c0 .534.457.991.989.991.53 0 .988-.382.988-.918.074-1.144 1.062-1.984 2.203-1.984h.074c1.14-.074 2.13.84 2.207 1.984zm-8.743-6.332c.305-.457.23-1.07-.152-1.449a1.137 1.137 0 00-1.442.153c-.383.457-.683.914-.988 1.37-.23.305-.457.614-.684.919-.304.457-.23 1.066.227 1.449.152.152.379.23.61.23.3 0 .605-.156.835-.383.227-.304.453-.609.684-.917.226-.457.531-.915.91-1.372zm-3.496 4.5c.383-.457.305-1.066-.074-1.449-.457-.379-1.067-.304-1.446.078-.683.84-1.52 1.68-2.43 2.137-.456.305-.687.914-.382 1.371.152.309.531.535.914.535.152 0 .305-.074.453-.152 1.14-.457 2.129-1.527 2.965-2.52zm-5.547 2.52a.978.978 0 00-.684-1.219c-.761-.23-1.367-.613-1.75-1.148-.3-.457-.988-.531-1.44-.153-.458.309-.532.993-.153 1.454a5.504 5.504 0 002.812 1.828h.227c.457 0 .836-.38.988-.762zm-.988-9.617c.379-.38.379-1.067 0-1.45l-1.52-1.449L17.102 9.5c.378-.379.378-1.066 0-1.45-.383-.382-1.067-.382-1.446 0l-1.445 1.528-1.52-1.45c-.379-.382-1.062-.382-1.445 0-.379.38-.379 1.067 0 1.45l1.524 1.45-1.446 1.527c-.379.379-.379 1.066 0 1.449.227.152.457.305.684.305.305 0 .531-.075.762-.305l.152-.152c0 .535.379.992.91 1.066h.152c.532 0 .91-.379.989-.914.074-.305.074-.535.152-.762l.684.684c.226.156.457.308.683.308.153 0 .457-.152.684-.308zm-3.192 6.105c.532-.074.91-.61.836-1.144-.078-.61-.152-1.219-.152-1.907v-.23c0-.531-.457-.992-.988-1.066-.532 0-.989.457-1.063.992v.226c0 .84.074 1.528.153 2.215.074.535.53.84.988.84.148.074.148.074.226.074zm0 0" fill="#fbfaf3"/><path d="M35.95 4.54a2.183 2.183 0 00-2.208-2.06h-.074c-1.14 0-2.129.915-2.203 2.06v14.808c.683-.383 1.441-.614 2.203-.614H34.73c.079 0 .079 0 .153.078h.078c.074 0 .074 0 .152.075h.075c.078 0 .078 0 .152.078.074 0 .074.074.152.074h.074c.079 0 .079 0 .153.078h.078c.074 0 .074.078.152.078l.074.075V4.617c-.074 0-.074 0-.074-.078zm0 0M6.46 4.54c-.077-1.145-.987-2.06-2.202-2.06H4.18c-1.14 0-2.13.915-2.13 2.06v14.808l.079-.078c.074 0 .074-.075.152-.075h.074c.079 0 .079-.078.153-.078h.078c.074 0 .074-.078.148-.078.079 0 .079 0 .153-.074h.078c.074 0 .074 0 .152-.078h.074c.079 0 .079 0 .153-.075h1.062c.762 0 1.524.227 2.207.61V4.617c-.152 0-.152 0-.152-.078zm0 0" fill="#81cff4"/></svg>