<svg xmlns="http://www.w3.org/2000/svg" width="38pt" height="38pt" viewBox="0 0 38 38"><path d="M29.793 11.246c-2.586-.605-6.082-.91-9.805-.91-3.722 0-7.144.305-9.804.91-3.118.688-4.711 1.75-4.711 3.043v.379c0 2.887 1.52 5.547 4.332 7.523.988.684 2.05 1.293 3.191 1.75l-2.434 11.02c-.074.531.231.988.762 1.062h.153a.9.9 0 00.91-.757l2.508-10.641c1.218.305 2.507.531 3.8.605v6.54c0 .53.38.91.914.91.532 0 .91-.38.91-.91v-6.54c1.294 0 2.586-.226 3.876-.453l2.507 10.489a.906.906 0 00.914.757h.153c.531-.074.836-.53.758-1.062l-2.508-10.64c1.445-.458 2.812-1.141 3.953-1.977 2.812-1.977 4.332-4.637 4.332-7.524v-.152-.227c0-1.52-1.52-2.507-4.711-3.195zm0 0M37.238 5.168h-4.332c-.379-1.215-1.441-2.129-2.808-2.129h-1.672a.765.765 0 00-.762.762v1.367h-1.062V3.801a.765.765 0 00-.762-.762h-3.8a.764.764 0 00-.759.762v1.367h-.988V3.801a.765.765 0 00-.762-.762h-3.8a.764.764 0 00-.758.762v1.367h-.989V3.801a.762.762 0 00-.761-.762H11.55c-1.367 0-2.43.914-2.813 2.129h-5.62A3.082 3.082 0 000 8.285v.074c0 1.672 1.367 3.04 3.117 3.04a.76.76 0 000-1.52c-.836 0-1.52-.684-1.52-1.52v-.074c0-.836.684-1.52 1.52-1.52H8.59c.3 1.215 1.441 2.126 2.808 2.126h1.672a.761.761 0 00.762-.758V6.766h.988v1.367c0 .457.38.758.758.758h3.8a.761.761 0 00.763-.758V6.766h.988v1.367c0 .457.379.758.758.758h3.8a.761.761 0 00.762-.758V6.766h.988v1.367c0 .457.38.758.758.758h1.672c1.367 0 2.434-.91 2.813-2.125h4.558A.765.765 0 0038 6.004c0-.457-.379-.836-.762-.836zm0 0" fill="#231815"/><path d="M29.184 12.996v2.66c2.355-.531 3.191-1.062 3.421-1.293-.23-.304-1.066-.91-3.421-1.367zm0 0M24.852 16.266c.835-.078 1.671-.153 2.507-.305v-3.27c-.757-.152-1.593-.226-2.507-.304zm0 0M20.598 16.414c.836 0 1.672 0 2.507-.074v-4.18h-2.507zm0 0M16.266 16.34c.836.074 1.672.074 2.507.074V12.16c-.835 0-1.671.074-2.507.074zm0 0M11.934 15.809c.757.152 1.593.226 2.507.379v-3.723c-.914.074-1.75.226-2.507.379zm0 0M7.45 14.29c.152.226.91.683 2.66 1.14v-2.282c-1.825.457-2.508.91-2.66 1.141zm0 0" fill="#fbfaf3"/><path d="M29.793 17.328c-2.586.61-6.082.91-9.805.91-3.722 0-7.144-.3-9.804-.91-.989-.226-1.899-.457-2.582-.762.53 1.598 1.593 3.043 3.265 4.18 2.434 1.676 5.625 2.66 9.043 2.66 3.422 0 6.613-.91 9.047-2.66 1.672-1.215 2.813-2.656 3.266-4.18-.532.305-1.368.536-2.43.762zm0 0M31.465 6.004c0-.074 0-.074 0 0 0-.762-.61-1.367-1.367-1.367h-.914V7.37h.914c.757-.074 1.367-.684 1.367-1.367zm0 0M22.8 4.559h2.278v2.738h-2.277zm0 0M16.414 4.559h2.281v2.738h-2.28zm0 0M11.324 7.297h.91V4.559h-.91c-.761 0-1.367.609-1.367 1.37v.075c.074.684.684 1.293 1.367 1.293zm0 0" fill="#ea5457"/></svg>