<svg xmlns="http://www.w3.org/2000/svg" width="37pt" height="22pt" viewBox="0 0 37 22"><path d="M34.176 10.063h-.149c-.511-.75-1.39-1.278-2.343-1.278-.73 0-1.465.3-1.977.824-.293.301-.441.602-.586.903-.367 0-.66.152-.953.3l-1.023-1.878c-.149-.223-.368-.375-.66-.375-.294 0-.512.152-.66.375l-4.981 8.937-7.692-13.816a.761.761 0 00-.66-.375.755.755 0 00-.656.375l-1.32 2.402c-.438-.3-.954-.45-1.54-.45h-.218A3.3 3.3 0 005.977 4.43c-.88 0-1.688.375-2.344.976-.367.375-.586.75-.735 1.203-1.464 0-2.71 1.274-2.71 2.852 0 .75.292 1.426.808 1.953.512.524 1.098.824 1.828.824h4.543L2.824 20.5c-.219.375-.07.898.293 1.05.223.223.735.075.953-.3l3.59-6.457 1.172 1.125a.827.827 0 00.586.227c.219 0 .437-.153.586-.375l1.316-1.954 2.125 2.778c.149.226.367.3.586.3h.074c.293-.074.512-.226.586-.449l1.54-3.68 4.539 8.41c.148.223.44.376.66.376.148 0 .293 0 .367-.078.367-.223.512-.676.293-1.051l-.442-.977.954-1.726.734.754a.817.817 0 00.586.222c.219 0 .437-.074.586-.3l1.023-1.274 2.344 1.426a.793.793 0 00.367.074c.219 0 .512-.148.66-.375l.88-1.277 2.488 4.504c.148.226.44.379.66.379.144 0 .293 0 .367-.079.363-.222.512-.675.293-1.05l-3.004-5.407H34.246c.66 0 1.32-.3 1.758-.824.516-.527.734-1.203.734-1.879.075-1.351-1.097-2.55-2.562-2.55zm0 0" fill="#231815"/><path d="M16.375 6.008h1.027c.07.375.22.676.438 1.05l-.293.301a.83.83 0 000 1.125.778.778 0 00.512.227.656.656 0 00.515-.227l.293-.3c.293.226.66.3 1.024.453v1.05c0 .45.367.825.808.825a.823.823 0 00.805-.825v-1.05c.367-.078.66-.227 1.023-.453l.293.3a.78.78 0 00.516.227.654.654 0 00.512-.227.83.83 0 000-1.125l-.293-.3c.218-.301.293-.676.437-1.051h1.028c.437 0 .804-.375.804-.828a.823.823 0 00-.804-.825h-1.028c-.07-.375-.219-.675-.437-1.05l.293-.301a.83.83 0 000-1.125.78.78 0 00-1.098 0l-.293.375c-.293-.152-.66-.3-1.027-.375V.824c0-.449-.293-.824-.73-.824a.824.824 0 00-.81.824V1.88c-.363.074-.656.223-.949.375l-.293-.3a.785.785 0 00-1.101 0 .83.83 0 000 1.124l.293.3a2.64 2.64 0 00-.438 1.052h-1.027c-.438 0-.805.375-.805.828.075.375.367.75.805.75zm0 0" fill="#231815"/><path d="M22.527 5.18c0 1.039-.82 1.879-1.828 1.879-1.012 0-1.832-.84-1.832-1.88 0-1.034.82-1.874 1.832-1.874 1.008 0 1.828.84 1.828 1.875zm0 0" fill="#fbca5a"/><path d="M28.902 15.316s-.074 0 0 0c-.074 0-.074 0 0 0h-.586s-.074 0-.074-.074c0 0-.074 0-.074-.074l-.074-.074-.07-.078-.075-.075-.074-.074c-.438-.449-.66-1.05-.66-1.726v-.153V12.766v-.153-.148-.301l-.656-1.203-3.004 5.406.437.453.953-1.129c.22-.3.66-.375.953-.148l2.27 1.352.879-1.352zm0 0M11.613 7.582c.075.078.075.152.149.3.074.153.144.376.218.528v.824c0 .829-.293 1.579-.878 2.18l-.075.074a2.794 2.794 0 01-1.976.825h-.074L8.39 13.44l.808.75 1.39-2.027c.145-.226.368-.3.587-.375.219 0 .511.074.66.3l1.976 2.552 1.465-3.528-2.785-5.105zm0 0" fill="#81cff4"/><path d="M34.176 11.637c-.074 0-.223 0-.293.078-.367.148-.809-.078-.953-.453-.149-.524-.66-.825-1.172-.825-.367 0-.66.149-.88.376-.218.226-.292.449-.366.75 0 .226-.145.449-.367.527-.22.148-.438.148-.657.074h-.222a.755.755 0 00-.657.375s0 .074-.074.074V12.84c0 .226.074.45.219.601a.402.402 0 00.367.223h5.125c.293 0 .516-.148.734-.3.22-.223.293-.45.293-.75 0-.524-.511-.977-1.097-.977zm0 0M10.441 9.012v-.078-.075c-.07-.222-.144-.523-.363-.675-.293-.301-.66-.524-1.101-.524-.145 0-.293 0-.438.074-.367.149-.805-.074-.953-.449-.219-.754-.879-1.277-1.61-1.277a1.74 1.74 0 00-1.246.523c-.293.301-.44.602-.511 1.051a.566.566 0 01-.367.527c-.149.149-.368.149-.586.149-.075 0-.22-.074-.293-.074-.66 0-1.172.527-1.172 1.203 0 .3.144.601.367.824.219.226.512.375.805.375h6.152c.367 0 .73-.149 1.023-.45.293-.3.442-.675.442-1.05-.149 0-.149 0-.149-.074 0 .074 0 0 0 0zm0 0" fill="#fbfaf3"/></svg>