<svg xmlns="http://www.w3.org/2000/svg" width="289pt" height="163pt" viewBox="0 0 289 163"><g fill-rule="evenodd"><path d="M128.383 133.39h-26.031v-7.718H124.5v-7.524h-22.148V109.5c6.75-.723 13.441-1.89 20.035-3.496l-5.668-6.531c-10.805 2.84-28.86 4.617-44.746 5.277a26.09 26.09 0 011.972 6.93c6.461-.266 13.383-.66 20.239-1.254v7.722H72.629v7.524h21.555v7.719H68.148v7.656h26.036v10.625c0 1.32-.598 1.781-2.114 1.848-1.449 0-6.984 0-11.86-.196a30.195 30.195 0 013.228 7.785c6.726.067 11.468-.132 14.636-1.32 3.09-1.254 4.278-3.3 4.278-7.984v-10.758h26.03zm105.754 3.43a65.165 65.165 0 009.027-6.332 49.168 49.168 0 009.027 6.332zm2.043 15.38v-8.516h13.511v8.511H236.18zm-11.14-31.876a33.716 33.716 0 013.167 3.301 42.628 42.628 0 004.875-4.883 54.059 54.059 0 004.875 6.531 52.646 52.646 0 01-12.918 7.985zm-9.165 21.25v-13.199h3.3v13.2zm-7.965-13.199H211v13.2h-3.09zm3.09-18.148v11.683h-3.09v-11.683zm8.176 11.683h-3.301v-11.683h3.3zm29.656-9.242a43.557 43.557 0 01-5.797 7.852 43.147 43.147 0 01-5.668-7.329l.399-.527h11.066zm5.078-6.863l-1.324.332h-11.004c.793-1.496 1.5-3.04 2.113-4.621l-7.386-2.043a43.47 43.47 0 01-11.27 16.496v-12.473h-22.797v50.219h5.668v-5.406h17.13V136.82a32.572 32.572 0 012.241 3.434l1.649-.727v21.645h7.25v-2.11h13.511v2.043h7.645v-21.84l.465.196a38.058 38.058 0 015.004-6.598 46.053 46.053 0 01-14.301-7.457 51.35 51.35 0 0010.543-17.094zm0 0" fill="#432909"/><path d="M288.688 109.27a1.37 1.37 0 00-.747-.747l-2.503-.996-.68-.273-4.504-1.793-.68-.27-1.191-.476a1.302 1.302 0 00-1.047.031 1.352 1.352 0 00-.703.785l-1.387 4.074-.508 1.477-1.07 3.14c-.008.008-.008.016-.016.028l-2.015 6.371-.446 1.422-2.988 9.422-.45 1.422-1.464 4.62c-.215.68.125 1.415.785 1.684l.547.215.68.274 4.5 1.793.472.191c.082.02.164.035.247.043.082.023.164.04.246.047.523 0 .996-.309 1.21-.79l.626-1.378.816-1.797 5.406-11.887.813-1.797 2.43-5.347 2.671-6.227.723-1.707.219-.496c.14-.336.14-.719.007-1.058zm-6.305-.04l-5.89 5.235-.516 1.316.214-.683 2.504-7.34zm-6.61 7.18l.157-.496 7.191-6.387.254.102 2.3.914-2.081 4.871-10.442 9.266 2.176-6.856zm-2.695 22.258l-2.719-1.086-.68-.27-.46-.183.351-1.125 7.211-5.484-.437.96zm4.422-9.719l-7.496 5.703 1.887-5.98.457-1.422.386-1.242 10.204-9.059-.301.703-.075.149zm-3.434 18.586a7.565 7.565 0 00-2.539-3.8c-.172-.141-.343-.29-.53-.419a8.521 8.521 0 00-1.599-.863 7.876 7.876 0 00-3.285-.543 6.971 6.971 0 00-2.578.57 7.624 7.624 0 00-4.02 4.313 9.1 9.1 0 00-.335 1.21 8.221 8.221 0 00-.149 1.11 7.731 7.731 0 00.574 3.59c.22.492.489.957.801 1.39.133.184.293.345.442.516a7.87 7.87 0 003.039 2.196c.273.093.554.175.836.242.246.078.496.144.746.2a7.84 7.84 0 001.351.128 7.447 7.447 0 007.004-4.887c.516-1.328.66-2.77.418-4.175-.043-.262-.11-.52-.176-.778zm-7.613-2.937c.367.004.735.047 1.094.125l-5.797 5.902a5.106 5.106 0 01.254-2.84 4.947 4.947 0 012.586-2.805 4.696 4.696 0 011.863-.386zm-3.723 8.097a5.034 5.034 0 01-.39-.566c-.098-.172-.207-.336-.29-.524-.03-.066-.038-.14-.07-.207l6.336-6.449c.036.016.075.02.11.031.215.094.422.2.62.317a4.908 4.908 0 012.059 2.117l-6.554 6.684a5.253 5.253 0 01-1.82-1.403zm8.618-1.195a4.893 4.893 0 01-2.61 2.766 4.24 4.24 0 01-.492.156 4.765 4.765 0 01-1.148.21 5.268 5.268 0 01-1.828-.25l6.12-6.241c.212.59.301 1.214.27 1.843a5.623 5.623 0 01-.223 1.192c-.039.105-.054.215-.09.324zm0 0M8.887 107.578l-2.785 2.809v.847l3.628-3.656zm7.289 0h-.844l-4.473 4.512h.836zm1.133-1.148l4.832-4.868a33.468 33.468 0 00-.254-.585l-4.77 4.804c.059.172.133.364.184.531.008.04.012.079.008.118zm-2.73 8.402l-3.661 3.688c.059.23.121.457.172.68l3.726-3.755c-.082-.21-.156-.41-.238-.613zm3.57-2.742l5.882-5.93c-.074-.203-.148-.398-.23-.617l-6.5 6.547zM7.233 122.23l-2.125 2.141v.852l2.97-2.993zm2.75 4.575l4.54-4.575h-.844l-4.54 4.575zM24.59 112.09l4.48-4.512h-.851l-4.473 4.512zM8.61 133.832l-3.106 3.129v.851l3.95-3.98zm19.35-19.492l-4.062 4.094c-.168.457-.332.906-.496 1.347l5.266-5.3zm-7.835 7.89l-4.54 4.575h.845l4.539-4.575zm13.547-12.793v-.851l-3.48 3.504h.851zm8.566-2.992l-3.437 3.465v.848l4.527-4.555c-.367.082-.726.164-1.09.242zM10.387 138.54h.843l4.676-4.71h-.851zm7.355-7.414v.852l10.195-10.27a.978.978 0 01-.039-.816zm26.39-19.664a.96.96 0 01.786-.945c.246-.047.473-.094.719-.141l6.437-6.484c-.39.12-.8.242-1.21.363L38.8 116.406v.852l5.332-5.375zm-36.44 36.293a47.953 47.953 0 01-.883 1.734l5.82-5.863-.656-.188zm15.71-15.836l-6.578 6.633a.922.922 0 01.598.246l5.98-6.027zm9.621-9.684l-4.543 4.575h.844l4.543-4.575zm-25.347 32.88l2.105-2.126c.324-.57.621-1.183.934-1.785l-3.531 3.55c.171.122.336.24.492.36zm20.277-21.278l-10.21 10.281v.852l5.722-5.762a.939.939 0 01.598-.598l4.734-4.77h-.844zm16.18-16.305l-5.332 5.371v.852l5.332-5.371zm8.597-8.656c.38-.09.747-.184 1.114-.273l5.254-5.293-.43-.418zm-19.125 26.61v-.852l-3.882 3.91h.851zm5.196-6.087v.852l7.363-7.418h-.844zm-21.059 22.067l5.66-5.703v-.852l-5.66 5.703zm34.024-28.637l-5.332 5.371h.851l5.324-5.37zm-34.024 35.129l5.66-5.703v-.852l-5.66 5.703zm20.91-21.066l5.461-5.496c0-.293.012-.57.012-.868l-5.434 5.477c-.007.293-.023.59-.039.887zm-7.308 6.515l-2.953 2.977.293.55 2.988-3.003c-.106-.18-.219-.348-.328-.524zm6.613.684l5.914-5.961c.024-.297.04-.598.055-.902l-5.824 5.863c-.047.336-.09.668-.145 1zm14.168-15.125c.02.066.031.129.035.195v.617l6.903-6.949h-.844zm-21.531 21.691c.097.2.18.387.27.582l3.144-3.172c-.09-.175-.196-.37-.293-.554zm-8.98 9.899l1.788-1.805v-.852l-2.632 2.657zM52.16 136.27l5.73-5.77v-.852l-5.73 5.77zM35.81 152.75l7.324-7.383c.054-.34.113-.66.156-1.008l-6.973 7.028c-.156.472-.336.914-.507 1.363zm23.523-24.55h.844l3.836-3.864v-.852zm-22.89 30.405l4.84-4.878c.128-.399.253-.805.366-1.22l-5.683 5.727c.156.125.312.246.476.371zm15.718-15.84l5.73-5.769v-.851l-5.73 5.77zm0 6.493l5.73-5.766v-.851l-5.73 5.77zm0 6.496l5.73-5.766v-.851l-5.73 5.77zm1.496 4.996l4.235-4.27v-.843l-5.086 5.12h.851zm12.207-39.137a.94.94 0 00-.902-.707H46.039v-8.648a173.02 173.02 0 004.168-.848c.348-.074.723-.152 1.066-.23 2.786-.621 5.286-1.27 7.551-1.957.41-.125.82-.25 1.215-.38a61.788 61.788 0 004.094-1.468c.3-.121.515-.39.574-.707a.945.945 0 00-.277-.879l-.692-.672-.433-.418-2.86-2.758-.433-.414-1.57-1.507a.936.936 0 00-1.06-.18c-.655.312-1.425.625-2.234.937-.433.168-.875.336-1.343.504-2.27.809-4.965 1.602-7.922 2.344l-1.113.27c-2.258.539-4.637 1.054-7.094 1.507-.008 0-.012.004-.016.008a.925.925 0 00-.68.68 1.01 1.01 0 00-.09.258v23.605c0 .453-.015.918-.015 1.375 0 .29-.008.574-.008.863a122.137 122.137 0 01-.191 5.84c-.024.305-.047.61-.078.918a56.82 56.82 0 01-.844 6.496c-.059.34-.102.692-.18 1.032l-.156.164-.305-.543a72.454 72.454 0 00-2.078-3.559c-.101-.176-.215-.344-.328-.523-.328-.524-.648-1.063-.977-1.555h2.825a.955.955 0 00.953-.961v-6.633c-.004-.047-.016-.09-.028-.137a.945.945 0 00-.925-.82h-9.246v-3.187h10.296c.254 0 .5-.102.68-.282a.97.97 0 00.278-.68v-6.491a.947.947 0 00-.82-.934c-.048-.012-.09-.023-.138-.027H30.25c.234-.516.457-1.075.68-1.621.195-.481.39-.954.59-1.442.25-.629.496-1.262.742-1.89l.351-.895a.974.974 0 00.059-.45h1.95c.042-.007.089-.015.132-.03a.924.924 0 00.793-.793.893.893 0 00.027-.141v-6.43a.95.95 0 00-.953-.96h-8.746a42.72 42.72 0 00-.371-.985c-.078-.2-.16-.399-.242-.61a122.667 122.667 0 00-1.68-3.953c-.09-.195-.172-.386-.262-.586-.066-.16-.133-.3-.199-.464a.959.959 0 00-1.098-.536l-4.378 1.075-1.118.273-2.34.574a.943.943 0 00-.624.504.942.942 0 00-.024.801c.113.281.207.54.32.813.082.203.164.402.246.601.344.867.665 1.711.942 2.492h-9.91a.961.961 0 00-.953.961v6.43a.401.401 0 00.02.094.95.95 0 00.933.87h2.605a.934.934 0 00-.004.712c.043.117.086.25.133.367.074.207.149.41.215.625.496 1.441.914 2.91 1.25 4.398l-.203.196h-4.98c-.255 0-.5.101-.676.28a.971.971 0 00-.282.68v6.497a.964.964 0 00.957.96h11.68v3.184H4.547a.943.943 0 00-.676.285.935.935 0 00-.277.676v6.633a.788.788 0 00.035.191.952.952 0 00.918.77h11.285v2.222a.952.952 0 00-.426-.261l-1.238-.356-.66-.191-4.09-1.18c-.105-.023-.211-.031-.316-.023a.955.955 0 00-.856.64c-.039.118-.082.235-.121.352a46.367 46.367 0 01-5.543 11.129c-.023.05-.047.105-.066.16a.958.958 0 00-.09.598.925.925 0 00.105.238c.074.16.196.297.344.394.77.454 1.89 1.196 2.941 1.942.164.121.329.238.493.355.605.434 1.175.86 1.578 1.196a.923.923 0 00.738.215.94.94 0 00.656-.407 59.147 59.147 0 004.75-8.781c.223-.504.442-1.008.649-1.512.422-.988.808-1.972 1.152-2.93v17.25a.954.954 0 00.957.962h7.563c.253 0 .5-.102.68-.282a.97.97 0 00.277-.68v-16.687a86.225 86.225 0 011.664 2.973c.105.183.203.367.3.554a76.25 76.25 0 011.88 3.743c.105.21.171.386.261.59.203.44.41.906.57 1.296.102.262.32.465.59.555.266.09.559.055.797-.098l2.317-1.445a23.537 23.537 0 01-.958 1.996 22.018 22.018 0 01-.949 1.621 1.07 1.07 0 00-.117.305.937.937 0 00.508 1.09c.851.46 1.664.996 2.426 1.597.156.122.32.243.476.372a28.05 28.05 0 012.871 2.535c.04.031.082.062.125.09.16.128.36.203.567.207H38.719a.96.96 0 00.71-.426c.141-.219.262-.473.403-.7.395-.652.8-1.304 1.156-2.019A39.8 39.8 0 0043.992 151c.09-.375.188-.738.27-1.129.449-2.07.789-4.324 1.066-6.719.04-.316.074-.632.113-.957.204-1.945.36-3.957.457-6.11.012-.296.028-.589.043-.89.059-1.632.098-3.316.098-5.07h4.211v31.594a.948.948 0 00.695.906c.082.031.172.05.262.055h7.633a.955.955 0 00.953-.961V130.12h5.168a.958.958 0 00.95-.96v-7.294a.94.94 0 00-.048-.254zM10.707 151.2c-.305.602-.61 1.215-.926 1.785a56.298 56.298 0 01-1.508 2.555c-.18-.137-.402-.289-.597-.43-.164-.12-.328-.238-.492-.355a54.726 54.726 0 00-2.465-1.68 40.096 40.096 0 002.086-3.59c.297-.57.597-1.136.879-1.734a52.79 52.79 0 002.07-4.953l2.219.637.656.187 1.27.367a67.404 67.404 0 01-3.192 7.211zm-4.613-39.113v-4.508H16.39a.957.957 0 00.777-.398.98.98 0 00.14-.75.596.596 0 00-.011-.118c-.055-.167-.129-.359-.188-.53a78.045 78.045 0 00-1.39-3.735l5.988-1.469c.063.14.113.262.172.399.09.203.172.39.254.585a85.674 85.674 0 011.66 3.981c.082.219.156.414.23.617.098.262.204.535.286.778.132.382.496.64.902.64h8.453v4.512H6.094zm11.71 6.832a13.35 13.35 0 00-.16-.691 35.493 35.493 0 00-1.335-4.22h7.043a78.154 78.154 0 01-2.204 6.302H17.93a.964.964 0 00.058-.536c-.05-.265-.117-.562-.183-.855zm-1.866.34l-3.883 1.086a.92.92 0 00-.614.539 50.083 50.083 0 00-.359-1.684c-.05-.222-.113-.449-.172-.68a41.031 41.031 0 00-1.023-3.464l4.355-1.07c.11.265.223.558.336.843.074.207.156.406.23.617.454 1.246.829 2.52 1.13 3.813zm8.414 19.285c-.098 0-.2.023-.29.059a.914.914 0 00-.597.597.862.862 0 00-.063.301v21.05h-5.668v-21.046a.948.948 0 00-.32-.711.943.943 0 00-.598-.246c-.007 0-.023-.004-.027-.004H5.504v-4.711h11.285a.954.954 0 00.945-.96v-5.106a.954.954 0 00-.945-.961H5.102v-4.575h16.687c.387 0 .73-.234.875-.593.246-.578.492-1.211.73-1.86.172-.441.333-.89.497-1.347.632-1.774 1.23-3.586 1.617-5.028.12.301.387.524.703.586l1.742.348.707.14 1.754.348c-.828 2.121-1.68 4.293-2.508 6.024a.14.14 0 00-.008.043.97.97 0 00.032.812c.015.024.015.05.03.074a.94.94 0 00.806.45h5.89v4.574H24.352a.958.958 0 00-.95.96v5.106c0 .528.422.957.95.961h9.253v4.711h-9.253zm1.316 4.082l-.36.191v-2.351h4.344l-2.156 1.168zm5.645 9.59c-.137-.305-.301-.653-.458-.98-.09-.192-.171-.38-.27-.579a88.758 88.758 0 00-1.901-3.722c-.106-.184-.204-.371-.301-.555a130.21 130.21 0 00-1.313-2.332l3.489-1.89c.261.405.523.827.777 1.25.11.171.223.343.328.523a72.258 72.258 0 012.047 3.582c.094.183.2.375.297.554.351.68.664 1.325.918 1.895zm32.69-28.73v4.71H58.84a.962.962 0 00-.957.961v31.594H52.16v-31.59a.673.673 0 00-.043-.195.936.936 0 00-.91-.766h-6.125a.958.958 0 00-.95.961v.797c0 .195-.01.371-.01.57 0 .297-.009.57-.017.864a118.708 118.708 0 01-.187 5.832c-.016.3-.031.605-.05.902a88.805 88.805 0 01-.587 6.234c-.043.348-.101.668-.156 1.008a56.373 56.373 0 01-1.484 7.14c-.114.415-.239.821-.36 1.22a31.489 31.489 0 01-2.828 6.601 39.215 39.215 0 00-2.02-1.723c-.156-.125-.312-.246-.476-.375a25.634 25.634 0 00-2.039-1.44 26.166 26.166 0 001.883-4.04c.172-.45.351-.895.508-1.363.043-.133.105-.254.14-.395.074-.226.219-.957.27-1.144.539-1.891.949-3.813 1.23-5.758.055-.332.106-.664.153-1 .273-2.047.445-4.121.543-6.2l.046-.886c.075-1.934.102-3.86.102-5.758 0-.098.008-.195.008-.293v-22.805c1.168-.226 2.308-.46 3.437-.703.364-.078.723-.16 1.082-.242a113.391 113.391 0 007.543-1.953c.403-.121.813-.242 1.203-.367a53.734 53.734 0 005.524-2.028l1.07 1.032.434.414 2.867 2.758-.145.144a78.88 78.88 0 01-7.972 2.39 144.164 144.164 0 01-8.215 1.777c-.238.048-.473.095-.719.138a.967.967 0 00-.777.949v10.406c0 .528.422.957.949.961h18.922zm0 0M144.031 109.668h-.8l-7.141 7.008h.808zm-1.004 7.008l7.133-7.008h-.805l-7.132 7.008zm.516 5.511l12.75-12.519h-.809l-11.941 11.734zm11.742-5.511l4.024-3.957v-.785l-4.825 4.742zm-4.355 3.492l-7.387 7.254v.789l7.387-7.254zm17.722-17.41l-3.257 3.195c-.098.375-.215.738-.32 1.106l4.241-4.164zM150.93 126.19l-7.387 7.25v.79l7.387-7.254zm22.672-22.273l-11.239 11.039c-.18.445-.367.89-.554 1.328l11.496-11.289c.093-.36.199-.723.297-1.078zm-32.329 32.543v-.79l-3.753 3.688c.335-.07.683-.144 1.027-.218zm2.27 3.793l7.387-7.25v-.793l-7.387 7.254zm-1.14.336l-6.723 6.601.148.645 7.606-7.469zm11.663-11.461l.516.281 16.406-16.117h-.164c.106-.297.196-.613.29-.914zm14.63-8.352L157.8 131.48c.156.11.32.22.469.329l10.59-10.403c-.051-.21-.114-.414-.165-.629zm-17.766 17.965v-.508l-10.707 10.516c.363-.098.73-.195 1.105-.297l9.969-9.797zm19.05-18.441l7.137-7.008h-.804l-7.133 7.008zm-11.792 16.816l-9.528 9.367c.367-.097.73-.195 1.106-.297l9.468-9.304zm11.988-10.98c-.063-.203-.137-.395-.196-.602l-5.66 5.563.2.59zm5.933-5.832l7.133-7.008h-.797l-7.132 7.008zm-4.336 10.28c-.074-.187-.16-.374-.234-.562l-5.562 5.47c.074.187.148.382.222.566zm-13.57 13.333l2.36-2.32-.083-.707-3.382 3.324 1.105-.3zm22.215-21.82l8.957-8.801h-.8l-7.915 7.773c-.078.352-.164.68-.242 1.024zm-2.043 7.242c-.172.46-.375.879-.555 1.332l15.407-15.137v-.789zm-4.715 5.41c-.082-.176-.18-.348-.27-.523l-5.523 5.433c.09.176.18.352.27.524zm-18.39 17.285l-2.504 2.461c.105.152.21.313.316.477l3.484-3.43c-.425.168-.855.332-1.296.492zm31.78-25.2l-32.027 31.462c.094.187.18.36.262.535l31.414-30.863c.113-.383.238-.746.352-1.133zm-3.597 9.556l-21.277 20.898a53.4 53.4 0 001.574-.75l18.918-18.59c.27-.512.531-1.031.785-1.562zm-2.547 8.523l-5.617 5.52c.133.132.27.265.395.398l5.625-5.52c-.133-.136-.27-.269-.403-.402zm3.239 2.84l-5.735 5.633c.149.12.3.234.442.355l5.742-5.637c-.156-.117-.297-.234-.45-.351zm3.617 2.469l-5.887 5.78c.156.106.328.204.492.306l5.895-5.79-.5-.296zm-2.063 8.043c.18.093.367.172.547.257l6.106-6.003-.559-.239zm9.387-7.114c-.32-.109-.613-.261-.918-.379-.195-.074-.383-.156-.566-.234a33.177 33.177 0 01-3.594-1.703l-.516-.281a33.9 33.9 0 01-3.203-2.094c-.148-.117-.305-.219-.46-.336a33.816 33.816 0 01-2.84-2.445c-.134-.13-.278-.243-.419-.38-.074-.077-.164-.144-.246-.222a50.724 50.724 0 004.93-9.61c.164-.405.312-.827.469-1.245a75.078 75.078 0 002.316-7.508c.082-.34.172-.688.254-1.035.098-.407.2-.801.297-1.215h2.726a2.247 2.247 0 002.27-2.227v-7.008a2.041 2.041 0 00-.133-.648 2.241 2.241 0 00-2.137-1.582h-19.28c.097-.305.187-.637.276-.945.11-.368.223-.739.329-1.114.441-1.507.879-3.058 1.297-4.699a2.15 2.15 0 00-.231-1.582c-.012-.05-.031-.097-.05-.144a1.938 1.938 0 00-.294-.301 2.247 2.247 0 00-1.172-.695l-2.859-.575-.664-.136-3.8-.762a2.27 2.27 0 00-.458-.047c-.101.008-.2.027-.297.05-.93.11-1.691.782-1.914 1.688-.015.086-.043.164-.058.25a89.041 89.041 0 01-2.024 7.223c-.129.371-.23.77-.36 1.14l-.081.079v-.82a2.248 2.248 0 00-2.27-2.231h-23.719a2.249 2.249 0 00-2.261 2.23v7.008c.008.711.367 1.375.957 1.774.152.117.32.218.5.296.254.102.527.157.804.16h5.684v19.65l-2.726.589-1.032.219a282.27 282.27 0 01-3.433.703 2.274 2.274 0 00-1.457.972 2.183 2.183 0 00-.305 1.704l.32 1.406.149.644.996 4.262.148.64.133.606c.14.598.52 1.11 1.047 1.418a2.364 2.364 0 001.77.242l.097-.027 1.106-.3c2.27-.61 4.734-1.27 7.332-1.966.359-.097.738-.199 1.105-.3l7.332-1.973c.367-.102.742-.2 1.106-.3 2.144-.575 4.289-1.153 6.386-1.72a2.227 2.227 0 001.649-2.398l-.387-3.395-.082-.71-.277-2.415a2.255 2.255 0 00-.54-1.207c.169-.12.32-.265.45-.425.238-.305.484-.621.73-.946.434 1.153.883 2.25 1.34 3.32l.246.551a58.09 58.09 0 001.696 3.563c.09.176.183.348.273.52.18.328.344.667.523.988a33.188 33.188 0 01-5.523 3.93c-.586.331-1.176.656-1.793.964a50.543 50.543 0 01-8.516 3.336 2.16 2.16 0 00-.363.164c-.422.207-.762.54-.98.953a3.288 3.288 0 00-.164.36c-.215.71-.067 1.48.402 2.054.39.485.754.993 1.094 1.516.101.156.207.316.312.48a31.382 31.382 0 011.883 3.383c.094.203.172.387.238.555.016.04.031.078.043.117a2.273 2.273 0 002.137 1.48 2.3 2.3 0 00.746-.124c.516-.176.98-.383 1.48-.57.446-.16.88-.337 1.32-.508a54.881 54.881 0 0011.247-5.813 46.26 46.26 0 003.457-2.61c.016-.015.039-.027.055-.038.87.898 1.797 1.73 2.73 2.53.145.126.277.263.418.384.973.804 1.988 1.55 3.027 2.261.157.11.305.223.461.332 1.07.707 2.176 1.36 3.317 1.977.172.094.351.184.523.277a45.5 45.5 0 003.606 1.688c.03.012.058.027.09.043.183.058.37.094.562.11.102.027.207.046.313.062.808 0 1.558-.426 1.968-1.121a34.22 34.22 0 012.594-3.735 18.29 18.29 0 012.074-2.289 2.344 2.344 0 00.727-2.09 2.25 2.25 0 00-1.465-1.672zm-38.004-30.191a37.236 37.236 0 01-3.793 5.57v-7.687h4.93c-.074.156-.164.297-.239.445-.3.57-.59 1.133-.898 1.672zm3.578 20.578l.188 1.633-2.547.683c-.375.098-.738.2-1.106.297-2.449.66-4.914 1.325-7.34 1.977l-1.105.297c-2.531.683-5.004 1.347-7.328 1.972-.379.102-.738.196-1.11.297-1.359.368-2.699.727-3.93 1.059l-.464-1.977-.148-.64-.985-4.262-.148-.645.05-.05c.32-.063.672-.137 1.008-.203 2-.407 4.309-.899 6.797-1.442l1.031-.222a1.27 1.27 0 01.118-.028v-23.672h-7.953v-7.008h23.718v7.008h-8.386v22.067l.375-.082 6.89-1.54 1.04-.234.769-.172.484 4.176zm-3.922-8.191c.68.488 1.34.972 1.817 1.363l-4.153.93-1.039.234-.074.016v-4.754a34.722 34.722 0 012.98 1.879c.165.113.313.218.47.332zm29.598 25.117c-.172-.09-.367-.168-.54-.262a39.977 39.977 0 01-3.339-1.953c-.156-.105-.328-.203-.484-.309a38.29 38.29 0 01-3.024-2.261c-.148-.121-.3-.235-.441-.356a37.561 37.561 0 01-2.727-2.558c-.133-.133-.27-.262-.394-.399-.36-.375-.746-.722-1.09-1.113a45.216 45.216 0 01-10.457 7.219c-.508.261-1.035.504-1.567.754a62.809 62.809 0 01-6.437 2.601 10.61 10.61 0 00-.457-1.062 11.066 11.066 0 00-.262-.532 34.815 34.815 0 00-1.941-3.324c-.102-.164-.215-.324-.32-.476a20.43 20.43 0 00-.954-1.309 61.02 61.02 0 004.762-1.645 38.03 38.03 0 0013.258-8.308 48.78 48.78 0 01-1.695-3.047c-.09-.176-.18-.352-.262-.523a59.574 59.574 0 01-1.668-3.602l-.223-.57c-.515-1.23-1-2.5-1.457-3.801-.074-.195-.133-.395-.199-.59-.254-.726-.516-1.441-.754-2.191a51.118 51.118 0 01-3.191 4.55c-.508-.453-1.27-1.043-2.106-1.644l-.469-.332a40.546 40.546 0 00-3.218-2.067c-.188-.101-.36-.199-.524-.28-.023-.012-.047-.028-.066-.04 3.047-3.289 5.66-7.773 7.816-12.805.188-.44.367-.882.555-1.332a82.504 82.504 0 002.71-7.894c.102-.371.216-.734.321-1.106.328-1.214.64-2.437.918-3.664l2.328.47.668.136 4.328.87-.043.15c-.09.359-.195.718-.293 1.078a118.27 118.27 0 01-2.187 7.382c-.106.301-.188.618-.29.918h22.395v7.008h-4.562a87.25 87.25 0 01-1.613 6.531c-.114.387-.23.754-.352 1.133a58.597 58.597 0 01-3.242 8.418c-.254.531-.512 1.05-.781 1.563a43.928 43.928 0 01-3.34 5.406c.5.547 1.054 1.039 1.578 1.555.133.132.266.27.402.398.899.863 1.844 1.68 2.828 2.445.153.118.301.235.45.348a34.544 34.544 0 003.175 2.121c.164.098.328.2.5.297 1.141.652 2.32 1.242 3.532 1.762.187.082.37.16.558.238.63.258 1.211.562 1.867.793a31.972 31.972 0 00-5.129 6.582c-1-.422-1.921-.906-2.851-1.371zm-5.586-37.453c.059-.266.125-.504.176-.77h-12.262c.04.16.09.313.129.477.043.215.105.414.156.629.344 1.406.711 2.785 1.121 4.132.067.2.133.391.2.598a61.488 61.488 0 001.367 3.887c.074.187.156.375.23.558a61.911 61.911 0 001.621 3.645l.27.523c.367.72.71 1.457 1.105 2.149a39.806 39.806 0 003.047-6.23c.18-.45.387-.868.555-1.333a58.108 58.108 0 002.043-7.242c.082-.347.164-.676.242-1.027zm-5.836 10.96c-.469-1.015-.871-2.1-1.281-3.179-.074-.191-.156-.371-.235-.563a66.117 66.117 0 01-1.296-3.957c-.063-.203-.13-.398-.188-.605-.121-.406-.262-.785-.375-1.195h6.582c-.121.52-.262 1.007-.39 1.511-.098.352-.188.715-.282 1.059a46.395 46.395 0 01-2.535 6.93zm0 0M54.902 36.145a109.933 109.933 0 01-5.937 17.421l6.527 1.848a186.485 186.485 0 007.117-17.488zm-26.89 23.89c-1.188-1.453-6.856-7.656-8.438-9.176v-.855h7.711v-6.73c1.711 4.355 3.43 8.972 4.281 12.078l6.266-2.97c-1.324-4.093-4.289-10.956-6.527-16.1l-5.864 2.44 1.645 4.09h-7.512v-9.57a71.698 71.698 0 008.7-2.441l-5.012-6.27c-5.465 2.242-14.032 4.223-21.746 5.477a29.48 29.48 0 012.105 6.008 145.4 145.4 0 008.371-1.254v8.05H1.582v7.192h8.77C7.84 56.406 3.89 63.53 0 67.754a40.946 40.946 0 013.89 7.988c2.965-3.566 5.735-8.844 8.102-14.453v24.547h7.582V59.309a58.205 58.205 0 014.082 7.125zm11.664-35.703c-.067 26.594.793 44.809-16.54 54.906a21.698 21.698 0 015.598 6.399c7.977-4.95 12.594-11.68 15.227-19.864 2.832 8.45 7.05 15.114 13.703 19.536a26.47 26.47 0 015.215-6.47c-9.426-5.476-13.711-16.89-15.816-30.75.523-7.19.59-15.112.59-23.757zm114.777 7.918v3.367h-10.348V32.25zm-10.348 12.078v-3.562h10.348v3.562zm17.727 5.676V26.64h-25.375V85.77h7.648V50.004zm-1.05 14.516v-4.95h6.128v4.95zm20.234 6.402V64.52h-7.25v-4.95h6.191v-6.203h-31.828v6.203h5.996v4.95h-6.922v6.402h6.652a15.437 15.437 0 01-6.718 10.293 29.866 29.866 0 015.011 4.484c5.598-3.824 7.774-10.226 8.438-14.781h6.324v13.594h6.856v-13.59zm-7.383-26.461v-3.695h10.676v3.695zm10.676-12.211v3.367h-10.676V32.25zm7.714-5.605h-25.835v23.488h18.12v26.394c0 .926-.328 1.32-1.378 1.32-.993.067-4.22.067-7.184-.066a28.013 28.013 0 012.367 7.785c5.008 0 8.438-.195 10.813-1.515 2.375-1.254 3.097-3.43 3.097-7.457V26.64zm24.95 24.878l14.168-3.101-.262-4.027-2.309.332 1.653-3.434a64.526 64.526 0 00-11.075-2.902l-1.914 3.562a78.777 78.777 0 0110.22 2.969c-4.618.66-8.837 1.254-12.13 1.719v-8.32h17.266v12.933h7.715V38.32h13.441a83.64 83.64 0 01-10.875 3.563l1.45 2.375-1.383-.196-1.32 3.891c5.16.82 10.25 2.031 15.226 3.633l1.254-4.293a94.19 94.19 0 00-11.008-2.637 55.996 55.996 0 009.492-2.773l-2.566-3.563h3.882v8.578h7.973V33.77h-25.566v-2.704h22.207v-4.75h-51.535v4.75h21.613v2.707h-24.848v13.133h7.516zm26.226 19.664a48.212 48.212 0 006.73-3.234 41.957 41.957 0 007.446 3.234zm2.309 8.512v-3.96h8.969v3.96zm-12.524-11.347h-7.511v-3.04h7.316v-5.015a18.412 18.412 0 013.625 3.496 31.338 31.338 0 004.547-2.969 27.205 27.205 0 003.687 3.567 55.577 55.577 0 01-11.664 4.09v-.133zM216.973 57h9.293v3.496h-9.293zm37.562.46a25.879 25.879 0 01-4.808 3.966 24.417 24.417 0 01-4.942-3.965zm4.945-4.882l-1.054.266h-9.75c.433-.614.828-1.254 1.187-1.914l-5.804-.992c-2.047 3.5-5.864 7.062-11.27 9.835v-7.59h-22.082v13.13h8.238v13.132l-3.226.262V67.031h-5.735V79.11l-2.964.196.656 6.007c7.254-.593 17.402-1.519 27.027-2.44l-.066-5.61c-3.035.265-6.133.527-9.164.726v-4.422h7.511V70.07a21.764 21.764 0 012.309 3.696c1.187-.332 2.441-.66 3.687-1.121v13.128h6.528v-1.32h8.969v1.188h6.847V72.309c.992.195 1.98.394 3.031.593a22.728 22.728 0 013.891-5.41 55.976 55.976 0 01-12.785-3.234 31.61 31.61 0 008.105-9.438zm0 0M109.992 35.484c.25-.3.309-.722.145-1.078a1.02 1.02 0 00-.914-.59H90.082c-.289 0-.562.125-.754.34l-1.121 1.262c-.336.387-.336.96 0 1.348.613.695 1.27 1.375 1.941 2.043.063.058.114.12.172.183A47.31 47.31 0 0093.81 42l.203.156a48.084 48.084 0 003.793 2.696c.043.027.082.058.12.082.04.015.079.027.118.035.129.07.273.113.418.125.191-.004.375-.055.539-.157a45.856 45.856 0 0010.992-9.453zM98.47 42.875a46.084 46.084 0 01-3.024-2.16l-.203-.156a42.436 42.436 0 01-3.472-3.012c-.067-.063-.118-.121-.18-.18l1.515-1.52h13.684l-3.203 3.212a47.301 47.301 0 01-5.117 3.816zm33.836 11.36a1.003 1.003 0 00-.828-.66c-.286-.036-.555-.09-.836-.13-.106-.011-.211-.03-.313-.047-1.914-.253-3.789-.535-5.61-.875-.105-.02-.195-.043-.292-.062a99.863 99.863 0 01-5.348-1.145c-.094-.023-.183-.054-.273-.074a82.334 82.334 0 01-5.07-1.422c-.09-.027-.172-.062-.262-.093a74.736 74.736 0 01-4.79-1.7l.165-.172a51 51 0 008.672-8.69c.343-.442.656-.9.984-1.349a46.495 46.495 0 004.2-6.808c.23-.485.05-1.067-.419-1.332l-1.375-.774-.23-.129-4.125-2.316a.063.063 0 00-.035-.012 1.048 1.048 0 00-.262-.093.937.937 0 00-.442 0l-1.148.32H97.289c.457-.692.89-1.383 1.313-2.063l.718-1.136a.936.936 0 00.14-.512.9.9 0 00-.042-.305.704.704 0 00-.023-.125 1.01 1.01 0 00-.723-.597l-4.145-.875-.293-.063-4.504-.953a1.01 1.01 0 00-1.097.508c-4.496 8.304-12 16.105-20.586 21.402-.285.176-.465.48-.48.813a1.02 1.02 0 00.398.859 17.306 17.306 0 011.918 1.79l.172.183a25.472 25.472 0 012.843 3.648c.051.07.098.149.137.223.059.093.125.195.172.285.14.25.379.43.656.496a1 1 0 00.813-.156 87.638 87.638 0 009.379-7.477c.343.403.75.797 1.113 1.192.062.062.113.125.172.187 1 1.063 2.086 2.129 3.293 3.195.07.059.129.114.187.172.157.13.278.258.434.39-.442.2-.926.368-1.383.56-.191.082-.394.16-.59.242a83.212 83.212 0 01-9.84 3.363c-.156.043-.324.078-.48.121-2.672.719-5.45 1.336-8.332 1.856-.149.027-.293.058-.442.085-.539.094-1.046.215-1.582.301-.359.055-.664.297-.793.637-.128.34-.066.727.165 1.008.039.043.074.105.113.152.05.063.105.137.156.203a25.641 25.641 0 012.399 4.102l.109.242c.43.902.793 1.832 1.086 2.79.148.507.66.815 1.18.706.32-.066.625-.144.945-.215.16-.031.308-.066.457-.101 3-.649 5.894-1.38 8.676-2.196.172-.05.336-.105.507-.156 2.375-.71 4.692-1.465 6.895-2.297l-2.055 3.95-.386.746-.434.836c-.14.277-.148.605-.023.886.125.285.375.492.671.57.993.247 2.055.528 3.168.82.09.024.188.052.278.075 1.617.438 3.328.918 5.07 1.422.094.027.184.055.273.078 1.676.48 3.344.977 5.012 1.48.098.028.18.055.278.083 1.71.523 3.355 1.039 4.941 1.546l.27.09c1.792.575 3.43 1.121 4.863 1.625l.261.094c.47.168.977.344 1.395.496a1 1 0 001.262-.516l2.406-5.058.32-.68.836-1.754a.99.99 0 00.024-.828 1.017 1.017 0 00-.614-.57c-.796-.274-1.722-.57-2.71-.879l-.278-.082a188.862 188.862 0 00-5.008-1.477c-.09-.027-.18-.05-.277-.078-1.645-.46-3.367-.926-5.11-1.383-.09-.027-.183-.05-.273-.074a336.788 336.788 0 00-5.176-1.316c-.097-.024-.195-.043-.293-.067-1.836-.449-3.613-.863-5.265-1.226l.344-.34c2.277-.98 4.46-2.02 6.52-3.133.651.38 1.323.735 1.995 1.098.082.039.156.082.23.125a65.073 65.073 0 004.383 2.11c.082.034.165.066.247.105a75.336 75.336 0 004.668 1.824c.09.031.171.062.261.094a82.412 82.412 0 004.946 1.547l.28.074c1.688.468 3.423.894 5.208 1.285.097.02.183.043.281.066 1.504.32 3.027.625 4.594.89.453.075.902-.163 1.09-.581a35.327 35.327 0 015.125-7.852c.261-.277.343-.683.207-1.043zM95.512 60.87l.293.07c1.695.407 3.433.84 5.187 1.293.098.024.188.051.285.075 1.73.449 3.457.91 5.121 1.37l.278.079c1.785.496 3.488.988 5.035 1.453l.273.082c.934.281 1.809.559 2.602.816l-2.676 5.621a173.44 173.44 0 00-4.734-1.609 313.555 313.555 0 00-5.203-1.648l-.27-.082a372.894 372.894 0 00-4.996-1.496c-.09-.028-.187-.055-.277-.082a361 361 0 00-5.055-1.43c-.09-.024-.188-.051-.285-.074-1.059-.29-2.098-.567-3.074-.82l2.468-4.762c1.555.328 3.266.726 5.028 1.144zm29.953.703c-.828-.148-1.645-.316-2.457-.48l-.293-.059a98.5 98.5 0 01-5.27-1.219 2.873 2.873 0 00-.277-.074 86.277 86.277 0 01-4.996-1.496l-.27-.09a70.2 70.2 0 01-4.71-1.773l-.247-.11a66.298 66.298 0 01-4.43-2.058c-.081-.043-.163-.078-.238-.121a54.47 54.47 0 01-2.941-1.645 1.02 1.02 0 00-1.008-.02c-.598.329-1.226.645-1.84.962-.246.129-.492.261-.746.39a87.222 87.222 0 01-11.027 4.559l-.531.18a112.155 112.155 0 01-9.09 2.609c-.156.039-.313.07-.461.105-1.04.246-2.078.489-3.145.715a24.949 24.949 0 00-1.218-2.84c-.036-.082-.075-.16-.11-.242a30.184 30.184 0 00-1.629-2.851 101.94 101.94 0 005.621-1.16c.153-.036.309-.06.45-.094a91.708 91.708 0 009.187-2.711l.543-.188c2.461-.86 4.875-1.84 7.238-2.945.313-.148.524-.45.567-.797a1.02 1.02 0 00-.367-.906 78.448 78.448 0 01-1.516-1.285c-.059-.059-.133-.114-.195-.164a47.194 47.194 0 01-3.305-3.192l-.172-.18a34.031 34.031 0 01-1.644-1.89 1.03 1.03 0 00-.723-.375 1.106 1.106 0 00-.762.277 79.459 79.459 0 01-7.918 6.563c-.379.281-.746.562-1.14.843l-.024-.03a29.55 29.55 0 00-2.89-3.61c-.051-.063-.114-.125-.165-.184a26.047 26.047 0 00-1.039-1.039 61.652 61.652 0 0019.778-20.758l2.468.524.293.062 4.016.852c-.723 1.144-1.453 2.316-2.27 3.488a.937.937 0 00-.164.582c.004.102.028.2.059.293.008.063.02.121.04.176.175.336.519.547.894.547l4.84-.008h.359l6.496-.012h.352l6.496-.011h.98l1.008-.254 3.27 1.843.23.13 1.023.577a47.375 47.375 0 01-14.402 16.489 1.016 1.016 0 00.191 1.754c.211.09.442.16.66.25.083.035.168.062.254.097 1.524.63 3.09 1.23 4.72 1.774.089.031.179.054.269.086a83.908 83.908 0 004.988 1.5c.094.023.191.043.29.066 1.71.45 3.472.852 5.272 1.215.098.023.196.047.29.066 1.8.36 3.66.66 5.55.938.106.015.2.035.305.05.188.028.367.067.555.094a40.412 40.412 0 00-3.922 6.215zm-6.578 17.38a1.023 1.023 0 00-.211-.15.762.762 0 00-.18-.109 103.227 103.227 0 00-4.68-1.52 180.459 180.459 0 00-5.324-1.52l-.285-.073a298.02 298.02 0 00-5.16-1.324l-.285-.07c-1.739-.426-3.5-.84-5.258-1.239l-.29-.066a308.8 308.8 0 00-5.323-1.156c-.106-.024-.204-.043-.301-.063-1.867-.387-3.68-.746-5.414-1.07l-.297-.059c-1.719-.32-3.352-.61-4.856-.847a.977.977 0 00-1.05.527l-3.496 6.656a1.048 1.048 0 00-.016.91c.137.29.402.496.719.559.246.05.507.105.761.156l.297.063c1.703.351 3.489.738 5.325 1.16.097.023.187.047.292.066a343.208 343.208 0 0110.68 2.649c.094.027.184.05.281.078a311.232 311.232 0 0110.387 2.945l.27.082c1.77.54 3.43 1.066 4.922 1.57l.27.09a93.8 93.8 0 013.292 1.176 1.022 1.022 0 001.27-.496l3.84-7.777a1.014 1.014 0 00-.18-1.149zm-5.07 7.198c-.493-.18-1.016-.367-1.555-.554l-.27-.094a163.592 163.592 0 00-4.89-1.598l-.27-.086a262.504 262.504 0 00-4.996-1.488c-.098-.027-.188-.055-.281-.082a374.446 374.446 0 00-5.07-1.406c-.098-.028-.196-.051-.286-.078a429.346 429.346 0 00-5.152-1.34c-.09-.024-.188-.047-.285-.074a335.98 335.98 0 00-5.219-1.27l-.293-.066a213.35 213.35 0 00-5.3-1.184l-.294-.062c-.254-.051-.508-.11-.754-.16l2.52-4.81a163.852 163.852 0 013.016.532c1.726.313 3.546.66 5.445 1.043l.289.063c1.75.355 3.539.738 5.348 1.14l.293.067c1.753.39 3.523.796 5.269 1.218l.285.07c1.762.426 3.5.86 5.188 1.305l.277.075c1.77.464 3.473.937 5.078 1.41.098.023.188.05.278.078 1.628.48 3.167.957 4.554 1.426l-.508 1.02-.343.706zm-6.754-36.761c-.043-.012-.083-.032-.126-.047l-.074-.032-4.8 4.813.156.082c.035.02.082.04.117.059a.692.692 0 01.121.058l.082.04 4.695-4.712.137-.132-.172-.075c-.047-.02-.09-.035-.136-.054zm.16 7.136l5-5.02.152-.144-.195-.066c-.051-.016-.098-.027-.14-.043-.048-.016-.09-.024-.138-.04l-.074-.023-5.105 5.125zm10.222-3.664l-.148-.035-.145-.031-.066-.02-5.273 5.285-.141.145.539.18 5.45-5.469zm5.785 1.328l-.23-.046a1.633 1.633 0 00-.133-.032c-.047-.011-.105-.027-.156-.035l-.07-.016-5.72 5.743.56.148 5.585-5.598zm5.618.938l-.141-.024c-.047-.011-.105-.02-.156-.03l-.07-.005-5.852 5.875-.172.168.598.121 5.867-5.89.18-.18zm-35.942-32.27l.164-.164-.59-.129-21.253 21.325-.09.086.343.375zm-18.55 25.125l.113-.074c.27-.191.515-.383.77-.57l.386-.29 18.922-18.972.047-.082-.024-.074a1.008 1.008 0 01-.05-.235v-.3L74.215 47.754zm26.324-19.199l.215-.215h-.715l-5.137 5.153-.219.218h.719zM90.41 38.898c-.027-.027-.05-.058-.082-.086-.027-.03-.058-.062-.09-.093l-.09-.09-3.656 3.668-.09.09.352.367 3.656-3.676.098-.09zM74.574 54.633l-.219.047a2.41 2.41 0 00-.23.047l-.031.007-4.024 4.04-.066.062.035.082c.031.055.055.105.082.156l.113.246 4.778-4.793zm10.25-3.086l-.535.191-.277.098c-.098.031-.172.059-.262.09l-9.207 9.215-.32.32.437-.106c.078-.02.153-.035.227-.054.074-.016.156-.035.238-.055l.031-.008 9.266-9.293zM94.2 42.14l-.398-.313-3.926 3.938.387.328zm13.328-13.368l.215-.214h-.707l-5.152 5.164-.219.218h.719zM98.262 44.93l-.164-.075a.35.35 0 00-.106-.027c-.023-.012-.043-.027-.062-.043l-.14-.09-13.696 13.73-.38.38.684-.227c.122-.039.243-.078.36-.121l13.375-13.398zm16.12-16.168l.216-.215h-.715l-5.16 5.176-.22.218h.72zM95.806 53.89c.148-.075.297-.157.445-.235l.3-.156 23.083-23.14-.465-.255-24.059 24.133zM91 65.215l-.148.148.562.157 4.48-4.497.165-.16-.586-.136zM79.566 76.684l-.164.168.59.125 4.715-4.727-.613-.105zm21.457-14.57l-.066-.016-4.617 4.625-.149.148.551.164 4.625-4.637.156-.156-.246-.062c-.082-.028-.172-.047-.254-.067zM85.168 77.93l-.164.16.582.137 4.676-4.696.164-.164-.59-.125zm10.312-3.485l-4.808 4.817-.125.164.215.058c.09.024.172.043.261.063l.067.016 4.808-4.825.168-.16zm6.461-5.855l.067.023 4.758-4.77.156-.156-.215-.058c-.09-.024-.18-.047-.277-.074l-.067-.024-4.75 4.766-.148.144.191.067c.098.027.188.058.285.082zm-.351 7.27l-.215-.051c-.09-.02-.172-.043-.262-.067l-.066-.015-5.094 5.105.567.152 4.937-4.96zm10.484-10.481l.149-.149-.2-.058-.277-.082-.066-.024-4.864 4.875-.148.149.539.176zm-4.996 11.871l-.566-.152-5.047 5.062-.153.149.211.062c.09.027.188.055.278.078l.074.02 5.047-5.067zm4.805 1.332l-5.14 5.148-.15.149.548.176 5.285-5.309zm.41 7.16l3.68-3.695.718-1.43-4.93 4.942zm0 0M34.352 11.336a4.83 4.83 0 003.972-2.027l-1.5-1.09a2.882 2.882 0 01-2.422 1.261 3.197 3.197 0 01-3.039-3.203 3.197 3.197 0 013.055-3.191 2.864 2.864 0 012.406 1.262l1.5-1.094a4.855 4.855 0 00-3.972-2.027A5.053 5.053 0 0029.41 6.28a5.053 5.053 0 004.942 5.055zm10.992-5.91a2.518 2.518 0 00-2.137-1.047c-1.895 0-3.227 1.43-3.227 3.484 0 2.059 1.36 3.477 3.184 3.477a2.608 2.608 0 002.18-1.121v.949h1.86V4.547h-1.86zm-1.77 4.18a1.719 1.719 0 01-1.695-1.743 1.709 1.709 0 011.68-1.758 1.752 1.752 0 01.015 3.504zm14.082-5.231a2.5 2.5 0 00-2.207 1.3 2.22 2.22 0 00-2.12-1.3 1.842 1.842 0 00-1.868 1.457V4.547H49.6v6.621h1.86V7.68c0-1.192.68-1.559 1.344-1.559.62 0 1.156.453 1.156 1.5v3.547h1.86V7.906c0-1.234.507-1.8 1.3-1.785.649 0 1.188.438 1.188 1.473v3.574h1.875V7.535c0-1.984-.868-3.16-2.528-3.16zm8.934 0c-.82-.02-1.602.34-2.121.977v-.809h-1.852v9.871h1.852v-4.07a2.628 2.628 0 002.12.992 3.485 3.485 0 003.263-3.48 3.485 3.485 0 00-3.262-3.481zm-.352 5.23a1.75 1.75 0 010-3.5 1.753 1.753 0 010 3.504zm6.52-6.222c.305.008.601-.106.824-.317.219-.21.348-.5.356-.804a1.18 1.18 0 00-1.176-1.106 1.18 1.18 0 00-1.176 1.106 1.15 1.15 0 001.172 1.12zm.933 7.785V4.547H71.84v6.621zm6.48-6.793a2.14 2.14 0 00-1.984 1.29V4.542h-1.851v6.621h1.852V7.691a1.405 1.405 0 011.484-1.558 1.31 1.31 0 011.262 1.5v3.531h1.851V7.535c.016-1.984-.887-3.16-2.613-3.16zm9.884.965a2.707 2.707 0 00-2.121-.965 3.488 3.488 0 00-3.246 3.48 3.485 3.485 0 003.246 3.48 2.743 2.743 0 002.12-.976v.184c0 1.715-.75 2.383-1.937 2.383a1.884 1.884 0 01-1.672-1.035l-1.547.664a3.503 3.503 0 003.22 2.027c2.331 0 3.796-1.344 3.796-4.238V4.547h-1.86zM88.28 9.605a1.74 1.74 0 01-1.707-1.757 1.718 1.718 0 011.707-1.743c.969 0 1.75.786 1.75 1.75a1.75 1.75 0 01-1.75 1.754zm10.973-6.222a1.14 1.14 0 001.172-1.121 1.177 1.177 0 00-2.352 0 1.149 1.149 0 001.18 1.12zm.933 7.785V4.547h-1.851v6.621zm6.473-6.793a2.13 2.13 0 00-1.976 1.29V4.542h-1.86v6.621h1.86V7.691a1.405 1.405 0 011.484-1.558 1.31 1.31 0 011.262 1.5v3.531h1.851V7.535c.016-1.984-.894-3.16-2.62-3.16zm13.906 1.047a2.533 2.533 0 00-2.136-1.047c-1.895 0-3.227 1.434-3.227 3.488 0 2.055 1.36 3.473 3.184 3.473a2.608 2.608 0 002.18-1.121v.95h1.859V4.546h-1.86v.879zm-1.77 4.183a1.744 1.744 0 01-1.21-.52 1.727 1.727 0 01-.484-1.226 1.693 1.693 0 01.472-1.23c.313-.332.75-.52 1.207-.527a1.753 1.753 0 01.016 3.508zm10.544-1.558c.043.41-.098.82-.383 1.121a1.44 1.44 0 01-1.102.437 1.328 1.328 0 01-1.261-1.515V4.543h-1.852v3.644c-.015 1.985.887 3.149 2.613 3.149a2.135 2.135 0 001.985-1.25v1.078h1.851V4.547h-1.851zm6.73-3.504v-2.41h-1.86v2.41h-1.202v1.445h1.203v5.176h1.86V5.988h1.402V4.547h-1.403zm7.938 3.504c.039.41-.102.82-.387 1.121a1.435 1.435 0 01-1.101.437 1.321 1.321 0 01-.97-.476 1.32 1.32 0 01-.292-1.04V4.544h-1.852v3.644c-.015 1.985.89 3.149 2.614 3.149a2.141 2.141 0 001.988-1.25v1.078h1.851V4.547h-1.851zM156.3 4.375a2.5 2.5 0 00-2.211 1.3 2.23 2.23 0 00-2.121-1.3 1.854 1.854 0 00-1.875 1.457V4.547h-1.852v6.621h1.852V7.68c0-1.192.68-1.559 1.344-1.559.628 0 1.164.453 1.164 1.5v3.547h1.851V7.906c0-1.234.516-1.8 1.309-1.785.648 0 1.187.438 1.187 1.473v3.574h1.867V7.535c0-1.984-.859-3.16-2.515-3.16zm8.789 0c-.86-.008-1.64.5-1.98 1.29V4.542h-1.86v6.617h1.86V7.687a1.412 1.412 0 011.484-1.558c.375.012.726.18.969.469.242.285.347.664.296 1.035v3.527h1.852V7.535c.012-1.984-.899-3.16-2.621-3.16zm13.902 1.047a2.516 2.516 0 00-2.133-1.047c-1.898 0-3.226 1.43-3.226 3.484 0 2.059 1.36 3.477 3.18 3.477a2.617 2.617 0 002.18-1.121v.95h1.859V4.546h-1.86v.879zm-1.77 4.18a1.721 1.721 0 01-1.695-1.742 1.699 1.699 0 011.68-1.758 1.754 1.754 0 11.016 3.507zm9.868-5.235a2.143 2.143 0 00-1.988 1.293V4.535h-1.852v6.621h1.852V7.684a1.43 1.43 0 01.382-1.13c.29-.3.696-.456 1.11-.429a1.312 1.312 0 011.258 1.504v3.527h1.859v-3.62c.012-1.985-.899-3.161-2.621-3.161zm9.887.98a2.615 2.615 0 00-2.13-.98 3.49 3.49 0 00-3.245 3.48 3.485 3.485 0 003.246 3.481c.824.02 1.609-.348 2.129-.992v.824h1.851V.937h-1.851v4.415zm-1.77 4.255a1.752 1.752 0 01-1.719-1.758 1.718 1.718 0 011.746-1.676 1.72 1.72 0 01-.027 3.441zm16.508-1.024l-1.254-4.035h-1.559l-1.261 4.035-1.25-4.035h-2.008l2.414 6.617h1.582l1.312-4.293 1.36 4.293h1.594l2.328-6.617h-2.008zm6.043-5.203c.304.012.601-.102.824-.313.223-.21.352-.5.356-.808a1.18 1.18 0 00-1.176-1.106 1.18 1.18 0 00-1.176 1.106c.012.637.539 1.14 1.172 1.129zm.941 7.785V4.547h-1.86v6.621h1.86zm6.473-6.793c-.86-.008-1.64.5-1.984 1.293V4.535h-1.852v6.621h1.851V7.684a1.405 1.405 0 011.485-1.559c.375.008.73.18.969.465.242.289.347.668.293 1.039v3.527h1.855v-3.62c.012-1.985-.89-3.161-2.617-3.161zm7.41.172V2.13h-1.86v2.41h-1.202v1.445h1.203v5.176h1.859V5.984h1.395V4.547h-1.395zm9.977 3.203a3.312 3.312 0 00-3.441-3.375 3.478 3.478 0 00-3.47 3.488 3.474 3.474 0 003.48 3.473 3.674 3.674 0 002.93-1.332l-1.074-1.09a2.353 2.353 0 01-1.742.778 1.622 1.622 0 01-1.703-1.23h4.973c.031-.294.047-.52.047-.704zm-5.02-.496a1.54 1.54 0 011.621-1.273 1.4 1.4 0 011.524 1.273zm10.992-2.879a2.042 2.042 0 00-1.941 1.59V4.535h-1.836v6.621h1.851V8.898c0-1.886.649-2.777 1.598-2.777.332-.004.66.078.95.238l.425-1.77a2.3 2.3 0 00-1.047-.214zm0 0" fill="#432909"/><path d="M273.422 5.316a1.532 1.532 0 111.547-1.531c0 .406-.164.8-.457 1.086-.29.29-.68.45-1.09.445zm-2.86 1.352a11.686 11.686 0 00-5.847 6.852 1.421 1.421 0 01-1.375 1.062 1.39 1.39 0 01-.336-.043 1.376 1.376 0 01-.867-.633 1.393 1.393 0 01-.164-1.062 14.308 14.308 0 017.32-8.68 1.42 1.42 0 011.898.625c.164.332.196.719.075 1.07a1.396 1.396 0 01-.704.809zm-10.425-1.297c.18.734.351 1.473.531 2.211.098.363.117.68-.223.82a.97.97 0 01-.824-.257c-.633-.36-1.27-.723-1.894-1.086-.196.113-.391.222-.59.34-.473.269-.942.538-1.422.808a.877.877 0 01-.633.223.478.478 0 01-.375-.535c.195-.844.398-1.684.598-2.524-.551-.469-1.114-.941-1.664-1.41a.87.87 0 01-.5-.688c.082-.476.441-.378.925-.453l2.164-.191c.106-.246.22-.492.329-.738.18-.414.367-.832.554-1.25.059-.204.16-.391.297-.547a.58.58 0 01.219-.098l.082-.008c.312.04.555.285.598.598.296.68.605 1.363.902 2.043l2.168.191c.484.075.844-.023.926.457a.865.865 0 01-.504.688c-.551.469-1.102.937-1.664 1.406zm0 0" fill="#603929"/><path d="M5.496 5.316c.844-.007 1.52-.699 1.516-1.543a1.53 1.53 0 00-3.063.012c.004.406.164.8.457 1.086.29.29.684.45 1.09.445zm2.86 1.352a11.686 11.686 0 015.847 6.852 1.421 1.421 0 001.375 1.062c.113 0 .227-.016.336-.043.363-.086.676-.312.867-.633.196-.32.254-.703.164-1.062a14.308 14.308 0 00-7.32-8.68 1.414 1.414 0 00-1.895.625 1.397 1.397 0 00.625 1.879zM18.78 5.371c-.18.734-.351 1.473-.531 2.211-.098.363-.117.68.227.82a.965.965 0 00.82-.257c.633-.36 1.27-.723 1.894-1.086.196.113.391.222.594.34.469.269.938.538 1.418.808a.877.877 0 00.633.223.478.478 0 00.375-.535c-.195-.844-.395-1.684-.598-2.524.551-.469 1.114-.941 1.664-1.41a.87.87 0 00.5-.688c-.082-.476-.437-.378-.925-.453l-2.165-.191c-.105-.246-.218-.492-.328-.738-.18-.414-.367-.832-.554-1.25a1.435 1.435 0 00-.297-.547.58.58 0 00-.219-.098l-.082-.008a.696.696 0 00-.598.598c-.297.68-.601 1.363-.902 2.043l-2.164.191c-.488.075-.844-.023-.926.457.031.301.223.563.5.688.551.469 1.106.937 1.664 1.406zm0 0" fill="#432909"/></g></svg>