<svg xmlns="http://www.w3.org/2000/svg" width="756" height="140" viewBox="0 0 567 105"><g fill-rule="evenodd" fill="#432909"><path d="M55.148 50.695a110.717 110.717 0 01-5.957 17.473l6.551 1.855a186.691 186.691 0 007.153-17.543zM28.141 74.656c-1.192-1.457-6.883-7.68-8.473-9.203v-.86h7.742v-6.75c1.723 4.372 3.442 9 4.305 12.114L38 66.98c-1.32-4.105-4.3-10.988-6.55-16.152l-5.891 2.45 1.652 4.105h-7.543V47.78a72.13 72.13 0 008.738-2.449l-5.031-6.289c-5.492 2.25-14.102 4.238-21.844 5.496a29.418 29.418 0 012.117 6.023c2.715-.332 5.497-.73 8.407-1.257v8.074H1.598v7.215h8.804C7.887 71.016 3.914 78.164.008 82.398a40.544 40.544 0 013.906 8.012c2.98-3.574 5.758-8.87 8.14-14.496v24.621h7.614v-26.61a58.707 58.707 0 014.105 7.153zm11.714-35.812c-.062 26.676.797 44.945-16.613 55.074a21.774 21.774 0 015.625 6.422C36.88 95.375 41.512 88.62 44.16 80.414c2.844 8.477 7.082 15.16 13.766 19.594a26.537 26.537 0 015.23-6.488c-9.465-5.493-13.77-16.946-15.886-30.844.53-7.215.597-15.16.597-23.832zm115.278 7.945v3.375h-10.395V46.79zm-10.395 12.113v-3.574h10.39v3.574zm17.809 5.692v-23.43h-25.484v59.309h7.675v-35.88zm-1.059 14.562v-4.965h6.157v4.965zm20.325 6.422v-6.422h-7.282v-4.965h6.223V67.97h-31.977v6.222h6.024v4.965h-6.95v6.418h6.688c-.664 3.375-2.516 7.68-6.75 10.328a29.616 29.616 0 015.031 4.5c5.625-3.84 7.809-10.261 8.477-14.828h6.351v13.637h6.887V85.574h7.281zm-7.415-26.543v-3.707h10.727v3.707zm10.727-12.246v3.375h-10.727V46.79zm7.742-5.625h-25.949v23.563h18.203v26.472c0 .93-.332 1.324-1.39 1.324-.993.067-4.235.067-7.215-.066a28.053 28.053 0 012.382 7.813c5.032 0 8.477-.2 10.856-1.524 2.383-1.258 3.113-3.441 3.113-7.48zm25.059 24.953l14.23-3.11-.265-4.038-2.317.332 1.656-3.442a64.357 64.357 0 00-11.12-2.914l-1.919 3.575c3.48.761 6.91 1.753 10.258 2.98-4.633.66-8.867 1.258-12.18 1.723v-8.348h17.344v12.977h7.746V52.875h13.5a84.597 84.597 0 01-10.925 3.574l1.457 2.383-1.387-.2-1.324 3.907c5.18.82 10.293 2.035 15.289 3.64l1.258-4.3a94.209 94.209 0 00-11.055-2.649 56.551 56.551 0 009.531-2.78l-2.582-3.575h3.906v8.605h8.008V48.313h-25.683v-2.711h22.308v-4.77h-51.765v4.77h21.71v2.71h-24.953v13.172h7.547zm26.344 19.727a48.927 48.927 0 006.75-3.242 42.74 42.74 0 007.48 3.242h-14.234zm2.316 8.539v-3.977h9v3.977zm-12.574-11.387h-7.555V79.95h7.352v-5.031c1.367 1 2.593 2.18 3.64 3.508a31.69 31.69 0 004.567-2.977 27.404 27.404 0 003.707 3.574 56.054 56.054 0 01-11.715 4.106v-.133zm-16.086-11.383h9.332v3.508h-9.34v-3.508zm37.73.461a26.219 26.219 0 01-4.832 3.977 24.614 24.614 0 01-4.965-3.977zm4.965-4.898l-1.058.265h-9.805c.437-.613.836-1.254 1.191-1.918l-5.824-.996c-2.05 3.512-5.89 7.086-11.32 9.864v-7.614h-22.172V79.95h8.273v13.172l-3.246.266V81.676h-5.758v12.113l-2.976.2.66 6.023c7.281-.602 17.476-1.524 27.14-2.45l-.066-5.624c-3.047.265-6.156.527-9.203.726V88.23h7.547v-3.507a22.06 22.06 0 012.316 3.707c1.192-.332 2.45-.664 3.707-1.125v13.172h6.555v-1.329h9v1.192h6.883V86.969c.992.195 1.984.394 3.047.594a22.567 22.567 0 013.902-5.426 56.045 56.045 0 01-12.84-3.246 31.726 31.726 0 008.14-9.465zm140.227 5.363h-26.145v-7.746h22.238v-7.547h-22.238v-8.672c6.777-.726 13.5-1.898 20.125-3.508l-5.695-6.55c-10.86 2.843-28.992 4.632-44.945 5.293a26.581 26.581 0 011.988 6.953c6.484-.266 13.43-.664 20.316-1.258v7.742h-21.644v7.547h21.644v7.742h-26.144v7.68h26.144V90.87c0 1.324-.594 1.79-2.113 1.856-1.457 0-7.024 0-11.918-.2a30.626 30.626 0 013.246 7.813c6.75.066 11.512-.133 14.691-1.324 3.114-1.258 4.305-3.313 4.305-8.012v-10.79h26.145v-7.679zm106.21 3.441a65.939 65.939 0 009.067-6.355 49.383 49.383 0 009.066 6.355zm2.047 15.422v-8.539h13.567v8.54zm-11.183-31.968a34.764 34.764 0 013.172 3.308 42.038 42.038 0 004.898-4.898 54.145 54.145 0 004.906 6.554 52.957 52.957 0 01-12.976 8.008V59.43zm-9.203 21.312V67.508h3.308v13.238zm-8.008-13.238h3.11v13.238h-3.11zm3.11-18.203V61.02h-3.11V49.305zm8.206 11.718h-3.308V49.305h3.308zm29.786-9.273a44.36 44.36 0 01-5.829 7.875 43.275 43.275 0 01-5.695-7.352l.399-.527h11.125zm5.09-6.883l-1.321.328h-11.055a40.944 40.944 0 002.118-4.633l-7.41-2.05a43.76 43.76 0 01-11.32 16.547V42.55h-22.903v50.375h5.691v-5.43h17.211V75.98c.82 1.102 1.57 2.25 2.25 3.442l1.652-.73v21.714h7.282v-2.12h13.566v2.054h7.684V78.43l.465.199a37.891 37.891 0 015.03-6.621 46.177 46.177 0 01-14.363-7.48 51.607 51.607 0 0010.59-17.145zm0 0M566.824 47.543a1.36 1.36 0 00-.75-.75l-2.511-1-.68-.27-4.524-1.8-.683-.27-1.2-.48a1.312 1.312 0 00-1.05.03 1.348 1.348 0 00-.703.79l-1.399 4.086-.508 1.48-1.074 3.149c-.008.012-.008.02-.015.031l-2.024 6.39-.45 1.426-3 9.45-.448 1.425-1.473 4.637a1.37 1.37 0 00.79 1.688l1.23.492 4.523 1.797.473.191c.078.024.16.04.246.047.082.023.164.04.246.047.527-.004 1-.313 1.215-.793l.633-1.387.816-1.797 5.43-11.925.816-1.801 2.438-5.364 2.687-6.25.727-1.71.218-.497c.137-.34.14-.718.004-1.062zm-6.328-.04l-5.918 5.25-.515 1.321.214-.687 2.512-7.36zm-6.637 7.2l.157-.496 7.222-6.406.254.101 2.313.918-2.094 4.887L551.227 63l2.183-6.875zm-2.707 22.328l-2.73-1.09-.684-.27-.465-.187.352-1.125 7.246-5.5-.441.961zm4.438-9.746l-7.528 5.719 1.895-6 .457-1.426.39-1.246 10.247-9.086-.301.703-.074.149zm-3.45 18.64a7.544 7.544 0 00-2.55-3.812c-.172-.144-.344-.293-.531-.422a8.586 8.586 0 00-1.606-.863 7.93 7.93 0 00-3.3-.547c-.356.016-.712.051-1.063.114a7.373 7.373 0 00-1.524.46 7.623 7.623 0 00-4.035 4.325c-.14.398-.254.8-.336 1.215a7.63 7.63 0 00-.152 1.113 7.732 7.732 0 00.578 3.601c.219.493.488.961.8 1.399.138.183.294.344.446.515a7.88 7.88 0 003.051 2.2c.277.097.555.18.84.246.246.078.496.144.75.195.449.086.902.129 1.36.133 1.019 0 2.03-.207 2.968-.613a7.53 7.53 0 004.066-4.29 7.892 7.892 0 00.418-4.187c-.043-.266-.113-.523-.18-.781zm-7.64-2.948c.367.003.734.046 1.094.128l-5.82 5.918a5.137 5.137 0 01.253-2.847 4.97 4.97 0 012.598-2.813 4.606 4.606 0 011.875-.386zm-3.742 8.125a5.034 5.034 0 01-.39-.567c-.098-.172-.212-.34-.294-.527-.031-.067-.039-.14-.066-.207l6.36-6.469c.034.012.073.02.109.031.214.094.425.2.625.317.203.113.398.238.586.37a5.029 5.029 0 011.484 1.755l-6.586 6.703a5.21 5.21 0 01-1.828-1.41zm8.652-1.2a4.896 4.896 0 01-2.617 2.774c-.16.062-.328.113-.496.156a4.832 4.832 0 01-1.152.211 5.242 5.242 0 01-1.84-.25l6.152-6.262c.211.594.3 1.223.27 1.848-.032.41-.106.812-.227 1.203-.035.102-.05.211-.09.32zm0 0M279.414 45.902l-2.84 2.86v.863l3.696-3.723zm7.422 0h-.856l-4.558 4.59h.855zm1.16-1.164l4.922-4.953c-.09-.2-.172-.39-.266-.597l-4.855 4.886c.058.176.133.371.191.543.004.04.008.078.008.121zm-2.781 8.543l-3.73 3.75c.058.235.117.465.171.692l3.797-3.817-.238-.625zm3.629-2.789l5.992-6.031a27.167 27.167 0 00-.234-.629l-6.614 6.66zm-11.11 10.32l-2.164 2.172v.868l3.024-3.043h-.86zm2.801 4.649l4.621-4.648h-.86l-4.624 4.648zm14.875-14.973l4.559-4.586h-.86l-4.558 4.586zm-16.273 22.125l-3.164 3.184v.863l4.023-4.047h-.863zm19.703-19.832l-4.14 4.168c-.165.461-.329.918-.5 1.367l5.359-5.39zm-7.977 8.032l-4.625 4.648h.86l4.625-4.648zm13.793-13.02v-.863l-3.539 3.562h.86zm8.727-3.04l-3.5 3.524v.868l4.601-4.633c-.363.078-.73.16-1.105.242zM280.94 77.399h.864l4.757-4.789h-.859zm7.497-7.543v.872l10.378-10.45a.968.968 0 01-.039-.824zm26.875-20.007c0-.47.332-.875.796-.961.246-.047.48-.094.727-.14l6.555-6.602c-.399.125-.809.25-1.23.375l-12.278 12.359v.867l5.43-5.465zm-37.118 36.925c-.289.61-.59 1.188-.894 1.766l5.926-5.965-.668-.191zM294.2 70.668l-6.703 6.75a.946.946 0 01.613.25l6.09-6.133zm9.793-9.856l-4.625 4.653h.86l4.625-4.653zm-25.808 33.446l2.148-2.156c.32-.582.629-1.207.945-1.82l-3.593 3.616c.171.118.336.239.5.36zm20.644-21.645l-10.394 10.461v.867l5.828-5.863c.093-.289.32-.52.605-.613l4.82-4.852zm16.485-16.59l-5.43 5.47v.862l5.43-5.464zm8.746-8.804c.39-.09.765-.184 1.14-.278l5.348-5.386-.438-.422zm-19.47 27.07v-.863l-3.952 3.976h.86zm5.294-6.191V68.968l7.5-7.546h-.856zm-21.445 22.449l5.761-5.8v-.868l-5.762 5.8zm34.648-29.129l-5.43 5.465h.864l5.43-5.465zm-34.649 35.734l5.762-5.8v-.868l-5.762 5.805zm21.29-21.43l5.558-5.593c.004-.297.012-.578.012-.879l-5.531 5.57c-.012.301-.024.602-.04.903zm-7.442 6.63l-3.012 3.027c.102.183.204.375.301.562l3.04-3.058c-.106-.18-.22-.356-.329-.531zm6.735.695l6.023-6.067c.023-.296.039-.609.055-.918l-5.93 5.97c-.047.34-.098.675-.148 1.015zm14.425-15.387c.02.063.035.13.043.2v.624l7.02-7.066h-.863zM301.52 89.727c.097.203.183.394.273.59L305 87.09c-.094-.18-.203-.375-.3-.563zm-9.141 10.07l1.824-1.836v-.867l-2.683 2.699h.859zm31.113-24.703l5.828-5.871v-.864l-5.828 5.868zm-16.66 16.765l7.457-7.511c.05-.344.113-.672.164-1.028l-7.105 7.153c-.16.476-.344.925-.52 1.386zm23.957-24.976h.863l3.899-3.93v-.863zm-23.316 30.933l4.933-4.964c.13-.407.254-.82.375-1.243l-5.789 5.829c.16.128.32.25.48.378zM323.488 81.7l5.828-5.867v-.867l-5.828 5.867zm0 6.606l5.828-5.868v-.863l-5.828 5.867zm0 6.61l5.828-5.868v-.867l-5.828 5.87zm1.516 5.081l4.312-4.344v-.863l-5.175 5.207zm12.433-39.812a.976.976 0 00-.921-.723H317.25v-8.797c1.484-.281 2.879-.57 4.234-.863.368-.074.743-.153 1.098-.235a105.521 105.521 0 007.68-1.988c.425-.129.84-.258 1.246-.387a59.63 59.63 0 004.168-1.492.979.979 0 00.586-.722.967.967 0 00-.278-.891l-.714-.684-.434-.422-2.918-2.808-.441-.422-1.59-1.535a.985.985 0 00-1.09-.18c-.672.317-1.445.637-2.27.953-.445.172-.886.344-1.367.512-2.316.828-5.062 1.633-8.078 2.383-.367.094-.75.183-1.133.277-2.293.55-4.71 1.07-7.222 1.535-.004 0-.008.008-.012.008a1.45 1.45 0 00-.781.953v24.012c0 .465-.012.934-.016 1.402 0 .29-.008.582-.012.875-.02 1.973-.074 3.957-.199 5.942-.02.312-.043.62-.066.933a59.747 59.747 0 01-.864 6.61c-.062.347-.109.703-.18 1.047l-.167.168c-.094-.176-.211-.375-.309-.551a71.793 71.793 0 00-2.113-3.617c-.11-.184-.219-.356-.332-.532-.332-.53-.66-1.082-.996-1.586h2.875c.539 0 .976-.437.976-.976v-6.746a1.144 1.144 0 00-.976-.973h-9.418v-3.238h10.492a.981.981 0 00.973-.977v-6.61a.967.967 0 00-.84-.948.802.802 0 00-.133-.028h-5.453c.23-.523.46-1.093.687-1.648.203-.488.403-.969.602-1.469.254-.64.508-1.285.758-1.922l.355-.91a.976.976 0 00.067-.46h1.98a1.147 1.147 0 00.973-.977v-6.551a.979.979 0 00-.973-.977h-8.902c-.118-.312-.25-.66-.383-1.004l-.246-.617a114.38 114.38 0 00-1.711-4.023c-.086-.196-.172-.39-.262-.598-.078-.164-.137-.309-.21-.473a.975.975 0 00-1.118-.547l-4.457 1.094-1.137.282-2.379.582a.993.993 0 00-.64.511.992.992 0 00-.028.817c.118.285.22.547.332.824.082.207.168.414.246.617.352.883.68 1.738.965 2.535h-10.097a.977.977 0 00-.977.977v6.543c0 .031.016.058.02.09.043.5.453.882.953.886h2.652a.993.993 0 00-.008.727c.047.117.09.254.137.375.074.207.148.414.223.633.504 1.468.925 2.96 1.265 4.472l-.199.2h-5.078a.979.979 0 00-.973.976v6.61c0 .535.434.972.973.976h11.894v3.238h-11.484a.973.973 0 00-.973.973v6.746c.004.067.02.133.04.2a.961.961 0 00.933.777h11.492v2.261a.976.976 0 00-.437-.265l-1.258-.364-.668-.19-4.176-1.2c-.496-.117-1 .148-1.183.625-.043.12-.09.238-.13.36A47.257 47.257 0 01273 91.897a.848.848 0 00-.074.16c-.203.454-.051.985.363 1.254.781.465 1.922 1.22 2.992 1.977.176.121.34.238.504.36.617.44 1.195.87 1.606 1.214a.93.93 0 00.754.215.96.96 0 00.668-.414 60.261 60.261 0 004.835-8.93c.227-.515.454-1.023.668-1.539a63.181 63.181 0 001.168-2.98v17.55c0 .54.438.977.973.977h7.711a.976.976 0 00.973-.976V83.8a91.604 91.604 0 011.699 3.02c.101.187.2.374.3.562a81.127 81.127 0 011.919 3.808c.101.215.171.395.265.602.2.45.418.922.578 1.316a.965.965 0 001.414.47l2.36-1.474c-.301.707-.625 1.38-.973 2.032-.308.57-.629 1.125-.969 1.648-.136.242-.18.528-.125.797.075.273.262.5.516.621.871.469 1.7 1.016 2.477 1.629.164.121.324.246.488.375a29.045 29.045 0 012.918 2.578c.043.035.086.067.133.094a.983.983 0 00.57.21c.031 0 .059 0 .082-.003a.98.98 0 00.727-.434c.144-.226.27-.484.41-.71.406-.665.816-1.325 1.183-2.06a40.663 40.663 0 003.051-8.812c.09-.382.195-.75.277-1.144.45-2.11.813-4.403 1.09-6.836.035-.324.074-.649.11-.977.203-1.972.37-4.023.468-6.21.012-.305.028-.602.036-.91.066-1.661.105-3.376.105-5.157h4.29v32.14c.003.43.288.81.706.922.082.032.172.051.262.055h7.777a.985.985 0 00.977-.976V68.836h5.254a.972.972 0 00.968-.973v-7.422a.968.968 0 00-.046-.257zM281.27 90.28c-.313.61-.625 1.239-.946 1.817-.512.925-1.027 1.8-1.535 2.597-.184-.14-.41-.293-.61-.437a58.94 58.94 0 00-3.008-2.07 40.97 40.97 0 002.126-3.653c.305-.578.598-1.156.89-1.762a55.149 55.149 0 002.114-5.039l2.25.645.668.195 1.297.375a68.114 68.114 0 01-3.246 7.332zm-4.7-39.789v-4.59h10.489a.942.942 0 00.93-1.164c0-.043-.005-.082-.009-.12-.058-.173-.132-.368-.19-.544a81.194 81.194 0 00-1.415-3.797l6.094-1.492c.062.14.117.262.176.403.093.207.175.398.265.597a102.48 102.48 0 011.684 4.047c.086.227.16.422.234.629.102.266.207.547.293.793a.973.973 0 00.914.648h8.613v4.59zm11.926 6.95c-.05-.235-.098-.462-.16-.704a36.751 36.751 0 00-1.36-4.293h7.169a79.414 79.414 0 01-2.247 6.41h-3.27c.071-.171.09-.359.056-.542-.051-.274-.122-.575-.188-.872zm-1.902.343l-3.953 1.106a.971.971 0 00-.63.55 33.573 33.573 0 00-.363-1.714c-.054-.223-.113-.457-.171-.692-.301-1.183-.657-2.41-1.043-3.527l4.433-1.086c.117.273.227.57.34.86.082.206.16.41.238.624.461 1.27.844 2.567 1.149 3.88zm8.574 19.617a1.032 1.032 0 00-.973.98v21.415h-5.761V78.383a.98.98 0 00-.329-.723.958.958 0 00-.613-.25c-.012 0-.02-.008-.031-.008h-11.496v-4.789h11.492c.54 0 .973-.437.973-.976v-5.192a.976.976 0 00-.973-.976h-11.894V60.82h16.988a.98.98 0 00.902-.601c.242-.59.496-1.235.742-1.89.172-.45.336-.907.5-1.368.649-1.809 1.254-3.652 1.649-5.117.125.308.39.531.715.593l1.777.356.719.14 1.789.356c-.844 2.156-1.711 4.367-2.559 6.129-.008.012 0 .027-.012.043a.981.981 0 00.04.824c.007.028.015.05.023.074.18.286.488.461.824.461h6v4.649h-10.492a.976.976 0 00-.973.976v5.192c0 .539.434.972.973.976h9.414v4.785h-9.414zm1.336 4.153l-.367.199v-2.395h4.425l-2.195 1.188zm5.75 9.761c-.137-.312-.309-.668-.465-1-.094-.195-.176-.386-.273-.59a87.609 87.609 0 00-1.946-3.785c-.101-.187-.199-.375-.297-.562-.457-.828-.91-1.637-1.343-2.375l3.554-1.922c.27.41.532.844.797 1.27.11.175.223.351.332.53a73.414 73.414 0 012.082 3.645c.098.188.207.383.301.563.356.695.68 1.351.938 1.93zm33.285-29.23v4.797h-5.254a.974.974 0 00-.976.972v32.141h-5.829V67.86a.852.852 0 00-.035-.199.965.965 0 00-.937-.777h-6.227a.974.974 0 00-.976.972v.813c0 .2-.008.379-.008.578-.008.3-.012.582-.012.883-.023 2.07-.09 4.039-.195 5.933-.016.305-.031.618-.055.918-.14 2.23-.328 4.36-.59 6.34-.047.356-.113.68-.16 1.028a58.306 58.306 0 01-1.512 7.261c-.12.422-.246.832-.375 1.239a32.225 32.225 0 01-2.878 6.718 38.93 38.93 0 00-2.055-1.754 23.07 23.07 0 00-.488-.374c-.707-.547-1.422-1.067-2.075-1.47a27.075 27.075 0 001.914-4.109c.176-.46.36-.91.516-1.386.047-.137.106-.262.152-.399.075-.234.22-.976.274-1.168a46.26 46.26 0 001.25-5.86c.055-.339.105-.675.152-1.015a73.74 73.74 0 00.559-6.308c.015-.297.027-.602.039-.903.082-1.965.113-3.925.113-5.855V45.469c1.188-.223 2.352-.469 3.5-.715.375-.082.738-.164 1.106-.246a117.9 117.9 0 007.671-1.985c.422-.125.832-.25 1.23-.375a54.271 54.271 0 005.634-2.066l1.09 1.05.441.423 2.91 2.808-.144.145a80.198 80.198 0 01-8.122 2.433c-.375.094-.75.188-1.132.278-2.22.527-4.63 1.039-7.23 1.531-.247.047-.481.094-.727.14a.98.98 0 00-.797.962v10.59c0 .535.437.972.976.972h19.262zm0 0M108.363 51.531a1.02 1.02 0 00.14-1.086 1.026 1.026 0 00-.921-.59H88.367c-.293 0-.57.125-.762.344l-1.125 1.266c-.34.387-.34.965 0 1.351.618.7 1.274 1.38 1.95 2.047.062.063.113.125.175.184a45.043 45.043 0 003.497 3.02l.203.156a49.613 49.613 0 003.812 2.707c.043.023.078.054.121.082a1.3 1.3 0 00.117.031.9.9 0 00.961-.031 46.154 46.154 0 0011.047-9.48zm-11.578 7.41a46.395 46.395 0 01-3.035-2.164c-.066-.05-.133-.105-.2-.156a42.257 42.257 0 01-3.495-3.023c-.063-.059-.118-.121-.176-.18l1.52-1.523h13.738l-3.215 3.226a46.555 46.555 0 01-5.137 3.82zM130.77 70.34a1.012 1.012 0 00-.833-.664c-.289-.035-.558-.09-.843-.13-.106-.01-.207-.03-.313-.046-1.918-.254-3.804-.54-5.633-.879-.101-.02-.195-.043-.296-.062a96.89 96.89 0 01-5.368-1.149c-.093-.023-.183-.055-.277-.074a85.512 85.512 0 01-5.094-1.426c-.09-.031-.172-.066-.261-.094a77.098 77.098 0 01-4.809-1.707l.172-.171a51.201 51.201 0 008.703-8.72c.344-.44.66-.898.988-1.35a45.756 45.756 0 004.215-6.833 1.012 1.012 0 00-.418-1.332l-1.379-.777-.23-.13-4.14-2.323c-.013-.008-.024-.008-.036-.012a1.103 1.103 0 00-.27-.094.99.99 0 00-.441.004l-1.152.32H95.602c.449-.695.89-1.386 1.32-2.07l.719-1.137c.093-.156.144-.332.148-.511 0-.106-.016-.211-.047-.309-.004-.043-.012-.082-.02-.125a1.03 1.03 0 00-.73-.598l-4.164-.882-.293-.063-4.52-.953a1.012 1.012 0 00-1.1.512c-4.52 8.328-12.06 16.152-20.68 21.465a1.032 1.032 0 00-.485.816c-.016.336.137.66.402.863a17.075 17.075 0 011.926 1.793l.176.184a26.19 26.19 0 012.86 3.66c.046.074.09.148.132.223.055.093.125.195.172.285a1.02 1.02 0 001.473.344 88.882 88.882 0 009.425-7.5c.34.398.75.796 1.114 1.195l.172.183a47.415 47.415 0 003.312 3.207c.066.055.121.114.188.172.148.13.277.262.43.395-.446.2-.93.367-1.384.558-.195.082-.402.16-.597.243a83.456 83.456 0 01-9.883 3.375c-.156.043-.32.078-.48.12-2.684.72-5.473 1.34-8.372 1.864-.152.027-.293.059-.441.082-.54.098-1.05.219-1.594.3a1.015 1.015 0 00-.625 1.652c.035.044.074.107.114.153.05.067.105.137.152.204a25.502 25.502 0 012.406 4.113c.04.082.074.164.113.246.43.902.797 1.84 1.09 2.797.149.508.664.816 1.18.707.324-.067.633-.145.957-.211l.457-.106a124.46 124.46 0 008.715-2.199c.172-.05.34-.105.512-.16 2.386-.71 4.71-1.469 6.921-2.305l-2.058 3.961-.39.75-.438.84a1.032 1.032 0 00-.028.89c.13.282.38.493.68.571.996.246 2.066.524 3.18.824.09.024.187.051.281.075 1.617.437 3.34.918 5.09 1.425l.277.079c1.676.484 3.36.976 5.031 1.484.094.027.18.055.274.086a318.09 318.09 0 014.969 1.55c.086.028.18.055.27.087 1.8.578 3.437 1.125 4.882 1.632l.262.094c.472.164.984.344 1.402.496.113.043.23.063.352.067.39 0 .75-.227.918-.582l2.414-5.075.324-.683.84-1.758a1.029 1.029 0 00-.59-1.402 98.225 98.225 0 00-2.727-.88l-.273-.085a208.024 208.024 0 00-5.035-1.48l-.278-.083c-1.652-.46-3.382-.926-5.129-1.386l-.285-.075a317.148 317.148 0 00-5.195-1.316l-.29-.07a248.85 248.85 0 00-5.284-1.23l.344-.34a80.7 80.7 0 006.546-3.145c.649.383 1.329.742 2.004 1.101.075.043.149.086.23.125 1.41.75 2.876 1.453 4.403 2.118l.25.105a75.837 75.837 0 004.684 1.828c.09.035.175.067.261.098a82.315 82.315 0 004.97 1.55l.28.075c1.696.469 3.438.898 5.227 1.289.098.023.191.047.289.066 1.508.32 3.035.625 4.606.895a1.02 1.02 0 001.097-.582 35.39 35.39 0 015.149-7.875 1.02 1.02 0 00.21-1.047zm-36.95 6.656c.098.024.192.043.29.067 1.699.41 3.449.847 5.214 1.3l.281.075c1.743.449 3.473.91 5.145 1.37.094.028.184.055.277.079 1.797.496 3.504.988 5.059 1.457.09.027.187.058.277.082.934.285 1.813.558 2.61.82l-2.684 5.637a195.784 195.784 0 00-4.762-1.617l-.265-.086a317.505 317.505 0 00-4.957-1.563l-.274-.086a452.683 452.683 0 00-5.015-1.5l-.278-.078c-1.73-.504-3.437-.988-5.078-1.433l-.281-.079c-1.067-.289-2.106-.566-3.094-.824l2.485-4.773c1.558.332 3.273.73 5.05 1.152zm30.082.703c-.84-.148-1.652-.316-2.468-.48l-.301-.059a104.167 104.167 0 01-5.29-1.222c-.093-.028-.183-.055-.277-.079a80.377 80.377 0 01-5.015-1.5c-.09-.027-.184-.054-.274-.086a71.719 71.719 0 01-4.734-1.78c-.082-.036-.164-.075-.25-.11a62.927 62.927 0 01-4.445-2.067c-.075-.039-.16-.074-.239-.117a54.599 54.599 0 01-2.953-1.652 1.034 1.034 0 00-1.015-.02c-.602.332-1.227.645-1.844.965-.25.13-.492.262-.75.39a88.34 88.34 0 01-11.613 4.755 112.67 112.67 0 01-9.13 2.617c-.152.039-.308.07-.46.105-1.043.25-2.086.493-3.156.72a27.015 27.015 0 00-1.227-2.852c-.04-.082-.074-.16-.113-.243a30.745 30.745 0 00-1.63-2.855c1.93-.344 3.802-.742 5.645-1.168.153-.035.301-.059.45-.094a92.468 92.468 0 009.226-2.719l.547-.187a77.493 77.493 0 007.266-2.953 1.024 1.024 0 00.203-1.71c-.535-.435-1.032-.864-1.524-1.29-.062-.055-.133-.11-.195-.164a47.627 47.627 0 01-3.32-3.2 7.543 7.543 0 00-.176-.18 37.867 37.867 0 01-1.649-1.898 1.03 1.03 0 00-.722-.375 1.107 1.107 0 00-.77.278 80.023 80.023 0 01-7.949 6.582c-.387.285-.75.562-1.148.847-.008-.011-.016-.023-.024-.03a29.73 29.73 0 00-2.898-3.622c-.059-.062-.114-.125-.172-.184a23.86 23.86 0 00-1.043-1.042 61.826 61.826 0 0019.86-20.82l2.484.527.296.058 4.032.856c-.723 1.148-1.465 2.324-2.282 3.5a1.023 1.023 0 00-.168.582c.008.101.028.203.063.297.008.058.02.117.04.175.175.336.519.547.897.547l4.864-.008h.36l6.523-.011h.359l6.523-.012h.98l1.013-.254 3.289 1.848.222.129 1.032.578a47.473 47.473 0 01-14.473 16.539 1.022 1.022 0 00-.414.937c.043.364.277.68.613.825.211.09.442.16.656.25.082.035.176.062.258.097a73.416 73.416 0 004.735 1.781c.09.028.187.051.277.082 1.625.54 3.281 1.051 5.008 1.504.093.028.195.043.289.07a94 94 0 005.297 1.22c.101.019.191.046.293.066 1.808.36 3.68.66 5.574.937.105.016.203.035.308.051.188.027.364.067.555.094a40.694 40.694 0 00-3.926 6.234zm-6.613 17.434a.957.957 0 00-.207-.149.877.877 0 00-.184-.109c-1.402-.5-3-1.012-4.699-1.527l-.273-.082c-1.602-.48-3.301-.961-5.078-1.438l-.282-.074c-1.68-.45-3.418-.895-5.183-1.328l-.29-.078c-1.741-.426-3.507-.84-5.273-1.239l-.293-.066a365.195 365.195 0 00-5.351-1.164l-.297-.059c-1.875-.39-3.7-.75-5.438-1.074l-.3-.058c-1.723-.32-3.368-.61-4.875-.852a.988.988 0 00-1.059.527l-3.508 6.676a1.03 1.03 0 00-.02.914c.141.29.407.496.72.563l.769.156c.098.02.195.043.3.062 1.712.352 3.5.743 5.348 1.164.098.024.192.043.29.067 1.726.398 3.484.816 5.257 1.258l.29.07c1.726.43 3.464.875 5.187 1.328l.281.078c1.734.461 3.45.93 5.113 1.399.094.027.184.054.278.078 1.75.496 3.437.988 5.039 1.476l.277.086c1.774.54 3.442 1.07 4.942 1.575l.27.09c1.218.41 2.327.808 3.304 1.179a1.008 1.008 0 001.273-.5l3.86-7.797a.992.992 0 00-.188-1.152zm-5.09 7.222c-.496-.183-1.02-.367-1.562-.558l-.266-.09c-1.484-.516-3.14-1.05-4.914-1.605l-.27-.086c-1.59-.493-3.273-.993-5.023-1.496l-.277-.079a378.449 378.449 0 00-5.098-1.414c-.094-.023-.187-.05-.281-.074-1.711-.457-3.442-.906-5.176-1.344-.098-.023-.191-.05-.285-.074a308.65 308.65 0 00-5.246-1.277l-.29-.067c-1.82-.421-3.6-.82-5.323-1.183l-.297-.067c-.25-.05-.512-.109-.758-.16l2.531-4.82c.867.144 1.79.305 2.727.473l.3.054c1.735.317 3.563.664 5.465 1.051.098.02.196.043.297.063 1.754.355 3.555.742 5.371 1.144l.293.063c1.762.394 3.535.804 5.293 1.226l.29.067a297.547 297.547 0 015.487 1.382c1.774.47 3.481.946 5.098 1.418l.278.078c1.636.48 3.183.961 4.57 1.434l-.504 1.02-.352.71zm-6.781-36.875c-.043-.015-.086-.03-.125-.046l-.078-.032-4.817 4.828.157.079.12.062c.04.016.079.035.118.055l.082.043 4.719-4.727.136-.133-.175-.078a1.413 1.413 0 01-.137-.05zm.156 7.157l5.028-5.035.144-.145-.195-.066c-.047-.016-.094-.028-.14-.043-.048-.016-.09-.024-.134-.04l-.074-.023-5.133 5.14zm10.27-3.676c-.047-.012-.098-.02-.149-.031-.05-.016-.093-.024-.14-.035l-.07-.016-5.294 5.3-.148.145.543.18 5.473-5.484zm5.812 1.336l-.23-.05c-.047-.009-.094-.02-.14-.032-.048-.008-.099-.024-.153-.035l-.067-.016-5.746 5.762.563.148 5.605-5.613zm5.645.937c-.055-.007-.102-.011-.153-.023a1.855 1.855 0 00-.156-.027l-.062-.008-5.887 5.894-.168.168.602.121 5.894-5.906.18-.18zM91.199 38.867l.164-.164-.59-.129-21.351 21.387-.086.086.348.375zm-18.629 25.2l.11-.075c.27-.191.523-.379.777-.57l.387-.29 19.004-19.03.047-.082-.024-.079a.936.936 0 01-.05-.23v-.3L72.42 63.84zm26.434-19.254l.219-.215h-.72l-5.163 5.168-.215.214h.715zM88.695 54.956c-.027-.027-.054-.059-.082-.09-.027-.031-.062-.062-.093-.094l-.09-.086-3.676 3.68-.086.086.348.367 3.675-3.683.094-.09zM72.79 70.738c-.07.016-.144.032-.219.047-.074.016-.156.028-.23.047l-.035.012-4.043 4.047-.067.066.043.082.075.156.117.243 4.797-4.801zm10.293-3.093l-.535.19c-.094.032-.184.067-.281.099-.094.03-.176.058-.262.09l-9.246 9.242-.324.32.441-.106c.074-.02.152-.035.227-.05.074-.02.16-.04.238-.055l.035-.012 9.305-9.32zm9.414-9.434l-.398-.313-3.942 3.946.387.328zm13.39-13.41l.22-.219h-.72l-5.175 5.184-.219.214h.719zm-9.308 16.203l-.168-.074a.465.465 0 00-.105-.028.596.596 0 01-.063-.043l-.14-.09-13.754 13.774-.383.383.691-.23c.117-.04.239-.079.36-.122l13.433-13.437zm16.188-16.215l.218-.215h-.714l-5.188 5.192-.215.214h.715zM94.109 69.992c.149-.074.297-.152.45-.234.097-.051.199-.102.3-.153l23.18-23.214-.46-.254L93.41 70.344zm-4.82 11.36l-.156.152.566.152 4.5-4.508.16-.16-.582-.136zM77.805 92.859l-.168.164.593.125 4.73-4.738-.608-.105zm21.547-14.62l-.067-.012-4.789 4.789.559.16 4.644-4.653.156-.156-.246-.062c-.09-.024-.171-.047-.257-.067zM83.43 94.104l-.164.165.582.132 4.699-4.707.168-.168-.594-.12zm10.36-3.496l-4.83 4.836-.124.164.215.059c.086.02.172.043.258.062l.066.016 4.836-4.844.164-.16zm6.483-5.867l.075.02 4.777-4.785.156-.157-.215-.058a7.282 7.282 0 01-.277-.075l-.074-.023-4.77 4.781-.148.149.195.062c.094.028.184.055.278.086zm-.347 7.29l-.223-.055c-.09-.02-.172-.04-.258-.063l-.078-.02-5.11 5.126.567.148 4.961-4.973zm10.527-10.516l.152-.149-.21-.058c-.082-.028-.184-.055-.27-.082l-.078-.024-4.875 4.887-.149.152.54.176zm-5.016 11.906l-.566-.149-5.07 5.079-.153.148.207.059c.094.027.192.058.282.082l.074.02 5.074-5.083zm4.817 1.34l-5.152 5.164-.153.148.547.176 5.309-5.328zm.418 7.183l3.7-3.707.718-1.437-4.95 4.96zm0 0M415.348 45.566h-.825l-7.378 7.317h.832zm-1.036 7.317l7.383-7.317h-.836l-7.379 7.317zm.536 5.758l13.183-13.075h-.824l-12.36 12.25zm12.148-5.758l4.164-4.13v-.823l-4.996 4.949h.832zm-4.508 3.648l-7.64 7.574v.825l7.64-7.575zm18.332-18.176l-3.37 3.336c-.102.387-.223.77-.329 1.153l4.379-4.352zm-18.332 24.461l-7.64 7.575v.824l7.64-7.574zm23.453-23.25L434.316 51.09c-.187.465-.375.93-.57 1.387l11.887-11.786c.097-.379.21-.754.308-1.129zm-33.433 33.977v-.828l-3.887 3.851c.344-.074.703-.152 1.059-.226zm2.34 3.96l7.64-7.573v-.828l-7.64 7.578zm-1.188.349l-6.945 6.89.152.676 7.867-7.8zm12.067-11.961c.168.086.355.187.535.293l16.972-16.829h-.164c.102-.312.192-.64.297-.953zm15.136-8.72L429.598 68.34c.164.117.324.23.48.344l10.95-10.856c-.051-.226-.114-.437-.165-.66zm-18.375 18.75v-.53L411.41 86.37c.383-.101.758-.207 1.14-.308l10.313-10.227zM442.2 56.669l7.371-7.316h-.824l-7.379 7.316zm-12.203 17.555l-9.863 9.78 1.148-.312 9.793-9.71zm12.399-11.465c-.07-.207-.145-.41-.204-.621l-5.859 5.804c.078.204.145.41.211.614zm6.14-6.09l7.38-7.316h-.833l-7.379 7.316zm-4.484 10.734c-.082-.195-.164-.386-.238-.586l-5.762 5.707c.082.196.156.399.238.594zM430.01 81.32l2.438-2.418-.082-.738-3.496 3.469c.383-.106.758-.207 1.14-.313zm22.981-22.78l9.262-9.188h-.832l-8.184 8.12c-.082.368-.172.708-.246 1.071zm-2.117 7.562c-.18.484-.39.918-.578 1.39l15.937-15.8v-.829zM446 71.75c-.09-.184-.188-.36-.277-.547l-5.715 5.672c.09.184.18.367.277.55zm-19.027 18.047l-2.586 2.566c.113.16.215.328.328.496l3.61-3.578c-.442.176-.895.348-1.352.516zm32.875-26.309l-33.121 32.844c.097.195.18.375.27.559l32.487-32.223c.121-.395.25-.777.364-1.18zm-3.715 9.977L434.12 95.28c.547-.258 1.102-.511 1.629-.785l19.566-19.406c.278-.531.547-1.074.817-1.63zm-2.64 8.894l-5.805 5.762.406.418 5.82-5.766c-.144-.136-.277-.273-.422-.414zm3.355 2.97l-5.934 5.878c.149.125.309.246.457.375l5.942-5.887c-.16-.12-.317-.246-.465-.367zm3.734 2.577l-6.082 6.031c.164.114.336.215.508.325l6.097-6.047c-.18-.102-.351-.207-.523-.309zm-2.125 8.399c.18.097.375.18.555.27l6.324-6.27-.578-.246zm9.7-7.422c-.325-.117-.622-.274-.946-.399-.203-.074-.39-.164-.586-.242a35.263 35.263 0 01-4.25-2.078 33.84 33.84 0 01-3.309-2.184c-.156-.117-.324-.222-.48-.347-1.024-.793-2-1.645-2.934-2.547-.14-.137-.293-.258-.433-.395-.082-.086-.172-.152-.254-.238a53.243 53.243 0 005.098-10.031c.164-.426.324-.863.488-1.3a78.4 78.4 0 002.648-8.919c.106-.426.211-.836.309-1.266h2.824a2.335 2.335 0 002.348-2.324v-7.316a2.21 2.21 0 00-.133-.676 2.324 2.324 0 00-2.215-1.648h-19.95c.098-.32.196-.668.294-.993.113-.378.226-.77.336-1.16.46-1.574.91-3.191 1.343-4.906a2.307 2.307 0 00-.23-1.648c-.031-.051-.031-.106-.063-.153a2.276 2.276 0 00-.3-.312 2.296 2.296 0 00-1.215-.727l-2.961-.601-.684-.137-3.93-.8a2.395 2.395 0 00-.472-.048c-.105.012-.21.028-.313.051a2.328 2.328 0 00-1.972 1.766c-.016.09-.047.172-.063.258a91.917 91.917 0 01-2.097 7.539c-.121.394-.243.804-.368 1.191l-.085.082v-.871a2.335 2.335 0 00-2.344-2.328h-24.535a2.341 2.341 0 00-2.34 2.328v7.316c.012.739.379 1.43.992 1.848.156.125.332.23.516.309.265.105.546.164.832.168h5.879V75.66l-2.825.61-1.058.23c-1.27.27-2.477.52-3.555.734a2.366 2.366 0 00-1.508 1.016 2.31 2.31 0 00-.316 1.781l.34 1.465.148.676 1.02 4.453.16.672.14.633a2.346 2.346 0 001.079 1.476 2.407 2.407 0 001.832.25l.105-.031c.367-.098.766-.203 1.14-.309 2.348-.632 4.895-1.324 7.583-2.05l1.14-.313c2.473-.668 5.016-1.36 7.59-2.058.383-.106.766-.207 1.145-.313 2.215-.598 4.425-1.203 6.601-1.793a2.318 2.318 0 001.711-2.504l-.406-3.543-.082-.742-.285-2.52a2.382 2.382 0 00-.563-1.261c.176-.125.332-.278.465-.446.254-.316.504-.648.758-.984.45 1.203.914 2.348 1.387 3.465.082.191.164.383.25.574a68.87 68.87 0 001.761 3.723c.09.18.188.36.286.539.18.344.351.7.539 1.031a34.217 34.217 0 01-5.723 4.106c-.602.343-1.215.68-1.844 1.007a52.847 52.847 0 01-8.805 3.48 2.309 2.309 0 00-.39.169c-.434.222-.785.57-1.008 1a4.08 4.08 0 00-.172.375 2.335 2.335 0 00.422 2.144c.402.508.777 1.035 1.125 1.582.113.164.219.332.32.504a30.962 30.962 0 011.954 3.524c.097.215.18.406.246.582.02.039.03.078.043.12a2.359 2.359 0 002.214 1.548c.262-.004.524-.047.774-.133.531-.184 1.004-.402 1.527-.594.457-.172.91-.351 1.367-.527 4.098-1.57 8-3.606 11.633-6.07a47.915 47.915 0 003.578-2.727c.012-.016.035-.027.051-.04.906.938 1.86 1.802 2.828 2.645.149.125.285.274.434.399 1 .84 2.047 1.613 3.129 2.36.156.112.312.234.48.343a41.276 41.276 0 003.426 2.066c.18.098.36.192.539.29a46.34 46.34 0 003.738 1.761c.028.012.059.031.09.043.184.063.38.102.574.117.11.028.22.051.332.067.836 0 1.61-.446 2.032-1.168a35.4 35.4 0 012.68-3.903 19.16 19.16 0 012.152-2.386 2.48 2.48 0 00.742-2.184 2.335 2.335 0 00-1.516-1.746zm-39.302-31.52a39.215 39.215 0 01-3.93 5.813v-8.024h5.102c-.078.16-.168.313-.25.473-.304.586-.605 1.172-.922 1.73zm3.692 21.48l.195 1.704c-.87.238-1.75.476-2.633.715l-1.14.312-7.59 2.059-1.149.312c-2.617.711-5.168 1.403-7.582 2.055l-1.14.313c-1.41.382-2.79.753-4.07 1.101l-.473-2.059-.152-.671-1.028-4.454-.148-.668.05-.054c.333-.067.7-.14 1.043-.215 2.07-.422 4.457-.938 7.028-1.5.36-.074.707-.152 1.074-.234l.113-.024V52.82h-8.222v-7.316h24.535v7.316h-8.672v23.035l.383-.085 7.125-1.61 1.078-.242.797-.18.496 4.364zm-4.05-8.55a47.085 47.085 0 011.882 1.426l-4.297.969-1.082.246-.074.015v-4.96a34.234 34.234 0 013.082 1.96c.172.11.324.223.488.34zm30.612 26.223c-.18-.094-.375-.176-.554-.27a40.899 40.899 0 01-3.45-2.043c-.171-.11-.343-.21-.507-.324a38.546 38.546 0 01-3.13-2.36c-.148-.124-.308-.246-.456-.374a40.434 40.434 0 01-2.82-2.668c-.137-.137-.27-.278-.407-.418-.367-.395-.773-.75-1.125-1.16a47.101 47.101 0 01-10.812 7.535c-.528.273-1.082.527-1.63.785a63.848 63.848 0 01-6.652 2.719 14.595 14.595 0 00-.472-1.11c-.09-.183-.172-.363-.27-.558a39.819 39.819 0 00-2.012-3.47c-.113-.167-.214-.335-.328-.495-.351-.52-.691-.993-1-1.364a62.146 62.146 0 003.586-1.207 46.08 46.08 0 001.352-.511 39.26 39.26 0 0013.71-8.676 52.914 52.914 0 01-1.75-3.18 61.408 61.408 0 01-1.996-4.313c-.081-.19-.156-.394-.238-.59a94.249 94.249 0 01-1.507-3.968c-.067-.203-.133-.41-.204-.617-.261-.758-.53-1.504-.777-2.285a52.23 52.23 0 01-3.3 4.746c-.528-.473-1.313-1.086-2.184-1.719-.156-.113-.317-.23-.48-.344-1.134-.804-2.348-1.597-3.329-2.16a15.492 15.492 0 00-.543-.293l-.074-.039c3.16-3.433 5.867-8.117 8.094-13.37.195-.458.383-.923.57-1.388a86.064 86.064 0 002.805-8.246c.105-.383.226-.761.328-1.148.348-1.274.668-2.547.953-3.828l2.414.492.684.14 4.476.91a1.01 1.01 0 00-.035.157c-.098.375-.21.75-.309 1.125a124.458 124.458 0 01-2.265 7.71c-.106.313-.195.645-.3.954h23.167v7.316h-4.723a90.826 90.826 0 01-1.664 6.82c-.113.403-.242.786-.363 1.184a62.059 62.059 0 01-3.352 8.79c-.27.554-.539 1.093-.816 1.628a45.802 45.802 0 01-3.45 5.645c.516.574 1.087 1.082 1.626 1.625.144.136.277.277.422.414.93.902 1.91 1.754 2.933 2.555a35.007 35.007 0 003.734 2.574c.173.105.344.21.524.308a36.743 36.743 0 003.652 1.844c.196.082.383.164.579.246.652.274 1.261.59 1.933.828a32.773 32.773 0 00-5.3 6.868c-1.044-.438-1.989-.942-2.958-1.43zm-5.773-39.102c.05-.273.129-.523.187-.8h-12.691c.04.167.09.327.129.495.05.227.113.434.164.657.352 1.468.734 2.91 1.164 4.312.059.211.133.414.203.621a64.54 64.54 0 001.418 4.063c.074.195.156.386.238.582a63.518 63.518 0 001.672 3.804c.09.184.188.364.285.547.375.75.727 1.524 1.133 2.243a40.949 40.949 0 003.157-6.504c.187-.47.398-.907.578-1.391.859-2.473 1.566-5 2.117-7.559.074-.367.164-.71.246-1.078zm-6.04 11.445c-.476-1.062-.898-2.195-1.323-3.32-.078-.2-.168-.387-.243-.586a65.624 65.624 0 01-1.343-4.133c-.067-.21-.133-.414-.192-.629-.12-.425-.273-.82-.382-1.254h6.8c-.129.543-.27 1.055-.406 1.575-.098.367-.187.75-.285 1.11a49.202 49.202 0 01-2.625 7.23zm0 0M140.89 17.309a6.625 6.625 0 005.45-2.79l-2.055-1.5a3.928 3.928 0 01-3.316 1.735 4.4 4.4 0 01-4.16-4.406 4.4 4.4 0 014.18-4.387 3.913 3.913 0 013.296 1.734l2.055-1.5a6.626 6.626 0 00-5.45-2.785 6.95 6.95 0 00-6.734 6.95 6.952 6.952 0 006.735 6.949zm14.973-8.13a3.46 3.46 0 00-2.925-1.445c-2.598 0-4.418 1.97-4.418 4.801 0 2.832 1.859 4.777 4.359 4.777a3.586 3.586 0 002.988-1.542v1.308h2.54v-9.11h-2.54V9.18zm-2.422 5.75a2.41 2.41 0 01-.02-4.816 2.407 2.407 0 012.376 2.399 2.407 2.407 0 01-2.356 2.418zm19.375-7.195a3.423 3.423 0 00-3.027 1.793 3.046 3.046 0 00-2.906-1.793 2.534 2.534 0 00-2.559 2.008V7.97h-2.539v9.105h2.54v-4.797c0-1.636.929-2.144 1.84-2.144.855 0 1.589.625 1.589 2.066v4.875h2.543V12.59c0-1.695.695-2.473 1.781-2.457.895 0 1.629.605 1.629 2.027v4.91h2.559v-4.988c0-2.73-1.18-4.348-3.45-4.348zm12.43 0a3.628 3.628 0 00-2.91 1.348V7.969h-2.54v13.57h2.54v-5.598a3.607 3.607 0 002.91 1.368 4.802 4.802 0 000-9.575zm-.484 7.196a2.41 2.41 0 010-4.817 2.409 2.409 0 010 4.817zm9.02-8.559a1.53 1.53 0 001.452-1.578 1.528 1.528 0 00-1.55-1.484 1.53 1.53 0 00-1.512 1.52 1.57 1.57 0 001.61 1.542zm1.28 10.703V7.97h-2.542v9.105zm8.973-9.34a2.934 2.934 0 00-2.715 1.774v-1.54h-2.543v9.106h2.543v-4.773a1.93 1.93 0 012.035-2.145c.872 0 1.723.64 1.723 2.067v4.851h2.543v-4.992c.02-2.73-1.219-4.348-3.586-4.348zm13.688 1.329a3.696 3.696 0 00-2.907-1.329 4.801 4.801 0 000 9.575 3.745 3.745 0 002.907-1.348v.254c0 2.36-1.028 3.277-2.657 3.277a2.57 2.57 0 01-2.289-1.426l-2.113.918a4.792 4.792 0 004.402 2.786c3.2 0 5.196-1.852 5.196-5.829V7.97h-2.54zM215.3 14.93a2.403 2.403 0 01-2.348-2.418 2.367 2.367 0 012.348-2.399 2.403 2.403 0 012.363 2.407 2.407 2.407 0 01-2.363 2.41zm15.273-8.559a1.534 1.534 0 001.453-1.578 1.53 1.53 0 00-1.55-1.484 1.527 1.527 0 00-1.512 1.52c.008.421.18.816.484 1.105.301.289.707.445 1.125.437zm1.278 10.703V7.97h-2.54v9.105zm8.976-9.34a2.928 2.928 0 00-2.715 1.774v-1.54h-2.539v9.106h2.54v-4.773a1.933 1.933 0 012.034-2.145c.872 0 1.727.64 1.727 2.067v4.851h2.54v-4.992c.019-2.73-1.224-4.348-3.587-4.348zm19.36 1.446a3.47 3.47 0 00-2.926-1.446c-2.598 0-4.422 1.97-4.422 4.801 0 2.832 1.863 4.777 4.363 4.777a3.574 3.574 0 002.985-1.542v1.308h2.542v-9.11h-2.543zm-2.426 5.75a2.41 2.41 0 01-.02-4.817 2.41 2.41 0 012.38 2.399 2.41 2.41 0 01-2.36 2.418zm14.527-2.145a1.914 1.914 0 01-.523 1.54c-.391.413-.942.632-1.512.605-.871 0-1.727-.664-1.727-2.086V7.969h-2.539v5.011c-.02 2.727 1.223 4.325 3.59 4.325.89 0 2.324-.524 2.715-1.715v1.48h2.535V7.97h-2.539zm9.363-4.816V4.656h-2.539V7.97h-1.648v1.988h1.648v7.117h2.54V9.957h1.921V7.969zm10.797 4.816a1.95 1.95 0 01-2.035 2.145c-.871 0-1.726-.664-1.726-2.086V7.969h-2.54v5.011c-.02 2.727 1.223 4.325 3.586 4.325.895 0 2.325-.524 2.715-1.715v1.48h2.54V7.97h-2.54zm16.985-5.05a3.413 3.413 0 00-3.024 1.792 3.051 3.051 0 00-2.91-1.793 2.534 2.534 0 00-2.559 2.008V7.97h-2.539v9.105h2.54v-4.797c0-1.636.93-2.144 1.84-2.144.855 0 1.59.625 1.59 2.066v4.875h2.542V12.59c0-1.695.695-2.473 1.781-2.457.895 0 1.63.605 1.63 2.027v4.91h2.558v-4.988c0-2.73-1.18-4.348-3.45-4.348zm12.23 0a2.942 2.942 0 00-2.715 1.773v-1.54h-2.535v9.106h2.535v-4.773a1.936 1.936 0 012.043-2.145c.867 0 1.723.64 1.723 2.067v4.851h2.543v-4.992c.015-2.73-1.223-4.348-3.594-4.348zm19.367 1.445a3.48 3.48 0 00-2.933-1.446c-2.594 0-4.418 1.97-4.418 4.801 0 2.832 1.86 4.777 4.367 4.777a3.595 3.595 0 002.984-1.542v1.308h2.535v-9.11h-2.535zm-2.422 5.75a2.41 2.41 0 01-1.793-4.09 2.403 2.403 0 012.633-.547 2.404 2.404 0 011.5 2.234 2.395 2.395 0 01-2.34 2.403zm13.59-7.196a2.934 2.934 0 00-2.715 1.774v-1.54h-2.535v9.106h2.535v-4.773a1.933 1.933 0 012.04-2.145c.87 0 1.726.64 1.726 2.067v4.851h2.54v-4.992c.015-2.73-1.22-4.348-3.59-4.348zm13.688 1.348a3.54 3.54 0 00-2.903-1.348 4.801 4.801 0 000 9.575c1.125.023 2.2-.48 2.903-1.368v1.133h2.543V3.016h-2.543zm-2.422 5.848a2.398 2.398 0 01-2.348-2.418 2.342 2.342 0 012.39-2.278 2.348 2.348 0 01-.042 4.696zm22.875-1.403l-1.727-5.558h-2.129l-1.726 5.558-1.711-5.558h-2.75l3.3 9.105h2.165l1.808-5.906 1.86 5.906h2.168L390.8 7.97h-2.754zm8.062-7.156a1.532 1.532 0 10-1.605-1.54c.02.868.738 1.556 1.605 1.54zm1.282 10.703V7.97h-2.543v9.105zm8.968-9.34a2.931 2.931 0 00-2.714 1.778V7.969h-2.536v9.105h2.536v-4.773a1.936 1.936 0 012.039-2.145c.87 0 1.726.64 1.726 2.067v4.851h2.543v-4.992c.016-2.73-1.223-4.348-3.594-4.348zm10.297.235V4.656h-2.539V7.97h-1.644v1.988h1.644v7.117h2.54V9.957h1.921V7.969zm13.59 4.406a4.529 4.529 0 00-1.355-3.34 4.557 4.557 0 00-3.36-1.3 4.783 4.783 0 00-4.187 2.386 4.782 4.782 0 00.008 4.82 4.796 4.796 0 004.203 2.368 5.051 5.051 0 004.011-1.832l-1.472-1.5a3.207 3.207 0 01-2.383 1.07 2.217 2.217 0 01-2.332-1.695h6.808c.04-.41.06-.723.06-.977zm-6.867-.68a2.114 2.114 0 012.21-1.758 1.924 1.924 0 011.411.446c.394.328.64.8.684 1.312zm15.203-3.96a2.789 2.789 0 00-2.656 2.183v-1.95h-2.52v9.106h2.543v-3.12c0-2.59.883-3.821 2.188-3.821.457-.004.902.11 1.297.332l.578-2.438a3.163 3.163 0 00-1.43-.293zm0 0M484.574 8.484a2.44 2.44 0 112.504-2.437 2.475 2.475 0 01-2.504 2.437zm-4.644 2.157a18.735 18.735 0 00-9.485 10.91 2.267 2.267 0 01-2.215 1.691 2.218 2.218 0 01-.554-.062 2.226 2.226 0 01-1.672-2.707 22.868 22.868 0 0111.871-13.82 2.317 2.317 0 013.074.992 2.204 2.204 0 01-1.02 2.996zm-16.895-2.07c.285 1.175.567 2.347.848 3.523.156.582.199 1.082-.363 1.312a1.603 1.603 0 01-1.332-.41c-1.024-.578-2.051-1.156-3.07-1.734-.321.18-.638.36-.954.539-.762.433-1.535.863-2.3 1.293a1.454 1.454 0 01-1.028.351.763.763 0 01-.613-.851c.32-1.34.644-2.68.972-4.024l-2.699-2.242c-.27-.203-.906-.582-.816-1.094.132-.761.718-.605 1.5-.722l3.515-.305c.172-.39.352-.781.528-1.172l.898-1.992a2.14 2.14 0 01.496-.879.968.968 0 01.344-.148l.137-.012c.652.039.754.488.957.945.496 1.09.984 2.176 1.48 3.258l3.508.305c.781.117 1.367-.035 1.5.726.09.508-.54.887-.816 1.094-.903.746-1.793 1.492-2.692 2.238zm0 0M82.32 8.508a2.44 2.44 0 002.383-2.473 2.44 2.44 0 00-2.457-2.402 2.44 2.44 0 00-2.418 2.437 2.465 2.465 0 002.492 2.438zm4.614 2.152a18.65 18.65 0 019.43 10.895 2.263 2.263 0 002.206 1.687c.184 0 .368-.02.547-.062a2.227 2.227 0 001.664-2.7A22.835 22.835 0 0088.977 6.676a2.297 2.297 0 00-3.055.988 2.21 2.21 0 001.012 2.996zm16.8-2.066c-.28 1.172-.566 2.344-.847 3.515-.157.582-.2 1.082.36 1.309.483.074.972-.074 1.327-.406l3.055-1.735c.312.184.629.364.941.543l2.293 1.29c.282.245.649.37 1.02.347a.754.754 0 00.61-.848l-.966-4.015 2.68-2.239c.27-.207.902-.585.813-1.093-.133-.762-.715-.602-1.493-.723l-3.492-.3c-.176-.391-.347-.782-.523-1.173l-.895-1.988a2.135 2.135 0 00-.488-.875.846.846 0 00-.344-.148l-.133-.016c-.652.043-.75.488-.957.95l-1.465 3.25-3.492.3c-.773.117-1.36-.035-1.492.723-.09.511.54.89.813 1.093zm0 0"/></g></svg>