<svg xmlns="http://www.w3.org/2000/svg" width="260pt" height="14pt" viewBox="0 0 260 14"><path d="M2.172 2.938h9.871v1.644h1.824V1.715h-2.191c.336-.352.652-.727.949-1.117L10.695.16A10.3 10.3 0 019.7 1.715H7.97V.148H6.105v1.57H4.398l.192-.062A7.851 7.851 0 003.527.207L1.855.645c.278.34.532.699.758 1.074H.433v2.867h1.739zm2.512 1.554h4.78v.633h-4.78zm6.644 1.63V3.495H2.945v2.625zm-7.512 4.405h6.657v.543H3.816zm0-1.46h6.657v.527H3.816v-.531zm0-1.465h6.657v.527H3.816zm8.52 4.449V6.633H2.03v5.418h2.27c-1.383.5-2.828.82-4.293.949.5.406.969.855 1.39 1.344 1.7-.301 3.336-.875 4.848-1.707l-1.644-.586h4.515l-1.215.781a41.72 41.72 0 014.25 1.422l1.953-.953c-.996-.36-2.601-.86-4.09-1.25zm11.758-5.446h.742v1.766h-.742zm2.43 1.766h-.774V6.605h.773zm-.141 2.129c.097.273.168.559.265.86l-.722.093v-1.77h1.547v-4.39h-1.489V4.125h1.465v-1.34h-4.32v1.34h1.5v1.164h-1.434v4.39h1.465v1.919a78.3 78.3 0 01-2.238.254l.344 1.418c1.214-.18 2.718-.391 4.214-.618.082.407.16.77.192 1.086l1.074-.3a21.972 21.972 0 00-.824-3.2zM21.19.645v5.722c0 .45 0 .95-.023 1.446-.36-.56-1.191-1.872-1.574-2.368v-.68h1.324v-1.66h-1.324V.133H17.89v2.972h-1.696v1.66h1.645a15.006 15.006 0 01-2.047 5.192c.34.55.629 1.133.867 1.734.512-.87.922-1.796 1.23-2.761v5.297h1.704v-6.61c.285.59.566 1.192.726 1.602l.832-1.07a13.53 13.53 0 01-1.007 5.28c.496.204.96.466 1.39.786 1.055-2.16 1.215-5.512 1.215-7.863v-4.18h5.129c-.016 5.777-.074 11.316 1.23 11.933.907.422 1.692-.027 1.899-2.472a11.49 11.49 0 01-.922-1.285c.016.718-.047 1.437-.184 2.144-.492-.195-.476-6.55-.332-11.847zm14.883 4.378l-1.64 1.372a28.997 28.997 0 013.394 3.32l1.688-1.387a29 29 0 00-3.442-3.308zm11.45-3.367A11.882 11.882 0 0044.745.191l-1.039 1.36c.973.39 1.883.922 2.695 1.586zm-.856 3.953a11.13 11.13 0 00-2.762-1.355l-1.011 1.355c.964.383 1.875.891 2.703 1.512zm-1.703 8.454c.82-1.465 1.672-3.215 2.387-4.829L45.879 8.16a47.735 47.735 0 01-2.598 4.848zm10.164-10.43c-.078 3.562-.191 4.785-.39 5.117a.478.478 0 01-.426.242c-.126 0-.286 0-.493-.015V4.812h-4.683c.285-.378.547-.773.785-1.18zm-3.094 4.363H50.16V6.367h1.875zm-.633 4.512c-1.066 0-1.242-.121-1.242-.86V9.551h3.453c.121.37.203.758.242 1.144a8.028 8.028 0 001.563-.07c.41-.074.77-.313.992-.664.406-.574.516-2.414.613-7.23.016-.227.016-.77.016-.77h-6.23c.207-.453.39-.914.55-1.387L49.512.137a10.96 10.96 0 01-2.969 4.738c.566.32 1.105.691 1.613 1.105l.168-.183v5.871c0 1.96.7 2.492 2.938 2.492h3.648c1.988 0 2.528-.648 2.79-2.898a6.643 6.643 0 01-1.716-.664c-.125 1.617-.273 1.918-1.214 1.918h-3.368zM70.79 5.582h-4.293V4.66c.29.223.543.488.758.785.539-.285 1-.699 1.34-1.207.433.375.847.774 1.238 1.192l.848-.77c-.348-.348-1.024-.906-1.594-1.36.133-.3.23-.612.305-.933l-1.254-.137a3.134 3.134 0 01-1.64 2.399V2.125h4.292zM72.57.797H64.81v6.129h7.761zm-8.644.86A11.729 11.729 0 0061.19.194l-1.05 1.356a11.14 11.14 0 012.695 1.586zm-.856 3.968a10.449 10.449 0 00-2.726-1.371l-1.016 1.344c.95.382 1.844.894 2.652 1.523zm-.93 2.55a47.02 47.02 0 01-2.538 4.833l1.671 1.055c.801-1.465 1.641-3.2 2.336-4.813zm3.801 1.028h.887v3.027h-.887V9.2zm3.16 0v3.027h-.882V9.2h.883zm2.305 0v3.027h-.898V9.2h.898zm1.77 3.035V7.695H64.27v4.535h-1.31v1.555h11.18V12.23h-.964zm7.754-4.347l-.317.074H76.61V9.53h3.04a7.214 7.214 0 01-3.63 2.793c.422.442.786.938 1.075 1.48a8.524 8.524 0 005.015-5.464zm3.457-.727h3.992a21.073 21.073 0 01-2.75 2.055 8.474 8.474 0 01-1.242-1.813zm-4.532-2.246h7.262v.89h-7.262v-.894zm0-2.129h7.262v.844h-7.262zm8.856 4.375h.367V1.43h-5.133c.235-.332.493-.707.727-1.086L82.426.043a9.954 9.954 0 01-.61 1.387h-3.824v5.734h4.516v5.207c0 .211-.067.258-.348.258-.234.016-1.168.016-1.957-.016.277.512.48 1.063.602 1.63a8.02 8.02 0 002.742-.27c.668-.258.84-.68.84-1.555v-2.16a10.32 10.32 0 005.398 3.515A7.906 7.906 0 0191 12.16a10.632 10.632 0 01-4.215-1.887 30.43 30.43 0 003.332-2.101zm7.223-2.14l-1.641 1.37a29.304 29.304 0 013.394 3.32l1.688-1.386a29 29 0 00-3.441-3.308zm18.265 3.773h-5.707v-.649h5.707zm-5.707 3.59v-.696h5.707v.696zm5.707-1.813h-5.707v-.66h5.707zm3.383-4.406V4.75h-7.816c.097-.21.191-.438.273-.648h6.688v-1.36h-6.188c.082-.242.164-.484.223-.726a55.394 55.394 0 005.906-.543L115.562.19a83.207 83.207 0 01-11.07.602c.188.43.309.883.356 1.344 1.23.015 2.539 0 3.843-.043-.043.226-.109.437-.168.648h-3.851v1.36h3.344c-.098.207-.188.433-.297.648h-4.153v1.418h3.36a10.338 10.338 0 01-3.848 3.516c.438.445.832.93 1.18 1.449a11.717 11.717 0 002.43-1.813v4.965h1.804v-.543h5.707v.543h1.903v-7.5h-7.387c.125-.21.25-.406.36-.617zm5.242-2.066h6.977v.816h-6.977zm0-2.067h6.977v.797h-6.977zm4.574 10.277v-1.027h4.239V9.887h-4.239v-.922h4.957v-1.48h-4.957v-.926h-1.937v.918h-2.29c.177-.286.317-.555.458-.829l-1.313-.363h9.446V.672h-10.785v5.613h.73a8.644 8.644 0 01-2.61 3.082c.555.317 1.079.688 1.563 1.102.535-.45 1.02-.957 1.453-1.508h3.348v.922h-4.07v1.398h4.07v1.028h-6.016v1.554h13.907V12.31h-5.954zm16.051-8.964v1.797c0 1.628.5 2.203 2.38 2.203h2.452a6.79 6.79 0 001.59-.121c-.059-.422-.11-1.118-.152-1.586-.5.078-1 .113-1.504.105h-2.352c-.476 0-.55-.152-.55-.574V3.348h2.226v1.765h1.957V1.72h-5.633a17.215 17.215 0 00-.84-1.703l-1.976.527c.18.36.332.77.496 1.18h-5.813v3.683h1.848V3.352h2.652c-.16 1.796-.73 2.566-4.566 2.93.399.421.7.925.883 1.476 4.566-.57 5.371-1.871 5.605-4.406h1.297zm.25 6.457h4.324V8.148h-10.511v1.653h4.199v2.43h-5.965v1.695h13.809V12.23h-5.856V9.8zm11.235.695c1.949-.543 3.105-1.945 3.105-3.652 0-1.266-.582-2.067-1.707-2.067a1.411 1.411 0 00-1.547 1.36 1.377 1.377 0 001.504 1.34c.059.003.117 0 .176-.012-.098.797-.813 1.445-2.043 1.824zm15.761-8.555a9.452 9.452 0 00-1.09-1.77L168.07.72c.41.566.75 1.18 1.012 1.828zm-2.593 12.07a7.882 7.882 0 001.457-3.515l-1.407-.453a6.71 6.71 0 01-1.363 3.094zm1.765-3.785c.25 1.012.38 2.051.387 3.094l1.434-.199a12.197 12.197 0 00-.47-3.047zm1.918-.046c.375.777.653 1.597.817 2.445l1.246-.363a9.81 9.81 0 00-.899-2.383zm3.04-3.473c-.06.41-.137.8-.22 1.148h-4.574c.266-.363.54-.754.774-1.148zm-.786-2.61c-.082.422-.156.844-.238 1.208h-2.207c.207-.391.398-.801.566-1.207zm2.305 3.758c.14-.77.285-1.718.41-2.55h-1.227c.153-.797.309-1.793.442-2.657h-3.242c.257-.707.48-1.433.68-2.187l-1.688-.317a23.27 23.27 0 01-.79 2.504h-3.933v1.45h3.316a13.16 13.16 0 01-4.05 5.07V3.875a23.283 23.283 0 001.492-3.137l-1.781-.531a15.583 15.583 0 01-3.47 5.586c.395.582.727 1.207.993 1.855.348-.347.672-.718.973-1.105v7.684h1.793V9.895c.246.34.472.699.675 1.07.665-.48 1.282-1.02 1.848-1.613h7.035c-.074.843-.14 1.507-.234 1.988a6.772 6.772 0 00-.945-1.77l-1.032.364c.403.586.707 1.234.899 1.918l1.062-.395a2.41 2.41 0 01-.398 1.133.644.644 0 01-.516.18c-.273 0-.808-.016-1.422-.06.262.454.422.958.473 1.477.598.047 1.2.04 1.797-.027a1.597 1.597 0 001.14-.531c.458-.496.708-1.84.946-5.113l.05-.664h-1.296zm14.539-.18v3.954h-3.328V6.895h4.793V1.418h-2.082v3.738h-2.711V.148h-2.086v5.008h-2.606V1.414h-1.988v5.48h4.594v4.739h-3.313V7.695h-2.117v5.715h10.844v.817h2.113V7.676h-2.113zm10.297.06h-1.055v-.966h1.055zm1.265-1.915h-3.52v2.867h3.52v-2.87zm-4.5 6.235V2.41h7.61l-.73.695c.429.223.84.493 1.214.797h-1.7c-.03-.422-.042-.843-.066-1.28h-1.546c.035.437.05.858.082 1.28h-4.282v1.27h4.391c.098 1.336.324 2.66.676 3.953a8.584 8.584 0 01-.785.77l-.032-.77c-1.64.21-3.285.406-4.433.516l.168 1.312c1.047-.164 2.293-.332 3.55-.515-.167.105-.343.21-.515.3a7.11 7.11 0 011.023 1.09 9.906 9.906 0 001.645-1.285c.262.465.683.816 1.183.996 1.04.453 1.86-.121 2.118-1.976a6.762 6.762 0 01-1.172-.844c-.059.875-.192 1.465-.375 1.418a1.244 1.244 0 01-.715-.817 11.057 11.057 0 001.656-3.453l-1.437-.273a8.791 8.791 0 01-.735 1.886c-.133-.68-.222-1.464-.304-2.308h2.824V3.906h-.754l.629-.633a5.281 5.281 0 00-1.29-.863h1.923v9.645h-9.82zM196.165.797v13.492h1.78v-.633h9.82v.633h1.864V.797zm18.546 5.617l3.394-.71-.066-.923-.55.074.394-.785a15.915 15.915 0 00-2.649-.66l-.457.813c.828.175 1.645.402 2.446.68-1.106.152-2.114.288-2.903.394V3.39h4.133v2.957h1.848V3.39h3.219c-.852.328-1.723.601-2.61.812l.356.543-.332-.043-.317.89c1.235.188 2.453.466 3.645.829l.297-.98a23.279 23.279 0 00-2.63-.602c.77-.149 1.532-.36 2.266-.637l-.61-.812h.927v1.96h1.91V2.349H220.3V1.73h5.316V.64h-12.344v1.09h5.18v.618H212.5v3.004h1.797zm6.281 4.492c.555-.203 1.094-.449 1.613-.734.57.3 1.168.547 1.782.734zm.555 1.95v-.907h2.148v.906zm-3-2.598h-1.797v-.695h1.754V8.418c.32.223.613.492.86.8.382-.195.75-.425 1.09-.679.269.297.566.57.886.813-.895.414-1.832.726-2.793.937zm-3.836-2.594h2.223v.797h-2.223zm9 .106a6.307 6.307 0 01-1.156.902 5.904 5.904 0 01-1.18-.902zm1.18-1.118l-.254.059h-2.332c.101-.14.199-.285.285-.438l-1.39-.226a6.48 6.48 0 01-2.696 2.25V6.559h-5.29v3.003h1.966v3.004l-.774.059V9.953h-1.367v2.762l-.707.047.152 1.375c1.739-.137 4.172-.348 6.477-.559l-.016-1.285c-.73.062-1.472.121-2.195.168v-1.012h1.797v-.8c.21.261.398.546.555.843.285-.07.578-.144.882-.254v3.004h1.563v-.305h2.148v.274h1.637v-3.047c.242.043.477.09.727.133.25-.457.566-.871.937-1.235a13.823 13.823 0 01-3.066-.738 7.218 7.218 0 001.937-2.16zM241.32.766a8.916 8.916 0 01-1.016 1.66l1.14.437c.407-.39.946-.996 1.48-1.586zm-6.856 2.023c.351-.332.824-.863 1.297-1.406.36.437.8.969 1.023 1.316l1.172-.906a15.91 15.91 0 00-1.262-1.402l-1.125.8-1.215-.375a11.145 11.145 0 01-.972 1.567zm-3.168-.969a16.67 16.67 0 00-1.281-1.398l-1.121.8c.445.466.851.966 1.214 1.493zm8.457 10.809h-7.527v-.863h7.527zm-6.438-4.606h4.942v.801h-4.942zm2.73 1.887h4.06V6.922h-8.528V9.91h2.762c-.074.211-.172.422-.25.621h-3.633v3.727h1.77v-.363h7.527v.347h1.863v-3.71h-5.937zm.849-4.887c.8-.21 1.539-.62 2.136-1.195a28.09 28.09 0 012.18 1.195zm1.597-4.875c-.11 2.157-.41 3.168-3.16 3.743.348.324.633.707.84 1.132h-5.84a5.084 5.084 0 001.961-1.195c.617.36 1.219.754 1.797 1.18l1.148-1.106A28.985 28.985 0 00233 2.605a9.203 9.203 0 00.395-2.46h-1.625c-.125 2.175-.458 3.261-3.16 3.863.308.297.57.637.773 1.012h-.281v2.898h1.796v-1.54h9.848v1.54h1.879V5.02H242l.816-.907c-.976-.57-1.98-1.09-3.011-1.554a8.698 8.698 0 00.375-2.414h-1.688zm16.758 4.239V2.199h.36v1.043h2.085c-.097.738-.238 1.48-.39 2.172-.274-.496-.524-.98-.797-1.418zm0 .105c.508.906.992 1.934 1.45 2.946a9.63 9.63 0 01-1.45 2.761zm-2.46 4.38V7.433h.995V8.64zm.995-5.434h-.996V2.199h.996zm-.996 1.359h.996v1.281h-.996zm-1.45 4.406l-.73.149.348 1.464c.852-.226 1.832-.496 2.828-.77v1.825h1.465v-1.086c.32.297.605.625.855.98.59-.699 1.079-1.48 1.45-2.32.25.66.472 1.297.61 1.809l1.46-.516a26.44 26.44 0 00-1.313-3.304c.524-1.754.88-3.551 1.055-5.372l-.98-.289-.266.047h-2.238V.687h-5.23v1.508h.687zm-1.917-.074h1.328V7.574h-1.328V6.051h1.344V4.465h-1.754V3.242h1.472V1.688h-1.472V.147h-1.672v1.54h-1.938v1.554h1.938v1.223h-2.305V6.05h2.762v4.18a5.846 5.846 0 01-.68-1.45c.016-.543.016-1.117 0-1.66l-1.547-.09c.067 2.051-.015 4.407-1.007 6.14.472.282.882.657 1.199 1.106a8.264 8.264 0 001.062-2.746c1.301 1.914 3.262 2.324 6.324 2.324h5.813c.152-.62.39-1.214.707-1.77-1.356.063-5.367.048-6.504.048a9.595 9.595 0 01-3.742-.528zm0 0" fill-rule="evenodd" fill="#432909"/></svg>