<svg xmlns="http://www.w3.org/2000/svg" width="533pt" height="17pt" viewBox="0 0 533 17"><g fill-rule="evenodd" fill="#432909"><path d="M86.516 3.445H97.59V5.38h2.055V2.008h-2.461c.379-.418.73-.856 1.058-1.313L96.082.18c-.312.64-.687 1.254-1.113 1.824h-1.953V.156h-2.09v1.848h-1.914l.215-.074a9.613 9.613 0 00-1.188-1.7L86.16.75c.309.402.594.82.852 1.254h-2.446v3.371h1.95V3.441zm2.816 1.825h5.367v.746h-5.367zm7.457 1.918V4.101h-9.406v3.085zm-8.43 5.175h7.473V13h-7.473zm0-1.722h7.473v.62h-7.473zm0-1.72h7.473v.622h-7.473zm9.563 5.231V7.785H86.355v6.367h2.551c-1.547.59-3.168.965-4.816 1.118a12.93 12.93 0 011.558 1.578 17.184 17.184 0 005.438-2.004l-1.848-.692h5.067l-1.364.922a44.402 44.402 0 014.766 1.668l2.195-1.117c-1.117-.426-2.922-1.012-4.586-1.473zm17.586-6.402h.832v2.074h-.832zm2.726 2.074h-.867V7.75h.867zm-.16 2.504c.106.317.196.656.301 1.008l-.813.11V11.37h1.735v-5.16h-1.664V4.848h1.648V3.27h-4.855v1.578h1.683v1.367H114.5v5.16h1.645v2.25c-.957.125-1.805.23-2.512.305l.387 1.664c1.363-.211 3.046-.461 4.73-.727.09.48.176.906.21 1.278l1.208-.356a25.857 25.857 0 00-.922-3.758zM112.25.746V7.47c0 .531 0 1.117-.02 1.699-.406-.656-1.347-2.2-1.773-2.785v-.797h1.488V3.64h-1.488V.148h-1.91v3.493h-1.895V5.59h1.844a18.09 18.09 0 01-2.3 6.101c.382.649.71 1.332.972 2.04a16.294 16.294 0 001.383-3.247v6.227h1.91V8.94c.32.692.64 1.407.812 1.883l.942-1.258a16.775 16.775 0 01-1.137 6.207c.559.243 1.082.551 1.559.922 1.187-2.535 1.367-6.472 1.367-9.238V2.543h5.758c-.02 6.793-.09 13.305 1.379 14.027 1.011.5 1.894-.035 2.125-2.906a13.31 13.31 0 01-1.028-1.508c.016.844-.054 1.688-.21 2.52-.551-.23-.532-7.7-.368-13.922h-9.406zm21.094 5.145L131.5 7.504a33.216 33.216 0 013.805 3.898l1.894-1.629a33.205 33.205 0 00-3.855-3.882zm17.23-3.957a12.843 12.843 0 00-3.117-1.72l-1.168 1.595c1.098.46 2.117 1.09 3.027 1.863zm-.96 4.648a12.391 12.391 0 00-3.098-1.598l-1.133 1.598a12.848 12.848 0 013.023 1.773zm-1.91 9.93c.921-1.719 1.874-3.778 2.671-5.676l-1.645-1.254a55.833 55.833 0 01-2.921 5.691zm11.405-12.254c-.09 4.183-.214 5.62-.445 6.012a.506.506 0 01-.476.285c-.141 0-.32 0-.551-.02V5.641h-5.258c.32-.442.617-.903.883-1.383zm-3.468 5.125h-2.11V7.469h2.11zm-.711 5.3c-1.203 0-1.399-.14-1.399-1.007v-2.469h3.88c.132.441.222.895.265 1.352a8.51 8.51 0 001.754-.09 1.649 1.649 0 001.117-.781c.46-.672.582-2.836.687-8.493.02-.27.02-.906.02-.906h-6.996c.23-.531.441-1.082.62-1.633l-2.073-.515a13.004 13.004 0 01-3.328 5.57c.636.375 1.242.809 1.804 1.293l.196-.215v6.902c0 2.309.777 2.926 3.293 2.926h4.097c2.23 0 2.832-.762 3.133-3.402a7.387 7.387 0 01-1.93-.781c-.14 1.898-.3 2.254-1.363 2.254h-3.773zm26.152-8.136h-4.82V5.465c.324.265.61.574.851.922a4.322 4.322 0 001.504-1.418c.531.496 1.063 1.027 1.383 1.402l.96-.902c-.39-.41-1.151-1.067-1.788-1.598.144-.355.258-.723.336-1.098l-1.403-.16a3.73 3.73 0 01-1.843 2.82V2.489h4.816v4.059zm2-5.621h-8.71v7.203h8.71zm-9.703 1.015A13.232 13.232 0 00170.313.22l-1.188 1.597a12.204 12.204 0 013.027 1.864zm-.961 4.664a11.463 11.463 0 00-3.066-1.613l-1.133 1.578a12.334 12.334 0 012.976 1.79zm-1.047 2.997a55.035 55.035 0 01-2.851 5.675l1.878 1.239a68.578 68.578 0 002.622-5.657zm4.27 1.207h.992v3.562h-.992zm3.543 0v3.562h-.993V10.81zm2.586 0v3.562h-1.012V10.81zm1.984 3.562V9.035h-9.988v5.336h-1.47V16.2h12.54v-1.828zm13.101-5.105l-.355.086H192v1.847h3.418a8.164 8.164 0 01-4.074 3.281c.476.524.883 1.11 1.207 1.739a9.868 9.868 0 005.633-6.418zm3.88-.852h4.48a24.495 24.495 0 01-3.082 2.41 9.655 9.655 0 01-1.403-2.129v-.28zm-5.087-2.644h8.149v1.046h-8.145V5.77zm0-2.5h8.149v.992h-8.145V3.27zm9.938 5.144h.406V1.676h-5.758a25 25 0 00.813-1.278L198.53.043a12.452 12.452 0 01-.687 1.633h-4.281v6.738h5.066v6.117c0 .25-.074.301-.39.301-.266.02-1.31.02-2.196-.016.312.602.539 1.246.672 1.914a8.737 8.737 0 003.082-.32c.746-.3.941-.797.941-1.824v-2.54c1.516 2 3.645 3.45 6.055 4.134a9.744 9.744 0 011.363-1.899 11.647 11.647 0 01-4.726-2.215 35.49 35.49 0 003.738-2.464zm12.492-2.52l-1.848 1.614a33.275 33.275 0 013.81 3.902l1.894-1.633a33.513 33.513 0 00-3.852-3.886zm24.887 4.438h-6.41v-.766h6.41zm-6.41 4.219v-.813h6.41v.813zm6.41-2.13h-6.41v-.784h6.41zm3.793-5.175V5.578h-8.766c.11-.25.215-.52.301-.762h7.512V3.22h-6.942c.09-.285.18-.567.25-.852 2.219-.09 4.43-.3 6.625-.637L244.496.223a89.123 89.123 0 01-12.414.707 5.5 5.5 0 01.39 1.578c1.38.02 2.852 0 4.321-.051-.055.266-.125.516-.195.762h-4.32v1.597h3.753c-.105.247-.21.516-.336.762h-4.66v1.668h3.774a11.806 11.806 0 01-4.32 4.129c.491.527.937 1.098 1.327 1.7a13.71 13.71 0 002.73-2.126v5.832h2.02v-.636h6.41v.636h2.13V7.97h-8.297c.14-.25.28-.48.406-.73h9.547zm10.281-2.43h7.828v.961h-7.824v-.96zm0-2.43h7.828v.938h-7.824v-.941zm5.137 12.075V13.25h4.746v-1.652h-4.746V10.52h5.558V8.78h-5.558V7.7h-2.18v1.082h-2.57c.195-.34.355-.656.515-.976l-1.472-.426h10.594V.78h-12.094V7.38h.812a10.08 10.08 0 01-2.922 3.617c.625.375 1.211.809 1.754 1.293a12.308 12.308 0 001.63-1.773h3.753v1.082h-4.57v1.652h4.57v1.203h-6.746v1.828h15.605v-1.828h-6.68zM284.574 3.93v2.11c0 1.913.567 2.585 2.676 2.585h2.746c.598.027 1.2-.02 1.79-.14-.075-.497-.126-1.313-.177-1.864a9.745 9.745 0 01-1.683.125h-2.64c-.532 0-.618-.18-.618-.676V3.93h2.496v2.074h2.195V2.012h-6.324a20.776 20.776 0 00-.937-2.004l-2.215.62c.195.427.37.903.55 1.384h-6.519V6.34h2.07V3.926h2.985c-.176 2.11-.813 3.015-5.117 3.441a4.82 4.82 0 01.992 1.738c5.117-.675 6.02-2.199 6.285-5.18h1.453zm.285 7.59h4.852V9.566h-11.793v1.954h4.715v2.855h-6.695v1.977h15.496v-1.985h-6.57v-2.855zm16.989.812a4.456 4.456 0 003.496-4.293c0-1.488-.66-2.43-1.922-2.43a1.612 1.612 0 00-1.734 1.598c-.004.438.175.856.496 1.156.32.297.75.453 1.187.422a.639.639 0 00.192-.02c-.106.942-.903 1.7-2.286 2.145zm22.074-10.055a10.941 10.941 0 00-1.219-2.074l-1.719.64c.457.669.84 1.387 1.137 2.141zm-2.902 14.188a9.39 9.39 0 001.625-4.133l-1.57-.531a8.273 8.273 0 01-1.524 3.636zm1.98-4.45c.277 1.192.418 2.41.426 3.633l1.61-.23a14.263 14.263 0 00-.532-3.582zm2.148-.054c.422.918.735 1.883.922 2.875l1.395-.426a11.98 11.98 0 00-1.012-2.805zm3.418-4.078c-.074.48-.164.937-.25 1.347h-5.14c.304-.425.605-.886.87-1.347zm-.886-3.067c-.09.497-.176.993-.266 1.418h-2.48c.23-.46.441-.941.636-1.418zm2.582 4.414c.164-.902.32-2.023.468-2.996h-1.39c.18-.941.355-2.113.504-3.12h-3.633c.281-.837.531-1.688.762-2.571l-1.899-.371c-.238.996-.535 1.98-.887 2.945h-4.406v1.7h3.719a15.35 15.35 0 01-4.555 5.956V4.551A27.325 27.325 0 00320.63.859l-2-.62A18.433 18.433 0 01314.73 6.8a12.24 12.24 0 011.118 2.183c.39-.414.757-.843 1.097-1.296v9.027h2V11.62c.282.402.535.824.762 1.258.75-.566 1.445-1.2 2.074-1.899h7.899c-.086.997-.16 1.778-.266 2.344a7.977 7.977 0 00-1.062-2.078l-1.153.426a7.964 7.964 0 011.012 2.254l1.187-.461a3.112 3.112 0 01-.441 1.332.75.75 0 01-.59.21c-.297 0-.902-.015-1.59-.073.293.539.473 1.129.528 1.738a10.26 10.26 0 002.02-.035 1.77 1.77 0 001.277-.621c.511-.586.8-2.164 1.066-6.012l.05-.781h-1.456zm20.715-.214v4.648h-3.743v-5.57h5.391V1.656h-2.34v4.399h-3.05V.168h-2.333v5.887h-2.922V1.656h-2.238v6.438h5.16v5.566h-3.718V9.031h-2.38v6.723h12.173v.96h2.37V9.013h-2.37zm15.953.074h-1.188V7.95h1.188zm1.418-2.25h-3.95v3.367h3.95zm-5.047 7.324V2.828h8.539l-.82.813c.488.265.945.582 1.367.941h-1.91c-.04-.5-.055-.996-.075-1.508h-1.734c.035.512.05 1.008.086 1.508h-4.797V6.07h4.922c.113 1.567.371 3.125.762 4.645-.278.32-.575.62-.887.906l-.035-.906c-1.84.25-3.684.48-4.977.605l.2 1.543c1.167-.195 2.57-.39 3.98-.605-.192.125-.387.25-.586.355.43.387.812.813 1.152 1.278.668-.434 1.29-.938 1.848-1.508.289.539.758.953 1.328 1.172 1.164.53 2.09-.14 2.367-2.325a7.467 7.467 0 01-1.304-.992c-.075 1.028-.215 1.719-.43 1.668a1.468 1.468 0 01-.797-.96 13.48 13.48 0 001.863-4.067l-1.61-.32c-.194.77-.476 1.511-.835 2.218-.14-.797-.25-1.722-.34-2.714h3.176V4.574h-.852l.711-.746a6.158 6.158 0 00-1.457-1.012h2.164v11.332H363.3zM361.297.934v15.851h2.004v-.742h11.02v.742h2.09V.925h-15.114zm25.21 6.597l3.813-.836-.074-1.082-.613.09.433-.922A16.655 16.655 0 00387.094 4l-.512.96c.934.204 1.852.474 2.746.798-1.238.18-2.375.336-3.262.46V3.985h4.645v3.477h2.074V3.984h3.61c-.954.387-1.93.707-2.926.961l.394.64-.37-.054-.356 1.047c1.386.219 2.754.547 4.09.977l.332-1.157a25.501 25.501 0 00-2.95-.707 14.966 14.966 0 002.547-.746l-.687-.96h1.039v2.304h2.148V2.754h-6.87v-.727h5.964V.75h-13.852v1.277h5.813v.727h-6.684V6.28h2.024zm7.052 5.282a12.4 12.4 0 001.808-.868c.637.352 1.309.645 2 .867zm.62 2.289v-1.063h2.407v1.063zm-3.366-3.051h-2.016v-.813h1.965V9.891c.367.265.695.582.972.941.43-.234.84-.5 1.227-.8.297.35.629.675.988.96-1 .485-2.054.852-3.137 1.102zM386.507 9h2.504v.941h-2.504zm10.101.125c-.39.402-.824.762-1.293 1.066a6.605 6.605 0 01-1.328-1.066zm1.329-1.313l-.29.075h-2.62c.117-.164.226-.336.32-.516l-1.559-.266a7.31 7.31 0 01-3.027 2.641V7.707h-5.938v3.527h2.215v3.532l-.863.074V11.7h-1.543v3.245l-.797.055.18 1.613c1.945-.16 4.671-.41 7.261-.656l-.02-1.508c-.812.074-1.648.14-2.46.196v-1.188h2.015v-.945c.239.308.45.64.622.992.316-.09.656-.18.996-.3v3.526h1.75v-.355h2.406v.32h1.844v-3.582c.27.055.535.106.812.16a6.123 6.123 0 011.051-1.457 14.924 14.924 0 01-3.441-.867 8.503 8.503 0 002.183-2.535zM420.762.899c-.305.688-.684 1.34-1.13 1.95l1.278.52c.457-.466 1.063-1.173 1.66-1.864zm-7.684 2.375c.39-.39.922-1.011 1.453-1.648.406.516.903 1.133 1.153 1.543l1.308-1.066a17.238 17.238 0 00-1.418-1.649l-1.258.942-1.363-.446a12.91 12.91 0 01-1.094 1.848zm-3.558-1.136a19.781 19.781 0 00-1.434-1.649l-1.262.942c.5.547.957 1.136 1.367 1.754zm9.492 12.699h-8.45v-1.012h8.45zm-7.227-5.41h5.547v.941h-5.547zm3.067 2.219h4.554V8.133h-9.57v3.512h3.101c-.09.25-.19.496-.28.726h-4.075v4.379h1.98v-.426h8.45v.41h2.09v-4.363h-6.657zm.957-5.747a5.44 5.44 0 002.394-1.402c.848.441 1.762.961 2.442 1.402zm1.789-5.726c-.13 2.535-.461 3.723-3.547 4.398.39.383.707.832.937 1.328h-6.547a5.586 5.586 0 002.192-1.402c.703.422 1.375.883 2.023 1.383l1.293-1.297a34.366 34.366 0 00-2.515-1.523c.273-.942.421-1.91.441-2.891h-1.824c-.14 2.555-.516 3.828-3.543 4.539.344.356.637.754.87 1.188h-.323V9.3h2.023V7.492h11.05v1.809h2.11V5.895h-.707l.914-1.063a36.134 36.134 0 00-3.379-1.828c.266-.922.41-1.875.426-2.836h-1.894zm23.199 4.98V2.574h.406v1.227h2.336a28.42 28.42 0 01-.445 2.55 27.297 27.297 0 00-.887-1.663zm0 .125a47.38 47.38 0 011.625 3.457 11.606 11.606 0 01-1.625 3.246zm-2.766 5.145V8.734h1.114v1.422zm1.114-6.387h-1.114v-1.46h1.114zm-1.114 1.598h1.114V7.14h-1.114zm-1.633 5.18l-.812.175.39 1.719a414.03 414.03 0 003.169-.902v2.144h1.652v-1.277c.36.348.68.734.953 1.152a11.346 11.346 0 001.633-2.734c.281.777.531 1.523.687 2.129l1.63-.606a31.447 31.447 0 00-1.47-3.883 34.009 34.009 0 001.188-6.312l-1.098-.34-.304.055H441.5V.8h-5.863v1.777h.761zm-2.14-.09h1.492V8.887h-1.492v-1.79h1.508V5.235H433.8V3.797h1.644V1.973h-1.644V.168h-1.883v1.809h-2.18V3.8h2.18v1.437h-2.586v1.864h3.102v4.91a6.767 6.767 0 01-.758-1.7 54.04 54.04 0 000-1.949l-1.738-.11c.066 2.415-.02 5.18-1.137 7.22.539.332 1 .773 1.351 1.293.578-1 .977-2.09 1.184-3.227 1.469 2.254 3.668 2.73 7.101 2.73h6.516a8.566 8.566 0 01.797-2.074c-1.52.075-6.016.055-7.293.055a10.33 10.33 0 01-4.2-.621v-2.91zm0 0M8.898 8.96h61.168c.778 0 1.403.63 1.403 1.407v.008c0 .777-.625 1.406-1.403 1.406H8.898a1.405 1.405 0 01-1.402-1.406v-.008c0-.777.629-1.406 1.402-1.406zm-6.855-.69a2.1 2.1 0 011.562 3.566A2.098 2.098 0 010 10.37 2.066 2.066 0 012.043 8.27zm0 0M462.934 8.96h61.164c.773 0 1.402.63 1.402 1.407v.008c0 .777-.629 1.406-1.402 1.406h-61.164a1.405 1.405 0 01-1.403-1.406v-.008c0-.777.63-1.406 1.403-1.406zm68.023-.69a2.1 2.1 0 011.566 3.566 2.103 2.103 0 01-2.296.484 2.11 2.11 0 01-1.309-1.949 2.072 2.072 0 012.039-2.101zm0 0"/></g></svg>