<svg xmlns="http://www.w3.org/2000/svg" width="38pt" height="38pt" viewBox="0 0 38 38"><g fill="#fff"><path d="M30.172 26.523a4.25 4.25 0 01-4.258-4.253 4.25 4.25 0 014.258-4.258 4.25 4.25 0 014.258 4.258c.074 2.277-1.903 4.253-4.258 4.253zm0 0M7.828 26.523A4.25 4.25 0 013.57 22.27a4.25 4.25 0 014.258-4.258 4.25 4.25 0 014.258 4.258c0 2.277-1.902 4.253-4.258 4.253zm0 0M26.45 2.965c-1.446 0-2.66-.762-3.27-2.055l-.153-.3A1.203 1.203 0 0021.965 0h-5.93c-.457 0-.836.227-.988.61l-.152.3c-.606 1.293-1.899 2.055-3.266 2.055-.61 0-1.14.531-1.14 1.14v6.383c0 2.508.757 4.864 2.28 6.914a12.17 12.17 0 005.926 4.184c.078 0 .23.074.305.074.074 0 .227 0 .305-.074 2.355-.688 4.406-2.129 5.925-4.184 1.524-1.972 2.282-4.406 2.282-6.914V4.105c0-.609-.457-1.14-1.063-1.14zm-3.497 6.46l-4.18 4.255c-.23.226-.535.304-.761.304-.305 0-.532-.078-.758-.304l-2.129-2.13a1.098 1.098 0 010-1.593 1.098 1.098 0 011.594 0l1.293 1.29 3.422-3.419a1.098 1.098 0 011.593 0c.38.457.38 1.215-.074 1.598zm0 0M34.73 26.828c-1.136 1.14-2.808 1.899-4.558 1.899-1.746 0-3.418-.684-4.559-1.899-.61.457-1.14.988-1.672 1.598l.606.531a8.526 8.526 0 012.89 6.383V38h9.348c.606 0 1.14-.531 1.14-1.14v-3.723c.075-2.586-1.218-4.864-3.195-6.309zm0 0M3.27 26.828C1.293 28.273 0 30.551 0 33.211v3.727C0 37.468.531 38 1.14 38h9.348v-2.586a8.534 8.534 0 012.887-6.383l.61-.531a6.732 6.732 0 00-1.672-1.598c-1.141 1.141-2.813 1.903-4.56 1.903-1.75-.078-3.347-.762-4.483-1.977zm0 0M23.18 30.629c-1.063 1.062-2.508 1.746-4.18 1.746-1.672 0-3.117-.684-4.18-1.746a6.375 6.375 0 00-2.129 4.71V38H25.31v-2.586c0-1.898-.836-3.57-2.13-4.785zm0 0M19 30.172a3.487 3.487 0 01-3.496-3.496c0-1.899 1.598-3.496 3.496-3.496s3.496 1.597 3.496 3.496A3.487 3.487 0 0119 30.172zm0 0"/></g></svg>