<svg xmlns="http://www.w3.org/2000/svg" width="38pt" height="38pt" viewBox="0 0 38 38"><path d="M33.516 26.297c6.004-6.004 6.004-15.809 0-21.813s-15.809-6.004-21.813 0c-5.09 5.09-5.851 12.692-2.355 18.621 0 0 .226.454-.075.758a2867.503 2867.503 0 00-7.828 7.907C-.152 33.363-.53 35.492.91 36.938l.23.226c1.368 1.367 3.57.988 5.169-.531l7.828-7.828c.379-.38.758-.078.758-.078 5.93 3.496 13.53 2.66 18.62-2.43zm-19-2.813c-4.407-4.41-4.407-11.703 0-16.113 4.41-4.406 11.703-4.406 16.113 0 4.406 4.41 4.406 11.703 0 16.113-4.41 4.407-11.629 4.407-16.113 0zm0 0" fill="#53c894"/></svg>