<?xml version="1.0" encoding="UTF-8"?>
<svg xmlns="http://www.w3.org/2000/svg" xmlns:xlink="http://www.w3.org/1999/xlink" width="37pt" height="25pt" viewBox="0 0 37 25" version="1.1">
<g id="surface1">
<path style=" stroke:none;fill-rule:evenodd;fill:rgb(100%,100%,100%);fill-opacity:1;" d="M 2.605469 9.128906 C 4.046875 9.125 5.214844 7.953125 5.214844 6.503906 C 5.210938 5.058594 4.042969 3.886719 2.601562 3.886719 C 1.15625 3.886719 -0.0117188 5.058594 -0.0117188 6.507812 C -0.0078125 7.957031 1.160156 9.128906 2.605469 9.128906 Z M 7.457031 11.445312 C 12.1875 13.878906 15.757812 18.101562 17.375 23.183594 C 17.636719 24.25 18.59375 25 19.691406 25 C 19.886719 25 20.082031 24.976562 20.269531 24.933594 C 21.554688 24.613281 22.335938 23.3125 22.019531 22.023438 C 20.089844 15.570312 15.601562 10.195312 9.609375 7.160156 C 8.84375 6.765625 7.925781 6.8125 7.207031 7.28125 C 6.484375 7.753906 6.074219 8.578125 6.125 9.4375 C 6.175781 10.300781 6.6875 11.066406 7.457031 11.445312 Z M 25.121094 9.226562 C 24.828125 10.484375 24.53125 11.75 24.234375 13.007812 C 24.066406 13.636719 24.023438 14.175781 24.609375 14.425781 C 25.140625 14.644531 25.683594 14.175781 26.003906 13.976562 L 29.214844 12.113281 C 29.546875 12.3125 29.878906 12.507812 30.207031 12.695312 C 31.011719 13.160156 31.8125 13.621094 32.617188 14.089844 C 32.910156 14.351562 33.296875 14.484375 33.6875 14.460938 C 34.113281 14.375 34.394531 13.972656 34.332031 13.546875 C 33.992188 12.105469 33.65625 10.667969 33.316406 9.226562 C 34.253906 8.417969 35.195312 7.609375 36.132812 6.8125 C 36.417969 6.589844 37.082031 6.183594 36.988281 5.636719 C 36.84375 4.816406 36.234375 4.984375 35.417969 4.855469 C 34.195312 4.75 32.972656 4.636719 31.746094 4.53125 C 31.5625 4.113281 31.378906 3.6875 31.191406 3.265625 L 30.25 1.128906 C 30.15625 0.777344 29.980469 0.453125 29.742188 0.183594 C 29.628906 0.105469 29.507812 0.0507812 29.375 0.0234375 C 29.328125 0.015625 29.285156 0.015625 29.238281 0.0078125 C 28.550781 0.0546875 28.445312 0.53125 28.230469 1.03125 C 27.714844 2.195312 27.203125 3.363281 26.691406 4.53125 C 25.464844 4.636719 24.242188 4.75 23.019531 4.855469 C 22.207031 4.984375 21.589844 4.816406 21.449219 5.636719 C 21.355469 6.183594 22.019531 6.589844 22.304688 6.8125 C 23.246094 7.613281 24.183594 8.417969 25.121094 9.226562 Z M 25.121094 9.226562 "/>
</g>
</svg>
