<svg xmlns="http://www.w3.org/2000/svg" width="38pt" height="38pt" viewBox="0 0 38 38"><g fill="#fff"><path d="M21.203 7.45H7.828c-.61 0-1.14-.536-1.14-1.141V4.105c0-.609.53-1.14 1.14-1.14 1.215 0 2.281-.836 2.582-2.055V.836C10.562.379 11.02 0 11.55 0h5.93c.532 0 .989.379 1.063.836V.91c.305 1.219 1.367 2.055 2.586 2.055.605 0 1.14.531 1.14 1.14V6.31c0 .605-.456 1.14-1.066 1.14zm0 0"/><path d="M20.445 12.617c.532 0 1.063-.305 1.29-.836l.152-.304c.535-1.141 1.75-1.825 2.965-1.825h2.585V7.828c0-1.75-1.292-3.117-2.964-3.344V6.31c0 1.824-1.52 3.343-3.344 3.343h-13.3c-1.825 0-3.345-1.52-3.345-3.343V4.484C2.813 4.637 1.52 6.078 1.52 7.828V34.73c0 1.75 1.52 3.27 3.343 3.27h19.305c1.52 0 2.812-.988 3.191-2.434-.152 0-.304-.074-.457-.074-2.886-.836-5.316-2.586-7.066-4.941-1.746-2.356-2.734-5.242-2.734-8.207V15.96c0-1.824 1.52-3.344 3.343-3.344zM13.07 28.88l-4.18 4.18c-.226.23-.53.304-.757.304-.305 0-.531-.074-.762-.304l-2.129-2.125a1.109 1.109 0 010-1.598 1.102 1.102 0 011.598 0l1.293 1.293 3.418-3.422a1.109 1.109 0 011.597 0c.38.531.38 1.219-.078 1.672zm0-7.902l-4.18 4.18a1.091 1.091 0 01-.757.304.987.987 0 01-.762-.305l-2.129-2.129a1.104 1.104 0 010-1.593 1.102 1.102 0 011.598 0L8.055 22.8l3.422-3.422a1.104 1.104 0 011.593 0c.457.457.457 1.14 0 1.598zm0-7.98l-4.18 4.179a1.091 1.091 0 01-.757.304.987.987 0 01-.762-.304l-2.129-2.13a1.104 1.104 0 010-1.593 1.102 1.102 0 011.598 0l1.293 1.29 3.418-3.419a1.102 1.102 0 011.597 0c.38.531.38 1.293-.078 1.672zm0 0"/><path d="M35.266 14.82c-1.446 0-2.66-.761-3.27-2.05l-.152-.305c-.153-.38-.61-.61-.989-.61H24.93c-.457 0-.836.23-.989.61l-.152.305a3.602 3.602 0 01-3.27 2.05c-.609 0-1.14.532-1.14 1.14v6.384c0 2.508.762 4.863 2.281 6.918a12.181 12.181 0 005.93 4.18c.074 0 .226.074.3.074.079 0 .231 0 .305-.075 2.356-.683 4.41-2.129 5.93-4.18 1.52-1.976 2.277-4.41 2.277-6.917V15.96c0-.61-.53-1.14-1.136-1.14zm-3.496 6.535l-4.18 4.18c-.23.23-.535.305-.762.305-.305 0-.531-.074-.762-.305l-2.125-2.129a1.098 1.098 0 010-1.593 1.098 1.098 0 011.594 0l1.293 1.292 3.418-3.421a1.102 1.102 0 011.598 0c.379.53.379 1.214-.074 1.671zm0 0"/></g></svg>