<?xml version="1.0" encoding="UTF-8"?>
<svg xmlns="http://www.w3.org/2000/svg" xmlns:xlink="http://www.w3.org/1999/xlink" width="36pt" height="11pt" viewBox="0 0 36 11" version="1.1">
<g id="surface1">
<path style=" stroke:none;fill-rule:evenodd;fill:rgb(32.54902%,78.431373%,58.039216%);fill-opacity:1;" d="M 18 0 C 18.210938 0 18.351562 0.144531 18.351562 0.359375 L 18.351562 4.816406 C 18.351562 5.03125 18.210938 5.175781 18 5.175781 C 17.789062 5.175781 17.648438 5.03125 17.648438 4.816406 L 17.648438 0.359375 C 17.648438 0.144531 17.789062 0 18 0 Z M 22.730469 0.289062 C 22.941406 0.289062 23.082031 0.503906 23.082031 0.71875 L 22.660156 5.175781 C 22.660156 5.390625 22.445312 5.535156 22.234375 5.535156 C 22.023438 5.535156 21.882812 5.320312 21.882812 5.105469 L 22.304688 0.648438 C 22.304688 0.359375 22.519531 0.214844 22.730469 0.289062 Z M 27.53125 1.871094 C 27.742188 1.941406 27.882812 2.15625 27.742188 2.371094 L 26.1875 6.542969 C 26.117188 6.757812 25.90625 6.828125 25.695312 6.757812 C 25.480469 6.6875 25.410156 6.46875 25.480469 6.253906 L 27.035156 2.085938 C 27.175781 1.871094 27.386719 1.796875 27.53125 1.871094 Z M 31.835938 4.027344 C 31.976562 4.171875 32.046875 4.386719 31.976562 4.53125 L 29.648438 8.339844 C 29.578125 8.484375 29.292969 8.554688 29.152344 8.484375 C 29.011719 8.339844 28.941406 8.125 29.011719 7.980469 L 31.339844 4.171875 C 31.410156 3.953125 31.625 3.882812 31.835938 4.027344 Z M 35.578125 7.117188 C 35.71875 7.261719 35.71875 7.550781 35.578125 7.691406 L 32.328125 10.785156 C 32.1875 10.929688 31.976562 10.929688 31.835938 10.785156 C 31.695312 10.640625 31.695312 10.351562 31.835938 10.210938 L 35.011719 7.117188 C 35.152344 6.972656 35.433594 6.972656 35.578125 7.117188 Z M 13.339844 0.214844 C 13.128906 0.214844 12.988281 0.429688 12.988281 0.648438 L 13.410156 5.03125 C 13.410156 5.25 13.625 5.390625 13.835938 5.390625 C 14.046875 5.390625 14.1875 5.175781 14.1875 4.960938 L 13.765625 0.574219 C 13.765625 0.359375 13.554688 0.144531 13.339844 0.214844 Z M 8.46875 1.796875 C 8.257812 1.871094 8.1875 2.085938 8.257812 2.300781 L 9.8125 6.46875 C 9.882812 6.6875 10.09375 6.757812 10.304688 6.6875 C 10.519531 6.613281 10.589844 6.398438 10.519531 6.183594 L 8.964844 2.011719 C 8.894531 1.796875 8.683594 1.726562 8.46875 1.796875 Z M 4.234375 3.953125 C 4.023438 4.097656 3.953125 4.3125 4.09375 4.457031 L 6.421875 8.269531 C 6.492188 8.410156 6.777344 8.484375 6.917969 8.410156 C 7.058594 8.339844 7.128906 8.050781 7.058594 7.910156 L 4.730469 4.097656 C 4.589844 3.882812 4.375 3.808594 4.234375 3.953125 Z M 0.421875 7.046875 C 0.28125 7.191406 0.28125 7.476562 0.421875 7.621094 L 3.601562 10.710938 C 3.742188 10.855469 3.953125 10.855469 4.09375 10.710938 C 4.234375 10.570312 4.234375 10.351562 4.09375 10.210938 L 0.988281 7.046875 C 0.847656 6.902344 0.566406 6.902344 0.421875 7.046875 Z M 0.421875 7.046875 "/>
</g>
</svg>
