<?xml version="1.0" encoding="utf-8"?>
<!-- Generator: Adobe Illustrator 25.0.0, SVG Export Plug-In . SVG Version: 6.00 Build 0)  -->
<svg version="1.1" id="圖層_1" xmlns="http://www.w3.org/2000/svg" xmlns:xlink="http://www.w3.org/1999/xlink" x="0px" y="0px"
	 viewBox="0 0 50 50" style="enable-background:new 0 0 50 50;" xml:space="preserve">
<style type="text/css">
	.st0{fill-rule:evenodd;clip-rule:evenodd;fill:#EA5357;}
</style>
<path id="icon-dot-after.svg" class="st0" d="M40.1,38.9c-3.8,0-7.7-0.1-11.5-0.1c1.7-6,3.4-12,5.1-18c-2.4-1-4.3-2.9-5.3-5.2
	C23.9,5.4,35.5-3.9,44.8,1.7c3.9,2.3,6.3,7.6,4.6,13.9c-1.1,3.4-2.4,6.8-4,10C43.7,30,41.9,34.4,40.1,38.9z M12.7,38.9H1.2v-0.1
	l5.1-18c-2.4-1-4.4-3-5.4-5.4C-3.3,5.3,8.1-3.8,17.2,1.6c4,2.3,6.5,7.5,4.8,13.9c-0.9,3-2.1,6-3.5,8.9L12.7,38.9z"/>
</svg>
