<?xml version="1.0" encoding="UTF-8"?>
<svg xmlns="http://www.w3.org/2000/svg" xmlns:xlink="http://www.w3.org/1999/xlink" width="38pt" height="38pt" viewBox="0 0 38 38" version="1.1">
<g id="surface1">
<path style=" stroke:none;fill-rule:nonzero;fill:rgb(100%,100%,100%);fill-opacity:1;" d="M 36.9375 3.722656 C 35.492188 1.367188 32.90625 -0.0742188 30.246094 0 L 7.753906 0 C 5.015625 0 2.433594 1.367188 1.0625 3.722656 C -0.378906 6.078125 -0.378906 9.042969 1.140625 11.398438 C 1.214844 11.476562 1.214844 11.550781 1.292969 11.628906 L 12.539062 26.523438 C 13.679688 28.195312 15.351562 29.410156 17.402344 29.792969 C 17.9375 29.945312 18.542969 29.945312 19.074219 29.945312 C 20.519531 29.945312 21.964844 29.488281 23.257812 28.726562 C 24.167969 28.121094 24.929688 27.359375 25.535156 26.523438 L 36.785156 11.628906 C 36.859375 11.550781 36.859375 11.476562 36.9375 11.398438 C 38.378906 9.042969 38.378906 6.078125 36.9375 3.722656 Z M 36.9375 3.722656 "/>
<path style=" stroke:none;fill-rule:evenodd;fill:rgb(26.27451%,16.078431%,3.529412%);fill-opacity:1;" d="M 34.351562 5.242188 C 33.515625 3.800781 31.921875 2.964844 30.246094 2.964844 L 7.675781 2.964844 C 6.003906 2.964844 4.484375 3.800781 3.570312 5.242188 C 2.734375 6.613281 2.734375 8.359375 3.648438 9.804688 L 14.972656 24.777344 C 16.414062 26.980469 19.378906 27.664062 21.585938 26.21875 C 22.191406 25.839844 22.648438 25.382812 23.027344 24.777344 L 34.351562 9.804688 C 35.1875 8.4375 35.1875 6.6875 34.351562 5.242188 Z M 34.351562 5.242188 "/>
</g>
</svg>
