<?xml version="1.0" encoding="UTF-8"?>
<svg xmlns="http://www.w3.org/2000/svg" xmlns:xlink="http://www.w3.org/1999/xlink" width="74pt" height="74pt" viewBox="0 0 74 74" version="1.1">
<g id="surface1">
<path style=" stroke:none;fill-rule:nonzero;fill:rgb(100%,100%,100%);fill-opacity:1;" d="M 37 0 C 16.570312 0 0 16.570312 0 37 C 0 57.429688 16.570312 74 37 74 C 57.429688 74 74 57.429688 74 37 C 74 16.570312 57.429688 0 37 0 Z M 51.074219 18.839844 L 45.929688 18.839844 C 41.917969 18.839844 41.160156 20.730469 41.160156 23.53125 L 41.160156 29.660156 L 50.695312 29.660156 L 50.695312 39.34375 L 41.160156 39.34375 L 41.160156 64.164062 L 31.25 64.164062 L 31.25 39.34375 L 22.925781 39.34375 L 22.925781 29.734375 L 31.25 29.734375 L 31.25 22.625 C 31.25 14.375 36.320312 9.835938 43.660156 9.835938 L 51.148438 9.835938 Z M 51.074219 18.839844 "/>
</g>
</svg>
