<?xml version="1.0" encoding="utf-8"?>
<!-- Generator: Adobe Illustrator 25.0.0, SVG Export Plug-In . SVG Version: 6.00 Build 0)  -->
<svg version="1.1" id="圖層_1" xmlns="http://www.w3.org/2000/svg" xmlns:xlink="http://www.w3.org/1999/xlink" x="0px" y="0px"
	 viewBox="0 0 50 7.1" style="enable-background:new 0 0 50 7.1;" xml:space="preserve">
<style type="text/css">
	.st0{fill:#FFFFFF;}
</style>
<path class="st0" d="M11.8,3.1c-0.4,0-0.8,0.2-1.1,0.6l0,0l0.4-2.6H10L9.2,6.6h1.1l0.2-1.8C10.6,4.5,10.8,4,11.3,4s0.5,0.4,0.4,0.8
	l-0.2,1.8h1.1l0.3-2.1C13,3.6,12.6,3.1,11.8,3.1z M15.4,3.1c-1,0-2,0.6-2.2,1.9c-0.2,1.2,0.6,1.8,1.7,1.8c1,0,2-0.6,2.2-1.8
	C17.2,3.7,16.4,3.1,15.4,3.1z M15.8,4.9c-0.1,0.4-0.4,0.8-0.8,0.8c-0.5,0-0.7-0.3-0.6-0.8c0.1-0.4,0.4-0.8,0.8-0.8
	C15.7,4.1,15.9,4.5,15.8,4.9z M22,3.1c-0.4,0-0.9,0.2-1.2,0.6c-0.2-0.5-0.5-0.6-1-0.6c-0.4,0-0.8,0.2-1.1,0.6l0,0l0.1-0.4h-1.1
	l-0.5,3.4h1.1L18.6,5c0.1-0.4,0.1-1,0.6-1s0.4,0.6,0.4,1l-0.2,1.6h1.1L20.7,5c0.1-0.4,0.2-1,0.7-1s0.4,0.6,0.3,1l-0.3,1.6h1.1
	l0.3-2.2C23,3.6,22.8,3.1,22,3.1z M25.3,3.1c-1.1,0-1.9,0.7-2,1.9c-0.2,1.2,0.5,1.8,1.6,1.8c0.7,0,1.5-0.4,1.8-1.2h-1.1
	c-0.2,0.2-0.3,0.3-0.6,0.3c-0.5,0-0.7-0.3-0.6-0.8h2.4V5C26.9,3.8,26.4,3.1,25.3,3.1z M24.5,4.4c0.1-0.4,0.4-0.6,0.7-0.6
	c0.3,0,0.6,0.2,0.6,0.6H24.5z M9.6,1C9.2,0.9,9,0.8,8.6,0.7L8.4,2.2c0.4,0.1,0.7,0.3,0.9,0.6L9.6,1z M7.7,6.9c0.3,0,0.6-0.1,1-0.2
	L9,4.8C8.7,5.1,8.3,5.3,7.9,5.4L7.7,6.9z"/>
<path class="st0" d="M17.4,0.7c-0.4,0-0.7,0.3-0.7,0.7c-0.1,0.4,0.2,0.7,0.6,0.7S18,1.8,18,1.4C18,1.1,17.8,0.7,17.4,0.7z M17.7,1.4
	c0,0.2-0.2,0.5-0.5,0.5c-0.2,0-0.3-0.2-0.3-0.5c0-0.2,0.2-0.4,0.4-0.4C17.6,1,17.7,1.2,17.7,1.4z M19.8,1.7L19.8,1.7l-0.6-0.9H19
	l-0.2,1.4H19l0.1-0.9l0.6,0.9h0.2l0.2-1.4h-0.2L19.8,1.7z M21.5,0.8h-0.2L21,2.1h0.6V1.9h-0.4L21.5,0.8z M22.6,2.1h0.2L23,0.8h-0.2
	L22.6,2.1z M24.8,1.7L24.8,1.7l-0.6-0.9H24l-0.2,1.4h0.3l0.1-0.9l0.6,0.9H25l0.2-1.4H25L24.8,1.7z M26.9,1V0.8h-0.7L26,2.1h0.7V1.9
	h-0.4V1.5h0.4V1.3h-0.4V1C26.3,1,26.9,1,26.9,1z"/>
<path class="st0" d="M3.2,0.7H0.9L0,6.9h1.5l0.3-2h0.8c1.3,0,2.1-0.6,2.3-2.1C5.1,1.4,4.4,0.7,3.2,0.7z M3.4,2.8
	C3.2,3.6,2.7,3.6,2.2,3.6H2L2.2,2h0.2C3,2,3.5,2,3.4,2.8z M8.3,0.7c-0.8,0-1.6,0.4-2.2,1S5.1,3.1,5,3.8C4.9,4.7,5,5.5,5.6,6
	C6,6.6,6.7,6.9,7.5,6.9c0.1,0,0.2,0,0.3,0L8,5.4c-0.1,0-0.2,0-0.2,0c-0.9,0-1.4-0.6-1.2-1.6c0.1-0.9,0.8-1.6,1.7-1.6
	c0.1,0,0.2,0,0.2,0l0.2-1.5C8.5,0.7,8.4,0.7,8.3,0.7z"/>
<path class="st0" d="M34.7,3.1c-0.2,0.2-0.3,0.4-0.6,0.6c0-0.3-0.1-0.6-0.1-0.9c0.4-0.1,0.8-0.2,1.2-0.4l-0.7-0.6
	c-0.6,0.3-1.5,0.6-2.4,0.8c0.2-0.2,0.4-0.6,0.5-0.9h2.7V0.9h-2.4c0.1-0.2,0.2-0.5,0.2-0.7L32.3,0c-0.2,0.7-0.4,1.4-0.8,1.9V1.2h-1.3
	L30.6,1c0-0.2-0.2-0.7-0.4-1l-0.8,0.2c0.1,0.3,0.2,0.6,0.3,0.9h-1.3V2h0.7v1c0,1-0.1,2.3-0.9,3.5C28.6,6.6,28.9,6.8,29,7
	c0.8-1.1,1-2.4,1-3.4h0.5c0,1.7-0.1,2.4-0.2,2.5s-0.1,0.1-0.2,0.1s-0.3,0-0.5,0c0.1,0.2,0.2,0.5,0.2,0.7c0.3,0,0.6,0,0.7,0
	c0.2,0,0.3-0.1,0.5-0.3c0.2-0.2,0.2-1.1,0.3-3.5c0-0.1,0-0.3,0-0.3H30V2h1.4c-0.1,0.1-0.2,0.2-0.2,0.3c0.2,0.1,0.6,0.4,0.7,0.5l0,0
	v2.7c0,0.4-0.2,0.6-0.3,0.8C31.7,6.4,32,6.7,32,6.9c0.2-0.1,0.4-0.2,1.8-0.8c0-0.2-0.1-0.6-0.1-0.8l-0.9,0.4V3.1
	C33,3.1,33.1,3,33.3,3c0.2,1.7,0.6,3,1.5,3.8c0.1-0.2,0.4-0.6,0.6-0.7c-0.5-0.3-0.8-0.9-1-1.6c0.3-0.2,0.7-0.6,1-0.9L34.7,3.1z
	 M42.6,0.4H39v0.8h3.6V0.4z M37.6,0c-0.4,0.5-1.1,1.2-1.7,1.6c0.2,0.2,0.4,0.5,0.5,0.7c0.7-0.5,1.5-1.3,2-1.9L37.6,0z M37.9,1.6
	c-0.5,0.8-1.3,1.7-2,2.2c0.2,0.2,0.5,0.6,0.6,0.8c0.2-0.2,0.4-0.3,0.6-0.6v3H38V3.1c0.3-0.4,0.6-0.7,0.8-1.1L37.9,1.6z M42.8,2.5
	h-4.1v0.8h2.2v2.6c0,0.1-0.1,0.2-0.2,0.2c-0.1,0-0.6,0-1.1,0C39.8,6.3,39.9,6.7,40,7c0.6,0,1.1,0,1.5-0.2c0.3-0.1,0.4-0.4,0.4-0.9
	V3.3h1V2.5H42.8z M47.2,3.5H48l-0.2,0.2l0.1,0.1h-0.6L47.2,3.5L47.2,3.5z M45.7,3.2V2.9h0.8v0.2L45.7,3.2L45.7,3.2z M45.7,2.4h0.8
	v0.2h-0.8V2.4z M48,2.4v0.2h-0.8V2.4H48z M48,3.2h-0.8V2.9H48V3.2z M49,4.4h-0.4L49,4.1c-0.2-0.2-0.4-0.4-0.6-0.6h0.4V2h-1.5V1.8H49
	V1.3h-1.7V1.1h-0.7v0.3h-1.7v0.5h1.7V2H45v1.5h1.5v0.2c-0.6,0-1.2,0-1.7,0v0.5c0.9,0,2.1-0.1,3.3-0.1c0.1,0.1,0.2,0.2,0.2,0.2H48
	V4.2h-0.7v0.2h-2.6v0.5h1.1l-0.5,0.2c0.2,0.2,0.4,0.5,0.5,0.7l0.6-0.3c0-0.2-0.2-0.5-0.4-0.6h1.3v0.4c0,0.1,0,0.1-0.1,0.1
	s-0.3,0-0.5,0c0.1,0.1,0.2,0.3,0.2,0.4c0.4,0,0.7,0,0.9-0.1C48,5.7,48,5.6,48,5.3V4.9h1V4.4L49,4.4z M44.6,5.9v-5h4.6v5
	C49.2,5.9,44.6,5.9,44.6,5.9z M43.8,0.3V7h0.8V6.6h4.6V7H50V0.3H43.8z"/>
</svg>
