<?xml version="1.0" encoding="utf-8"?>
<!-- Generator: Adobe Illustrator 25.0.0, SVG Export Plug-In . SVG Version: 6.00 Build 0)  -->
<svg version="1.1" xmlns="http://www.w3.org/2000/svg" xmlns:xlink="http://www.w3.org/1999/xlink" x="0px" y="0px"
	 viewBox="0 0 1205 939" style="enable-background:new 0 0 1205 939;" xml:space="preserve">
<style type="text/css">
	.st0{fill:#EA5357;stroke:#000000;stroke-width:2.9634;stroke-linejoin:round;}
	.st1{fill:#FFFFFF;stroke:#000000;stroke-width:2.7522;stroke-linejoin:round;}
	.st2{fill:#FFFFFF;stroke:#000000;stroke-width:2.7818;stroke-linejoin:round;}
	.st3{stroke:#000000;stroke-width:2.4498;stroke-linejoin:round;}
	.st4{fill:#00CCFF;stroke:#000000;stroke-width:2.9557;stroke-linejoin:round;}
	.st5{fill:#53C894;stroke:#000000;stroke-width:2.9557;stroke-linejoin:round;}
	.st6{display:none;}
	.st7{display:inline;}
	.st8{font-family:'SourceHanSansTW-Bold-B5pc-H';}
	.st9{font-size:27.5867px;glyph-orientation-vertical:0;writing-mode:tb;}
	.st10{letter-spacing:1;}
	.st11{font-size:27.5836px;}
	.st12{display:inline;fill:#040404;}
	.st13{font-size:27.5867px;}
	.st14{font-size:31.5276px;}
	.st15{display:inline;fill:#EA5357;}
	.st16{font-family:'Roboto-Bold';}
	.st17{font-size:47.2915px;}
	.st18{font-size:59.1143px;}
	.st19{font-size:22.3188px;}
	.st20{font-size:26.0388px;}
	.st21{font-size:24.1783px;}
	.st22{fill:#53C894;}
	.st23{fill:#00CCFF;}
	.st24{font-size:38.9073px;}
	.st25{fill:#70DD9B;}
	.st26{fill:#FA8B1C;}
	.st27{fill:#FFFFFF;}
	.st28{font-size:27.5799px;}
	.st29{fill:#FFD87C;stroke:#000000;stroke-width:2.7695;stroke-linejoin:round;}
	.st30{fill:#FFD87C;stroke:#000000;stroke-width:2.7583;stroke-linejoin:round;}
	.st31{fill:#040404;}
	.st32{fill:#EA5357;}
	.st33{font-size:28.3397px;}
	.st34{font-size:33.0632px;}
	.st35{font-size:41.8655px;}
	.st36{font-size:29.6769px;}
</style>
<g id="圖層_1">
	<rect id="矩形_11_拷貝_2" x="15.3" y="136" class="st0" width="71.9" height="686.3"/>
	<rect id="矩形_11_拷貝_9-2_3_" x="87" y="135.5" class="st1" width="719.2" height="341.4"/>
	<rect id="矩形_11_拷貝_9_3_" x="85" y="476.4" class="st2" width="719.2" height="344.8"/>
	<rect id="矩形_11_拷貝_6_3_" x="15" y="8.4" class="st3" width="789.2" height="128.1"/>
	<rect id="矩形_11_拷貝_9-2_4_" x="85" y="135.5" class="st4" width="69" height="341.4"/>
	<rect id="矩形_11_拷貝_9_4_" x="85" y="476.4" class="st5" width="69" height="344.8"/>
	<g id="txt" class="st6">
		<text id="汽機車駕駛人責任險" transform="matrix(1 0 0 1 125.9326 495.7842)" class="st7 st8 st9 st10">汽機車駕駛人責任險</text>
		<text transform="matrix(1 0 0 1 112.145 278.1846)" class="st7 st8 st11">旅</text>
		<text transform="matrix(1 0 0 1 112.145 311.2852)" class="st7 st8 st11">平</text>
		<text transform="matrix(1 0 0 1 112.145 344.3862)" class="st7 st8 st11">險</text>
		<text transform="matrix(1 0 0 1 38.2109 432.939)" class="st12 st8 st13">保</text>
		<text transform="matrix(1 0 0 1 38.2109 466.043)" class="st12 st8 st13">障</text>
		<text transform="matrix(1 0 0 1 38.2109 499.1475)" class="st12 st8 st13">內</text>
		<text transform="matrix(1 0 0 1 38.2109 532.251)" class="st12 st8 st13">容</text>
		<text id="保費合計" transform="matrix(1 0 0 1 594.1162 879.377)" class="st7 st8 st14">保費合計</text>
		<text transform="matrix(1 0 0 1 808.79 661.1865)" class="st15 st16 st17">$</text>
		<text transform="matrix(1 0 0 1 835.9229 661.1865)" class="st15 st16 st18">272</text>
		<text transform="matrix(1 0 0 1 1046.4414 658.2305)" class="st15 st16 st17">$</text>
		<text transform="matrix(1 0 0 1 1073.5742 658.2305)" class="st15 st16 st18">35</text>
		<text transform="matrix(1 0 0 1 808.79 318.3262)" class="st15 st16 st17">$</text>
		<text transform="matrix(1 0 0 1 835.9229 318.3262)" class="st15 st16 st18">339</text>
		<text transform="matrix(1 0 0 1 1024.5566 318.3262)" class="st15 st16 st17">$</text>
		<text transform="matrix(1 0 0 1 1051.6895 318.3262)" class="st15 st16 st18">339</text>
		<text transform="matrix(1 0 0 1 793.6592 80.1831)" class="st7 st8 st13">租汽車</text>
		<text transform="matrix(1 0 0 1 876.4189 80.1831)" class="st7 st16 st14">3</text>
		<text transform="matrix(1 0 0 1 894.5068 80.1831)" class="st7 st8 st13">日遊</text>
		<text transform="matrix(1 0 0 1 1009.4248 80.1831)" class="st7 st8 st13">租機車</text>
		<text transform="matrix(1 0 0 1 1092.1846 80.1831)" class="st7 st16 st14">3</text>
		<text transform="matrix(1 0 0 1 1110.2734 80.1831)" class="st7 st8 st13">日遊</text>
		<g class="st7">
			<g>
				<text transform="matrix(1 0 0 1 197.0586 201.8652)" class="st8 st19">意外死亡及失能</text>
				<text transform="matrix(1 0 0 1 353.2905 201.8652)" class="st16 st20">900</text>
				<text transform="matrix(1 0 0 1 398.1079 201.8652)" class="st8 st19">萬</text>
			</g>
			<g>
				<text transform="matrix(1 0 0 1 197.0586 244.5098)" class="st8 st19">意外醫療萬意外醫療</text>
				<text transform="matrix(1 0 0 1 397.9282 244.5098)" class="st8 st20">90</text>
				<text transform="matrix(1 0 0 1 428.6011 244.5098)" class="st8 st19">萬</text>
			</g>
			<g>
				<text transform="matrix(1 0 0 1 197.0586 370.7856)" class="st8 st19">重大燒燙傷</text>
				<text transform="matrix(1 0 0 1 308.6523 370.7856)" class="st16 st21">100</text>
				<text transform="matrix(1 0 0 1 350.2681 370.7856)" class="st8 st19">萬</text>
			</g>
			<g>
				<text transform="matrix(1 0 0 1 197.0586 417.7114)" class="st8 st19">食物中毒慰問金萬食物中毒慰問金</text>
				<text transform="matrix(1 0 0 1 531.8403 417.7114)" class="st8 st21">3000</text>
				<text transform="matrix(1 0 0 1 588.8037 417.7114)" class="st8 st19">元</text>
			</g>
			<text transform="matrix(1 0 0 1 199.501 295.4248)" class="st8 st19">個人賠償責任</text>
			<g>
				<text transform="matrix(1 0 0 1 192.5625 322.811)" class="st8 st19">-體傷個人賠償責任-體傷</text>
				<text transform="matrix(1 0 0 1 432.2661 322.811)" class="st16 st21">20</text>
				<text transform="matrix(1 0 0 1 460.0103 322.811)" class="st8 st19">萬/財損</text>
				<text transform="matrix(1 0 0 1 535.626 322.811)" class="st8 st19">10</text>
				<text transform="matrix(1 0 0 1 561.9175 322.811)" class="st8 st19">萬 保期內最高</text>
				<text transform="matrix(1 0 0 1 700.8965 322.811)" class="st16 st19">60</text>
				<text transform="matrix(1 0 0 1 726.5059 322.811)" class="st8 st19">萬</text>
			</g>
			<circle id="橢圓_604" class="st22" cx="183.4" cy="195.5" r="4"/>
			<circle id="橢圓_604_拷貝" class="st22" cx="183.4" cy="238.9" r="4"/>
			<circle id="橢圓_604_拷貝_2" class="st22" cx="183.4" cy="288" r="4"/>
			<circle id="橢圓_604_拷貝_6" class="st22" cx="183.4" cy="365.9" r="4"/>
			<circle id="橢圓_604_拷貝_7" class="st22" cx="183.4" cy="413.2" r="4"/>
		</g>
		<g id="_01-2" class="st7">
			<text transform="matrix(1 0 0 1 197.0586 553.6709)" class="st8 st19">車碰車碰撞</text>
			<text transform="matrix(1 0 0 1 308.6523 553.6709)" class="st16 st21">5</text>
			<text transform="matrix(1 0 0 1 322.5249 553.6709)" class="st8 st19">萬</text>
			<text transform="matrix(1 0 0 1 197.0586 610.3301)" class="st8 st19">第三人責任險-體傷</text>
			<g>
				<text transform="matrix(1 0 0 1 197.0586 639.3447)" class="st8 st19">-每人傷害第三人責任險-體傷-每人傷害</text>
				<text transform="matrix(1 0 0 1 578.9336 639.3447)" class="st16 st21">10</text>
				<text transform="matrix(1 0 0 1 606.6768 639.3447)" class="st8 st19">萬元</text>
			</g>
			<g>
				<text transform="matrix(1 0 0 1 197.0581 668.3594)" class="st8 st19">-每次事故總和萬元-每次事故總和</text>
				<text transform="matrix(1 0 0 1 526.0371 668.3594)" class="st16 st21">20</text>
				<text transform="matrix(1 0 0 1 553.7812 668.3594)" class="st8 st19">萬</text>
			</g>
			<text transform="matrix(1 0 0 1 197.0586 710.5713)" class="st8 st19">第三人責任險-財損</text>
			<text transform="matrix(1 0 0 1 197.0586 739.585)" class="st8 st19">-每次事故第三人責任險-財損-每次事故</text>
			<text transform="matrix(1 0 0 1 580.1108 739.585)" class="st16 st21">3</text>
			<text transform="matrix(1 0 0 1 593.9829 739.585)" class="st8 st19">萬</text>
			<circle id="橢圓_604_拷貝_8" class="st23" cx="183.4" cy="547.3" r="4"/>
			<circle id="橢圓_604_拷貝_9" class="st23" cx="183.4" cy="606.7" r="4"/>
			<circle id="橢圓_604_拷貝_10" class="st23" cx="183.4" cy="705.1" r="4"/>
		</g>
		<g id="h3" class="st7">
			<text transform="matrix(1 0 0 1 203.9019 83.9946)" class="st22 st8 st24">旅平險</text>
			<text transform="matrix(1 0 0 1 320.6235 83.9946)" class="st25 st8 st24"> </text>
			<text transform="matrix(1 0 0 1 329.4551 83.9946)" class="st26 st8 st24">+ </text>
			<text transform="matrix(1 0 0 1 361.2021 83.9946)" class="st23 st8 st24">汽機車駕駛人責任險</text>
			<path id="圓角矩形_561" class="st27" d="M64.1,49.8h88.7c13.9,0,25.1,11.2,25.1,25.1l0,0c0,13.9-11.2,25.1-25.1,25.1H64.1
				C50.2,100,39,88.8,39,74.9l0,0C39,61,50.2,49.8,64.1,49.8z"/>
			<text id="國內旅遊" transform="matrix(1 0 0 1 52.7012 81.5669)" class="st8 st28">國內旅遊</text>
		</g>
		<text transform="matrix(1 0 0 1 812.8398 886.2734)" class="st15 st16 st17">$</text>
		<text transform="matrix(1 0 0 1 839.9727 886.2734)" class="st15 st16 st18">611</text>
		<text transform="matrix(1 0 0 1 1027.6201 886.2734)" class="st15 st16 st17">$</text>
		<text transform="matrix(1 0 0 1 1054.7529 886.2734)" class="st15 st16 st18">374</text>
	</g>
	<rect id="矩形_11_拷貝_11_4_" x="15" y="821" class="st0" width="789.2" height="113.1"/>
	<g>
		<rect id="矩形_11_拷貝_11_2_" x="1000" y="818.8" class="st29" width="196.2" height="115.3"/>
		<rect id="矩形_11_拷貝_9_1_" x="1000" y="476.4" class="st2" width="196.2" height="344.8"/>
		<rect id="矩形_11_拷貝_9-2_1_" x="1000" y="135.5" class="st1" width="196.2" height="341.4"/>
		<rect id="矩形_11_拷貝_6_1_" x="1000" y="8.4" class="st30" width="196.2" height="128.1"/>
	</g>
	<g>
		<rect id="矩形_11_拷貝_11_3_" x="804" y="818.8" class="st29" width="196.2" height="115.3"/>
		<rect id="矩形_11_拷貝_9_2_" x="804" y="476.4" class="st2" width="196.2" height="344.8"/>
		<rect id="矩形_11_拷貝_9-2_2_" x="804" y="135.5" class="st1" width="196.2" height="341.4"/>
		<rect id="矩形_11_拷貝_6_2_" x="804" y="8.4" class="st30" width="196.2" height="128.1"/>
	</g>
	<g>
		<rect id="矩形_11_拷貝_11_1_" x="804" y="818.8" class="st29" width="196.2" height="115.3"/>
		<rect id="矩形_11_拷貝_9" x="804" y="476.4" class="st2" width="196.2" height="344.8"/>
		<rect id="矩形_11_拷貝_9-2" x="804" y="135.5" class="st1" width="196.2" height="341.4"/>
		<rect id="矩形_11_拷貝_6" x="804" y="8.4" class="st30" width="196.2" height="128.1"/>
	</g>
</g>
<g id="txt_2_">
	<text id="汽機車駕駛人責任險_1_" transform="matrix(1 0 0 1 119.9326 510.7842)" class="st8 st9 st10">汽機車駕駛人責任險</text>
	<text transform="matrix(1 0 0 1 108.145 281.1846)" class="st8 st11">旅</text>
	<text transform="matrix(1 0 0 1 108.145 314.2852)" class="st8 st11">平</text>
	<text transform="matrix(1 0 0 1 108.145 347.3862)" class="st8 st11">險</text>
	<text transform="matrix(1 0 0 1 38.2109 432.939)" class="st31 st8 st13">保</text>
	<text transform="matrix(1 0 0 1 38.2109 466.043)" class="st31 st8 st13">障</text>
	<text transform="matrix(1 0 0 1 38.2109 499.1475)" class="st31 st8 st13">內</text>
	<text transform="matrix(1 0 0 1 38.2109 532.251)" class="st31 st8 st13">容</text>
	<text id="保費合計_1_" transform="matrix(1 0 0 1 594.1162 895.4212)" class="st8 st14">保費合計</text>
	<g>
		<text transform="matrix(1 0 0 1 837.1827 661.1865)" class="st32 st16 st17">$</text>
		<text transform="matrix(1 0 0 1 864.3156 661.1865)" class="st32 st16 st18">272</text>
	</g>
	<g>
		<text transform="matrix(1 0 0 1 1053.1221 658.2305)" class="st32 st16 st17">$</text>
		<text transform="matrix(1 0 0 1 1080.2549 658.2305)" class="st32 st16 st18">35</text>
	</g>
	<g>
		<text transform="matrix(1 0 0 1 837.1827 318.3262)" class="st32 st16 st17">$</text>
		<text transform="matrix(1 0 0 1 864.3156 318.3262)" class="st32 st16 st18">339</text>
	</g>
	<g>
		<text transform="matrix(1 0 0 1 1036.1641 318.3262)" class="st32 st16 st17">$</text>
		<text transform="matrix(1 0 0 1 1063.2969 318.3262)" class="st32 st16 st18">339</text>
	</g>
	<g>
		<text transform="matrix(1 0 0 1 823.6119 80.1831)" class="st8 st13">租汽車</text>
		<text transform="matrix(1 0 0 1 906.3717 80.1831)" class="st16 st14">3</text>
		<text transform="matrix(1 0 0 1 924.4596 80.1831)" class="st8 st13">日遊</text>
	</g>
	<g>
		<text transform="matrix(1 0 0 1 1022.5928 80.1831)" class="st8 st13">租機車</text>
		<text transform="matrix(1 0 0 1 1105.3525 80.1831)" class="st16 st14">3</text>
		<text transform="matrix(1 0 0 1 1123.4414 80.1831)" class="st8 st13">日遊</text>
	</g>
	<g>
		<g>
			<text transform="matrix(1 0 0 1 207.7192 179.8804)" class="st8 st33">意外死亡及失能</text>
			<text transform="matrix(1 0 0 1 406.0981 179.8804)" class="st16 st34">900</text>
			<text transform="matrix(1 0 0 1 463.0054 179.8804)" class="st8 st33">萬</text>
		</g>
		<text transform="matrix(1 0 0 1 207.7192 234.0239)" class="st8 st33">意外醫療</text>
		<g>
			<text transform="matrix(1 0 0 1 327.5635 234.0239)" class="st16 st34">90</text>
		</g>
		<text transform="matrix(1 0 0 1 366.5122 234.0239)" class="st8 st33">萬</text>
		<g>
			<text transform="matrix(1 0 0 1 201.8408 394.3652)" class="st8 st33">重大燒燙傷</text>
			<text transform="matrix(1 0 0 1 343.54 394.3652)" class="st16 st34">100</text>
			<text transform="matrix(1 0 0 1 404.6108 394.3652)" class="st8 st33">萬</text>
		</g>
		<g>
			<text transform="matrix(1 0 0 1 201.8408 453.9531)" class="st8 st33">食物中毒慰問金萬食物中毒慰問金</text>
			<text transform="matrix(1 0 0 1 631.6406 455.126)" class="st16 st34">3000</text>
			<text transform="matrix(1 0 0 1 711.0166 455.126)" class="st8 st33">元</text>
		</g>
		<text transform="matrix(1 0 0 1 204.9395 298.6719)" class="st8 st33">個人賠償責任</text>
		<text transform="matrix(1 0 0 1 202.0093 338.1582)" class="st8 st33">-體傷</text>
		<text transform="matrix(1 0 0 1 273.5781 338.1582)" class="st16 st34">20</text>
		<text transform="matrix(1 0 0 1 314.6816 338.1582)" class="st8 st33">萬/財損</text>
		<text transform="matrix(1 0 0 1 409.5229 338.1582)" class="st16 st34">10</text>
		<text transform="matrix(1 0 0 1 448.7852 338.1582)" class="st8 st33">萬 保期內最高</text>
		<g>
			<text transform="matrix(1 0 0 1 627.7393 338.1582)" class="st16 st34">60</text>
		</g>
		<text transform="matrix(1 0 0 1 667.3135 338.1582)" class="st8 st33">萬</text>
		<circle id="橢圓_604_1_" class="st22" cx="184.5" cy="171.8" r="5.1"/>
		<circle id="橢圓_604_拷貝_1_" class="st22" cx="184.5" cy="226.9" r="5.1"/>
		<circle id="橢圓_604_拷貝_2_1_" class="st22" cx="184.5" cy="289.2" r="5.1"/>
		<circle id="橢圓_604_拷貝_6_1_" class="st22" cx="184.5" cy="388.2" r="5.1"/>
		<circle id="橢圓_604_拷貝_7_1_" class="st22" cx="184.5" cy="448.2" r="5.1"/>
	</g>
	<g>
		<text transform="matrix(1 0 0 1 201.8408 540.1318)" class="st8 st33">車碰車碰撞</text>
		<g>
			<text transform="matrix(1 0 0 1 347.0654 540.1318)" class="st16 st34">5</text>
		</g>
		<text transform="matrix(1 0 0 1 368.2075 540.1318)" class="st8 st33">萬</text>
		<text transform="matrix(1 0 0 1 201.8408 609.7285)" class="st8 st33">第三人責任險-體傷</text>
		<text transform="matrix(1 0 0 1 201.8408 646.5605)" class="st8 st33">-每人傷害</text>
		<g>
			<text transform="matrix(1 0 0 1 328.1221 647.7461)" class="st16 st34">10</text>
		</g>
		<text transform="matrix(1 0 0 1 369.229 646.5605)" class="st8 st33">萬元</text>
		<text transform="matrix(1 0 0 1 201.8403 683.4131)" class="st8 st33">-每次事故總和</text>
		<g>
			<text transform="matrix(1 0 0 1 387.9385 683.4131)" class="st16 st34">20</text>
		</g>
		<text transform="matrix(1 0 0 1 430.2256 683.4131)" class="st8 st33">萬</text>
		<text transform="matrix(1 0 0 1 201.8408 746.4131)" class="st8 st33">第三人責任險-財損</text>
		<text transform="matrix(1 0 0 1 201.8408 786.7881)" class="st8 st33">-每次事故</text>
		<g>
			<text transform="matrix(1 0 0 1 329.6162 786.7881)" class="st16 st34">3</text>
		</g>
		<text transform="matrix(1 0 0 1 349.5806 786.7881)" class="st8 st33">萬</text>
		<circle id="橢圓_604_拷貝_8_1_" class="st23" cx="184.5" cy="532.1" r="5.1"/>
		<circle id="橢圓_604_拷貝_9_1_" class="st23" cx="184.5" cy="605.2" r="5.1"/>
		<circle id="橢圓_604_拷貝_10_1_" class="st23" cx="184.5" cy="739.4" r="5.1"/>
	</g>
	<g>
		<text transform="matrix(1 0 0 1 215.9126 84.7729)" class="st22 st8 st35">旅平險</text>
		<text transform="matrix(1 0 0 1 341.5098 87.0938)" class="st25 st8 st35"> </text>
		<text transform="matrix(1 0 0 1 351.0122 84.7729)" class="st26 st8 st35">+ </text>
		<text transform="matrix(1 0 0 1 385.1719 84.7729)" class="st23 st8 st35">汽機車駕駛人責任險</text>
		<g>
			<path id="圓角矩形_561_1_" class="st27" d="M73,43.2h95.4c14.9,0,27,12.1,27,27l0,0c0,14.9-12.1,27-27,27H73
				c-14.9,0-27-12.1-27-27l0,0C46,55.3,58,43.2,73,43.2z"/>
			<text id="國內旅遊_1_" transform="matrix(1 0 0 1 60.748 82.8379)" class="st8 st36">國內旅遊</text>
		</g>
	</g>
	<g>
		<text transform="matrix(1 0 0 1 837.1827 899.3138)" class="st32 st16 st17">$</text>
		<text transform="matrix(1 0 0 1 864.3156 899.3138)" class="st32 st16 st18">611</text>
	</g>
	<g>
		<text transform="matrix(1 0 0 1 1036.1641 899.3138)" class="st32 st16 st17">$</text>
		<text transform="matrix(1 0 0 1 1063.2969 899.3138)" class="st32 st16 st18">374</text>
	</g>
</g>
</svg>
