<svg enable-background="new 0 0 90.7 90.7" viewBox="0 0 90.7 90.7" xmlns="http://www.w3.org/2000/svg"><ellipse cx="45.4" cy="45.4" fill="#3c5a99" rx="40.1" ry="40.1"/><path d="m44.5 47.6c0-.2-.1-.4-.1-.6.1-1.2-.1-2.4.5-3.5.2.2.4.3.6.5 1.3 1 .2 2.4.5 3.6-.2 0-.3 0-.5 0-.3 0-.6 0-1 0z" fill="#a2b1ce"/><path d="m46.2 44.6c-.3.7-.5 1.3-.8 2-.4-.7-2.3-1.4 0-2.1.3 0 .6.1.8.1z" fill="#e8ecf3"/><path d="m44.6 43.5h1c.2.5.3 1 .5 1.5-.5.4 0 .7 0 1-.2.2-.4.4-.5.5-.4.2-.5.6-.5 1-1.1-1.2-.3-2.6-.5-4z" fill="#a7b5d1"/><path clip-rule="evenodd" d="m38.7 45.7v24.6c0 .4.3.6.6.6h9.1c.4 0 .6-.3.6-.6v-25h6.6c.3 0 .6-.3.6-.6l.6-7.5c0-.4-.3-.7-.6-.7h-7.2v-5.3c0-1.3 1-2.3 2.3-2.3h5.1c.4 0 .6-.3.6-.6v-7.5c0-.4-.3-.6-.6-.6h-8.6c-5.1 0-9.2 4.1-9.2 9.2v7.3h-4.6c-.4 0-.6.3-.6.6v7.5c0 .4.3.6.6.6h4.6z" fill="#fff" fill-rule="evenodd"/></svg>