<?xml version="1.0" encoding="utf-8"?>
<!-- Generator: Adobe Illustrator 23.0.3, SVG Export Plug-In . SVG Version: 6.00 Build 0)  -->
<svg version="1.1" id="圖層_1" xmlns="http://www.w3.org/2000/svg" xmlns:xlink="http://www.w3.org/1999/xlink" x="0px" y="0px"
	 viewBox="0 0 1000 1000" style="enable-background:new 0 0 1000 1000;" xml:space="preserve">
<style type="text/css">
	.st0{fill:#FFFFFF;}
</style>
<g>
	<path class="st0" d="M903.1,330.8c-38.3-10-128.2-10-259.9-13.4c6.1-28.7,7.7-54.7,7.7-100.7C650.8,106.9,570.8,10,500,10
		c-50.1,0-91.1,41-91.9,91.1c-0.8,61.6-19.9,168.1-122.5,222c-7.7,3.8-29.1,14.5-32.2,16.1l1.5,1.5c-16.1-13.8-38.3-24.5-61.3-24.5
		h-91.9c-50.5,0-91.9,41.3-91.9,91.9v490c0,50.5,41.3,91.9,91.9,91.9h91.9c36.4,0,67-21.8,81.5-52.8c0.4,0,1.1,0.4,1.5,0.4
		c1.9,0.4,4.6,1.1,7.3,1.9c0.4,0,0.8,0,1.5,0.4c17.6,4.2,51.7,12.6,124,29.1c15.7,3.4,97.6,21.1,183,21.1h167.3
		c50.9,0,87.7-19.5,109.9-59c0.4-0.8,7.3-14.2,13-32.9c4.2-14.2,5.7-33.7,0.8-54c32.9-22.6,43.6-56.7,50.5-78.9
		c11.5-36.4,8-63.9,0-83.5c18.4-17.6,34.5-44,41-84.6c4.2-25.3-0.4-50.9-11.9-72.7c17.2-19.5,25.3-44,26-66.6l0.4-6.5
		c0.4-4.2,0.4-6.5,0.4-15.3C989.6,397,962.8,348,903.1,330.8L903.1,330.8L903.1,330.8z M224,898.1c0,16.8-13.8,30.6-30.6,30.6h-91.9
		c-16.8,0-30.6-13.8-30.6-30.6v-490c0-16.8,13.8-30.6,30.6-30.6h91.9c16.8,0,30.6,13.8,30.6,30.6V898.1L224,898.1L224,898.1z
		 M928,455.2c-0.8,15.3-6.9,44.8-60.5,44.8h-61.3c-8.4,0-15.3,6.9-15.3,15.3c0,8.4,6.9,15.3,15.3,15.3h59.3
		c45.9,0,52.1,38.3,49,56.7c-3.8,23-14.5,66.2-66.2,66.2h-72.7c-8.4,0-15.3,6.9-15.3,15.3s6.9,15.3,15.3,15.3h60.1
		c51.7,0,47.1,39.4,39.8,62.8c-9.6,31-15.7,59.7-80.8,59.7H745c-8.4,0-15.3,6.9-15.3,15.3s6.9,15.3,15.3,15.3h47.9
		c33.3,0,35.2,31.8,31.8,43.3c-3.8,12.6-8.4,21.8-8.4,22.2c-9.2,16.8-24.1,26.8-55.9,26.8H592.6c-84.2,0-167.7-19.1-169.6-19.5
		c-127.1-29.5-134-31.8-142-33.7c0,0-26-4.2-26-26.8l-0.4-423c0-14.5,9.2-27.2,24.5-31.8c1.9-0.8,4.6-1.5,6.1-2.3
		C425.4,334.6,467.8,207.5,469,103c0-14.5,11.5-30.6,30.6-30.6c32.5,0,89.6,65.1,89.6,145.5c0,72.7-3.1,85-28.3,160.8
		c306.3,0,304,4.2,331.1,11.5c33.3,9.6,36.4,37.1,36.4,47.1C928.4,446.4,928.4,444.9,928,455.2L928,455.2L928,455.2z M147.4,806.3
		c-25.3,0-45.9,20.7-45.9,45.9s20.7,45.9,45.9,45.9s45.9-20.7,45.9-45.9S173.1,806.3,147.4,806.3L147.4,806.3L147.4,806.3z
		 M147.4,867.5c-8.4,0-15.3-6.9-15.3-15.3s6.9-15.3,15.3-15.3c8.4,0,15.3,6.9,15.3,15.3S155.9,867.5,147.4,867.5L147.4,867.5
		L147.4,867.5z"/>
</g>
</svg>
