<svg enable-background="new 0 0 90.7 90.7" viewBox="0 0 90.7 90.7" xmlns="http://www.w3.org/2000/svg" xmlns:xlink="http://www.w3.org/1999/xlink"><linearGradient id="a" gradientUnits="userSpaceOnUse" x1="7.0885" x2="104.1826" y1="83.7115" y2="-13.3826"><stop offset=".0011048" stop-color="#fbe18a"/><stop offset=".2094" stop-color="#fcbb45"/><stop offset=".3765" stop-color="#f75274"/><stop offset=".5238" stop-color="#d53692"/><stop offset=".7394" stop-color="#8f39ce"/><stop offset="1" stop-color="#5b4fe9"/></linearGradient><circle cx="45.4" cy="45.4" fill="url(#a)" r="44.9"/><g fill="#fff"><circle cx="61.3" cy="29.7" r="3.5"/><path d="m45.7 30.7c-8.1 0-14.7 6.6-14.7 14.7s6.6 14.7 14.7 14.7 14.7-6.6 14.7-14.7-6.5-14.7-14.7-14.7zm0 24.1c-5.2 0-9.4-4.3-9.4-9.4s4.3-9.4 9.4-9.4 9.4 4.3 9.4 9.4c0 5.2-4.1 9.4-9.4 9.4z"/><path d="m57.4 75.2h-23.8c-9.9 0-17.9-8.1-17.9-17.9v-23.8c0-9.9 8.1-17.9 17.9-17.9h23.7c9.9 0 17.9 8.1 17.9 17.9v23.7c.1 9.9-8 18-17.8 18zm-23.8-54c-6.7 0-12.3 5.5-12.3 12.3v23.7c0 6.7 5.5 12.3 12.3 12.3h23.7c6.7 0 12.3-5.5 12.3-12.3v-23.7c0-6.7-5.5-12.3-12.3-12.3z"/></g></svg>