<svg enable-background="new 0 0 90.7 90.7" viewBox="0 0 90.7 90.7" xmlns="http://www.w3.org/2000/svg"><path d="m86.8 42.5c0-18.4-18.6-33.5-41.4-33.5s-41.4 15.1-41.4 33.5c0 16.6 14.8 30.4 34.6 33.1 1.3.3 3.2.9 3.7 2 .3 1.2.4 2.5.1 3.7l-.4 3.5c-.1 1.1-.8 4.1 3.6 2.2 4.5-1.8 23.8-14 32.5-24 5.8-6.4 8.7-13 8.7-20.5" fill="#2bac38"/><g fill="#fff"><path d="m36.5 33h-3.1c-.4 0-.8.4-.8.8v19.1c0 .4.4.8.8.8h3.1c.4 0 .8-.4.8-.8v-18.9c0-.6-.3-1-.8-1"/><path d="m57.6 33h-3.1c-.4 0-.8.4-.8.8v11.4l-8.7-11.8v-.1h-3.8c-.4 0-.8.4-.8.8v18.8c0 .4.4.8.8.8h3.1c.4 0 .8-.4.8-.8v-11.3l8.8 11.8c0 .1.1.1.3.1h.3.3 3.1c.4 0 .8-.4.8-.8v-18.7c-.2-.6-.5-1-1.1-1"/><path d="m29.1 49h-8.3v-15c0-.4-.4-.8-.8-.8h-3.1c-.4 0-.8.4-.8.8v19c0 .3.1.4.3.6.1.1.4.3.6.3h12.4c.4 0 .8-.4.8-.8v-3.1c-.3-.6-.5-1-1.1-1z"/><path d="m74.5 37.9c.4 0 .8-.4.8-.8v-3.1c0-.4-.4-.8-.8-.8h-12.4c-.3 0-.4.1-.6.3-.1.1-.3.4-.3.6v18.9c0 .3.1.4.3.6.1.1.4.3.6.3h12.4c.4 0 .8-.4.8-.8v-3.1c0-.4-.4-.8-.8-.8h-8.3v-3.2h8.3c.4 0 .8-.4.8-.8v-3.2c0-.4-.4-.8-.8-.8h-8.3v-3.2h8.3z"/></g></svg>