<?xml version="1.0" encoding="utf-8"?>
<!-- Generator: Adobe Illustrator 23.0.3, SVG Export Plug-In . SVG Version: 6.00 Build 0)  -->
<svg version="1.1" id="Capa_1" xmlns="http://www.w3.org/2000/svg" xmlns:xlink="http://www.w3.org/1999/xlink" x="0px" y="0px"
	 viewBox="0 0 410.2 410.2" style="enable-background:new 0 0 410.2 410.2;" xml:space="preserve">
<style type="text/css">
	.st0{fill:#FFFFFF;}
</style>
<g>
	<path class="st0" d="M401.6,364.1L294.5,257c19.1-26.8,30.6-59.3,30.6-93.7c0-89.9-72.7-162.6-162.6-162.6S0,73.4,0,163.3
		s72.7,162.6,162.6,162.6c34.4,0,66.9-11.5,93.7-30.6l107.1,107.1c9.6,9.6,26.8,9.6,38.2,0l0,0C413.1,390.9,413.1,375.6,401.6,364.1
		z M162.6,287.6c-68.8,0-124.3-55.5-124.3-124.3C38.2,94.4,93.7,39,162.6,39s124.3,55.5,124.3,124.3
		C286.9,232.1,231.4,287.6,162.6,287.6z"/>
</g>
</svg>
