<?xml version="1.0" encoding="utf-8"?>
<!-- Generator: Adobe Illustrator 24.3.0, SVG Export Plug-In . SVG Version: 6.00 Build 0)  -->
<svg version="1.1" id="top" xmlns="http://www.w3.org/2000/svg" xmlns:xlink="http://www.w3.org/1999/xlink" x="0px" y="0px"
	 viewBox="0 0 60 60" style="enable-background:new 0 0 60 60;" xml:space="preserve">
<style type="text/css">
	.st0{enable-background:new    ;}
	.st1{fill:#FFFFFF;}
</style>
<g>
	<g class="st0">
		<path class="st1" d="M9.4,39.7c-0.3,0-0.6-0.1-0.8-0.3c-0.2-0.2-0.3-0.5-0.3-0.8v-0.1c0-0.3,0.1-0.6,0.3-0.8
			c0.2-0.2,0.5-0.3,0.8-0.3h8.9c0.3,0,0.6,0.1,0.8,0.3c0.2,0.2,0.3,0.5,0.3,0.8v0.1c0,0.3-0.1,0.6-0.3,0.8c-0.2,0.2-0.5,0.3-0.8,0.3
			h-2.9c-0.1,0-0.2,0.1-0.2,0.2v10.8c0,0.3-0.1,0.6-0.3,0.8c-0.2,0.2-0.5,0.3-0.8,0.3h-0.6c-0.3,0-0.6-0.1-0.8-0.3
			c-0.2-0.2-0.3-0.5-0.3-0.8V39.9c0-0.1-0.1-0.2-0.2-0.2H9.4z"/>
		<path class="st1" d="M35.1,50c-1.3,1.3-3.1,2-5.3,2s-4-0.7-5.3-2c-1.3-1.3-2-3.1-2-5.4s0.7-4.1,2-5.4c1.3-1.3,3.1-2,5.3-2
			s4,0.7,5.3,2c1.3,1.3,2,3.1,2,5.4S36.4,48.6,35.1,50z M33,40.8c-0.8-0.9-1.9-1.3-3.2-1.3c-1.4,0-2.4,0.5-3.2,1.3
			c-0.8,0.9-1.2,2.2-1.2,3.8s0.4,2.9,1.2,3.8c0.8,0.9,1.9,1.3,3.2,1.3c1.4,0,2.4-0.4,3.2-1.3c0.8-0.9,1.2-2.2,1.2-3.8
			S33.8,41.7,33,40.8z"/>
		<path class="st1" d="M42.4,51.8c-0.3,0-0.6-0.1-0.8-0.3c-0.2-0.2-0.3-0.5-0.3-0.8v-12c0-0.3,0.1-0.6,0.3-0.8
			c0.2-0.3,0.5-0.4,0.8-0.4c1.1-0.1,2.2-0.2,3.3-0.2c2,0,3.5,0.4,4.5,1.2s1.5,1.9,1.5,3.4c0,1.6-0.5,2.9-1.5,3.7
			c-1,0.8-2.4,1.3-4.3,1.3c-0.4,0-1,0-1.7-0.1c-0.1,0-0.2,0.1-0.2,0.2v3.8c0,0.3-0.1,0.6-0.3,0.8c-0.2,0.2-0.5,0.3-0.8,0.3H42.4z
			 M44.1,39.6v4.7c0,0.1,0.1,0.2,0.2,0.2c0.5,0.1,1,0.1,1.5,0.1c1.1,0,1.9-0.2,2.5-0.7c0.6-0.5,0.9-1.1,0.9-2c0-1.7-1.1-2.6-3.3-2.6
			c-0.5,0-1,0-1.5,0.1C44.1,39.5,44.1,39.5,44.1,39.6z"/>
	</g>
	<g>
		<path class="st1" d="M48.4,26.1c-0.4,0-0.9-0.2-1.2-0.5L30,9.2L12.8,25.6c-0.7,0.7-1.8,0.6-2.5-0.1c-0.7-0.7-0.6-1.8,0.1-2.5
			L28.8,5.5c0.7-0.6,1.7-0.6,2.4,0l18.4,17.6c0.7,0.7,0.7,1.8,0.1,2.5C49.3,25.9,48.9,26.1,48.4,26.1z"/>
	</g>
</g>
</svg>
