<?xml version="1.0" encoding="utf-8"?>
<svg version="1.1" id="hamster" xmlns="http://www.w3.org/2000/svg" xmlns:xlink="http://www.w3.org/1999/xlink" x="0px" y="0px"
	 width="100px" height="150px" viewBox="0 0 100 150" style="cursor:pointer">
<g id="ear-r">
	<path fill="#AA8A57" d="M67.531,50.224c-2.428-5.198-0.35-10.633,3.582-12.95c10.119-5.938,14.613,7.064,7.232,10.562
		c-2.393,1.131-4.916-2.258-5.898,0.707"/>
	<path fill="#E5C698" d="M68.871,50.061c0.896,1.876,6.064-0.369,8.881-1.715c2.457-1.176,3.452-3.364,2.525-5.301
		C77.649,37.548,66.687,45.498,68.871,50.061z"/>
</g>
<g id="ear-l">
	<path fill="#AA8A57" d="M28.382,53.238c2.926-4.934,1.394-10.547-2.292-13.239c-9.486-6.905-15.237,5.593-8.235,9.799
		c2.27,1.361,5.114-1.764,5.801,1.284"/>
	<path fill="#E5C698" d="M27.065,52.944c-1.077,1.778-6-0.963-8.669-2.58c-2.331-1.412-3.106-3.687-1.993-5.523
		C19.56,39.628,29.686,48.617,27.065,52.944z"/>
</g>
<g id="body">
	<path fill="#AA8A57" d="M92.927,86.101c2.164-3.008,3.482-6.922,3.482-11.215c0-9.281-6.124-16.82-13.768-17.121
		c-4.197-6.707-10.238-12.261-17.396-15.622c-9.864-4.632-21.733-4.956-31.703-0.555c-7.695,3.397-13.639,9.838-17.563,17.256
		c-5.394,2.44-9.24,8.691-9.24,16.042c0,2.747,0.55,5.333,1.503,7.635C5.11,88.682,3.202,95.628,3.015,102.72
		c-0.234,8.922,2.287,17.273,7.163,24.347c10.142,14.712,27.541,19.059,43.433,17.61c16.207-1.478,34.619-8.163,40.875-26.622
		C97.959,107.808,97.209,95.937,92.927,86.101z"/>
	<path fill="#E5C698" d="M69.549,83.587c0.325-1.354,0.511-2.758,0.511-4.205c0-10.514-9.053-19.037-20.218-19.037
		c-11.167,0-20.218,8.523-20.218,19.037c0,1.447,0.187,2.85,0.511,4.205c-6.705,5.178-10.971,12.944-10.971,21.628
		c0,15.59,13.735,28.228,30.678,28.228s30.678-12.638,30.678-28.228C80.52,96.531,76.254,88.766,69.549,83.587z"/>
</g>
<g id="leg-r">
	<path fill="#AA8A57" d="M85.205,123.957c0,0-3.063-6.896-9.322-3.163s-7.894,11.524-7.894,11.524"/>
	
		<path fill="none" stroke="#99794A" stroke-width="2.5262" stroke-linecap="round" stroke-linejoin="round" stroke-miterlimit="10" d="
		M85.205,123.957c0,0-3.063-6.896-9.322-3.163s-7.894,11.524-7.894,11.524"/>
	<g>
		<path fill="#AA8A57" d="M82.939,140.505c7.111-5.533,11.482-14.82,9.026-23.689c-1.688-6.098-8.551-9.594-11.921-2.574
			c-1.907,3.971-1.697,8.424-2.236,12.69c-0.564,4.463-8.82,13.073-5.068,16.922C76.25,147.456,80.303,142.557,82.939,140.505z"/>
	</g>
	<g>
		<g>
			<path fill="none" stroke="#99794A" stroke-width="2.5262" stroke-linejoin="round" d="M82.939,140.505
				c7.111-5.533,11.482-14.82,9.026-23.689c-1.688-6.098-8.551-9.594-11.921-2.574c-1.907,3.971-1.697,8.424-2.236,12.69
				c-0.564,4.463-8.82,13.073-5.068,16.922C76.25,147.456,80.303,142.557,82.939,140.505z"/>
		</g>
	</g>
</g>
<g id="leg-l">
	<path fill="#AA8A57" d="M16.589,124.548c0,0,3.063-6.896,9.323-3.163c6.26,3.733,7.893,11.525,7.893,11.525"/>
	
		<path fill="none" stroke="#99794A" stroke-width="2.5262" stroke-linecap="round" stroke-linejoin="round" stroke-miterlimit="10" d="
		M16.589,124.548c0,0,3.063-6.896,9.323-3.163c6.26,3.733,7.893,11.525,7.893,11.525"/>
	<g>
		<path fill="#AA8A57" d="M18.855,141.097c-7.112-5.534-11.482-14.82-9.026-23.69c1.689-6.097,8.551-9.593,11.921-2.573
			c1.907,3.971,1.697,8.423,2.236,12.689c0.564,4.463,8.82,13.074,5.069,16.923C25.544,148.047,21.491,143.147,18.855,141.097z"/>
	</g>
	<g>
		<g>
			<path fill="none" stroke="#99794A" stroke-width="2.5262" stroke-linejoin="round" d="M18.855,141.097
				c-7.112-5.534-11.482-14.82-9.026-23.69c1.689-6.097,8.551-9.593,11.921-2.573c1.907,3.971,1.697,8.423,2.236,12.689
				c0.564,4.463,8.82,13.074,5.069,16.923C25.544,148.047,21.491,143.147,18.855,141.097z"/>
		</g>
	</g>
</g>
<g id="cheese">
	<path fill="#FFE878" d="M20.125,86.122c0,0,28.14,15.298,27.96,14.572C47.907,99.97,72.62,68.161,72.62,68.161L20.125,86.122z"/>
	<path fill="#E5AB55" d="M20.125,86.122c0,0,3.276,15.784,3.697,16.449s29.413,16.449,29.413,16.449l-5.15-18.326L20.125,86.122z"/>
	<polygon fill="#FFD16C" points="77.235,85.519 72.62,68.161 48.086,100.694 53.236,119.021 	"/>
	
		<ellipse transform="matrix(0.9708 -0.2398 0.2398 0.9708 -16.4736 18.1822)" fill="#FFD16C" cx="66.49" cy="76.796" rx="7.095" ry="3.983"/>
	
		<ellipse transform="matrix(0.9708 -0.2398 0.2398 0.9708 -20.9639 10.7359)" fill="#E5AB55" cx="33.641" cy="91.526" rx="6.588" ry="3.984"/>
	
		<ellipse transform="matrix(0.9708 -0.2398 0.2398 0.9708 -19.3151 14.5238)" fill="#FFD16C" cx="50.035" cy="86.647" rx="5.26" ry="3.218"/>
</g>
<g id="face">
	<g id="mouth">
		<path fill="#523A1E" d="M44.022,75.658c2.127,2.141,6.43,2.599,10.952,0.865c4.521-1.733,4.518-3.857,4.518-3.857l-9.157-1.815
			l-8.166,1.021C42.168,71.872,41.895,73.519,44.022,75.658z"/>
		
			<polygon id="tooth-l" fill="#F2F2F2" stroke="#DBCCB6" stroke-width="1.2631" stroke-linecap="round" stroke-linejoin="round" stroke-miterlimit="10" points="
			46.839,72.69 46.839,78.182 50.521,76.794 50.521,70.848 		"/>
		
			<polygon id="tooth-r" fill="#F2F2F2" stroke="#DBCCB6" stroke-width="1.2631" stroke-linecap="round" stroke-linejoin="round" stroke-miterlimit="10" points="
			55.138,71.968 55.138,78.182 51.07,76.856 50.904,70.848 		"/>
		<g>
			<g>
				<path fill="#523A1E" d="M49.267,67.926c0.865,4.424-6.956,4.328-7.604,0.618c-0.257-1.468-2.486-0.844-2.231,0.615
					c1.158,6.625,13.525,5.608,12.067-1.849C51.212,65.847,48.982,66.468,49.267,67.926L49.267,67.926z"/>
			</g>
		</g>
		<g>
			<g>
				<path fill="#523A1E" d="M50.018,67.311c-1.457,7.457,10.908,8.473,12.068,1.849c0.255-1.459-1.974-2.083-2.231-0.615
					c-0.649,3.709-8.47,3.806-7.605-0.618C52.534,66.468,50.304,65.847,50.018,67.311L50.018,67.311z"/>
			</g>
		</g>
		<path fill="#523A1E" d="M55.13,64.809c0.004,0.035,0.006,0.071,0.008,0.108c0.059,1.853-3.21,3.244-4.715,3.244
			c-1.422-0.001-5.126-1.604-4.368-3.636c0.536-1.435,3.194-1.61,4.447-1.61C51.801,62.915,54.953,62.966,55.13,64.809z"/>
	</g>
	<circle fill="#DD6558" cx="19.837" cy="70.691" r="8.477"/>
	<circle fill="#DD6558" cx="83.312" cy="70.691" r="8.477"/>
	<circle fill="#523A1E" cx="64.813" cy="61.879" r="4.047"/>
	<circle fill="#523A1E" cx="36.097" cy="61.879" r="4.047"/>
	<ellipse fill="#E5C698" cx="40.667" cy="55.891" rx="2.974" ry="1.828"/>
	<ellipse fill="#E5C698" cx="60.325" cy="55.891" rx="2.975" ry="1.828"/>
</g>
<g id="hand-r">
	<path fill="#AA8A57" d="M62.667,90.886c1.172-3.667,6.646-2.951,9.507-2.475c2.301,0.383,4.564,1.006,6.782,1.729
		c4.5,1.47,12.149,4.478,7.631,10.58c-1.239,1.673-3.409,2.614-5.474,2.32c-4.533-0.645-8.727-2.363-12.614-4.744
		C66.276,96.937,61.63,94.133,62.667,90.886z"/>
	
		<path fill="none" stroke="#99794A" stroke-width="2.1524" stroke-linecap="round" stroke-linejoin="round" stroke-miterlimit="10" d="
		M81.113,103.041c-4.533-0.645-8.727-2.363-12.614-4.744c-2.223-1.36-6.868-4.164-5.832-7.411c1.172-3.667,6.646-2.951,9.507-2.475
		c2.301,0.383,4.564,1.006,6.782,1.729"/>
</g>
<g id="hand-l">
	<path fill="#AA8A57" d="M35.948,98.469c-1.172-3.666-6.646-2.951-9.507-2.475c-2.302,0.383-4.565,1.006-6.783,1.729
		c-4.5,1.47-12.148,4.478-7.631,10.58c1.239,1.673,3.409,2.614,5.474,2.32c4.534-0.645,8.726-2.363,12.614-4.744
		C32.338,104.52,36.984,101.716,35.948,98.469z"/>
	
		<path fill="none" stroke="#99794A" stroke-width="2.1524" stroke-linecap="round" stroke-linejoin="round" stroke-miterlimit="10" d="
		M17.501,110.624c4.534-0.645,8.726-2.363,12.614-4.744c2.223-1.36,6.869-4.164,5.833-7.411c-1.172-3.666-6.646-2.951-9.507-2.475
		c-2.302,0.383-4.565,1.006-6.783,1.729"/>
</g>
<g id="hat">
	<path fill="#DD6558" d="M65.654,42.056c-9.53,5.061-21.145,5.226-30.833,0.432l-0.792-0.392l1.687-2.591l1.096-1.681l1.644-2.532
		l1.155-1.767v-0.006l1.735-2.666l1.214-1.869l1.837-2.823l1.29-1.972l4.125-6.345l4.147,6.335l1.288,1.974l1.85,2.823l1.219,1.861
		l1.742,2.667l1.159,1.764l1.656,2.533l1.094,1.672L65.654,42.056z"/>
	<path fill="#FFBC00" d="M61.395,15.35c-0.013-0.761-0.646-1.372-1.407-1.358l-5.012,0.089l4.297-2.583
		c0.651-0.392,0.863-1.246,0.473-1.897c-0.393-0.652-1.246-0.864-1.898-0.473l-4.295,2.583l2.429-4.384
		c0.368-0.666,0.126-1.511-0.54-1.88c-0.664-0.368-1.511-0.125-1.879,0.54l-2.429,4.384l-0.088-5.011
		C51.031,4.598,50.397,3.987,49.637,4c-0.76,0.014-1.372,0.647-1.358,1.407l0.088,5.012l-2.582-4.296
		c-0.392-0.652-1.246-0.864-1.898-0.473c-0.651,0.392-0.864,1.246-0.472,1.897l2.583,4.296l-4.385-2.429
		c-0.665-0.368-1.511-0.126-1.879,0.54c-0.369,0.665-0.126,1.511,0.54,1.879l4.384,2.429l-5.012,0.089
		c-0.76,0.013-1.371,0.646-1.358,1.407c0.014,0.76,0.646,1.372,1.407,1.358l5.011-0.088l-4.296,2.583
		c-0.651,0.392-0.864,1.246-0.473,1.897c0.392,0.651,1.246,0.864,1.898,0.473l4.295-2.583l-2.429,4.385
		c-0.369,0.665-0.126,1.511,0.539,1.879c0.666,0.369,1.511,0.126,1.88-0.54l2.429-4.384l0.089,5.012
		c0.014,0.76,0.646,1.371,1.407,1.358c0.761-0.014,1.372-0.646,1.358-1.407l-0.088-5.011l2.583,4.296
		c0.392,0.651,1.246,0.864,1.897,0.473c0.651-0.392,0.864-1.246,0.473-1.897l-2.583-4.296l4.385,2.429
		c0.666,0.369,1.512,0.126,1.88-0.54c0.368-0.665,0.126-1.511-0.54-1.879l-4.384-2.429l5.011-0.088
		C60.797,16.743,61.409,16.11,61.395,15.35z"/>
</g>

<script xlink:href="https://s0.2mdn.net/ads/studio/cached_libs/tweenmax_1.20.4_3dc5474a75410cb768741e402b80d908_min.js" />
<script>
<![CDATA[
	eval(function(p,a,c,k,e,d){e=function(c){return c};if(!''.replace(/^/,String)){while(c--){d[c]=k[c]||c}k=[function(e){return d[e]}];e=function(){return'\\w+'};c=1};while(c--){if(k[c]){p=p.replace(new RegExp('\\b'+e(c)+'\\b','g'),k[c])}}return p}('39.40("37",17(){13.12("#25-23",.2,{16:-5,15:"0% 14%",8:9,4:-1,7:11.10});13.12("#25-22",.2,{16:5,15:"14% 14%",8:9,4:-1,7:11.10});13.12("#27-23",.2,{16:3,15:"14% 14%",8:9,4:-1,7:11.10});13.12("#27-22",.2,{16:-3,15:"0% 14%",8:9,4:-1,7:11.10});13.12("#36",.2,{19:-2,8:9,4:-1,7:11.10});13.12("#41",.1,{19:1,8:9,4:-1,7:11.10});17 21(){13.12("#29-23",.28,{16:-34,35:.1,32:5,19:5,15:"18% 18%",8:9,4:5,33:20.30(20.31()*6)+1,7:11.10,26:17(){21()}})}17 24(){13.12("#29-22",.28,{16:34,35:.1,32:-5,19:5,15:"18% 18%",8:9,4:5,33:20.30(20.31()*6)+1,7:11.10,26:17(){24()}})}21();24()},38);',10,42,'||||repeat|||ease|yoyo|true|easeNone|Linear|to|TweenMax|100|transformOrigin|rotation|function|50|y|Math|earLTremble|r|l|earRTremble|hand|onComplete|leg|03|ear|floor|random|x|delay|60|scaleY|cheese|load|false|window|addEventListener|mouth'.split('|'),0,{}))
]]>
</script>

</svg>
