<?xml version="1.0" encoding="utf-8"?>
<svg version="1.1" id="puppy" xmlns="http://www.w3.org/2000/svg" xmlns:xlink="http://www.w3.org/1999/xlink" x="0px" y="0px"
	 width="145px" height="145px" viewBox="0 0 145 145" enable-background="new 0 0 145 145" xml:space="preserve" style="cursor:pointer">
<g id="tail">
	<path fill="#E49D2F" d="M106.039,110.002c-5.798,0.485-11.706-0.297-16.908-2.375c-3.805-1.521-11.183-6.832-8.545-12.03
		c3.201-6.313,18.027,2.82,23.541-1.453c1.648-1.278,2.232-3.31,2.336-5.319c0.314-6.173-4.621-11.872-15.244-11.021
		c-2.146,1.044-7.042-2.229-3.771-7.285c2.577-3.985,7.713-7.151,12.491-7.105c4.021,0.039,12.834,3.958,11.641,9.917
		c0.427-2.13,1.34-3.821,1.01-6.125c-0.503-3.516,1.12-9.018,4.906-7.374c8.611,3.731,6.122,11.954,4.638,19.959
		c8.236-3.854,14.188-4.115,12.079,7.651C131.734,101.28,119.172,108.899,106.039,110.002z"/>
	<path fill="#FFF3DE" d="M127.002,60.546c2.989,5.249-0.158,11.505-0.159,11.506c1.644-10.832-5.938-16.251-13.812-19.024
		c-7.872-2.773-15.055,1.698-16.86,4.66c9.804-0.354,13.621,5.618,13.624,7.896c-7.126-8.625-24.247-6.646-26.484,9.352
		c-0.218,0.963-0.295,1.971-0.24,2.992c0,0.006-0.002,0.012-0.002,0.018h0.002c0.113,2.185,0.836,4.433,2.172,6.433
		c4.675,6.997,13.947,8.238,18.341,2.442c2.241-2.954,2.493-7.23,0.804-11.034c2.631,1.075,6.477,3.519,7.023,8.717
		c0,0,3.234-1.646,4.05-9.622c0,0,7.468,6.453,3.233,14.905c3.178-0.679,6.908-4.666,8.197-8.32
		c1.229,1.392,1.815,5.417-2.041,11.931C140.096,90.249,141.719,66.438,127.002,60.546z"/>
</g>
<g id="leg-rr">
	<path fill="#D68A27" d="M93.736,97.177c-3.227-4.623-9.924-4.771-14.65-2.438c-5.748,2.834-7.034,7.619-6.347,13.273
		c0.554,4.545,3.334,10.018,4.266,14.527c0.638,3.087,1.063,7.291,2.386,10.811c-2.016,1.026-3.268,2.596-3.127,4.244
		c0.221,2.631,3.889,4.479,8.193,4.125c2.82-0.229,5.21-1.351,6.463-2.835c3.736-3.589,4.771-14.19,5.428-17.419
		C97.982,113.384,98.805,104.438,93.736,97.177z"/>
</g>
<g id="leg-fr">
	<path fill="#E49D2F" d="M52.377,116.56c0,0,2.681,25.607-4.667,25.912c-9.35,0.391-13.854-27.939-13.854-27.939
		s-4.781-14.987-0.007-19.721"/>
	<path fill="#E49D2F" d="M51.522,138.274c0.221,2.631-2.668,5.016-6.449,5.32c-3.78,0.313-7.025-1.57-7.245-4.203
		c-0.223-2.633,2.667-5.018,6.446-5.324C48.058,133.76,51.302,135.642,51.522,138.274z"/>
</g>
<g id="body">
	<path fill="#E49D2F" d="M35.126,91.485c-1.471,1.972-2.604,4.144-3.249,6.523c-1.982,7.326-1.338,16.445,3.581,22.567
		c1.859,2.313,4.347,4.059,7.218,4.922c8.299,2.495,16.602,2.349,24.963,1.413c5.659-0.629,13.057-1.008,18.478-2.86
		c7.219-2.468,11.444-10.679,12.729-17.646c1.559-8.463-1.215-15.887-9.447-19.418c-5.269-2.26-11.469-2.502-16.313-5.938
		c-6.174-4.373-13.689-4.515-20.563-1.718C46.324,81.854,39.339,85.84,35.126,91.485z"/>
	<path fill="#FFF3DE" d="M78.559,120.836c-3.416,0.461-6.864,0.586-10.311,0.619c-2.315,0.021-6.92,0.877-8.916-0.487
		c-4.669-3.193-0.631-8.875,0.868-12.676c1.641-4.159,4.454-21.641,10.21-22.745l-37.593,7.241c0,0,1.983,4.174,2.585,14.337
		c0.392,6.604,3.189,13.67,8.615,17.963c6.898,5.458,16.174,4.576,24.334,3.224c6.082-1.008,12.562-1.604,18.401-3.604
		c1.379-0.475,2.706-1.237,3.952-2.229C89.975,120.875,84.582,120.024,78.559,120.836z"/>
</g>
<g id="leg-rl">
	<path fill="#E49D2F" d="M106.374,103.651c-2.019-5.914-5.513-11.588-10.951-14.955c-9.386-5.813-16.582-2.687-19.985,3.783
		c-1.893,3.595-2.613,8.215-1.894,12.906c1.161,7.549,5.53,18.17,13.224,22.357c0.41,2.419,0.896,5.063,1.775,7.406
		c-2.016,1.024-3.268,2.595-3.128,4.244c0.222,2.631,3.892,4.479,8.192,4.125c2.822-0.229,5.213-1.354,6.466-2.838
		c3.733-3.591,4.771-14.188,5.425-17.419c0.124-0.61,0.238-1.228,0.354-1.847C108.199,115.937,108.129,108.802,106.374,103.651z"/>
</g>
<g id="leg-fl">
	<path fill="#E49D2F" d="M74.33,112.228l-12.192-13.6c-6.371,2.441-9.035,12.33-8.98,18.438c0.04,4.434,2.155,13.439,5.283,19.812
		c-0.922,0.906-1.43,2.021-1.332,3.181c0.222,2.633,3.465,4.516,7.247,4.203c3.568-0.292,6.339-2.431,6.455-4.882
		C75.1,130.562,74.33,112.228,74.33,112.228z"/>
</g>
<g id="scarf">
	<path fill="#699B49" d="M84.285,83.526c0.007-0.006,0.014-0.008,0.021-0.012c6.452-3.517,6.014-6.859,6.014-6.859
		s-3.959-2.61-10.271-0.188c-6.312,2.427-6.339,6.562-6.339,6.562s0.538,0.514,1.514,1.011c-1.406,0.806-1.938,1.752-1.938,1.752
		s1.727,5.497,9.074,5.493c7.35-0.008,8.563-3.153,8.563-3.153S89.21,84.92,84.285,83.526z"/>
	<path fill="#72A950" d="M14.977,72.852c1.61-0.017,63.83,9.312,63.83,9.312c1.842,18.333-35.559,24.059-35.198,37.455
		C18.64,106.026,19.846,85.444,19.463,80.112"/>
	<path fill="#C9E79F" d="M69.832,89.511c-0.216-0.854-0.893-1.773-2.089-1.554c-0.74,0.138-1.522,0.706-1.589,1.522
		c-0.042,0.529,0.209,0.903,0.688,1.026c0.264,0.068,0.49,0.024,0.677-0.128c0.208-0.17,0.333-0.459,0.316-0.734
		c-0.016-0.265,0.188-0.486,0.451-0.502c0.263-0.017,0.487,0.188,0.503,0.448c0.031,0.579-0.224,1.164-0.666,1.526
		c-0.424,0.347-0.963,0.458-1.521,0.313c-0.932-0.238-1.48-1.035-1.403-2.025c0.104-1.301,1.27-2.187,2.366-2.391
		c1.304-0.242,2.442,0.414,2.987,1.663c0.08,0.188,0.147,0.386,0.201,0.599c0.39,1.547-0.251,3.513-1.998,4.117
		c-1.563,0.545-3.477-0.05-4.543-1.416c-0.163-0.207-0.125-0.508,0.082-0.67s0.508-0.125,0.67,0.082
		c0.812,1.037,2.306,1.514,3.478,1.104C69.674,92.067,70.115,90.642,69.832,89.511z M52.059,90.574
		c0.239-0.111,0.341-0.396,0.229-0.638c-0.112-0.235-0.396-0.342-0.636-0.229c-1.569,0.734-2.577,2.465-2.395,4.109
		c0.203,1.84,1.974,2.901,3.569,2.867c0.218-0.004,0.428-0.023,0.627-0.063c1.338-0.252,2.232-1.216,2.287-2.541
		c0.047-1.116-0.557-2.449-1.8-2.839c-0.948-0.299-1.847,0.062-2.29,0.914c-0.265,0.512-0.275,1.063-0.032,1.553
		c0.254,0.514,0.768,0.893,1.339,0.99c0.26,0.045,0.507-0.131,0.551-0.393c0.045-0.261-0.129-0.508-0.39-0.553
		c-0.272-0.047-0.526-0.23-0.646-0.473c-0.107-0.219-0.099-0.447,0.026-0.688c0.228-0.438,0.648-0.603,1.154-0.442
		c0.784,0.246,1.163,1.139,1.133,1.891c-0.051,1.216-1.1,1.67-1.981,1.688c-1.166,0.022-2.457-0.725-2.6-2.02
		C50.069,92.483,50.866,91.133,52.059,90.574z M40.142,98.495c0.248,0.089,0.522-0.039,0.611-0.287
		c0.589-1.63,0.077-3.564-1.216-4.602c-1.443-1.154-3.447-0.653-4.552,0.496c-0.149,0.157-0.283,0.32-0.397,0.488
		c-0.77,1.125-0.718,2.438,0.18,3.414c0.756,0.821,2.126,1.337,3.281,0.734c0.881-0.463,1.263-1.352,0.972-2.268
		c-0.175-0.551-0.557-0.947-1.075-1.121c-0.542-0.184-1.173-0.088-1.646,0.248c-0.215,0.15-0.268,0.448-0.114,0.666
		c0.153,0.215,0.45,0.268,0.666,0.112c0.226-0.16,0.537-0.208,0.792-0.123c0.229,0.077,0.386,0.247,0.468,0.505
		c0.15,0.473-0.033,0.885-0.504,1.131c-0.729,0.381-1.626,0.021-2.136-0.533c-0.825-0.896-0.405-1.959,0.206-2.597
		c0.807-0.842,2.248-1.227,3.265-0.411c0.968,0.773,1.362,2.293,0.915,3.529C39.766,98.13,39.895,98.403,40.142,98.495z
		 M49.62,79.619c0.218-0.007,0.428-0.026,0.627-0.063c0.893-0.169,1.581-0.658,1.961-1.354c-0.35-0.052-0.699-0.104-1.05-0.154
		c-0.396,0.429-1.01,0.606-1.559,0.62c-0.889,0.02-1.847-0.414-2.317-1.193c-0.368-0.055-0.737-0.106-1.106-0.162
		C46.638,78.797,48.193,79.647,49.62,79.619z M27.724,86.332c0.239-0.112,0.342-0.396,0.23-0.636
		c-0.112-0.238-0.396-0.344-0.636-0.229c-1.569,0.736-2.577,2.468-2.395,4.113c0.203,1.837,1.974,2.897,3.569,2.866
		c0.218-0.004,0.428-0.025,0.627-0.063c1.338-0.251,2.231-1.216,2.287-2.54c0.047-1.115-0.557-2.447-1.8-2.839
		c-0.948-0.298-1.848,0.062-2.29,0.915c-0.265,0.512-0.276,1.063-0.032,1.553c0.254,0.512,0.768,0.894,1.339,0.989
		c0.26,0.045,0.507-0.13,0.552-0.392c0.044-0.262-0.13-0.508-0.39-0.553c-0.273-0.047-0.526-0.229-0.646-0.474
		c-0.107-0.216-0.099-0.446,0.026-0.688c0.228-0.438,0.648-0.603,1.155-0.439c0.784,0.246,1.163,1.136,1.132,1.889
		c-0.051,1.219-1.099,1.67-1.981,1.689c-1.166,0.021-2.457-0.727-2.6-2.02C25.734,88.242,26.53,86.89,27.724,86.332z M58.664,80.774
		c1.219,0.229,2.278,1.387,2.466,2.688c0.038,0.262,0.278,0.439,0.541,0.405c0.261-0.038,0.441-0.28,0.404-0.541
		c-0.245-1.718-1.606-3.187-3.234-3.49c-1.817-0.342-3.352,1.042-3.784,2.578c-0.059,0.21-0.1,0.417-0.122,0.619
		c-0.149,1.354,0.512,2.487,1.763,2.929c1.054,0.37,2.506,0.182,3.241-0.896c0.563-0.817,0.481-1.782-0.207-2.457
		c-0.412-0.399-0.936-0.572-1.475-0.481c-0.564,0.095-1.076,0.474-1.337,0.992c-0.119,0.233-0.023,0.521,0.212,0.641
		c0.234,0.119,0.521,0.024,0.641-0.212c0.125-0.247,0.376-0.438,0.642-0.479c0.237-0.041,0.457,0.033,0.649,0.227
		c0.354,0.348,0.387,0.796,0.086,1.232c-0.464,0.68-1.426,0.779-2.137,0.529c-1.149-0.399-1.277-1.537-1.038-2.387
		C56.293,81.551,57.383,80.535,58.664,80.774z M77.777,83.174c0.248,0.091,0.521-0.039,0.609-0.287
		c0.588-1.631,0.077-3.563-1.217-4.601c-0.08-0.064-0.167-0.104-0.25-0.158c-0.292,0.21-0.559,0.422-0.798,0.635
		c0.153,0.069,0.308,0.154,0.45,0.27c0.97,0.773,1.361,2.294,0.914,3.529C77.4,82.812,77.529,83.086,77.777,83.174z M25.319,75.563
		c0.219-0.006,0.429-0.023,0.627-0.063c0.691-0.13,1.262-0.453,1.661-0.915c-0.45-0.065-0.893-0.129-1.325-0.19
		c-0.312,0.144-0.657,0.207-0.982,0.217c-0.633,0.015-1.297-0.209-1.8-0.613c-0.48-0.068-0.943-0.135-1.391-0.198
		C22.744,74.946,24.081,75.59,25.319,75.563z M65.282,100.399c-0.246-1.719-1.606-3.187-3.234-3.489
		c-1.817-0.343-3.352,1.042-3.784,2.577c-0.059,0.209-0.1,0.416-0.122,0.615c-0.15,1.354,0.512,2.49,1.763,2.933
		c0.33,0.114,0.7,0.169,1.074,0.166c0.79-0.468,1.579-0.938,2.363-1.414c0.327-0.731,0.187-1.525-0.403-2.104
		c-0.412-0.399-0.936-0.572-1.475-0.481c-0.564,0.094-1.077,0.475-1.337,0.991c-0.119,0.232-0.024,0.521,0.212,0.643
		c0.234,0.118,0.521,0.021,0.641-0.212c0.124-0.247,0.376-0.438,0.642-0.479c0.237-0.039,0.457,0.035,0.649,0.229
		c0.354,0.346,0.387,0.796,0.086,1.232c-0.464,0.679-1.426,0.779-2.137,0.53c-1.149-0.401-1.278-1.538-1.038-2.388
		c0.316-1.122,1.408-2.143,2.688-1.896c1.219,0.229,2.279,1.385,2.466,2.688c0.029,0.21,0.194,0.359,0.394,0.396
		c0.183-0.113,0.361-0.229,0.541-0.344C65.288,100.528,65.292,100.464,65.282,100.399z M34.613,106.915
		c0.047-1.116-0.557-2.449-1.8-2.839c-0.949-0.3-1.848,0.061-2.29,0.913c-0.265,0.513-0.275,1.063-0.033,1.554
		c0.256,0.513,0.769,0.892,1.34,0.987c0.26,0.047,0.507-0.129,0.552-0.391c0.044-0.261-0.13-0.508-0.391-0.552
		c-0.272-0.047-0.525-0.233-0.646-0.474c-0.107-0.219-0.099-0.447,0.026-0.688c0.228-0.438,0.648-0.602,1.154-0.44
		c0.785,0.244,1.163,1.139,1.132,1.891c-0.05,1.217-1.099,1.67-1.98,1.688c-1.166,0.024-2.457-0.723-2.6-2.018
		c-0.137-1.232,0.659-2.584,1.851-3.145c0.239-0.11,0.342-0.396,0.229-0.635c-0.111-0.24-0.396-0.344-0.635-0.229
		c-1.569,0.733-2.577,2.465-2.395,4.11c0.018,0.158,0.062,0.306,0.101,0.451c0.539,0.678,1.121,1.354,1.729,2.022
		c0.546,0.269,1.152,0.403,1.737,0.394c0.219-0.005,0.429-0.023,0.627-0.063C33.666,109.204,34.56,108.237,34.613,106.915z
		 M54.759,106.253c-0.841,0.395-1.512,1.078-1.935,1.877c0.83-0.541,1.691-1.081,2.576-1.619c-0.003-0.009-0.002-0.019-0.007-0.027
		C55.282,106.243,54.999,106.14,54.759,106.253z M34.84,81.67c0.882-0.46,1.263-1.351,0.972-2.267
		c-0.175-0.551-0.556-0.946-1.075-1.12c-0.542-0.185-1.173-0.089-1.646,0.247c-0.215,0.15-0.267,0.447-0.114,0.666
		c0.152,0.216,0.45,0.268,0.666,0.111c0.226-0.158,0.537-0.207,0.792-0.123c0.229,0.077,0.386,0.248,0.468,0.506
		c0.15,0.475-0.033,0.887-0.503,1.131c-0.729,0.382-1.626,0.021-2.136-0.534c-0.825-0.896-0.405-1.958,0.206-2.597
		c0.807-0.844,2.248-1.229,3.265-0.412c0.97,0.772,1.362,2.293,0.915,3.529c-0.09,0.248,0.039,0.521,0.287,0.61
		c0.248,0.09,0.522-0.039,0.611-0.287c0.589-1.631,0.078-3.563-1.216-4.603c-1.443-1.153-3.447-0.652-4.552,0.498
		c-0.15,0.158-0.283,0.319-0.397,0.488c-0.77,1.125-0.718,2.438,0.18,3.413C32.315,81.756,33.687,82.272,34.84,81.67z
		 M84.337,89.658c0.563-0.82,0.479-1.784-0.207-2.456c-0.412-0.402-0.938-0.574-1.478-0.484c-0.563,0.096-1.074,0.477-1.336,0.993
		c-0.118,0.233-0.022,0.521,0.211,0.642c0.236,0.119,0.521,0.022,0.644-0.213c0.124-0.246,0.376-0.436,0.644-0.479
		c0.235-0.04,0.457,0.035,0.647,0.226c0.354,0.349,0.388,0.796,0.086,1.234c-0.464,0.678-1.426,0.778-2.137,0.53
		c-1.149-0.401-1.278-1.539-1.038-2.39c0.314-1.12,1.406-2.139,2.688-1.896c1.219,0.229,2.279,1.385,2.467,2.688
		c0.037,0.264,0.279,0.442,0.541,0.405c0.263-0.037,0.44-0.278,0.404-0.541c-0.246-1.716-1.604-3.187-3.234-3.49
		c-1.815-0.342-3.352,1.042-3.782,2.578c-0.062,0.21-0.103,0.417-0.122,0.619c-0.15,1.354,0.512,2.487,1.764,2.929
		C82.15,90.921,83.602,90.733,84.337,89.658z M75.684,83.421c0.885-0.46,1.266-1.352,0.975-2.268
		c-0.174-0.549-0.559-0.945-1.073-1.119c-0.187-0.063-0.379-0.081-0.575-0.08c-0.318,0.418-0.563,0.814-0.74,1.186
		c0.076-0.01,0.152-0.029,0.222-0.078c0.228-0.158,0.536-0.209,0.793-0.121c0.229,0.074,0.387,0.244,0.469,0.504
		c0.147,0.474-0.032,0.886-0.503,1.132c-0.729,0.381-1.626,0.02-2.137-0.535c-0.234-0.256-0.36-0.524-0.418-0.794
		c-0.318-0.049-0.65-0.098-0.991-0.148c0.042,0.569,0.273,1.119,0.707,1.592C73.161,83.509,74.529,84.024,75.684,83.421z
		 M49.564,101.76c-0.054-0.211-0.121-0.411-0.203-0.597c-0.544-1.249-1.684-1.905-2.986-1.663c-1.099,0.204-2.264,1.09-2.366,2.388
		c-0.078,0.992,0.472,1.788,1.403,2.028c0.558,0.144,1.097,0.032,1.52-0.313c0.442-0.36,0.697-0.944,0.666-1.523
		c-0.015-0.264-0.24-0.467-0.503-0.451c-0.263,0.016-0.465,0.239-0.451,0.503c0.016,0.274-0.108,0.563-0.316,0.733
		c-0.188,0.152-0.414,0.195-0.678,0.13c-0.479-0.124-0.73-0.498-0.688-1.027c0.064-0.819,0.848-1.388,1.588-1.524
		c1.197-0.224,1.874,0.697,2.089,1.557c0.284,1.131-0.156,2.557-1.386,2.982c-1.171,0.406-2.667-0.063-3.478-1.104
		c-0.163-0.208-0.463-0.244-0.67-0.082c-0.208,0.162-0.245,0.462-0.082,0.67c1.068,1.366,2.979,1.961,4.543,1.416
		C49.313,105.271,49.954,103.308,49.564,101.76z M90.008,77.422c-0.105-0.216-0.1-0.446,0.025-0.688
		c0.035-0.065,0.083-0.115,0.128-0.172c-0.166-0.094-0.466-0.244-0.888-0.41c-0.028,0.051-0.063,0.094-0.09,0.146
		c-0.267,0.511-0.274,1.063-0.033,1.552c0.147,0.301,0.394,0.545,0.68,0.725c0.175-0.353,0.292-0.663,0.363-0.932
		C90.126,77.571,90.05,77.507,90.008,77.422z M44.358,88.808c1.746-0.604,2.388-2.57,1.998-4.117c-0.053-0.213-0.121-0.41-0.203-0.6
		c-0.544-1.249-1.684-1.904-2.986-1.662c-1.099,0.204-2.264,1.09-2.366,2.391c-0.079,0.988,0.472,1.787,1.403,2.025
		c0.558,0.146,1.098,0.032,1.52-0.313c0.442-0.362,0.698-0.946,0.666-1.525c-0.014-0.263-0.24-0.465-0.503-0.451
		c-0.263,0.016-0.465,0.24-0.451,0.504c0.017,0.275-0.108,0.564-0.316,0.734c-0.188,0.15-0.414,0.195-0.677,0.128
		c-0.479-0.124-0.731-0.498-0.688-1.024c0.064-0.819,0.848-1.391,1.588-1.524c1.197-0.224,1.874,0.696,2.089,1.554
		c0.284,1.131-0.156,2.559-1.386,2.985c-1.171,0.407-2.667-0.066-3.478-1.104c-0.162-0.207-0.462-0.242-0.67-0.082
		c-0.208,0.164-0.245,0.465-0.083,0.67C40.884,88.757,42.794,89.353,44.358,88.808z M88.54,80.39
		c0.243-0.263,0.444-0.514,0.628-0.758c-0.73-0.313-1.332-0.923-1.428-1.779c-0.075-0.688,0.146-1.412,0.563-2.02
		c-0.301-0.082-0.635-0.156-0.996-0.221c-0.404,0.72-0.604,1.539-0.515,2.346C86.917,79.086,87.635,79.92,88.54,80.39z
		 M43.858,114.749c0.589-1.63,0.078-3.564-1.216-4.604c-1.444-1.152-3.448-0.651-4.551,0.498c-0.151,0.157-0.284,0.32-0.398,0.488
		c-0.768,1.125-0.718,2.438,0.181,3.414c0.756,0.821,2.126,1.337,3.28,0.732c0.882-0.461,1.264-1.351,0.972-2.266
		c-0.174-0.551-0.557-0.947-1.074-1.121c-0.542-0.184-1.173-0.089-1.646,0.248c-0.215,0.15-0.267,0.448-0.113,0.666
		c0.152,0.215,0.449,0.269,0.666,0.112c0.226-0.16,0.537-0.208,0.792-0.123c0.229,0.077,0.386,0.247,0.468,0.505
		c0.149,0.473-0.033,0.885-0.503,1.131c-0.729,0.381-1.626,0.021-2.136-0.533c-0.825-0.896-0.405-1.959,0.205-2.597
		c0.807-0.842,2.248-1.227,3.266-0.411c0.968,0.773,1.361,2.293,0.915,3.529c-0.089,0.248,0.039,0.521,0.287,0.611
		C43.497,115.126,43.771,114.997,43.858,114.749z M21.799,95.332c0.089,0.265,0.189,0.532,0.287,0.8
		c0.137-0.138,0.184-0.352,0.097-0.535C22.108,95.438,21.961,95.349,21.799,95.332z M20.63,79.83
		c-0.473-0.147-0.933-0.136-1.329,0.021l0.161,0.262c0.016,0.215,0.027,0.462,0.04,0.726c0.228-0.155,0.513-0.201,0.842-0.098
		c0.784,0.245,1.163,1.138,1.131,1.89c-0.047,1.135-0.961,1.602-1.801,1.674c0.021,0.307,0.046,0.621,0.074,0.946
		c0.133-0.013,0.268-0.019,0.393-0.04c1.339-0.251,2.233-1.216,2.288-2.541C22.477,81.553,21.874,80.219,20.63,79.83z
		 M18.833,79.094c0.171-0.134,0.239-0.366,0.144-0.569c-0.112-0.237-0.396-0.344-0.635-0.229c-0.001,0-0.001,0.001-0.002,0.001
		L18.833,79.094z M24.162,100.854c0.149,0.289,0.312,0.578,0.473,0.867c0.601-0.46,0.969-1.147,1.003-1.982
		c0.046-1.113-0.557-2.447-1.8-2.838c-0.518-0.162-1.016-0.125-1.438,0.076c0.115,0.299,0.237,0.599,0.363,0.896
		c0.219-0.125,0.484-0.158,0.788-0.063c0.785,0.248,1.163,1.139,1.132,1.892C24.662,100.218,24.455,100.59,24.162,100.854z
		 M20.198,82.896c0.045-0.26-0.13-0.506-0.39-0.551c-0.089-0.015-0.167-0.063-0.248-0.105c0.014,0.326,0.031,0.674,0.05,1.037
		c0.013,0.002,0.023,0.011,0.035,0.013C19.905,83.331,20.152,83.155,20.198,82.896z"/>
	<g opacity="0.4">
		<path fill="#396B30" d="M77.834,78.746C79.1,85.479,66.081,94.56,51.25,97.345c-14.832,2.786-28.35-5.166-29.614-11.9
			c-1.264-6.734,12.221-11.063,27.052-13.851C63.521,68.807,76.566,72.007,77.834,78.746z"/>
	</g>
</g>
<g id="head">
	<g>
		<path fill="#E49D2F" d="M9.499,50.723c-0.084-1.087-0.163-2.175-0.234-3.261C8.61,37.524,7.646,26.926,9.126,17.05
			c1.864-12.44,21.537,0.74,26.725,4.158"/>
		<path fill="#FFF3DE" d="M9.929,47.434c-0.516-5.248-5.198-33.48,5.278-31.394c5.479,1.095,13.676,7.598,13.676,7.598
			S18.128,31.289,9.929,47.434z"/>
		<path fill="#B79177" d="M23.668,28.238c-3.243-3.151-7.004-6.155-9.047-5.521c-2.495,0.78-1.938,9.28-0.073,15.544
			C17.751,34.013,20.957,30.699,23.668,28.238z"/>
		<path fill="#E49D2F" d="M82.271,47.102c-0.014-1.088-0.031-2.178-0.055-3.267c-0.201-9.958-0.158-20.602-2.484-30.313
			c-2.934-12.233-21.391,2.599-26.268,6.447"/>
		<path fill="#FFF3DE" d="M82.216,43.834c0.07-5.271,2.417-33.813-8.188-30.813c-5.541,1.57-13.41,8.771-13.41,8.771
			S72.359,28.467,82.216,43.834z"/>
		<path fill="#B79177" d="M66.21,25.923c2.957-3.42,6.446-6.735,8.535-6.276c2.555,0.563,2.729,9.077,1.413,15.479
			C72.604,31.168,69.124,28.143,66.21,25.923z"/>
	</g>
	<path fill="#E49D2F" d="M77.923,35.772c-7.322-12.511-20.384-17.526-34.066-16.937c-13.212,0.571-25.563,6.307-31.558,19.026
		c-4.824,10.235-5.407,24.731-2.654,35.7c4.216,16.799,27.854,19.861,41.101,19.287c9.571-0.41,23.727-4.537,29.585-14.611
		c2.004-3.442,3.442-7.265,4.185-11.189C86.479,56.611,83.178,44.748,77.923,35.772z"/>
	<path fill="#FFF3DE" d="M80.332,78.239c0.215-0.369,0.396-0.764,0.602-1.141c-0.195-1.41-1.526-2.3-2.871-2.662
		c-0.51-0.138-0.998-0.186-1.478-0.175c-1.502,0.032-2.899,0.634-4.463,0.825c-4.758,0.583-8.608-3.528-11.926-6.303
		c-4.224-3.533-8.342-7.091-14.234-6.669c-7.393,0.526-11.641,7.04-17.729,10.3c-2.609,1.397-5.519,1.975-8.458,1.565
		c-1.71-0.233-3.246-0.987-4.927-0.092c-2.41,1.283-2.647,4.223-1.88,6.625c6.508,8.629,19.787,11.67,30.542,12.275
		c0.169,0.009,0.339,0.02,0.508,0.025c2.415,0.121,4.694,0.119,6.729,0.03C60.316,92.438,74.471,88.313,80.332,78.239z"/>
	<circle fill="#523A1E" cx="30.357" cy="61.281" r="4.372"/>
	<path fill="#523A1E" d="M66.715,60.83c0.105,2.412-1.767,4.45-4.18,4.557c-2.41,0.104-4.45-1.767-4.554-4.179
		c-0.105-2.412,1.767-4.453,4.175-4.559C64.571,56.543,66.609,58.417,66.715,60.83z"/>
	<path fill="#DD6558" d="M28.64,68.834c0.082,1.956-2.417,3.651-5.581,3.789c-3.171,0.138-5.809-1.338-5.894-3.293
		c-0.084-1.956,2.418-3.651,5.586-3.79C25.919,65.404,28.554,66.877,28.64,68.834z"/>
	<path fill="#DD6558" d="M76.044,68.234c0.083,1.957-2.417,3.65-5.583,3.789c-3.167,0.138-5.804-1.337-5.888-3.294
		c-0.087-1.956,2.412-3.649,5.58-3.788C73.323,64.803,75.96,66.277,76.044,68.234z"/>
	<path fill="#FFF3DE" d="M64.217,50.363c0.78,2.218-0.389,4.647-2.605,5.43l-2.171,0.763c-2.22,0.78-4.646-0.387-5.429-2.604l0,0
		c-0.779-2.218,0.385-4.648,2.603-5.432l2.172-0.764C61.006,46.979,63.437,48.147,64.217,50.363L64.217,50.363z"/>
	<path fill="#FFF3DE" d="M36.551,53.109c-0.353,2.323-2.523,3.923-4.849,3.568l-2.275-0.344c-2.323-0.354-3.922-2.522-3.57-4.85l0,0
		c0.355-2.321,2.524-3.923,4.848-3.568l2.272,0.344C35.305,48.613,36.902,50.785,36.551,53.109L36.551,53.109z"/>
	<path fill="#E49D2F" d="M60.175,68.38c-0.045,4.541-6.271,9.088-13.833,9.302c-6.009,0.168-13.613-5.034-13.567-9.575
		c0.045-4.539,6.216-8.16,13.782-8.084C54.123,60.1,60.221,63.84,60.175,68.38z"/>
	<path fill="none" stroke="#523A1E" stroke-width="3.3978" stroke-linecap="round" stroke-linejoin="round" d="M34.976,78.839
		c0,0,4.714,4.594,11.758-1.188c0,0,5.081,5.254,11.438,1.149"/>
	<g>
		
			<ellipse transform="matrix(0.9991 0.042 -0.042 0.9991 3.0685 -1.8922)" fill="#523A1E" cx="46.573" cy="72.091" rx="8.773" ry="5.581"/>
		
			<ellipse transform="matrix(0.9991 0.042 -0.042 0.9991 2.987 -1.8762)" fill="#7C5935" cx="46.155" cy="70.165" rx="4.779" ry="2.092"/>
	</g>
	<g>
		<path d="M52.429,14.426"/>
		<path fill="#FFE600" d="M56.592,6.673C52.964,8.533,45.753,8.11,45.753,8.11s-7.216-0.425-10.597-2.692
			c-3.383-2.271-9.907-0.869-9.365,8.048c0.529,8.632,7.621,14.623,18.75,15.273c11.126,0.653,18.878-4.465,20.408-12.976
			C66.537,6.969,60.213,4.816,56.592,6.673"/>
		<path fill="#FFCE00" d="M57.127,6.707c-0.685,0.352-2.506,0.88-2.579,0.905c-0.996-2.265-2.893-5.102-7.563-5.439
			c5.062,0.37,2.316,6.328-0.551,7.896c-2.864,1.565-10.287,1.936-8.207-2.896c-1.734,0.607-2.828,1.479-2.885,2.495
			c-0.132,2.219,4.639,4.305,10.659,4.658c2.771,0.161,7.063-1.718,9.504-1.009c4.254,1.239,3.061,8.778-2.602,11.426
			c-9.354,4.367-28.01,0.412-26.507-10.601c-1.125,8.245,7.83,13.992,18.677,14.629c11.129,0.654,18.873-4.465,20.407-12.976
			C67.066,7.001,60.751,4.848,57.127,6.707"/>
		<path fill="#FFE600" d="M57.468,8.076c1.09,2.604,0.583,4.136-1.698,4.864c-4.12,1.314-11.741,2.762-20.191-0.503
			c-2.361-0.909-2.646-2.058-1.729-4.56c1.24-3.364,4.283-7.975,11.688-7.875C53.198,0.107,56.036,4.65,57.468,8.076"/>
		<path fill="#FFF59A" d="M38.098,5.341c0,0,2.269-2.914,5.098-2.729c2.83,0.185,4.087,1.032,0.761,3.438
			C40.627,8.458,35.267,8.545,38.098,5.341"/>
		<path fill="#FFCE00" d="M57.47,8.048c-1.731-4.139-5.05-7.363-9.679-7.854c4.813,3.409,8.77,9.313,1.414,12.159
			c-4.389,1.696-9.938,0.75-14.374-0.276c0.223,0.115,0.469,0.229,0.751,0.337c8.449,3.261,16.07,1.813,20.191,0.501
			C58.054,12.188,58.56,10.654,57.47,8.048"/>
	</g>
</g>

<script xlink:href="https://s0.2mdn.net/ads/studio/cached_libs/tweenmax_1.20.4_3dc5474a75410cb768741e402b80d908_min.js" />
<script>
<![CDATA[
	eval(function(p,a,c,k,e,d){e=function(c){return c};if(!''.replace(/^/,String)){while(c--){d[c]=k[c]||c}k=[function(e){return d[e]}];e=function(){return'\\w+'};c=1};while(c--){if(k[c]){p=p.replace(new RegExp('\\b'+e(c)+'\\b','g'),k[c])}}return p}('38.39("41",11(){6.4("#37",.2,{9:5,7:"0% 32%",26:25,22:-1,14:24.21});6.4("#36",.8,{9:-2,7:"10% 35%",26:25,22:-1,14:24.21});11 16(){6.4("#19",.1,{18:-1,9:2.5,7:"10% 27%",17:3,14:23.42,40:11(){6.4("#13-29",.15,{9:12,7:"10% 20%"});6.4("#13-30",.1,{9:15,7:"10% 20%",17:.28})},31:11(){6.4("#19",.1,{18:0,9:0,7:"10% 27%",14:23.33,31:11(){6.4("#13-29",.15,{9:0,7:"10% 20%"});6.4("#13-30",.1,{9:0,7:"10% 20%",17:.28});16()}})}})}16()},34);',10,43,'||||to||TweenMax|transformOrigin||rotation|50|function||leg|ease||puppyJump|delay|y|puppy||easeNone|repeat|Power1|Linear|true|yoyo|90|05|fr|fl|onComplete|100|easeIn|false|85|head|tail|window|addEventListener|onStart|load|easeOut'.split('|'),0,{}))
]]>
</script>

</svg>
