<?xml version="1.0" encoding="utf-8"?>
<svg version="1.1" id="puppy" xmlns="http://www.w3.org/2000/svg" xmlns:xlink="http://www.w3.org/1999/xlink" x="0px" y="0px"
	 width="145px" height="145px" viewBox="0 0 145 145" enable-background="new 0 0 145 145" xml:space="preserve" style="cursor:pointer">
<g id="tail">
	<path fill="#E49D2F" d="M90.854,121.461c-5.474-1.979-10.516-5.156-14.371-9.217c-2.821-2.971-7.312-10.877-2.74-14.5
		c5.545-4.4,15.205,10.09,21.998,8.508c2.031-0.475,3.408-2.072,4.344-3.859c2.864-5.475,0.759-12.718-9.25-16.377
		c-2.385,0.055-5.469-4.965-0.385-8.188c4.008-2.548,9.992-3.28,14.318-1.243c3.639,1.714,10.008,8.954,6.436,13.869
		c1.275-1.76,2.813-2.911,3.477-5.146c1.01-3.398,4.78-7.725,7.535-4.647c6.27,6.983,0.571,13.418-4.117,20.067
		c9.092-0.063,14.605,2.188,7.777,11.998C117.848,124.268,103.25,125.943,90.854,121.461z"/>
	<path fill="#FFF3DE" d="M130.555,85.277c0.523,6.019-4.947,10.39-4.949,10.391c6.019-9.157,1.394-17.245-4.604-23.054
		c-5.995-5.812-14.389-4.741-17.268-2.807c9.056,3.772,10.029,10.792,9.082,12.862c-2.875-10.812-19.258-16.161-27.969-2.562
		c-0.603,0.781-1.095,1.668-1.475,2.623c-0.002,0.002-0.004,0.006-0.006,0.011h0.001c-0.808,2.032-1.091,4.375-0.712,6.75
		c1.326,8.309,9.232,13.309,15.645,9.879c3.274-1.751,5.289-5.536,5.34-9.7c1.938,2.078,4.416,5.909,2.741,10.859
		c0,0,3.628-0.145,7.696-7.055c0,0,4.093,8.98-3.283,14.896c3.17,0.711,8.229-1.354,10.924-4.139
		c0.537,1.776-0.609,5.683-6.834,9.99C130.05,117.732,141.465,96.779,130.555,85.277z"/>
</g>
<g id="leg-rr">
	<ellipse fill="#CC8229" cx="75.677" cy="128.877" rx="9.499" ry="4.967"/>
</g>
<g id="leg-fr">
	<path fill="#E49D2F" d="M46.12,110.958L26.473,86.482c-5.324,5.104-0.493,21.77-0.493,21.77s1.883,14.068,6.189,23.311
		c-1.612,1.066-2.59,2.602-2.492,4.239c0.173,2.909,3.664,5.068,7.793,4.82c4.098-0.243,7.285-2.765,7.165-5.646
		C47.402,126.958,46.12,110.958,46.12,110.958z"/>
</g>
<g id="body">
	<path fill="#E49D2F" d="M79.736,88.616c-5.894-2.802-9.313-9.407-9.313-9.407c-8.132-15.516-21.251-16.064-21.251-16.064
		C30.51,60.61,28.392,75.249,27.651,75.648c-0.741,0.396-8.842,20.857,3.596,37.898c3.665,5.021,7.755,8.323,11.728,10.496
		c1.109,2.042,4.004,3.395,7.315,3.193c0.265-0.019,0.525-0.043,0.782-0.075c5.938,1.416,10.443,0.76,10.916,0.751l15.118-2.021
		C97.393,117.979,90.582,93.768,79.736,88.616z"/>
	<path fill="#FFF3DE" d="M54.04,123.318c-4.428-5.396-8.951-11.725-7.411-17.582c3.865-14.702,18.72-26.252,10.251-29.584
		c-4.719-1.856-10.567-9.122-18.114-10.694c-18.454-3.844-14.022,36.442-6.674,50.103c4.756,8.842,11.73,11.967,17.715,12.926
		c5.374,1.32,9.417,0.593,9.853,0.574l14.422-2.422c3.286-1.527,5.82-3.578,7.744-5.938
		C72.391,123.508,62.483,123.874,54.04,123.318z"/>
</g>
<g id="leg-rl">
	<path fill="#E49D2F" d="M98.305,129.359c-4.068-6.614-1.293-10.297,0.162-16.324c-0.148-0.046-0.322-0.074-0.482-0.111
		c0.787-6.563-0.982-14.872-10.58-20.146c-0.432-0.404-4.766-1.489-5.887-2.16c-3.722,0.604-4.035,2.494-7.623,3.721
		c-2.604,0.949-4.664,2.396-5.896,4.338c0.429,5.979-3.49,10.146-0.874,16.924c2.453,6.354,9.752,10.775,16.582,11.157
		c0.313,0.378,0.558,0.688,0.688,0.87c-0.711-0.741-3.808,0.646-4.44,0.91c-3.173,1.318-7.471,3.604-4.927,7.727
		c1.021,1.648,2.893,2.621,4.795,2.988C84.633,140.178,103.827,138.34,98.305,129.359z M84.404,127.643
		c0.053,0.075,0.088,0.135,0.098,0.162C84.479,127.742,84.445,127.689,84.404,127.643z"/>
	<path fill="#D68A27" d="M77.246,121.657c-8.127-6.249-2.074-13.191-4.396-21.47c-2.437,7.434-7.147,16.676,0.435,23.535
		c5.436,4.918,13.699,4.892,18.053-0.272C87.999,125.146,82.109,125.396,77.246,121.657z"/>
</g>
<g id="leg-fl">
	<path fill="#E49D2F" d="M66.35,110.27l-7.113-15.033c-9.06-0.08-13.571,7.988-13.702,14.854c-0.1,5.249,1.703,16.337,5.076,23.936
		c-1.595,1.064-2.561,2.589-2.463,4.223c0.173,2.909,3.663,5.066,7.793,4.818c4.13-0.246,7.339-2.806,7.166-5.713
		c-0.004-0.078-0.021-0.152-0.03-0.229C66.542,128.281,66.35,110.27,66.35,110.27z"/>
</g>
<g id="scarf">
	<path fill="#699B49" d="M80.206,78.357c0.007-0.006,0.015-0.008,0.021-0.012c6.082-3.313,5.668-6.468,5.668-6.468
		s-3.731-2.461-9.684-0.176c-5.946,2.286-5.975,6.185-5.975,6.185s0.507,0.48,1.426,0.949c-1.328,0.762-1.827,1.65-1.827,1.65
		s1.626,5.183,8.556,5.179c6.926-0.005,8.067-2.974,8.067-2.974S84.85,79.67,80.206,78.357z"/>
	<path fill="#72A950" d="M14.883,68.298c1.517-0.016,60.16,8.772,60.16,8.772c1.732,17.277-33.515,22.676-33.175,35.302
		C18.335,99.564,19.472,80.165,19.111,75.141"/>
	<path fill="#C9E79F" d="M53.525,77.553c-0.226,0.801-0.104,1.871,0.979,2.25c0.669,0.235,1.576,0.141,2.014-0.5
		c0.283-0.414,0.253-0.838-0.082-1.164c-0.183-0.178-0.389-0.25-0.613-0.213c-0.25,0.042-0.487,0.223-0.604,0.453
		c-0.112,0.223-0.382,0.313-0.604,0.199c-0.222-0.111-0.311-0.383-0.199-0.604c0.245-0.488,0.729-0.851,1.26-0.938
		c0.508-0.086,1.002,0.075,1.391,0.456c0.648,0.634,0.725,1.542,0.195,2.313c-0.693,1.018-2.062,1.189-3.055,0.844
		c-1.179-0.414-1.802-1.482-1.661-2.762c0.021-0.188,0.059-0.387,0.115-0.584c0.408-1.445,1.854-2.752,3.566-2.431
		c1.535,0.289,2.817,1.672,3.049,3.29c0.036,0.245-0.136,0.475-0.381,0.509c-0.246,0.035-0.474-0.135-0.51-0.381
		c-0.176-1.229-1.175-2.315-2.324-2.532C54.853,75.538,53.823,76.497,53.525,77.553z M69.009,77.566
		c0.714,0.771,2.005,1.261,3.093,0.688c0.831-0.434,1.189-1.271,0.916-2.136c-0.165-0.521-0.524-0.896-1.014-1.06
		c-0.174-0.06-0.357-0.072-0.542-0.072c-0.301,0.395-0.529,0.771-0.698,1.113c0.072-0.008,0.145-0.023,0.208-0.068
		c0.213-0.15,0.506-0.196,0.745-0.115c0.217,0.072,0.364,0.23,0.441,0.477c0.142,0.443-0.031,0.836-0.475,1.063
		c-0.688,0.354-1.533,0.021-2.014-0.503c-0.222-0.241-0.34-0.496-0.394-0.75c-0.301-0.045-0.614-0.092-0.935-0.141
		C68.383,76.605,68.602,77.123,69.009,77.566z M65.278,86.811c-1.104,0.387-2.513-0.063-3.277-1.037
		c-0.153-0.192-0.436-0.229-0.632-0.078c-0.196,0.152-0.23,0.438-0.078,0.636c1.007,1.287,2.808,1.849,4.283,1.334
		c1.646-0.573,2.25-2.427,1.883-3.886c-0.05-0.196-0.114-0.389-0.19-0.563c-0.514-1.177-1.587-1.795-2.815-1.565
		c-1.035,0.19-2.133,1.026-2.229,2.25c-0.074,0.938,0.445,1.688,1.322,1.912c0.525,0.136,1.034,0.028,1.433-0.297
		c0.417-0.343,0.657-0.894,0.626-1.438c-0.014-0.248-0.226-0.438-0.474-0.427c-0.249,0.016-0.438,0.229-0.425,0.477
		c0.015,0.26-0.103,0.532-0.299,0.691c-0.176,0.146-0.39,0.186-0.638,0.121c-0.452-0.115-0.689-0.474-0.649-0.972
		c0.061-0.771,0.799-1.309,1.497-1.438c1.128-0.211,1.766,0.654,1.969,1.466C66.853,85.063,66.438,86.407,65.278,86.811z M49.833,85
		c0.225-0.105,0.322-0.373,0.216-0.6c-0.106-0.229-0.374-0.32-0.599-0.217c-1.479,0.69-2.429,2.32-2.257,3.875
		c0.191,1.729,1.861,2.731,3.364,2.703c0.205-0.007,0.403-0.023,0.591-0.063c1.261-0.236,2.104-1.146,2.156-2.396
		c0.044-1.052-0.525-2.31-1.696-2.677c-0.894-0.28-1.741,0.058-2.158,0.86c-0.25,0.48-0.261,1.002-0.031,1.464
		c0.24,0.479,0.723,0.841,1.262,0.934c0.245,0.044,0.478-0.122,0.52-0.366c0.042-0.242-0.122-0.479-0.367-0.52
		c-0.257-0.045-0.496-0.221-0.609-0.447c-0.101-0.203-0.093-0.422,0.025-0.646c0.214-0.413,0.611-0.565,1.089-0.416
		c0.739,0.229,1.096,1.066,1.066,1.775c-0.047,1.146-1.035,1.574-1.867,1.594c-1.098,0.021-2.315-0.684-2.45-1.898
		C47.959,86.8,48.71,85.527,49.833,85z M38.601,92.464c0.234,0.085,0.492-0.036,0.577-0.271c0.555-1.537,0.073-3.36-1.146-4.336
		c-1.36-1.092-3.25-0.617-4.29,0.469c-0.142,0.146-0.267,0.303-0.375,0.461c-0.724,1.061-0.677,2.299,0.17,3.217
		c0.713,0.775,2.004,1.262,3.092,0.691c0.831-0.438,1.19-1.271,0.916-2.137c-0.164-0.521-0.524-0.896-1.013-1.06
		c-0.511-0.171-1.105-0.082-1.552,0.231c-0.203,0.146-0.251,0.427-0.107,0.629c0.144,0.199,0.424,0.252,0.627,0.104
		c0.213-0.148,0.506-0.195,0.746-0.115c0.215,0.072,0.364,0.232,0.441,0.479c0.142,0.442-0.031,0.833-0.475,1.063
		c-0.687,0.357-1.533,0.021-2.013-0.505c-0.778-0.845-0.382-1.847,0.194-2.442c0.76-0.795,2.119-1.155,3.077-0.392
		c0.913,0.729,1.284,2.159,0.862,3.327C38.247,92.122,38.368,92.379,38.601,92.464z M26.897,81c0.225-0.105,0.322-0.373,0.216-0.598
		c-0.105-0.229-0.374-0.322-0.598-0.219c-1.479,0.69-2.429,2.321-2.257,3.875c0.191,1.729,1.86,2.731,3.364,2.703
		c0.206-0.007,0.403-0.022,0.591-0.063c1.262-0.236,2.104-1.146,2.156-2.396c0.043-1.053-0.525-2.31-1.696-2.678
		c-0.895-0.281-1.742,0.059-2.158,0.861c-0.25,0.479-0.26,1.002-0.031,1.464c0.24,0.479,0.724,0.841,1.262,0.933
		c0.245,0.043,0.478-0.123,0.52-0.367c0.042-0.242-0.123-0.476-0.367-0.518c-0.257-0.045-0.496-0.221-0.609-0.445
		c-0.101-0.205-0.093-0.423,0.024-0.646c0.215-0.415,0.611-0.567,1.089-0.417c0.739,0.229,1.096,1.066,1.067,1.775
		c-0.048,1.146-1.036,1.574-1.867,1.592c-1.099,0.022-2.315-0.683-2.45-1.896C25.024,82.801,25.774,81.527,26.897,81z
		 M74.074,78.025c0.232,0.084,0.49-0.036,0.574-0.271c0.557-1.536,0.072-3.359-1.146-4.337c-0.074-0.06-0.156-0.099-0.234-0.147
		c-0.275,0.197-0.525,0.396-0.752,0.601c0.146,0.063,0.291,0.146,0.425,0.252c0.914,0.729,1.285,2.162,0.863,3.328
		C73.721,77.684,73.84,77.941,74.074,78.025z M62.296,94.26c-0.232-1.617-1.514-3.002-3.049-3.289
		c-1.712-0.32-3.158,0.981-3.566,2.43c-0.056,0.197-0.094,0.396-0.115,0.584c-0.141,1.273,0.482,2.351,1.661,2.764
		c0.311,0.107,0.66,0.158,1.012,0.154c0.744-0.438,1.488-0.885,2.227-1.332c0.309-0.688,0.177-1.438-0.379-1.979
		c-0.388-0.38-0.882-0.542-1.391-0.457c-0.531,0.091-1.014,0.447-1.26,0.938c-0.112,0.222-0.022,0.492,0.2,0.604
		c0.222,0.112,0.492,0.023,0.604-0.199c0.117-0.229,0.354-0.408,0.604-0.449c0.224-0.037,0.43,0.031,0.613,0.213
		c0.334,0.326,0.364,0.75,0.082,1.162c-0.438,0.642-1.344,0.734-2.014,0.502c-1.083-0.381-1.204-1.449-0.978-2.25
		c0.298-1.061,1.327-2.02,2.533-1.789c1.149,0.218,2.148,1.307,2.325,2.531c0.028,0.196,0.183,0.342,0.371,0.375
		c0.171-0.104,0.34-0.217,0.51-0.324C62.301,94.382,62.305,94.322,62.296,94.26z M33.392,100.4c0.043-1.055-0.525-2.313-1.696-2.678
		c-0.894-0.279-1.741,0.06-2.158,0.859c-0.25,0.48-0.26,1.002-0.031,1.463c0.24,0.48,0.724,0.842,1.262,0.936
		c0.245,0.043,0.478-0.121,0.52-0.366c0.042-0.244-0.123-0.479-0.367-0.521c-0.257-0.044-0.496-0.219-0.609-0.442
		c-0.101-0.203-0.093-0.424,0.024-0.646c0.215-0.416,0.612-0.564,1.089-0.418c0.739,0.23,1.096,1.07,1.066,1.779
		c-0.047,1.146-1.035,1.574-1.867,1.594c-1.099,0.021-2.315-0.684-2.45-1.9c-0.128-1.16,0.622-2.438,1.745-2.963
		c0.225-0.104,0.322-0.375,0.217-0.6c-0.106-0.229-0.374-0.322-0.599-0.219c-1.479,0.693-2.429,2.322-2.257,3.877
		c0.017,0.146,0.058,0.287,0.095,0.427c0.508,0.638,1.057,1.271,1.631,1.907c0.515,0.25,1.087,0.382,1.638,0.369
		c0.206-0.006,0.403-0.022,0.591-0.063C32.497,102.557,33.34,101.648,33.392,100.4z M47.535,74.673
		c0.206-0.005,0.403-0.022,0.591-0.06c0.842-0.158,1.49-0.621,1.849-1.278c-0.329-0.049-0.659-0.099-0.989-0.146
		c-0.374,0.4-0.952,0.572-1.47,0.584c-0.838,0.018-1.741-0.395-2.184-1.125c-0.348-0.054-0.696-0.104-1.044-0.154
		C44.724,73.9,46.191,74.702,47.535,74.673z M52.379,99.775c-0.792,0.373-1.425,1.017-1.822,1.771
		c0.782-0.51,1.593-1.019,2.427-1.526c-0.003-0.009-0.002-0.018-0.006-0.022C52.873,99.768,52.604,99.67,52.379,99.775z
		 M42.577,83.334c1.646-0.572,2.25-2.424,1.883-3.882c-0.05-0.199-0.114-0.388-0.191-0.563c-0.513-1.176-1.587-1.795-2.815-1.563
		c-1.034,0.189-2.133,1.023-2.229,2.251c-0.074,0.935,0.445,1.685,1.322,1.907c0.525,0.14,1.034,0.031,1.433-0.297
		c0.417-0.34,0.657-0.894,0.627-1.438c-0.013-0.248-0.226-0.438-0.474-0.426c-0.249,0.014-0.438,0.227-0.425,0.475
		c0.014,0.26-0.103,0.533-0.299,0.693c-0.176,0.145-0.39,0.185-0.638,0.121c-0.452-0.117-0.689-0.473-0.65-0.969
		c0.062-0.772,0.8-1.313,1.497-1.438c1.128-0.209,1.766,0.657,1.969,1.465c0.268,1.065-0.147,2.409-1.306,2.813
		c-1.104,0.385-2.513-0.063-3.277-1.039c-0.153-0.195-0.436-0.23-0.632-0.076c-0.196,0.152-0.23,0.436-0.077,0.631
		C39.301,83.288,41.102,83.85,42.577,83.334z M33.605,76.605c0.831-0.438,1.19-1.271,0.916-2.139
		c-0.165-0.518-0.524-0.893-1.013-1.057c-0.511-0.172-1.105-0.082-1.552,0.229c-0.203,0.146-0.251,0.428-0.107,0.629
		c0.143,0.203,0.424,0.25,0.627,0.106c0.213-0.149,0.506-0.196,0.746-0.114c0.215,0.071,0.364,0.231,0.441,0.479
		c0.142,0.441-0.031,0.834-0.475,1.063c-0.687,0.357-1.532,0.021-2.013-0.504c-0.777-0.846-0.382-1.847,0.194-2.447
		c0.76-0.793,2.119-1.154,3.077-0.389c0.913,0.73,1.283,2.162,0.862,3.328c-0.084,0.234,0.037,0.492,0.27,0.576
		c0.234,0.084,0.492-0.037,0.576-0.271c0.555-1.537,0.073-3.36-1.146-4.338c-1.36-1.089-3.25-0.617-4.29,0.469
		c-0.142,0.148-0.268,0.305-0.375,0.462c-0.724,1.06-0.677,2.299,0.169,3.218C31.227,76.688,32.517,77.174,33.605,76.605z
		 M42.106,107.785c0.555-1.537,0.073-3.36-1.146-4.337c-1.36-1.089-3.25-0.616-4.29,0.47c-0.142,0.148-0.267,0.303-0.375,0.46
		c-0.724,1.063-0.677,2.299,0.169,3.22c0.713,0.772,2.004,1.262,3.092,0.69c0.831-0.437,1.19-1.272,0.916-2.138
		c-0.165-0.521-0.524-0.896-1.013-1.057c-0.511-0.174-1.105-0.082-1.552,0.23c-0.203,0.146-0.251,0.425-0.107,0.627
		c0.143,0.203,0.424,0.252,0.627,0.104c0.213-0.146,0.506-0.191,0.746-0.111c0.215,0.068,0.364,0.229,0.441,0.477
		c0.142,0.445-0.031,0.834-0.475,1.064c-0.687,0.355-1.533,0.02-2.014-0.508c-0.777-0.844-0.382-1.844,0.194-2.441
		c0.76-0.793,2.119-1.156,3.077-0.393c0.913,0.729,1.284,2.16,0.862,3.328c-0.084,0.232,0.037,0.49,0.27,0.576
		C41.764,108.139,42.022,108.018,42.106,107.785z M80.257,84.137c0.53-0.771,0.453-1.683-0.194-2.314
		c-0.389-0.379-0.881-0.538-1.391-0.453c-0.529,0.089-1.015,0.443-1.26,0.936c-0.112,0.227-0.021,0.492,0.197,0.604
		c0.224,0.108,0.492,0.021,0.604-0.199c0.117-0.231,0.354-0.411,0.604-0.452c0.227-0.037,0.433,0.034,0.613,0.213
		c0.334,0.326,0.361,0.75,0.078,1.163c-0.438,0.644-1.344,0.735-2.014,0.501c-1.082-0.38-1.204-1.445-0.979-2.25
		c0.299-1.058,1.326-2.016,2.529-1.789c1.148,0.219,2.148,1.309,2.324,2.533c0.036,0.246,0.268,0.416,0.512,0.381
		c0.243-0.033,0.418-0.264,0.385-0.51c-0.232-1.617-1.52-3-3.055-3.289c-1.712-0.322-3.152,0.98-3.563,2.432
		c-0.059,0.195-0.094,0.396-0.115,0.582c-0.143,1.275,0.482,2.35,1.66,2.764C78.193,85.327,79.563,85.15,80.257,84.137z
		 M85.604,72.604c-0.104-0.202-0.096-0.42,0.022-0.646c0.033-0.063,0.079-0.111,0.12-0.162c-0.156-0.088-0.438-0.23-0.835-0.387
		c-0.028,0.045-0.062,0.086-0.085,0.135c-0.249,0.481-0.262,1.001-0.031,1.462c0.143,0.282,0.37,0.512,0.641,0.684
		c0.164-0.332,0.273-0.625,0.344-0.875C85.711,72.746,85.643,72.684,85.604,72.604z M84.216,75.4
		c0.229-0.248,0.423-0.484,0.595-0.717c-0.688-0.295-1.256-0.867-1.347-1.679c-0.071-0.65,0.14-1.333,0.53-1.903
		c-0.283-0.077-0.6-0.146-0.939-0.206c-0.382,0.678-0.568,1.45-0.484,2.209C82.688,74.172,83.363,74.958,84.216,75.4z
		 M47.482,95.543c-0.05-0.199-0.114-0.389-0.19-0.563c-0.513-1.183-1.587-1.799-2.815-1.568c-1.035,0.193-2.133,1.027-2.23,2.252
		c-0.074,0.934,0.445,1.686,1.322,1.91c0.525,0.137,1.034,0.031,1.433-0.295c0.417-0.342,0.657-0.896,0.627-1.439
		c-0.014-0.248-0.226-0.438-0.474-0.424c-0.248,0.014-0.438,0.225-0.425,0.473c0.015,0.264-0.103,0.533-0.299,0.693
		c-0.176,0.145-0.39,0.186-0.637,0.121c-0.453-0.116-0.69-0.469-0.65-0.969c0.061-0.771,0.799-1.312,1.497-1.438
		c1.128-0.21,1.766,0.657,1.969,1.464c0.268,1.066-0.147,2.41-1.306,2.813c-1.104,0.385-2.513-0.063-3.277-1.039
		c-0.153-0.196-0.436-0.229-0.632-0.077c-0.196,0.15-0.23,0.438-0.077,0.632c1.006,1.287,2.808,1.853,4.282,1.335
		C47.245,98.852,47.849,97.001,47.482,95.543z M20.212,74.874c-0.445-0.14-0.878-0.126-1.252,0.021l0.151,0.246
		c0.015,0.201,0.026,0.438,0.038,0.687c0.214-0.147,0.483-0.188,0.793-0.095c0.739,0.23,1.096,1.07,1.067,1.779
		c-0.044,1.07-0.907,1.512-1.698,1.578c0.021,0.288,0.044,0.585,0.07,0.895c0.125-0.012,0.252-0.019,0.371-0.039
		c1.261-0.235,2.104-1.146,2.156-2.396C21.952,76.498,21.383,75.241,20.212,74.874z M21.314,89.482
		c0.084,0.25,0.179,0.504,0.271,0.756c0.129-0.131,0.173-0.33,0.091-0.506C21.606,89.584,21.465,89.499,21.314,89.482z
		 M18.518,74.18c0.161-0.127,0.226-0.346,0.135-0.539c-0.105-0.225-0.374-0.32-0.599-0.217c-0.001,0-0.001,0.001-0.002,0.001
		L18.518,74.18z M19.805,77.764c0.042-0.246-0.122-0.479-0.367-0.521c-0.083-0.017-0.157-0.063-0.233-0.103
		c0.013,0.31,0.029,0.635,0.047,0.979c0.011,0.002,0.022,0.008,0.033,0.01C19.53,78.172,19.763,78.008,19.805,77.764z M23.54,94.691
		c0.142,0.271,0.294,0.545,0.446,0.813c0.566-0.435,0.913-1.085,0.945-1.868c0.043-1.053-0.525-2.311-1.696-2.678
		c-0.487-0.15-0.958-0.115-1.354,0.072c0.109,0.275,0.224,0.563,0.342,0.846c0.206-0.115,0.457-0.146,0.742-0.061
		c0.739,0.229,1.096,1.068,1.067,1.777C24.011,94.089,23.816,94.439,23.54,94.691z"/>
	<path opacity="0.4" fill="#396B30" enable-background="new    " d="M77.127,73.85c1.189,6.354-11.078,14.904-25.057,17.53
		s-26.719-4.869-27.912-11.218c-1.193-6.35,11.519-10.428,25.498-13.053S75.936,67.502,77.127,73.85z"/>
</g>
<g id="head">
	<g>
		<path fill="#E49D2F" d="M14.065,43.693c0.063-1,0.131-2,0.207-2.998c0.684-9.129,1.171-18.898,3.792-27.695
			c3.3-11.083,19.505,3.448,23.786,7.227"/>
		<path fill="#FFF3DE" d="M14.879,40.754c0.207-4.841-0.417-31.141,8.848-27.89c4.846,1.702,11.468,8.676,11.468,8.676
			S24.422,27.117,14.879,40.754z"/>
		<path fill="#B79177" d="M29.856,25.057c-2.545-3.287-5.581-6.506-7.522-6.188c-2.371,0.388-2.958,8.196-2.068,14.137
			C23.727,29.549,27.072,26.945,29.856,25.057z"/>
		<path fill="#E49D2F" d="M80.759,49.771c0.132-0.991,0.255-1.985,0.374-2.979c1.1-9.089,2.512-18.769,1.643-27.905
			c-1.092-11.513-19.797-0.392-24.732,2.484"/>
		<path fill="#FFF3DE" d="M81.133,46.792c0.742-4.79,6.557-30.461-3.482-29.095c-5.248,0.716-13.333,6.254-13.333,6.254
			S74.143,31.538,81.133,46.792z"/>
		<path fill="#B79177" d="M68.872,28.43c3.131-2.73,6.733-5.301,8.576-4.614c2.254,0.841,1.317,8.614-0.707,14.271
			C74.018,34.025,71.238,30.824,68.872,28.43z"/>
	</g>
	<path fill="#E49D2F" d="M78.266,38.9C73.21,26.573,61.973,20.323,49.442,19.099c-12.097-1.182-24.077,2.446-31.171,13.252
		c-5.709,8.693-8.106,21.813-7.014,32.147c1.673,15.83,22.79,21.664,34.92,22.848c8.765,0.857,22.178-1.074,28.81-9.486
		c2.268-2.877,4.07-6.166,5.248-9.646C83.365,58.97,81.893,47.745,78.266,38.9z"/>
	<path fill="#FFF3DE" d="M74.982,77.859c0.244-0.313,0.461-0.646,0.69-0.961c0.007-1.311-1.094-2.289-2.271-2.791
		c-0.444-0.19-0.883-0.299-1.32-0.354c-1.372-0.164-2.722,0.203-4.168,0.178c-4.404-0.078-7.379-4.316-10.041-7.271
		c-3.389-3.76-6.679-7.527-12.096-7.903c-6.795-0.471-11.5,4.908-17.461,7.091c-2.556,0.938-5.277,1.086-7.899,0.336
		c-1.526-0.436-2.826-1.316-4.472-0.719c-2.359,0.858-2.954,3.5-2.564,5.787c4.81,8.69,16.503,13.17,26.214,15.104
		c0.153,0.031,0.306,0.063,0.458,0.094c2.183,0.42,4.257,0.713,6.119,0.896C54.941,88.205,68.354,86.271,74.982,77.859z"/>
	<circle fill="#523A1E" cx="31.689" cy="55.989" r="4.019"/>
	<path fill="#523A1E" d="M64.835,60.26c-0.214,2.209-2.181,3.824-4.392,3.608c-2.206-0.216-3.822-2.184-3.605-4.391
		c0.214-2.209,2.181-3.825,4.387-3.608C63.437,56.085,65.051,58.051,64.835,60.26z"/>
	<path fill="#DD6558" d="M29.152,62.643c-0.177,1.791-2.67,3.013-5.567,2.729c-2.904-0.283-5.114-1.965-4.94-3.756
		c0.175-1.791,2.671-3.013,5.572-2.729C27.118,59.17,29.326,60.852,29.152,62.643z"/>
	<path fill="#DD6558" d="M72.372,68.203c-0.177,1.792-2.67,3.013-5.57,2.729c-2.9-0.282-5.109-1.964-4.934-3.754
		c0.173-1.792,2.666-3.013,5.566-2.729C70.337,64.73,72.546,66.412,72.372,68.203z"/>
	<path fill="#FFF3DE" d="M63.911,50.415c0.424,2.118-0.953,4.181-3.07,4.604l-2.074,0.416c-2.121,0.425-4.179-0.95-4.605-3.068l0,0
		c-0.423-2.119,0.949-4.182,3.069-4.606l2.074-0.415C61.424,46.921,63.484,48.296,63.911,50.415L63.911,50.415z"/>
	<path fill="#FFF3DE" d="M38.378,49.35c-0.62,2.07-2.802,3.245-4.873,2.625l-2.026-0.604c-2.069-0.621-3.244-2.801-2.624-4.872l0,0
		c0.622-2.067,2.802-3.245,4.871-2.625l2.025,0.605C37.822,45.1,38.998,47.277,38.378,49.35L38.378,49.35z"/>
	<path fill="#E49D2F" d="M57.911,66.292c-0.626,4.126-6.876,7.464-13.788,6.683c-5.49-0.621-11.74-6.334-11.114-10.461
		c0.626-4.125,6.708-6.625,13.584-5.582C53.47,57.977,58.537,62.167,57.911,66.292z"/>
	<path fill="none" stroke="#523A1E" stroke-width="3.1231" stroke-linecap="round" stroke-linejoin="round" d="M33.629,72.563
		c0,0,3.699,4.787,10.854,0.433c0,0,3.947,5.438,10.26,2.521"/>
	<g>
		
			<ellipse transform="matrix(0.1817 -0.9834 0.9834 0.1817 -29.9436 99.8743)" fill="#523A1E" cx="45.036" cy="67.928" rx="5.132" ry="8.065"/>
		
			<ellipse transform="matrix(0.1816 -0.9834 0.9834 0.1816 -28.2598 98.2464)" fill="#7C5935" cx="44.896" cy="66.102" rx="1.925" ry="4.393"/>
	</g>
	<g>
		<path fill="#FFE600" d="M62.599,9.671c-3.541,1.224-10.05-0.09-10.05-0.09s-6.513-1.315-9.296-3.815
			c-2.786-2.5-8.905-2.065-9.561,6.118c-0.63,7.925,5.052,14.29,15.096,16.317c10.042,2.029,17.756-1.633,20.245-9.18
			C71.61,11.223,66.134,8.448,62.599,9.671"/>
		<path fill="#FFCE00" d="M63.082,9.77c-0.668,0.23-2.394,0.479-2.464,0.492c-0.614-2.188-1.975-5.015-6.181-5.927
			c4.558,0.989,1.292,6.058-1.519,7.114c-2.808,1.057-9.611,0.435-7.096-3.692c-1.657,0.33-2.764,0.981-2.947,1.899
			c-0.406,2.003,3.667,4.516,9.101,5.612c2.502,0.507,6.649-0.652,8.78,0.309c3.711,1.676,1.654,8.384-3.839,10.062
			c-9.075,2.771-25.545-3.229-22.758-13.061c-2.087,7.359,5.324,13.744,15.113,15.72c10.043,2.03,17.751-1.632,20.245-9.179
			C72.09,11.318,66.618,8.546,63.082,9.77"/>
		<path fill="#FFE600" d="M63.215,11.059c0.656,2.513-0.002,3.841-2.172,4.209c-3.919,0.668-11.042,1-18.313-3.058
			c-2.031-1.132-2.142-2.213-0.985-4.372c1.562-2.902,4.925-6.706,11.651-5.661C60.355,3.258,62.353,7.759,63.215,11.059"/>
		<path fill="#FFF59A" d="M45.938,6.077c0,0,2.44-2.359,4.991-1.826c2.552,0.532,3.587,1.466,0.249,3.228
			C47.839,9.238,42.949,8.628,45.938,6.077"/>
		<path fill="#FFCE00" d="M63.22,11.036c-1.043-3.99-3.648-7.354-7.798-8.395c3.941,3.723,6.782,9.604-0.279,11.248
			c-4.212,0.979-9.141-0.598-13.045-2.104c0.188,0.135,0.397,0.27,0.64,0.401c7.27,4.058,14.392,3.725,18.313,3.059
			C63.218,14.876,63.876,13.547,63.22,11.036"/>
	</g>
</g>

<script xlink:href="https://s0.2mdn.net/ads/studio/cached_libs/tweenmax_1.20.4_3dc5474a75410cb768741e402b80d908_min.js" />
<script>
<![CDATA[
	eval(function(p,a,c,k,e,d){e=function(c){return c};if(!''.replace(/^/,String)){while(c--){d[c]=k[c]||c}k=[function(e){return d[e]}];e=function(){return'\\w+'};c=1};while(c--){if(k[c]){p=p.replace(new RegExp('\\b'+e(c)+'\\b','g'),k[c])}}return p}('38.39("41",11(){6.4("#37",.2,{9:5,7:"0% 32%",26:25,22:-1,14:24.21});6.4("#36",.8,{9:-2,7:"10% 35%",26:25,22:-1,14:24.21});11 16(){6.4("#19",.1,{18:-1,9:2.5,7:"10% 27%",17:3,14:23.42,40:11(){6.4("#13-29",.15,{9:12,7:"10% 20%"});6.4("#13-30",.1,{9:15,7:"10% 20%",17:.28})},31:11(){6.4("#19",.1,{18:0,9:0,7:"10% 27%",14:23.33,31:11(){6.4("#13-29",.15,{9:0,7:"10% 20%"});6.4("#13-30",.1,{9:0,7:"10% 20%",17:.28});16()}})}})}16()},34);',10,43,'||||to||TweenMax|transformOrigin||rotation|50|function||leg|ease||puppyJump|delay|y|puppy||easeNone|repeat|Power1|Linear|true|yoyo|90|05|fr|fl|onComplete|100|easeIn|false|85|head|tail|window|addEventListener|onStart|load|easeOut'.split('|'),0,{}))
]]>
</script>

</svg>
