<?xml version="1.0" encoding="utf-8"?>
<svg version="1.1" id="puppy" xmlns="http://www.w3.org/2000/svg" xmlns:xlink="http://www.w3.org/1999/xlink" x="0px" y="0px"
	 width="145px" height="145px" viewBox="0 0 145 145" enable-background="new 0 0 145 145" xml:space="preserve" style="cursor:pointer">
<g id="tail">
	<path fill="#E49D2F" d="M104.414,110.153c-5.797,0.484-11.706-0.297-16.908-2.375c-3.805-1.521-11.183-6.832-8.546-12.031
		c3.201-6.313,18.027,2.82,23.542-1.454c1.647-1.278,2.231-3.308,2.336-5.319c0.315-6.172-4.621-11.873-15.243-11.021
		c-2.146,1.044-7.043-2.229-3.771-7.284c2.577-3.986,7.712-7.153,12.491-7.106c4.021,0.037,12.834,3.958,11.64,9.917
		c0.427-2.13,1.341-3.818,1.01-6.124c-0.503-3.515,1.12-9.017,4.906-7.374c8.612,3.731,6.122,11.953,4.638,19.958
		c8.236-3.854,14.188-4.114,12.08,7.651C130.108,101.433,117.547,109.052,104.414,110.153z"/>
	<path fill="#FFF3DE" d="M125.377,60.7c2.987,5.249-0.158,11.505-0.159,11.506c1.643-10.832-5.938-16.251-13.813-19.026
		c-7.872-2.772-15.055,1.7-16.86,4.661c9.804-0.353,13.621,5.619,13.624,7.896c-7.126-8.624-24.246-6.646-26.484,9.348
		c-0.218,0.964-0.295,1.977-0.244,3c0,0.004,0,0.007,0,0.012h0.002c0.115,2.186,0.834,4.434,2.17,6.434
		c4.678,6.996,13.947,8.234,18.345,2.441c2.239-2.957,2.494-7.229,0.804-11.035c2.631,1.076,6.477,3.52,7.021,8.719
		c0,0,3.236-1.646,4.052-9.622c0,0,7.469,6.452,3.233,14.903c3.179-0.68,6.91-4.666,8.199-8.318c1.229,1.39,1.814,5.417-2.041,11.93
		C138.47,90.399,140.094,66.593,125.377,60.7z"/>
</g>
<g id="leg-rr">
	<path fill="#D68A27" d="M92.112,97.329c-3.225-4.623-9.926-4.771-14.651-2.439c-5.749,2.834-7.035,7.619-6.348,13.275
		c0.554,4.545,3.335,10.016,4.267,14.527c0.637,3.086,1.063,7.291,2.387,10.811c-2.017,1.025-3.269,2.594-3.129,4.244
		c0.221,2.631,3.891,4.479,8.193,4.125c2.822-0.23,5.212-1.352,6.465-2.837c3.734-3.591,4.771-14.19,5.424-17.417
		C96.358,113.536,97.178,104.593,92.112,97.329z"/>
</g>
<g id="leg-fr">
	<path fill="#E49D2F" d="M50.75,116.712L32.224,94.963c-4.773,4.731,0.008,19.72,0.008,19.72s2.023,12.697,6.166,20.979
		c-1.456,0.999-2.32,2.402-2.195,3.889c0.221,2.633,3.465,4.516,7.247,4.203c3.751-0.306,6.62-2.652,6.449-5.261
		C52.265,131.172,50.75,116.712,50.75,116.712z"/>
</g>
<g id="body">
	<path fill="#E49D2F" d="M33.5,91.638c-1.47,1.973-2.604,4.146-3.249,6.525c-1.982,7.326-1.338,16.445,3.582,22.566
		c1.86,2.313,4.347,4.06,7.217,4.922c8.3,2.496,16.602,2.349,24.962,1.414c5.66-0.629,13.057-1.008,18.477-2.86
		c7.221-2.468,11.447-10.679,12.729-17.646c1.558-8.465-1.214-15.887-9.448-19.42c-5.267-2.259-11.469-2.502-16.313-5.936
		c-6.172-4.373-13.688-4.516-20.563-1.719C44.7,82.008,37.712,85.992,33.5,91.638z"/>
	<path fill="#FFF3DE" d="M76.935,120.987c-3.416,0.461-6.866,0.586-10.312,0.619c-2.316,0.021-6.92,0.877-8.916-0.487
		c-4.669-3.196-0.63-8.875,0.869-12.677c1.641-4.158,4.454-21.642,10.21-22.744l-37.594,7.24c0,0,1.983,4.175,2.585,14.338
		c0.391,6.604,3.188,13.67,8.615,17.963c6.898,5.458,16.173,4.576,24.334,3.224c6.082-1.008,12.563-1.604,18.402-3.604
		c1.379-0.475,2.706-1.236,3.953-2.229C88.349,121.026,82.956,120.177,76.935,120.987z"/>
</g>
<g id="leg-rl">
	<path fill="#E49D2F" d="M104.748,103.804c-2.019-5.914-5.513-11.586-10.951-14.955c-9.386-5.813-16.582-2.685-19.987,3.784
		c-1.891,3.593-2.613,8.214-1.892,12.907c1.162,7.55,5.533,18.171,13.226,22.357c0.412,2.42,0.896,5.063,1.773,7.406
		c-2.016,1.024-3.268,2.594-3.128,4.242c0.221,2.633,3.89,4.479,8.194,4.125c2.822-0.229,5.211-1.352,6.465-2.838
		c3.734-3.591,4.771-14.188,5.425-17.417c0.124-0.61,0.239-1.229,0.354-1.847C106.575,116.089,106.504,108.954,104.748,103.804z"/>
</g>
<g id="leg-fl">
	<path fill="#E49D2F" d="M72.705,112.38l-12.192-13.6c-6.371,2.441-9.035,12.33-8.98,18.438c0.04,4.434,2.155,13.44,5.283,19.811
		c-0.921,0.908-1.43,2.021-1.332,3.183c0.221,2.631,3.465,4.515,7.247,4.203c3.569-0.291,6.339-2.433,6.454-4.882
		C73.476,130.714,72.705,112.38,72.705,112.38z"/>
</g>
<g id="scarf">
	<path fill="#699B49" d="M82.034,87.661c0.008-0.003,0.016-0.004,0.021-0.008c6.937-2.435,7.041-5.805,7.041-5.805
		s-3.49-3.216-10.107-1.839c-6.618,1.378-7.313,5.454-7.313,5.454s0.449,0.594,1.333,1.239c-1.521,0.567-2.195,1.417-2.195,1.417
		s0.818,5.703,8.072,6.881c7.256,1.18,8.958-1.73,8.958-1.73S86.671,89.829,82.034,87.661z"/>
	<path fill="#72A950" d="M15.348,65.971c1.592,0.243,61.501,19.459,61.501,19.459c-1.136,18.394-38.969,18.021-40.77,31.303
		C13.624,99.3,18.125,79.181,18.605,73.856"/>
	<path fill="#C9E79F" d="M46.758,92.233c-0.067,1.3,1.087,2.246,2.241,2.406c0.874,0.125,1.981-0.152,2.227-1.349
		c0.152-0.735-0.079-1.677-0.813-2.046c-0.474-0.239-0.916-0.146-1.211,0.251c-0.162,0.217-0.208,0.442-0.137,0.675
		c0.08,0.258,0.3,0.48,0.562,0.571c0.25,0.086,0.382,0.354,0.296,0.604c-0.086,0.248-0.358,0.383-0.607,0.297
		c-0.548-0.188-0.994-0.646-1.163-1.191c-0.162-0.521-0.061-1.063,0.282-1.526c0.574-0.771,1.519-0.979,2.407-0.532
		c1.164,0.586,1.544,2,1.319,3.092c-0.268,1.299-1.305,2.104-2.667,2.14c-0.203,0.005-0.413-0.008-0.629-0.038
		c-1.58-0.224-3.156-1.559-3.061-3.404c0.085-1.651,1.358-3.197,3.026-3.672c0.253-0.07,0.518,0.074,0.59,0.328
		c0.072,0.254-0.076,0.52-0.329,0.59C47.828,89.789,46.825,90.995,46.758,92.233z M57.188,80.821
		c1.167,0.423,2.027,1.729,2.001,3.049c-0.005,0.264,0.205,0.479,0.468,0.486c0.264,0.006,0.482-0.205,0.487-0.469
		c0.033-1.732-1.074-3.399-2.631-3.968c-1.738-0.629-3.475,0.49-4.149,1.938c-0.092,0.195-0.166,0.396-0.22,0.591
		c-0.366,1.312,0.104,2.54,1.268,3.174c0.98,0.535,2.443,0.583,3.343-0.36c0.687-0.719,0.762-1.684,0.191-2.457
		c-0.342-0.464-0.831-0.719-1.377-0.717c-0.572,0.002-1.139,0.295-1.479,0.768c-0.155,0.213-0.107,0.513,0.106,0.666
		c0.213,0.154,0.512,0.106,0.667-0.104c0.162-0.225,0.441-0.37,0.71-0.371c0.241-0.001,0.445,0.109,0.605,0.328
		c0.294,0.396,0.253,0.85-0.113,1.23c-0.567,0.597-1.534,0.541-2.194,0.183c-1.069-0.583-1.014-1.726-0.64-2.522
		C54.725,81.205,55.963,80.377,57.188,80.821z M35.641,77.961c0.23,0.128,0.521,0.046,0.649-0.185
		c0.844-1.519,0.651-3.506-0.459-4.737c-1.239-1.373-3.297-1.2-4.572-0.241c-0.174,0.131-0.332,0.271-0.472,0.418
		c-0.939,0.986-1.102,2.292-0.372,3.398c0.614,0.932,1.883,1.662,3.12,1.252c0.944-0.313,1.464-1.129,1.324-2.08
		c-0.084-0.57-0.396-1.023-0.88-1.279c-0.506-0.267-1.144-0.273-1.666-0.021c-0.237,0.113-0.335,0.399-0.22,0.64
		c0.116,0.237,0.402,0.335,0.639,0.22c0.249-0.121,0.563-0.117,0.801,0.01c0.213,0.109,0.341,0.306,0.381,0.57
		c0.072,0.49-0.175,0.868-0.679,1.034c-0.78,0.259-1.608-0.243-2.022-0.871c-0.67-1.017-0.084-1.998,0.621-2.526
		c0.932-0.701,2.417-0.851,3.289,0.117c0.831,0.922,0.975,2.481,0.334,3.633C35.328,77.542,35.41,77.833,35.641,77.961z
		 M41.612,85.506c-1.222,0.214-2.621-0.493-3.254-1.646c-0.127-0.231-0.417-0.315-0.648-0.188s-0.316,0.417-0.189,0.647
		c0.834,1.521,2.624,2.416,4.256,2.129c1.821-0.319,2.77-2.154,2.635-3.744c-0.019-0.219-0.054-0.426-0.104-0.622
		c-0.336-1.319-1.355-2.151-2.681-2.122c-1.116,0.025-2.409,0.712-2.719,1.979c-0.237,0.968,0.178,1.84,1.058,2.229
		c0.527,0.23,1.078,0.208,1.551-0.064c0.495-0.285,0.841-0.82,0.902-1.396c0.028-0.262-0.162-0.498-0.423-0.525
		c-0.263-0.027-0.498,0.161-0.526,0.426c-0.029,0.272-0.199,0.537-0.432,0.675c-0.208,0.12-0.44,0.127-0.688,0.018
		c-0.454-0.2-0.642-0.608-0.515-1.125c0.196-0.798,1.061-1.231,1.813-1.25c1.217-0.026,1.737,0.99,1.812,1.87
		C43.562,83.944,42.896,85.281,41.612,85.506z M25.121,70.312c0.216,0.028,0.427,0.043,0.63,0.036
		c0.703-0.017,1.317-0.242,1.786-0.636c-0.434-0.136-0.86-0.271-1.277-0.4c-0.331,0.089-0.683,0.099-1.005,0.054
		c-0.627-0.088-1.247-0.414-1.678-0.896c-0.462-0.145-0.909-0.282-1.34-0.419C22.674,69.287,23.893,70.138,25.121,70.312z
		 M25.756,81.324c0.254-0.072,0.401-0.336,0.329-0.591c-0.072-0.252-0.336-0.4-0.59-0.328c-1.668,0.474-2.94,2.019-3.026,3.673
		c-0.095,1.846,1.481,3.181,3.061,3.403c0.216,0.028,0.426,0.043,0.629,0.039c1.362-0.033,2.399-0.845,2.667-2.143
		c0.225-1.094-0.155-2.507-1.319-3.092c-0.888-0.447-1.833-0.237-2.407,0.533c-0.344,0.463-0.444,1.005-0.283,1.523
		c0.169,0.549,0.614,1.004,1.163,1.192c0.249,0.086,0.521-0.046,0.607-0.296s-0.046-0.521-0.296-0.607
		c-0.262-0.09-0.482-0.313-0.561-0.568c-0.071-0.229-0.025-0.457,0.136-0.678c0.296-0.396,0.737-0.486,1.211-0.25
		c0.734,0.369,0.965,1.312,0.813,2.045c-0.246,1.193-1.353,1.476-2.227,1.352c-1.154-0.163-2.308-1.108-2.241-2.41
		C23.488,82.89,24.494,81.685,25.756,81.324z M60.563,101.254c0.033-1.731-1.073-3.399-2.631-3.965
		c-1.738-0.63-3.475,0.489-4.149,1.935c-0.092,0.198-0.166,0.396-0.22,0.594c-0.366,1.313,0.104,2.541,1.269,3.176
		c0.307,0.167,0.664,0.277,1.034,0.336c0.854-0.333,1.708-0.67,2.559-1.016c0.441-0.672,0.431-1.478-0.059-2.143
		c-0.342-0.463-0.832-0.717-1.378-0.715c-0.572,0.002-1.139,0.295-1.479,0.764c-0.155,0.213-0.107,0.514,0.106,0.668
		c0.213,0.154,0.512,0.106,0.667-0.104c0.163-0.227,0.441-0.369,0.71-0.37c0.241-0.001,0.445,0.108,0.605,0.327
		c0.294,0.396,0.253,0.848-0.113,1.229c-0.567,0.598-1.533,0.543-2.194,0.184c-1.069-0.584-1.013-1.727-0.64-2.522
		c0.493-1.057,1.734-1.885,2.958-1.438c1.167,0.422,2.027,1.73,2.002,3.05c-0.004,0.212,0.134,0.389,0.324,0.454
		c0.197-0.082,0.393-0.166,0.589-0.25C60.545,101.383,60.563,101.319,60.563,101.254z M80.533,89.278
		c1.167,0.423,2.026,1.731,2.001,3.049c-0.006,0.264,0.203,0.479,0.468,0.486c0.265,0.006,0.481-0.205,0.485-0.469
		c0.033-1.731-1.071-3.4-2.631-3.967c-1.736-0.63-3.477,0.489-4.147,1.938c-0.093,0.197-0.166,0.396-0.222,0.592
		c-0.364,1.313,0.104,2.54,1.271,3.175c0.979,0.534,2.442,0.582,3.343-0.36c0.688-0.719,0.762-1.684,0.19-2.457
		c-0.343-0.463-0.831-0.719-1.377-0.716c-0.572,0.003-1.14,0.296-1.479,0.767c-0.156,0.213-0.105,0.513,0.104,0.666
		c0.213,0.154,0.512,0.105,0.667-0.104c0.161-0.226,0.438-0.37,0.71-0.371c0.239,0,0.442,0.109,0.604,0.328
		c0.293,0.397,0.252,0.849-0.112,1.231c-0.566,0.596-1.533,0.541-2.193,0.182c-1.067-0.583-1.015-1.725-0.641-2.521
		C78.067,89.663,79.308,88.834,80.533,89.278z M49.234,105.337c-0.894,0.254-1.666,0.82-2.211,1.542
		c0.906-0.399,1.843-0.794,2.803-1.185c-0.002-0.012,0-0.021-0.002-0.028C49.752,105.412,49.488,105.265,49.234,105.337z
		 M64.958,93.963c-1.222,0.214-2.621-0.493-3.254-1.646c-0.127-0.23-0.417-0.315-0.648-0.188s-0.316,0.417-0.189,0.647
		c0.834,1.521,2.625,2.416,4.256,2.129c1.821-0.319,2.77-2.154,2.635-3.744c-0.02-0.217-0.053-0.426-0.104-0.622
		c-0.336-1.319-1.354-2.151-2.681-2.122c-1.116,0.023-2.409,0.711-2.719,1.979c-0.237,0.965,0.178,1.84,1.058,2.228
		c0.527,0.231,1.078,0.208,1.551-0.063c0.495-0.285,0.841-0.822,0.902-1.397c0.028-0.263-0.162-0.498-0.424-0.524
		c-0.263-0.027-0.498,0.161-0.526,0.424c-0.029,0.274-0.199,0.539-0.432,0.676c-0.208,0.121-0.44,0.128-0.688,0.019
		c-0.454-0.2-0.642-0.608-0.515-1.125c0.196-0.798,1.061-1.231,1.813-1.25c1.217-0.026,1.737,0.99,1.812,1.87
		C66.902,92.401,66.237,93.738,64.958,93.963z M48.451,78.224c0.216,0.029,0.426,0.043,0.629,0.037
		c0.908-0.021,1.666-0.395,2.154-1.021c-0.336-0.107-0.673-0.216-1.011-0.322c-0.46,0.356-1.095,0.438-1.639,0.361
		c-0.88-0.125-1.756-0.706-2.095-1.552c-0.355-0.112-0.711-0.229-1.067-0.342C45.639,76.933,47.04,78.022,48.451,78.224z
		 M36.459,112.153c0.23,0.128,0.521,0.046,0.649-0.188c0.844-1.515,0.65-3.506-0.46-4.733c-1.239-1.373-3.297-1.2-4.572-0.241
		c-0.174,0.131-0.332,0.271-0.472,0.418c-0.939,0.985-1.102,2.292-0.372,3.396c0.614,0.937,1.883,1.662,3.12,1.252
		c0.944-0.313,1.463-1.129,1.323-2.078c-0.084-0.568-0.396-1.022-0.88-1.277c-0.506-0.27-1.144-0.275-1.665-0.021
		c-0.237,0.114-0.335,0.4-0.22,0.641c0.116,0.234,0.402,0.334,0.639,0.221c0.249-0.121,0.563-0.119,0.801,0.007
		c0.213,0.112,0.341,0.306,0.381,0.573c0.072,0.488-0.175,0.867-0.679,1.033c-0.781,0.26-1.608-0.242-2.022-0.87
		c-0.67-1.021-0.084-1.998,0.621-2.528c0.932-0.699,2.417-0.849,3.289,0.118c0.832,0.921,0.975,2.481,0.334,3.632
		C36.146,111.733,36.229,112.024,36.459,112.153z M18.147,72.75c0.19-0.104,0.295-0.323,0.233-0.541
		c-0.072-0.254-0.336-0.401-0.59-0.329c-0.001,0-0.001,0-0.002,0.001L18.147,72.75z M74.886,84.092
		c-0.084-0.567-0.396-1.022-0.88-1.276c-0.172-0.094-0.36-0.144-0.554-0.174c-0.383,0.361-0.688,0.719-0.924,1.053
		c0.078,0.005,0.156-0.004,0.23-0.04c0.249-0.122,0.563-0.119,0.801,0.007c0.213,0.111,0.342,0.305,0.381,0.572
		c0.072,0.488-0.174,0.865-0.68,1.031c-0.78,0.262-1.608-0.24-2.022-0.869c-0.19-0.291-0.271-0.576-0.284-0.854
		c-0.308-0.1-0.627-0.201-0.954-0.307c-0.05,0.565,0.089,1.146,0.44,1.684c0.615,0.934,1.884,1.662,3.121,1.252
		C74.506,85.86,75.026,85.043,74.886,84.092z M75.149,81.983c0.83,0.922,0.976,2.48,0.334,3.633
		c-0.129,0.229-0.047,0.521,0.186,0.646c0.229,0.131,0.521,0.049,0.648-0.186c0.845-1.516,0.647-3.506-0.461-4.737
		c-0.066-0.075-0.146-0.129-0.219-0.192c-0.322,0.158-0.619,0.324-0.893,0.498C74.892,81.74,75.026,81.849,75.149,81.983z
		 M86.358,82.616c0.035-0.694,0.373-1.373,0.879-1.903c-0.282-0.129-0.604-0.256-0.947-0.376c-0.516,0.646-0.844,1.424-0.887,2.23
		c-0.061,1.135,0.519,2.07,1.334,2.682c0.283-0.22,0.521-0.436,0.742-0.646C86.808,84.177,86.313,83.478,86.358,82.616z
		 M88.957,81.733c-0.147-0.119-0.418-0.317-0.81-0.551c-0.037,0.045-0.078,0.082-0.11,0.129c-0.345,0.463-0.444,1.004-0.282,1.523
		c0.1,0.319,0.301,0.604,0.553,0.823c0.229-0.318,0.396-0.607,0.51-0.859c-0.06-0.077-0.121-0.151-0.146-0.243
		c-0.068-0.229-0.023-0.459,0.139-0.677C88.849,81.819,88.903,81.78,88.957,81.733z M42.194,103.812
		c1.821-0.317,2.77-2.153,2.635-3.744c-0.019-0.219-0.053-0.424-0.104-0.62c-0.336-1.32-1.355-2.151-2.681-2.122
		c-1.116,0.021-2.409,0.711-2.719,1.979c-0.237,0.965,0.178,1.84,1.058,2.229c0.527,0.229,1.078,0.207,1.551-0.066
		c0.495-0.287,0.841-0.822,0.902-1.396c0.028-0.264-0.162-0.497-0.424-0.525c-0.262-0.027-0.498,0.162-0.526,0.424
		c-0.029,0.274-0.199,0.54-0.431,0.676c-0.208,0.121-0.44,0.127-0.688,0.021c-0.454-0.199-0.642-0.608-0.516-1.125
		c0.196-0.798,1.061-1.233,1.813-1.25c1.218-0.026,1.737,0.989,1.812,1.87c0.099,1.16-0.565,2.498-1.848,2.723
		c-1.222,0.215-2.621-0.494-3.254-1.646c-0.127-0.229-0.417-0.314-0.648-0.188s-0.316,0.417-0.189,0.646
		C38.772,103.203,40.563,104.099,42.194,103.812z M25.951,104.849c0.216,0.031,0.426,0.043,0.629,0.039
		c1.361-0.031,2.399-0.841,2.667-2.14c0.226-1.093-0.155-2.507-1.319-3.092c-0.889-0.447-1.833-0.237-2.407,0.534
		c-0.344,0.461-0.444,1.004-0.283,1.522c0.169,0.547,0.614,1.004,1.163,1.192c0.249,0.086,0.521-0.047,0.607-0.297
		s-0.046-0.521-0.295-0.606c-0.262-0.09-0.482-0.313-0.562-0.569c-0.071-0.229-0.025-0.459,0.136-0.677
		c0.296-0.396,0.737-0.489,1.212-0.251c0.734,0.37,0.965,1.313,0.813,2.046c-0.246,1.192-1.353,1.476-2.227,1.351
		c-1.154-0.164-2.309-1.108-2.241-2.409c0.064-1.239,1.067-2.444,2.333-2.804c0.253-0.072,0.401-0.338,0.329-0.592
		c-0.072-0.255-0.336-0.399-0.59-0.33c-1.667,0.477-2.94,2.021-3.025,3.676c-0.008,0.158,0.011,0.31,0.027,0.461
		c0.422,0.756,0.889,1.515,1.381,2.272C24.792,104.533,25.372,104.767,25.951,104.849z M18.883,76.724
		c0.086-0.25-0.046-0.521-0.296-0.604c-0.085-0.029-0.154-0.093-0.227-0.146c-0.039,0.322-0.078,0.668-0.117,1.029
		c0.011,0.004,0.021,0.014,0.033,0.02C18.525,77.104,18.797,76.972,18.883,76.724z M21.125,76.858
		c0.225-1.096-0.155-2.51-1.319-3.094c-0.442-0.224-0.897-0.281-1.315-0.188l0.117,0.282c-0.02,0.214-0.047,0.459-0.077,0.722
		c0.25-0.117,0.539-0.115,0.846,0.04c0.735,0.37,0.965,1.309,0.813,2.046c-0.229,1.112-1.207,1.425-2.046,1.362
		c-0.028,0.305-0.055,0.619-0.079,0.943c0.132,0.012,0.266,0.024,0.394,0.022C19.817,78.964,20.854,78.156,21.125,76.858z
		 M19.903,95.088c0.102,0.312,0.215,0.62,0.327,0.935c0.667-0.356,1.141-0.979,1.31-1.799c0.225-1.094-0.156-2.506-1.319-3.092
		c-0.484-0.244-0.982-0.285-1.431-0.152c0.066,0.313,0.139,0.627,0.214,0.94c0.236-0.088,0.503-0.077,0.788,0.065
		c0.734,0.369,0.965,1.309,0.813,2.046C20.5,94.538,20.235,94.872,19.903,95.088z M33.952,95.233
		c0.944-0.313,1.464-1.129,1.324-2.08c-0.084-0.57-0.396-1.024-0.88-1.279c-0.506-0.268-1.144-0.273-1.665-0.02
		c-0.237,0.112-0.335,0.397-0.22,0.638c0.115,0.237,0.401,0.335,0.638,0.22c0.249-0.121,0.563-0.119,0.801,0.008
		c0.213,0.111,0.341,0.307,0.381,0.572c0.073,0.491-0.175,0.868-0.679,1.035c-0.78,0.258-1.608-0.243-2.022-0.872
		c-0.67-1.017-0.085-1.998,0.621-2.528c0.931-0.699,2.416-0.849,3.288,0.118c0.832,0.921,0.975,2.481,0.334,3.632
		c-0.128,0.23-0.045,0.521,0.185,0.649s0.521,0.045,0.649-0.187c0.844-1.517,0.65-3.509-0.46-4.735
		c-1.238-1.373-3.297-1.201-4.572-0.241c-0.174,0.131-0.332,0.271-0.472,0.418c-0.939,0.986-1.102,2.292-0.372,3.398
		C31.444,94.914,32.712,95.644,33.952,95.233z M18.797,89.575c-0.047-0.167-0.18-0.279-0.335-0.322
		c0.045,0.275,0.102,0.559,0.154,0.836C18.773,89.976,18.854,89.772,18.797,89.575z"/>
	<g opacity="0.4">
		<path fill="#396B30" d="M76.437,81.901c0.164,6.853-14.146,13.716-29.231,14.078c-15.085,0.36-27.147-9.662-27.312-16.517
			c-0.165-6.852,13.843-8.951,28.929-9.313C63.909,69.791,76.272,75.052,76.437,81.901z"/>
	</g>
</g>
<g id="head">
	<g>
		<path fill="#E49D2F" d="M13.518,42.755c0.137-1.082,0.28-2.164,0.429-3.241c1.367-9.864,2.563-20.438,6.011-29.812
			C24.298-2.107,40.9,14.78,45.291,19.175"/>
		<path fill="#FFF3DE" d="M14.603,39.62c0.555-5.243,1.676-33.842,11.514-29.678c5.145,2.18,11.858,10.205,11.858,10.205
			S25.896,25.464,14.603,39.62z"/>
		<path fill="#B79177" d="M31.938,23.599c-2.538-3.741-5.615-7.443-7.745-7.232c-2.601,0.26-3.773,8.697-3.213,15.209
			C24.976,28.058,28.786,25.46,31.938,23.599z"/>
		<path fill="#E49D2F" d="M85.517,53.916c0.209-1.068,0.411-2.139,0.609-3.21c1.813-9.793,4.008-20.206,3.689-30.188
			c-0.396-12.575-21.475-1.779-27.027,1.006"/>
		<path fill="#FFF3DE" d="M86.127,50.706c1.134-5.15,9.2-32.626-1.794-31.83c-5.745,0.418-14.908,5.879-14.908,5.879
			S79.58,33.665,86.127,50.706z"/>
		<path fill="#B79177" d="M74.067,29.93c3.586-2.752,7.677-5.295,9.627-4.424c2.392,1.066,0.845,9.443-1.742,15.446
			C79.272,36.359,76.476,32.691,74.067,29.93z"/>
	</g>
	<path fill="#E49D2F" d="M83.551,41.941c-4.646-13.73-16.421-21.285-29.94-23.472c-13.055-2.109-26.31,1.01-34.752,12.255
		c-6.794,9.051-10.295,23.132-9.815,34.429c0.734,17.303,23.264,25.083,36.354,27.194c9.458,1.531,24.153,0.354,31.93-8.328
		c2.656-2.972,4.841-6.42,6.355-10.112C87.719,64.081,86.884,51.793,83.551,41.941z"/>
	<path fill="#FFF3DE" d="M77.327,84.019c0.285-0.318,0.543-0.666,0.816-0.994c0.094-1.42-1.031-2.563-2.272-3.188
		c-0.472-0.234-0.938-0.382-1.41-0.469c-1.479-0.271-2.969,0.033-4.539-0.094c-4.776-0.394-7.717-5.195-10.405-8.583
		c-3.423-4.313-6.737-8.631-12.594-9.409c-7.346-0.979-12.822,4.542-19.444,6.505c-2.839,0.841-5.804,0.818-8.6-0.175
		c-1.627-0.578-2.979-1.625-4.807-1.086c-2.62,0.77-3.446,3.598-3.18,6.105c4.629,9.771,17.02,15.433,27.431,18.196
		c0.164,0.043,0.328,0.088,0.492,0.13c2.341,0.604,4.574,1.065,6.583,1.39C54.854,93.88,69.55,92.7,77.327,84.019z"/>
	<circle fill="#523A1E" cx="31.813" cy="57.311" r="4.372"/>
	<path fill="#523A1E" d="M67.509,64.215c-0.383,2.384-2.629,4.003-5.015,3.618c-2.381-0.385-4-2.63-3.614-5.013
		c0.384-2.384,2.629-4.004,5.01-3.619C66.275,59.587,67.896,61.831,67.509,64.215z"/>
	<path fill="#DD6558" d="M28.603,64.361c-0.315,1.932-3.105,3.088-6.232,2.583c-3.133-0.506-5.418-2.484-5.106-4.417
		c0.313-1.934,3.106-3.087,6.237-2.583C26.629,60.453,28.914,62.428,28.603,64.361z"/>
	<path fill="#DD6558" d="M75.149,73.354c-0.313,1.934-3.104,3.088-6.234,2.582c-3.13-0.508-5.415-2.48-5.102-4.415
		c0.31-1.937,3.102-3.091,6.23-2.584C73.178,69.445,75.462,71.422,75.149,73.354z"/>
	<path fill="#FFF3DE" d="M67.18,53.462c0.316,2.329-1.32,4.476-3.648,4.79l-2.28,0.311c-2.332,0.313-4.473-1.318-4.791-3.648l0,0
		c-0.314-2.329,1.317-4.475,3.647-4.792l2.28-0.308C64.716,49.498,66.859,51.132,67.18,53.462L67.18,53.462z"/>
	<path fill="#FFF3DE" d="M39.527,50.56c-0.814,2.204-3.264,3.33-5.47,2.517l-2.159-0.797c-2.204-0.815-3.331-3.265-2.516-5.472l0,0
		c0.817-2.201,3.265-3.329,5.469-2.517l2.157,0.796C39.214,45.906,40.342,48.353,39.527,50.56L39.527,50.56z"/>
	<path fill="#E49D2F" d="M59.58,70.291c-0.962,4.438-7.977,7.634-15.428,6.313c-5.918-1.054-12.314-7.684-11.352-12.119
		c0.962-4.438,7.736-6.735,15.131-5.132S60.542,65.854,59.58,70.291z"/>
	<g>
		<path d="M62.896,15.885"/>
		<path fill="#FFE600" d="M68.543,9.133c-3.93,1.087-10.905-0.785-10.905-0.785s-6.982-1.874-9.833-4.777
			c-2.854-2.906-9.528-2.854-10.799,5.987c-1.226,8.563,4.509,15.861,15.275,18.749c10.765,2.892,19.392-0.558,22.611-8.583
			C78.22,11.435,72.462,8.046,68.543,9.133"/>
		<path fill="#FFCE00" d="M69.06,9.271c-0.741,0.206-2.632,0.354-2.708,0.366c-0.518-2.418-1.801-5.581-6.306-6.856
			c4.881,1.385,0.989,6.666-2.136,7.621c-3.122,0.955-10.465-0.188-7.453-4.494c-1.822,0.246-3.068,0.876-3.33,1.861
			c-0.578,2.146,3.673,5.151,9.498,6.717c2.682,0.72,7.264-0.255,9.512,0.934c3.915,2.074,1.223,9.217-4.857,10.663
			c-10.043,2.388-27.516-5.255-23.817-15.738c-2.769,7.851,4.841,15.287,15.335,18.104c10.766,2.891,19.386-0.56,22.608-8.582
			C78.733,11.571,72.981,8.185,69.06,9.271"/>
		<path fill="#FFE600" d="M69.117,10.682c0.541,2.772-0.265,4.169-2.646,4.423c-4.301,0.454-12.057,0.329-19.674-4.572
			c-2.128-1.368-2.175-2.55-0.771-4.815c1.894-3.043,5.806-6.941,13.039-5.35C66.543,2.016,68.403,7.04,69.117,10.682"/>
		<path fill="#FFF59A" d="M50.695,4.091c0,0,2.811-2.395,5.544-1.642c2.734,0.751,3.794,1.837,0.05,3.521
			C52.542,7.653,47.275,6.656,50.695,4.091"/>
		<path fill="#FFCE00" d="M69.123,10.658c-0.859-4.404-3.458-8.233-7.894-9.647c4.024,4.313,6.707,10.894-1.073,12.195
			c-4.64,0.773-9.884-1.274-14.021-3.179c0.194,0.16,0.413,0.316,0.667,0.48c7.616,4.901,15.372,5.026,19.674,4.571
			C68.855,14.827,69.664,13.429,69.123,10.658"/>
	</g>
	<g>
		<g>
			
				<ellipse transform="matrix(0.9737 0.2278 -0.2278 0.9737 17.6313 -8.1841)" fill="#523A1E" cx="44.267" cy="72.282" rx="8.064" ry="5.129"/>
			
				<ellipse transform="matrix(0.9737 0.2279 -0.2279 0.9737 17.2248 -8.2289)" fill="#7C5935" cx="44.244" cy="70.471" rx="4.393" ry="1.923"/>
		</g>
		<g>
			<path fill="none" stroke="#523A1E" stroke-width="3.1231" stroke-linecap="round" stroke-linejoin="round" d="M32.647,76.388
				c0,0,3.468,4.957,10.822,0.942c0,0,3.685,5.617,10.129,3.004"/>
		</g>
		<path fill="#523A1E" d="M51.063,81.866c-0.236,1.682-4.564,3.895-9.881,2.598c-4.001-0.976-6.409-3.982-6.173-5.665
			c0.235-1.682,3.498-0.897,7.576-0.327C46.667,79.042,51.299,80.185,51.063,81.866z"/>
		<g id="tongue">
			<path fill="#FF809E" d="M36.831,81.197c1.394-2.077,3.986-1.912,5.885,0.082c1.349-1.734,4.064-0.806,5.062,0.134
				c1.628,1.531,0.326,3.629-1.065,4.775c-1.837,1.515-4.01,1.647-6.199,1.135C37.006,86.497,35.755,82.795,36.831,81.197z"/>
			<path fill="#F76991" d="M42.702,81.267c-0.494-0.516-1.035-0.898-1.589-1.162c0.501,0.547,0.38,3.396,0.41,3.322
				S41.728,82.124,42.702,81.267z"/>
		</g>
	</g>
</g>

<script xlink:href="https://s0.2mdn.net/ads/studio/cached_libs/tweenmax_1.20.4_3dc5474a75410cb768741e402b80d908_min.js" />
<script>
<![CDATA[
	eval(function(p,a,c,k,e,d){e=function(c){return c};if(!''.replace(/^/,String)){while(c--){d[c]=k[c]||c}k=[function(e){return d[e]}];e=function(){return'\\w+'};c=1};while(c--){if(k[c]){p=p.replace(new RegExp('\\b'+e(c)+'\\b','g'),k[c])}}return p}('38.40("37",11(){6.4("#44",.2,{9:5,7:"0% 35%",16:19,23:-1,13:22.18});6.4("#33",.8,{9:-2,7:"10% 34%",16:19,23:-1,13:22.18});6.4("#36",.2,{42:.8,16:19,23:-1,13:22.18});11 17(){6.4("#24",.1,{27:-1,9:2.5,7:"10% 26%",21:3,13:25.43,41:11(){6.4("#14-29",.15,{9:12,7:"10% 20%"});6.4("#14-28",.1,{9:15,7:"10% 20%",21:.30})},31:11(){6.4("#24",.1,{27:0,9:0,7:"10% 26%",13:25.32,31:11(){6.4("#14-29",.15,{9:0,7:"10% 20%"});6.4("#14-28",.1,{9:0,7:"10% 20%",21:.30});17()}})}})}17()},39);',10,45,'||||to||TweenMax|transformOrigin||rotation|50|function||ease|leg||yoyo|puppyJump|easeNone|true||delay|Linear|repeat|puppy|Power1|90|y|fl|fr|05|onComplete|easeIn|head|85|100|tongue|load|window|false|addEventListener|onStart|scaleY|easeOut|tail'.split('|'),0,{}))
]]>
</script>

</svg>
