<svg version="1.1" xmlns="http://www.w3.org/2000/svg" xmlns:xlink="http://www.w3.org/1999/xlink" x="0px" y="0px" viewBox="0 0 193.2 250" style="enable-background:new 0 0 193.2 250;" xml:space="preserve">
<style type="text/css">
	.st0{fill:#FFFFFF;}
	.st1{fill:#BFD3AA;}
	.st2{fill:#EA5D4A;}
	.st3{fill:#DF8853;}
	.st4{fill:#FBD079;}
	.st5{fill:#453C37;}
</style>
<path class="st0" d="M161.83,158.4c1.41-0.14,2.27-0.35,2.27-0.35c47.22-5.8,22.78-83.67,22.78-83.67
	c-1.66-6.63-0.41-12.84-0.41-12.84c3.31-3.31,4.42-9.93,4.42-9.93s0.88-15.98-19.03-16.91c0,0-22.32-3.13-26.03,11.6
	c0,0-4.19,9.43,8.13,10.94c0,0-4.82,2.89-1.45,25.83l-7.46,7.04l-6.24,29.87l-47.19,16.54v-0.02l-0.04,0.01l-0.04-0.01v0.02
	l-44.3,12.9l5.73-11.11c-0.11,0.01-0.21,0.02-0.33,0.03l-1.39-4.46l-11.52-37l-10.75-6.55c0,0-36.18,30.62-15.31,62.62
	c0,0,1.26,3.41,4.95,7.42c-8.98,7.1-22.22,22.7-17.72,51.09c0,0,4.14,28.99,26.51,38.52h128.32c22.37-9.53,26.51-38.52,26.51-38.52
	C187.22,180.07,170.48,164.3,161.83,158.4z"/>
<path class="st1" d="M145.22,101.53l-56.71,2.7l-56.71-2.7c0,0-2.71,40.3,45.04,41.99h23.34
	C147.93,141.83,145.22,101.53,145.22,101.53z"/>
<path class="st2" d="M147.56,89.36l-59.15,7.89l-59.15-7.89c0,0-7.78,7.48,1.2,12.26c0,0,15.25,8.97,58.5,9.69
	c45.58,0.78,57.4-9.69,57.4-9.69C155.33,96.84,147.56,89.36,147.56,89.36z"/>
<path class="st0" d="M150.81,42.7l-7.78-19.74c0,0-5.98-23.33-19.34-22.73c0,0-14.36-3.99-22.33,20.74H75.72
	C67.74-3.75,53.39,0.24,53.39,0.24c-13.36-0.6-19.34,22.73-19.34,22.73l-7.78,19.74c-6.74,15.88-10.87,40.02,6.44,50.74
	c6.33,3.92,13.85,5.45,21.23,6.43c21.8,2.9,44.28,2.24,66.14,0.29c7.36-0.66,15.01-1.94,21.79-5.04
	C162.48,85.71,157.36,59.38,150.81,42.7z"/>
<path class="st3" d="M75.72,20.97c0,0-3.09,22.63,10.67,22.93c0,0,18.54,3.89,14.98-22.93C101.37,20.97,75.72,20.97,75.72,20.97z"/>
<g>
	<path class="st4" d="M57.38,49.28c-5.95,0-10.77,4.82-10.77,10.77s4.82,10.77,10.77,10.77S68.15,66,68.15,60.05
		C68.14,54.11,63.32,49.28,57.38,49.28z"/>
	<circle class="st4" cx="118.98" cy="60.05" r="10.77"/>
</g>
<g>
	<path class="st5" d="M79.67,20.97c0,0-2.15,15.71,7.4,15.91c0,0,12.87,2.7,10.39-15.91C97.46,20.97,79.67,20.97,79.67,20.97z"/>
	<path class="st5" d="M57.38,52.87c-3.96,0-7.18,3.21-7.18,7.18c0,3.96,3.21,7.18,7.18,7.18c3.96,0,7.18-3.21,7.18-7.18
		C64.55,56.09,61.34,52.87,57.38,52.87z"/>
	<path class="st5" d="M126.16,60.05c0-3.96-3.21-7.18-7.18-7.18s-7.18,3.21-7.18,7.18c0,3.96,3.21,7.18,7.18,7.18
		S126.16,64.01,126.16,60.05z"/>
	<path class="st5" d="M58.68,40.75c0.44,3.05,2.06,2.17,2.06,2.17c1.25-0.4,0.79-1.51,0.79-1.51c-0.53-5.17-5.7-8.85-5.7-8.85
		c-1.48-1.16-1.65-0.23-1.65-0.23c-0.36,0.38,1.21,2.07,1.21,2.07C58.24,38.19,58.68,40.75,58.68,40.75z"/>
	<path class="st5" d="M49.22,38.08c3.03,2.74,3.81,4.82,3.81,4.82c0.87,2.5,2.09,1.5,2.09,1.5c0.99-0.55,0.41-1.4,0.41-1.4
		c-1.29-4.27-6.25-6.53-6.25-6.53c-1.43-0.73-1.43,0.07-1.43,0.07C47.63,36.91,49.22,38.08,49.22,38.08z"/>
	<path class="st5" d="M116.6,42.92c0,0,1.62,0.88,2.06-2.17c0,0,0.44-2.56,3.29-6.36c0,0,1.57-1.68,1.21-2.07
		c0,0-0.17-0.92-1.65,0.23c0,0-5.18,3.69-5.7,8.85C115.82,41.41,115.35,42.52,116.6,42.92z"/>
	<path class="st5" d="M122.21,44.39c0,0,1.22,1,2.09-1.5c0,0,0.79-2.08,3.81-4.82c0,0,1.6-1.16,1.36-1.54c0,0,0-0.81-1.43-0.07
		c0,0-4.97,2.26-6.25,6.53C121.8,42.99,121.22,43.85,122.21,44.39z"/>
	<path class="st5" d="M53.1,76.35c0,0-10.95,0.46-18.41-2.66c0,0-1.1-0.72-1.71,0.14c0,0-0.19,0.54,1.13,1.04
		c0,0,8.32,3.96,18.85,3.81c0,0,4.31,0.18,4.22-1.21C57.18,77.48,57.35,76.18,53.1,76.35z"/>
	<path class="st5" d="M52.04,83.76c0,0,4.31-0.04,4.15-1.42c0,0,0.11-1.31-4.13-0.92c0,0-10.92,1.01-18.52-1.73
		c0,0-1.14-0.67-1.7,0.23c0,0-0.16,0.55,1.18,0.98C33.02,80.9,41.53,84.44,52.04,83.76z"/>
	<path class="st5" d="M52.86,86.22c0,0-10.7,2.37-18.59,0.6c0,0-1.21-0.52-1.66,0.44c0,0-0.09,0.57,1.29,0.83
		c0,0,8.88,2.44,19.22,0.45c0,0,4.27-0.58,3.94-1.93C57.07,86.61,57.01,85.3,52.86,86.22z"/>
	<path class="st5" d="M122.39,78.69c10.53,0.15,18.85-3.81,18.85-3.81c1.31-0.5,1.13-1.04,1.13-1.04c-0.61-0.87-1.71-0.14-1.71-0.14
		c-7.46,3.12-18.41,2.66-18.41,2.66c-4.25-0.17-4.08,1.13-4.08,1.13C118.09,78.87,122.39,78.69,122.39,78.69z"/>
	<path class="st5" d="M143.5,79.92c-0.56-0.9-1.7-0.23-1.7-0.23c-7.61,2.74-18.52,1.73-18.52,1.73c-4.23-0.39-4.13,0.92-4.13,0.92
		c-0.16,1.38,4.15,1.42,4.15,1.42c10.51,0.68,19.01-2.86,19.01-2.86C143.66,80.47,143.5,79.92,143.5,79.92z"/>
	<path class="st5" d="M141.08,86.82c-7.89,1.77-18.59-0.6-18.59-0.6c-4.15-0.91-4.21,0.4-4.21,0.4c-0.33,1.35,3.94,1.93,3.94,1.93
		c10.34,1.99,19.22-0.45,19.22-0.45c1.38-0.26,1.29-0.83,1.29-0.83C142.29,86.3,141.08,86.82,141.08,86.82z"/>
</g>
<g>
	<path class="st2" d="M54.19,5.53c-9.57,0-13.56,15.55-13.56,15.55h27.91C65.75,5.53,54.19,5.53,54.19,5.53z"/>
	<path class="st2" d="M122.37,5.53c0,0-11.56,0-14.36,15.55h27.91C135.93,21.08,131.94,5.53,122.37,5.53z"/>
	<path class="st2" d="M96.96,88.99c-5.91-0.07-7.48-2.69-7.48-2.69V74.71c8.08-0.9,7.33-4.71,7.33-4.71
		c-1.12-2.62-3.36-0.22-3.36-0.22c-1.2,1.79-4.93,3.58-4.93,3.59c-0.01,0-3.74-1.8-4.93-3.59c0,0-2.24-2.39-3.36,0.22
		c0,0-0.75,3.81,7.33,4.71V86.3c0,0-1.57,2.62-7.48,2.69c0,0-1.64-0.15-1.57,1.12c0,0,0.07,0.97,2.17,0.9c0,0,6.05,0.07,7.85-4.26
		c1.8,4.33,7.85,4.26,7.85,4.26c2.09,0.07,2.17-0.9,2.17-0.9C98.61,88.84,96.96,88.99,96.96,88.99z"/>
</g>
<path class="st4" d="M102.44,117.47c0,6.17-5,11.17-11.17,11.17s-11.17-5-11.17-11.17s5-11.17,11.17-11.17
	S102.44,111.31,102.44,117.47z"/>
<g>
	<path class="st4" d="M81.24,232.16l-3.23-1.65c-13.43-6.84-18.82-23.43-11.97-36.85l24.13-47.37
		c6.84-13.43,23.43-18.82,36.85-11.97l3.23,1.65c13.43,6.84,18.82,23.43,11.97,36.85l-24.13,47.36
		C111.26,233.62,94.67,239.01,81.24,232.16z"/>
	<g>
		<path class="st0" d="M72.25,212.48c0,0,0.66-1.29,4.35,0.59c0,0,8.58,4.6,12.73,6.49l6.82,3.94c0,0,5.63,2.64,4.69,4.02
			c0,0-3.52,0.07-13.01-6.86c0,0-4.53-1.61-8.03-3.4C79.81,217.26,72.14,214.05,72.25,212.48z"/>
		<path class="st0" d="M107.79,142.73c0,0,0.66-1.29,4.35,0.59c0,0,8.58,4.6,12.73,6.49l6.82,3.94c0,0,5.63,2.64,4.69,4.02
			c0,0-3.52,0.07-13.01-6.86c0,0-4.53-1.61-8.03-3.4C115.35,147.51,107.68,144.3,107.79,142.73z"/>
		<path class="st0" d="M113.13,219.83c0,0-1.32,0.32-6.48-2.31c0,0-10.82-6.28-16.59-8.98l-10.81-5.44c0,0-7.83-3.76-6.82-5.1
			c0,0,3.98,0.43,15.43,7.71c1.98,1.26,4.07,2.31,6.22,3.23c2.2,0.94,5.11,2.23,7.66,3.53
			C101.75,212.47,113.01,218.14,113.13,219.83z"/>
		<path class="st0" d="M118.49,209.31c0,0-1.32,0.32-6.48-2.31c0,0-10.82-6.28-16.59-8.98l-10.81-5.44c0,0-7.83-3.76-6.82-5.1
			c0,0,3.98,0.43,15.43,7.71c1.98,1.26,4.07,2.31,6.22,3.23c2.2,0.94,5.11,2.23,7.66,3.53
			C107.11,201.95,118.37,207.63,118.49,209.31z"/>
		<path class="st0" d="M124.51,197.5c0,0-1.32,0.32-6.48-2.31c0,0-10.82-6.28-16.59-8.98l-10.81-5.44c0,0-7.83-3.76-6.82-5.1
			c0,0,3.98,0.43,15.43,7.71c1.98,1.26,4.07,2.31,6.22,3.24c2.2,0.94,5.11,2.23,7.66,3.53C113.13,190.14,124.39,195.82,124.51,197.5
			z"/>
		<path class="st0" d="M130.43,185.88c0,0-1.32,0.32-6.48-2.31c0,0-10.82-6.28-16.59-8.98l-10.81-5.44c0,0-7.83-3.76-6.82-5.1
			c0,0,3.98,0.43,15.43,7.71c1.98,1.26,4.07,2.31,6.22,3.24c2.2,0.94,5.11,2.23,7.66,3.53
			C119.05,178.52,130.31,184.19,130.43,185.88z"/>
		<path class="st0" d="M137.2,172.59c0,0-1.32,0.32-6.48-2.31c0,0-10.82-6.28-16.59-8.98l-10.81-5.44c0,0-7.83-3.76-6.82-5.1
			c0,0,3.98,0.43,15.43,7.71c1.98,1.26,4.07,2.31,6.22,3.24c2.2,0.94,5.11,2.23,7.66,3.53C125.82,165.23,137.08,170.91,137.2,172.59
			z"/>
	</g>
</g>
<path class="st5" d="M94,119.77c0,0-1.21,0.9-2.72,1.01c-1.52-0.11-2.72-1.01-2.72-1.01c-0.99-0.73-1.32,0.36-1.32,0.36
	c-0.22,1.57,3.42,2.34,3.42,2.34v6.17l0.62,0.02l0.64-0.02v-6.17c0,0,3.64-0.77,3.42-2.34C95.32,120.12,94.98,119.04,94,119.77z"/>
<path class="st0" d="M103.05,151.89c0,0-19.35-16.56-49.08-12.56l-16.79,32.56c5.06,1.5,11.17,2.42,18.56,2.26l16.7-2.78l11.83,9.74
	c0,0,11.13,7.65,20.18-2.78C104.44,178.33,121.14,169.98,103.05,151.89z"/>
<g>
	<path class="st4" d="M180.25,58.48c-0.78-0.68-1.96-0.6-2.64,0.18c-3.32,3.81-6.29,2.08-6.6,1.89c-0.14-0.09-0.29-0.17-0.45-0.22
		c-3.83-1.31-2.18-9.92-1.3-12.83c0.3-0.99-0.26-2.03-1.25-2.33c-0.99-0.3-2.03,0.26-2.33,1.25c-0.32,1.06-2.29,7.97-0.65,12.9
		c-3.58,2.15-5.79,0.12-6.03-0.12c-0.11-0.12-0.24-0.23-0.39-0.31c-3.46-2.1,0-10.16,1.49-12.81c0.5-0.9,0.18-2.04-0.72-2.55
		c-0.9-0.5-2.04-0.18-2.55,0.72c-0.55,0.97-4.01,7.39-3.4,12.57c-1.99-0.29-3.51-1.03-4.45-2.23c-2.09-2.68-0.99-6.9-0.97-6.96
		c0.45-1.79,1.13-4.63,2.19-6.41l-0.89-2.19c-2.32,2.94-3.46,7.01-3.7,7.97c-0.06,0.22-1.45,5.43,1.4,9.11
		c1.3,1.67,3.21,2.72,5.72,3.15c-1.03,4.22-3.33,16.9-0.4,37.9c0.13,0.94,0.93,1.61,1.85,1.61c0.09,0,0.17-0.01,0.26-0.02
		c1.02-0.14,1.74-1.09,1.59-2.11c-2.52-18.13-1-29.92,0.01-34.97c0.13,0.1,0.27,0.21,0.41,0.3c1.05,1,2.98,2.09,5.43,2.09
		c1.53,0,3.26-0.43,5.11-1.55c0.58,0.54,1.28,0.99,2.12,1.3c0.92,0.56,2.33,1.06,3.99,1.06c2.21,0,4.84-0.89,7.31-3.73
		C181.11,60.34,181.03,59.15,180.25,58.48z"/>
	<path class="st4" d="M53.85,138.09c-0.68,0.07-1.18,0.68-1.11,1.36c0.07,0.68,0.71,1.19,1.36,1.11
		c30.37-3.04,47.95,12.1,48.07,12.2c5.97,6.04,8.6,11.51,7.84,16.27c-0.19,1.17-0.58,2.2-1.07,3.12c-0.45-1.99-1.8-4.12-5.01-5.5
		c-0.95-0.41-2.05,0.03-2.46,0.98s0.03,2.05,0.98,2.46c3.73,1.6,3.04,4.25,2.73,5.03c-0.17,0.43-0.17,0.88-0.04,1.28
		c-0.73,0.53-1.25,0.8-1.26,0.81c-0.11,0.06-0.21,0.13-0.3,0.21c-0.46,0.44-0.91,0.83-1.35,1.21c-0.74-1.93-2.48-4.64-6.59-6.4
		c-0.95-0.41-2.05,0.03-2.46,0.98c-0.41,0.95,0.03,2.05,0.98,2.46c3.91,1.68,4.69,4.36,4.84,5.19c-7.8,4.26-13.65-0.47-13.95-0.72
		l-11.83-9.74c-0.3-0.25-0.71-0.35-1.08-0.25c-33.6,8.23-49.67-5.9-52.51-8.8l-1.8,1.54c2.95,3.16,19.16,18.21,54.29,9.83
		l11.34,9.34c0.06,0.05,3.69,3.04,9.09,3.04c2.38,0,5.1-0.59,8.01-2.25c0.11,0.02,0.23,0.03,0.35,0.03c0.03,0,0.06,0,0.09,0
		c0.86-0.04,1.55-0.65,1.73-1.45c0.81-0.6,1.63-1.29,2.46-2.08c0.41-0.23,1.47-0.86,2.65-1.9c0.24-0.14,0.44-0.32,0.6-0.56
		c1.69-1.64,3.48-4.09,4.02-7.43c0.91-5.59-1.96-11.8-8.58-18.5C103.13,150.3,85.37,134.91,53.85,138.09z"/>
	<path class="st4" d="M38.02,238.28c-0.62,0.29-0.88,1.03-0.59,1.65c0.3,0.62,1.03,0.88,1.65,0.59c0.17-0.08,16.93-7.82,26.06,2.15
		c0.03,0.03,2.81,3.43,3.06,7.32h2.48c-0.24-4.79-3.51-8.75-3.68-8.96C56.59,229.66,38.77,237.93,38.02,238.28z"/>
	<path class="st4" d="M57.89,241.41c-0.68,0-1.24,0.55-1.24,1.24V250h2.47v-7.35C59.12,241.97,58.57,241.41,57.89,241.41z"/>
	<path class="st4" d="M49.22,241.41c-0.68,0-1.24,0.55-1.24,1.24V250h2.48v-7.35C50.46,241.97,49.91,241.41,49.22,241.41z"/>
	<path class="st4" d="M151.04,238.28c-0.75-0.36-18.57-8.62-28.98,2.76c-0.17,0.2-3.44,4.16-3.68,8.96h2.48
		c0.25-3.89,3.04-7.29,3.06-7.32c9.13-9.98,25.9-2.24,26.06-2.15c0.62,0.29,1.35,0.03,1.65-0.59
		C151.92,239.31,151.65,238.58,151.04,238.28z"/>
	<path class="st4" d="M131.17,241.41c-0.68,0-1.24,0.55-1.24,1.24V250h2.47v-7.35C132.41,241.97,131.85,241.41,131.17,241.41z"/>
	<path class="st4" d="M139.83,241.41c-0.68,0-1.24,0.55-1.24,1.24V250h2.48v-7.35C141.07,241.97,140.52,241.41,139.83,241.41z"/>
</g>
</svg>
