<svg version="1.1" xmlns="http://www.w3.org/2000/svg" xmlns:xlink="http://www.w3.org/1999/xlink" x="0px" y="0px" viewBox="0 0 246.87 250" style="enable-background:new 0 0 246.87 250;" xml:space="preserve">
<style type="text/css">
	.st0{fill:#EA5D4A;}
	.st1{fill:#FCE6CA;}
	.st2{fill:#FFFFFF;}
	.st3{fill:#453C37;}
	.st4{fill:#FBD079;}
</style>
<path class="st0" d="M222.73,90.55c-3.42-20.53-13.92-39.87-20.11-49.9c-2.99-4.85-6.44-9.41-10.5-13.41
	C151.17-13.19,92.13,3.35,92.13,3.35C21.87,13.27,8.65,96.34,8.65,96.34s-4.13,19.01-6.61,40.09c0,0-17.4,93.87,49.59,106.63
	c0,0,88.03,23.56,164.9-16.12c0,0,53.31-24.8,18.6-100.43L222.73,90.55z"/>
<path class="st1" d="M198.22,77.54c-7.59-21.7-32.38-15.5-32.38-15.5c-15.19,2.48-31.78,4.34-31.78,4.34l-16.73,1.08l-16.73-1.08
	c0,0-16.59-1.86-31.78-4.34c0,0-24.78-6.2-32.38,15.5c0,0-33.63,52.28,27.42,62.2c0,0,30.19,6.64,53.47,5.79
	c23.28,0.86,52.35-6.61,52.35-6.61C227.9,127.34,198.22,77.54,198.22,77.54z"/>
<g>
	<path class="st2" d="M78.92,91.75c-5.48-0.01-9.92,4.43-9.93,9.91s4.43,9.92,9.91,9.93c5.48,0.01,9.92-4.43,9.93-9.91
		C88.83,96.2,84.4,91.75,78.92,91.75z M78.9,107.86c-3.42,0-6.2-2.78-6.19-6.21c0-3.42,2.78-6.2,6.21-6.19
		c3.42,0,6.2,2.78,6.19,6.21C85.1,105.1,82.32,107.87,78.9,107.86z"/>
	<path class="st2" d="M155.27,91.84c-5.48-0.01-9.92,4.43-9.93,9.91s4.43,9.92,9.91,9.93c5.48,0.01,9.92-4.43,9.93-9.91
		S160.75,91.85,155.27,91.84z M155.25,107.96c-3.42,0-6.2-2.78-6.19-6.21c0-3.42,2.78-6.2,6.21-6.19c3.42,0,6.2,2.78,6.19,6.21
		C161.45,105.19,158.68,107.97,155.25,107.96z"/>
</g>
<g>
	<circle class="st3" cx="78.91" cy="101.72" r="6.2"/>
	<circle class="st3" cx="155.26" cy="101.7" r="6.2"/>
</g>
<path class="st0" d="M99.36,121.34c0,0,17.98-13.43,37.82,0.62c0,0,2.79,1.45,0.93,3.31c0,0-3,1.65-6.2-1.55
	c0,0-5.48-5.68-14.36-5.06c0,0-11.68,0.52-13.84,4.55c0,0-2.89,4.13-5.79,2.48C97.92,125.68,94.82,124.24,99.36,121.34z"/>
<g>
	<path class="st3" d="M78.91,88.69c-7.19,0-13.02,5.83-13.02,13.02s5.83,13.02,13.02,13.02s13.02-5.83,13.02-13.02
		S86.1,88.69,78.91,88.69z M78.91,111.63c-5.48,0-9.92-4.44-9.92-9.92s4.44-9.92,9.92-9.92c5.48,0,9.92,4.44,9.92,9.92
		S84.38,111.63,78.91,111.63z"/>
	<path class="st3" d="M155.26,88.69c-7.19,0-13.02,5.83-13.02,13.02s5.83,13.02,13.02,13.02s13.02-5.83,13.02-13.02
		S162.45,88.69,155.26,88.69z M155.26,111.63c-5.48,0-9.92-4.44-9.92-9.92s4.44-9.92,9.92-9.92s9.92,4.44,9.92,9.92
		S160.74,111.63,155.26,111.63z"/>
	<path class="st3" d="M145.01,77.54l13.05,0.91c6.04,0.38,3.85,1.38,3.85,1.38l-9.47,1.63c-4.89,0.84-3.38,2.31-3.38,2.31l9.38,1.53
		c12.45,1.85,16.75-1.27,18.16-4.25c1.32-2.8-0.11-6.06-2.86-7.51c-9.34-4.91-30.69,1.81-30.69,1.81
		C139.61,77.21,145.01,77.54,145.01,77.54z"/>
	<path class="st3" d="M81.07,85.44l9.51-0.19c0,0,1.7-1.24-3.02-2.76l-9.15-2.95c0,0-2.02-1.3,4.01-0.82l13.05,0.95
		c0,0,5.4,0.44,2.24-1.88c0,0-20.18-9.68-30.12-6.14c-2.92,1.04-4.81,4.06-3.89,7.03C64.66,81.81,68.48,85.5,81.07,85.44z"/>
	<path class="st3" d="M94.64,129.47c0,0-0.67-1.35-3.51-0.27l-12.95,3.78c0,0-4.59,1.08-3.51,4.59c0,0,1.89,4.32,8.1,0.81
		c0,0,6.61-4.72,9.04-6.07C91.81,132.31,95.05,130.69,94.64,129.47z"/>
	<path class="st3" d="M106.38,132.25l-9.73,5.87c0,0-3.5,1.87-1.87,4.49c0,0,2.47,3.11,6.77-1.09c0,0,4.37-5.27,6.05-6.9
		c0,0,2.29-2.02,1.7-2.92C109.29,131.71,108.45,130.76,106.38,132.25z"/>
	<path class="st3" d="M156.96,132.98l-12.95-3.78c-2.83-1.08-3.51,0.27-3.51,0.27c-0.4,1.21,2.83,2.83,2.83,2.83
		c2.43,1.35,9.04,6.07,9.04,6.07c6.21,3.51,8.1-0.81,8.1-0.81C161.55,134.06,156.96,132.98,156.96,132.98z"/>
	<path class="st3" d="M138.5,138.12l-9.73-5.87c-2.07-1.49-2.92-0.54-2.92-0.54c-0.59,0.9,1.7,2.92,1.7,2.92
		c1.69,1.62,6.05,6.9,6.05,6.9c4.3,4.2,6.77,1.09,6.77,1.09C142,139.99,138.5,138.12,138.5,138.12z"/>
	<path class="st3" d="M88.67,122.79c0,0,0.31-2.01-5.22-0.83c0,0-12.45,1.14-21.49,2.48c0,0-13.12,2.22-10.18-7.23
		c0,0,3.25-4.8,12.55-4.03c0,0,2.38,0.72,2.58-1.14c0,0-0.41-1.03-4.44-1.34c0,0-24.18-3.1-22.63,10.54c0,0,1.24,8.99,13.64,11.78
		c0,0,8.52,2.63,16.89-2.01c0,0,7.59-4.65,13.79-6.35C84.18,124.65,89.14,123.57,88.67,122.79z"/>
	<path class="st3" d="M172.63,110.7c-4.03,0.31-4.44,1.34-4.44,1.34c0.21,1.86,2.58,1.14,2.58,1.14c9.3-0.77,12.55,4.03,12.55,4.03
		c2.94,9.45-10.18,7.23-10.18,7.23c-9.04-1.34-21.49-2.48-21.49-2.48c-5.53-1.19-5.22,0.83-5.22,0.83
		c-0.46,0.77,4.49,1.86,4.49,1.86c6.2,1.71,13.79,6.35,13.79,6.35c8.37,4.65,16.89,2.01,16.89,2.01
		c12.4-2.79,13.64-11.78,13.64-11.78C196.81,107.6,172.63,110.7,172.63,110.7z"/>
	<path class="st3" d="M111.2,105.76c-1.44-1.16-3.31-1.55-5.08-1.02c-3.63,1.09-4.82,4.95-4.82,4.95c-0.62,1.63,1.47,1.78,1.47,1.78
		c2.33-0.16,2.01-1.86,2.01-1.86c0-2.33,2.33-2.48,2.33-2.48c2.79-0.39,3.25,1.86,3.25,1.86c0.93,2.01,2.63,1.63,2.63,1.63
		c1.78-0.39,0.62-2.09,0.62-2.09C112.81,107.26,111.95,106.37,111.2,105.76z"/>
	<path class="st3" d="M128.97,109c0.93,2.01,2.63,1.63,2.63,1.63c1.78-0.39,0.62-2.09,0.62-2.09c-0.81-1.28-1.67-2.16-2.42-2.77
		c-1.44-1.16-3.31-1.55-5.08-1.02c-3.63,1.09-4.82,4.95-4.82,4.95c-0.62,1.63,1.47,1.78,1.47,1.78c2.33-0.16,2.01-1.86,2.01-1.86
		c0-2.33,2.33-2.48,2.33-2.48C128.5,106.75,128.97,109,128.97,109z"/>
</g>
<g>
	<path class="st4" d="M46.56,153.85c-8.53-4.48-14.04,14.51-14.04,14.51c-5.51,18.99,0.87,39.12,0.87,39.12
		c1.89,6.61,3.67,5.31,3.67,5.31c1.92-0.09,0.96-6.4,0.96-6.4c-1.4-7.37-0.92-14.21,0.2-19.8c1.27-6.41,3.98-12.42,7.31-18.04
		C52.87,156.15,46.56,153.85,46.56,153.85z"/>
	<path class="st4" d="M73.86,157.16c-9.99-4.7-14.29,17.23-14.29,17.23c-5.35,22.03,1.94,44.88,1.94,44.88
		c2.51,7.48,4.48,5.89,4.48,5.89c2.2-0.21,0.78-7.38,0.78-7.38c-0.99-8.52-0.7-16.11,0.29-22.58c1.13-7.41,2.84-14.55,6.37-21.16
		C81.2,159.47,73.86,157.16,73.86,157.16z"/>
	<path class="st4" d="M103.53,159.77c-8.62-3.26-11.9,19.63-11.9,19.63c-3.27,23.91,2.72,44.25,2.72,44.25
		c2.15,10.23,4.49,10.33,4.49,10.33c1.97,0.51,1.44-7.94,1.44-7.94c-0.65-9.02-1.33-18.3-0.99-25.26
		c0.39-7.96,2.59-15.71,5.61-23.09C111.55,161.42,103.53,159.77,103.53,159.77z"/>
	<path class="st4" d="M223.47,156.84c0,0-6.58-16.62-13.87-11.86c0,0-5.48,2.61,2.19,13.13c3.48,4.77,6.42,9.95,8.12,15.61
		c1.48,4.94,2.5,11.05,1.87,17.8c0,0-0.33,5.75,1.41,5.67c0,0,1.71,1.02,2.85-5.09C226.03,192.11,230.05,173.45,223.47,156.84z"/>
	<path class="st4" d="M183.89,150.93c0,0-7.09,3,2.03,16.77c4.13,6.25,6.52,13.2,8.34,20.46c1.59,6.35,2.6,13.88,2.42,22.45
		c0,0-0.74,7.27,1.47,7.27c0,0,2.11,1.39,3.9-6.29c0,0,5.1-23.43-2.31-44.86C199.75,166.73,193.4,145.31,183.89,150.93z"/>
	<path class="st4" d="M154.61,156.33c0,0-7.83,2.41,0.33,17.98c3.7,7.06,6.62,14.56,7.76,22.45c1,6.89,1.2,16.2,1.41,25.24
		c0,0,0.27,8.45,2.18,7.76c0,0,2.32-0.32,3.5-10.71c0,0,4.04-20.81-1.48-44.31C168.31,174.75,162.88,152.28,154.61,156.33z"/>
	<path class="st4" d="M129.84,160.19c-9.51,1.24-5.37,19.84-5.37,19.84l2.07,17.77c0.41,10.75,2.48,31,2.48,31
		c0.1,11.16,2.58,9.3,2.58,9.3c2.48,0.62,1.96-20.46,1.96-20.46l1.24-19.84c0.83-9.51,2.48-20.25,2.48-20.25
		C138.11,157.71,129.84,160.19,129.84,160.19z"/>
	<path class="st4" d="M126.53,45.13l-2.07-10.11c-0.41-6.11-2.48-17.64-2.48-17.64c-0.1-6.35-2.58-5.29-2.58-5.29
		c-2.48-0.35-1.96,11.64-1.96,11.64l-1.24,11.29c-0.83,5.41-2.48,11.52-2.48,11.52c-0.83,11.29,7.44,9.88,7.44,9.88
		C130.66,55.71,126.53,45.13,126.53,45.13z"/>
	<path class="st4" d="M74.86,26.2c-0.37-4.73-0.09-7.97-0.09-7.97c-0.62-4.34-2.89,1.86-2.89,1.86c-3.82,14.05,4.96,34.1,4.96,34.1
		c3.93,8.68,8.47,4.55,8.47,4.55c2.98-1.49-0.16-7.31-3.14-11.72C77.99,40.83,75.45,33.64,74.86,26.2z"/>
	<path class="st4" d="M154.98,54.19c0,0,8.78-20.04,4.96-34.1c0,0-2.27-6.2-2.89-1.86c0,0,0.28,3.24-0.09,7.97
		c-0.58,7.44-3.13,14.63-7.31,20.81c-2.98,4.41-6.12,10.23-3.14,11.72C146.51,58.73,151.06,62.86,154.98,54.19z"/>
	<path class="st4" d="M27.67,64.8l3.99,3.63l3.13,1.86c0,0,1.5,1.5,2.31,0.14c0,0,0.14-0.54-2.04-2.99c0,0-3.27-2.99-5.58-8.85
		c0,0-1.63-4.22-4.76-0.14C24.72,58.44,22.95,60.62,27.67,64.8z"/>
	<path class="st4" d="M19.59,112.53c0,0-3.34,2.32-9.04,3.21c0,0-4.11,0.61-1.08,4.23c0,0,1.59,2.02,6.28-1.35l4.05-2.84l2.3-2.43
		c0,0,1.64-1.04,0.59-2.04C22.68,111.31,22.22,111.08,19.59,112.53z"/>
	<path class="st4" d="M31.98,79c0,0-0.08-0.4-2.26-1.33c0,0-4.23-1.77-7.54-4.88c0,0-3.03-1.98-3.82,1.65c0,0-0.52,2.27,5.72,3.78
		l3.73,1.15l2.62,0.25C30.42,79.62,31.86,80.14,31.98,79z"/>
	<path class="st4" d="M22.9,96.84c0,0-4.36,1.41-8.9,1.2c0,0-3.59,0.47-1.83,3.74c0,0,1.09,2.06,6.81-0.85l3.57-1.55l2.15-1.51
		c0,0,1.43-0.54,0.78-1.48C25.48,96.39,25.16,96.14,22.9,96.84z"/>
	<path class="st4" d="M26.21,87.35l-8.47-1.55c0,0-5.06-1.45-5.27,1.14c0,0-0.52,1.76,3,2.07l6.07,0.07h3.91
		c0,0,2.11,0.34,2.21-0.85C27.66,88.23,28.28,87.87,26.21,87.35z"/>
	<path class="st4" d="M198.71,70.29l3.13-1.86l3.99-3.63c4.72-4.17,2.95-6.35,2.95-6.35c-3.13-4.08-4.76,0.14-4.76,0.14
		c-2.31,5.85-5.58,8.85-5.58,8.85c-2.18,2.45-2.04,2.99-2.04,2.99C197.21,71.78,198.71,70.29,198.71,70.29z"/>
	<path class="st4" d="M210.83,111.31c-1.05,1.01,0.59,2.04,0.59,2.04l2.3,2.43l4.05,2.84c4.69,3.38,6.28,1.35,6.28,1.35
		c3.02-3.63-1.09-4.23-1.09-4.23c-5.7-0.89-9.04-3.21-9.04-3.21C211.29,111.08,210.83,111.31,210.83,111.31z"/>
	<path class="st4" d="M215.14,74.44c-0.79-3.63-3.82-1.65-3.82-1.65c-3.31,3.11-7.54,4.88-7.54,4.88c-2.18,0.93-2.26,1.33-2.26,1.33
		c0.12,1.14,1.55,0.62,1.55,0.62l2.62-0.25l3.73-1.15C215.66,76.71,215.14,74.44,215.14,74.44z"/>
	<path class="st4" d="M210.61,96.84c-2.26-0.71-2.58-0.46-2.58-0.46c-0.65,0.94,0.78,1.48,0.78,1.48l2.15,1.51l3.57,1.55
		c5.72,2.91,6.8,0.85,6.8,0.85c1.76-3.27-1.83-3.74-1.83-3.74C214.97,98.25,210.61,96.84,210.61,96.84z"/>
	<path class="st4" d="M211.97,89.08l6.07-0.07c3.51-0.31,3-2.07,3-2.07c-0.21-2.58-5.27-1.14-5.27-1.14l-8.47,1.55
		c-2.07,0.52-1.45,0.88-1.45,0.88c0.1,1.19,2.21,0.85,2.21,0.85H211.97z"/>
</g>
</svg>
