<svg version="1.1" xmlns="http://www.w3.org/2000/svg" xmlns:xlink="http://www.w3.org/1999/xlink" x="0px" y="0px" viewBox="0 0 204.3 250" style="enable-background:new 0 0 204.3 250;" xml:space="preserve">
<style type="text/css">
	.st0{fill:#FFEACB;}
	.st1{fill:#FF5E42;}
	.st2{fill:#463D37;}
</style>
<path class="st0" d="M174.81,100.48c0,0-0.14,11.09,5.65,31.55c0,0,30.77,21.99,22.4,57.51c0,0-11.34,51.09-61.63,46.89
	c0,0-18.07,18.61-40.41,0.37c0,0-7.45,8.31-23.87,11.83c-46.36,9.94-85.27-36.04-69.91-80.89c9.75-28.46,13.46-61.06,9.55-85.34
	c0,0,18.29-61.45,58.55-66.69l27.55-5.33C102.68,10.37,163.45,22.66,174.81,100.48z"/>
<g>
	<path class="st1" d="M53.54,162.68c-9.49,1.43-16.03,10.28-14.61,19.77c1.43,9.49,10.28,16.03,19.77,14.61
		c9.49-1.43,16.03-10.28,14.61-19.77C71.88,167.79,63.03,161.26,53.54,162.68z"/>
	<path class="st1" d="M193.47,153.91c-3.12-9.08-11.9-14.29-19.62-11.64c-7.72,2.65-11.45,12.16-8.33,21.24
		c3.12,9.08,11.9,14.29,19.62,11.64C192.86,172.5,196.59,162.99,193.47,153.91z"/>
	<path class="st1" d="M134.92,181.24c-1.26,2.43-2.51,0.89-2.51,0.89c-5.39-4.69-8.28,0.95-8.28,0.95c-2.46,4.5-8.61,4.91-8.61,4.91
		c4.17,2.37,11.01,0.8,11.01,0.8l13.94-2.05c5.24-0.09,4.33-3.41,4.33-3.41C138.33,175.43,134.92,181.24,134.92,181.24z"/>
	<path class="st1" d="M129.85,189.47c-4.57,1.23-10.48,0.76-10.48,0.76c8.57,8.22,18.9,3.82,18.9,3.82
		c5.13-1.99,4.72-6.55,4.72-6.55C140.34,187.9,129.85,189.47,129.85,189.47z"/>
</g>
<g>
	<path class="st2" d="M145.55,47.78c8.51,6.26,21.15,21.57,29.26,52.7c0,0-4.14-113.31-75.83-98.88c0,0-19.79-4.81-40.49,2.24
		C31.1,13.16,12.96,33.78,6.8,62.04c-3.64,16.68-5.2,42.39-2.38,78.43c0,0-13.69,58.71,7.14,77.37c0,0,31.5-35.86,18.08-94.97
		c8.24,23.66,6.02,43.67,6.02,43.67l10.68-12.74c-8.71-37.1-21.89-52.79-24.64-55.75c-0.08-0.19-0.15-0.38-0.23-0.58
		c7.34-1.08,22.94-5.16,41.16-20.53c0,0,6.3-4.9,10.94-9.11c0,0,29.09-25.34,28.76-54.66c2.89,8.79,10.87,20.15,10.87,20.15
		C124.45,48.56,140.35,48.32,145.55,47.78z M69.38,66.26c0,0-7.39,6.38-12.53,10.23c0,0-20.09,14.33-36.9,17.42
		c-0.05-0.12-0.1-0.24-0.16-0.36c0,0,62.09-30.06,80.29-75.54C97.4,30.01,89.95,48.89,69.38,66.26z M105.97,15.96
		c5.76,9.09,18.55,26.32,34.02,28.67c0.45,0.16,0.94,0.37,1.47,0.62C123.52,44.53,111.52,26.59,105.97,15.96z"/>
	<path class="st2" d="M77.87,98.39l9.27-4.61c0,0,4.57-2.74,1.56-5.21c0,0-5.17-1.27-13.05,2.84c0,0-10.01,3.55-8.51,7.72
		C67.14,99.12,69.56,105.49,77.87,98.39z"/>
	<path class="st2" d="M144.36,88.77c7.05,3.06,7.36-1.72,7.36-1.72c0.15-3.11-7.31-3.43-7.31-3.43c-7.58-1.26-9.74,0.97-9.74,0.97
		c-0.87,2.03,2.51,3,2.51,3L144.36,88.77z"/>
	<path class="st2" d="M108.12,130.66l-16.03-9.6c-10.3-4.36-14.16,7.69-14.16,7.69c-4.74,9.31-12.84,13.33-12.84,13.33
		c-2.77,1.1-2.54,2.33-2.54,2.33c0.23,1.5,4.62-0.69,4.62-0.69c10.85-3.83,16.32-12.78,16.32-12.78c3.31-5.77,8.83-2.64,8.83-2.64
		l12.79,4.67c3.4,2.13,4.61-0.03,4.61-0.03C109.98,131.79,108.12,130.66,108.12,130.66z"/>
	<path class="st2" d="M166.25,125.32c0,0-3.86-2.28-7.02-6.5c0,0-5.96-8.25-12.76-2.58l-10.11,11.22c0,0-1.17,1.32-0.69,2.14
		c0,0,1.45,1.38,3.57-1.07l8.77-6.64c0,0,3.87-3.95,7.8-0.27c0,0,4.66,4.68,9.26,5.86c0,0,3.92,0.65,3.73-0.56
		C168.79,126.92,168.09,125.92,166.25,125.32z"/>
	<path class="st2" d="M121.83,160.92c-3.09,2.81,2.91,5.72,2.91,5.72c2.82-0.72,0.63-3.61,0.63-3.61
		C123,158.99,121.83,160.92,121.83,160.92z"/>
	<path class="st2" d="M133.23,159.21c0,0-1.69-1.5-2.76,3.05c0,0-1.25,3.41,1.66,3.27C132.13,165.53,137.01,160.98,133.23,159.21z"
		/>
</g>
</svg>
