<svg version="1.1" xmlns="http://www.w3.org/2000/svg" xmlns:xlink="http://www.w3.org/1999/xlink" x="0px" y="0px" viewBox="0 0 224.58 250" style="enable-background:new 0 0 224.58 250;" xml:space="preserve">
<style type="text/css">
	.st0{fill:#EA5E44;}
	.st1{fill:#6A9FA7;}
	.st2{fill:#FFFFFF;}
</style>
<circle class="st0" cx="163.24" cy="61.34" r="61.34"/>
<path class="st1" d="M215.44,250c0,0-26.22-77.09-52.12-154.09c-3.52-0.4-5.22-3.63-5.22-3.63l-6.49-14.16
	c-2.62-5.24-4.54-4.19-4.54-4.19c-2.97,0.87-0.52,5.06-0.52,5.06L153,94.18c3.32,6.81,0.7,7.51,0.7,7.51
	c-2.97,0.52-4.89-5.06-4.89-5.06c-1.75-3.14-3.32-2.44-3.32-2.44c-2.44,0.35-2.97-2.1-2.97-2.1l-2.27-5.59
	c-5.06-14.14-9.08-14.14-9.08-14.14c-5.59,1.75,0.35,18.68,0.35,18.68c8.91,20.43,2.66,19.32,2.66,19.32
	c-4.89,0.52-10-15.31-10-15.31c-4.02-8.91-4.37-3.32-4.37-3.32c3.84,11.7-0.52,11-0.52,11c-2.44,0.35-4.3-5.44-4.3-5.44l-7.92-21.28
	c-3.49-7.51-6.29-0.87-6.29-0.87c-1.57,22.35-6.11,23.57-6.11,23.57c-2.62,1.05-4.37,7.86-4.37,7.86c-1.05,5.41-3.32,3.62-3.32,3.62
	c-2.33-0.58-1.16-21.23-1.16-21.23c-0.15-16.87-2.91-16.87-2.91-16.87c-4.22-0.15-5.38,12.36-5.38,12.36
	c-0.73,7.71-2.62,6.4-2.62,6.4c-1.82,0.01-1.02-3.93-1.02-3.93c1.01-7.11-1.1-6.71-1.1-6.71c-2.47,0.15-3.85,7-3.85,7
	c-2.47,18.62-6.6,16.01-6.6,16.01c-3.11-0.2,0.2-14.11,0.2-14.11c3.81-18.34-0.73-17.67-0.73-17.67c-2.18-0.15-5.61,8.48-5.61,8.48
	c-1.5,3.75-2.65,5.48-3.52,6.15C26.53,166.19,0,250,0,250H215.44z"/>
<path class="st1" d="M70.73,31.39c-0.34,1.02-0.68,2.05-1.03,3.09l1.17-3.09H70.73z"/>
<path class="st2" d="M56.23,79.91c0,0,3.42-8.62,5.61-8.48c0,0,4.54-0.66,0.73,17.67c0,0-3.32,13.91-0.2,14.11
	c0,0,4.13,2.61,6.6-16.01c0,0,1.37-6.86,3.85-7c0,0,2.11-0.4,1.1,6.71c0,0-0.8,3.94,1.02,3.93c0,0,1.89,1.31,2.62-6.4
	c0,0,1.16-12.51,5.38-12.36c0,0,2.76,0,2.91,16.87c0,0-1.16,20.65,1.16,21.23c0,0,2.27,1.79,3.32-3.62c0,0,1.75-6.81,4.37-7.86
	c0,0,4.54-1.22,6.11-23.57c0,0,2.79-6.64,6.29,0.87l7.9,21.3c0,0,1.86,5.79,4.3,5.44c0,0,4.37,0.7,0.52-11c0,0,0.35-5.59,4.37,3.32
	c0,0,5.11,15.83,10,15.31c0,0,6.24,1.11-2.66-19.32c0,0-5.94-16.94-0.35-18.68c0,0,4.02,0,9.08,14.14l2.27,5.59
	c0,0,0.52,2.44,2.97,2.1c0,0,1.57-0.7,3.32,2.44c0,0,1.92,5.59,4.89,5.06c0,0,2.62-0.7-0.7-7.51L146.55,79c0,0-2.44-4.19,0.52-5.06
	c0,0,1.92-1.05,4.54,4.19l6.49,14.16c0,0,1.69,3.23,5.22,3.63c-7.44-22.12-14.86-44.24-21.62-64.52H70.87l-1.17,3.09
	c-5.45,16.39-11.21,33.9-16.99,51.58C53.57,85.39,54.73,83.67,56.23,79.91z"/>
</svg>
