<svg version="1.1" xmlns="http://www.w3.org/2000/svg" xmlns:xlink="http://www.w3.org/1999/xlink" x="0px" y="0px" viewBox="0 0 500 307.1" style="enable-background:new 0 0 500 307.1;" xml:space="preserve">
<style type="text/css">
	.st0{fill:#FBD079;}
	.st1{fill:#FFFFFF;}
</style>
<g>
	<polygon class="st0" points="185.48,159.31 195.15,169.23 205.2,159.57 195.4,149.52 	"/>
	<polygon class="st0" points="334.26,84.36 344.57,96.82 355.1,84.79 344.79,72.33 	"/>
	<polygon class="st0" points="276.5,84.36 286.82,96.82 297.35,84.79 287.04,72.33 	"/>
	<polygon class="st0" points="400.08,68.16 389.54,80.19 399.85,92.65 410.39,80.62 	"/>
	<polygon class="st0" points="407.02,207.68 417.33,220.14 427.86,208.11 417.55,195.65 	"/>
	<path class="st0" d="M128.64,22.89h3.88v-0.67h11.05v-3.56h-3.8v-1.23h3.8v-3.56h-3.8v-0.79h3.8V9.52h-3.8V8.77h3.8V5.21h-3.72
		l0.79-0.79l-3.01-2.97l-3.01,3.01l0.75,0.75h-2.85V2.6h-3.88v3.29l-2.22,4.91l2.22,0.99V22.89z M132.52,8.76h3.01v0.75h-3.01V8.76z
		 M132.52,13.07h3.01v0.79h-3.01V13.07z M132.52,17.43h3.01v1.23h-3.01V17.43z"/>
	<path class="st0" d="M145.9,22.89h3.92v-0.67h11.01v-3.56h-3.84v-1.23h3.84v-3.56h-3.84v-0.79h3.84V9.52h-3.84V8.77h3.84V5.21
		h-3.68l0.79-0.79l-3.05-2.97l-3.01,3.01l0.75,0.75h-2.81V2.6h-3.92v3.29l-2.18,4.91l2.18,0.99V22.89z M149.82,8.76h2.93v0.75h-2.93
		V8.76z M149.82,13.07h2.93v0.79h-2.93V13.07z M149.82,17.43h2.93v1.23h-2.93V17.43z"/>
	<path class="st0" d="M159.68,28.56v-5.15h-31.71v3.92h1.54l-0.44,1.74l6.57,1.66l-8.91,2.3l0.99,3.76l15.8-4.08l16.35,4.12
		l0.99-3.8l-9.42-2.34L159.68,28.56z M143.53,28.71l-5.46-1.39h10.73L143.53,28.71z"/>
	<polygon class="st0" points="236.45,7.89 232.65,4.08 228.89,7.89 232.65,11.65 	"/>
	<polygon class="st0" points="227.14,20.52 222.87,20.52 222.87,36.71 237.99,36.71 237.99,32.44 227.14,32.44 	"/>
	<polygon class="st0" points="208.29,32.2 212.06,36 215.86,32.2 212.06,28.44 	"/>
	<polygon class="st0" points="208.29,24.28 212.06,28.04 215.86,24.28 212.06,20.48 	"/>
	<polygon class="st0" points="232.65,22.62 228.89,26.42 232.65,30.18 236.45,26.42 	"/>
	<polygon class="st0" points="217.12,9.75 208.22,9.75 213.8,4.48 210.91,1.39 203.46,8.32 203.46,14.02 218.83,14.02 222.27,10.7 
		219.26,7.61 	"/>
	<polygon class="st0" points="203.46,36.95 207.7,36.95 207.7,19.37 216.41,19.37 216.41,36.95 220.69,36.95 220.69,15.09 
		203.46,15.09 	"/>
	<polygon class="st0" points="227.14,1.99 222.87,1.99 222.87,18.18 237.99,18.18 237.99,13.9 227.14,13.9 	"/>
	<path class="st0" d="M275.06,2.07H245.6v10.65h29.46V2.07L275.06,2.07z M248.8,9.51V5.27h9.66l-1.9,1.94l2.3,2.3H248.8z
		 M271.85,9.51h-10.06l2.3-2.3l-1.94-1.94h9.7V9.51z"/>
	<path class="st0" d="M278.11,33.78h-15.84v-1.11h13.62v-3.21h-13.62v-1.03h13.11V17.7h-30.09v10.73h13.07v1.03h-13.58v3.21h13.58
		v1.11h-15.8v3.17h35.56L278.11,33.78L278.11,33.78z M262.27,20.91h9.9v0.71h-9.9V20.91z M262.27,24.48h9.9v0.75h-9.9V24.48z
		 M258.35,25.23h-9.86v-0.75h9.86V25.23z M258.35,21.63h-9.86v-0.71h9.86V21.63z"/>
	<rect x="242.55" y="13.35" class="st0" width="35.56" height="3.56"/>
	<polygon class="st0" points="292.08,6.54 288.32,2.74 284.52,6.54 288.32,10.3 	"/>
	<polygon class="st0" points="302.58,24.56 297.63,24.56 297.63,7.09 303.33,5.95 302.54,1.75 293.35,3.61 293.35,28.83 
		302.58,28.83 	"/>
	<polygon class="st0" points="290.82,28.83 290.82,11.85 282.62,11.85 282.62,16.12 286.54,16.12 286.54,28.75 282.14,34.14 
		285.43,36.87 288.76,32.79 293.07,36.87 317.7,36.87 317.7,32.59 294.74,32.59 	"/>
	<polygon class="st0" points="308.2,7.53 312.91,7.53 312.91,23.33 309.62,23.33 309.62,27.61 317.19,27.61 317.19,3.25 
		303.96,3.25 303.96,31.57 308.2,31.57 	"/>
	<path class="st0" d="M353.66,28.91v-4.32h3.25v-4.28h-15.48v-2.06h-4.24v2.06h-3.25v0.04l-2.65-3.05l-1.23,1.11v-6.53h3.09V7.61
		h-3.09V1.39h-4.28v6.22h-4v4.28h4v8.43h-3.48v4.24h3.48v8.12h-2.18v4.28h6.45V24.09l3.88-3.41v3.92h3.25v4.32l2.81,1.23l-6.42,2.73
		l1.7,3.92l10.14-4.36l10.14,4.36l1.7-3.92l-6.45-2.73L353.66,28.91z M349.38,26.1l-4,1.7l-3.96-1.7v-1.5h7.96V26.1z"/>
	<path class="st0" d="M356.9,12.88h-4.36l2.3-2.18l-2.38-2.46h3.6V3.96h-8.55V1.35h-4.24v2.61h-8.59v4.28h3.6l-2.34,2.26l2.3,2.38
		h-4.32v4.28h22.97L356.9,12.88L356.9,12.88z M349.58,12.88h-8.36l2.3-2.18l-2.38-2.46h8.47l-2.34,2.26L349.58,12.88z"/>
	<path class="st0" d="M366.58,30.89v-6.68c0.77-0.87,1.45-1.6,2.18-2.42h9.2l5.08-5.66V8.14l-5.61-5.13h-15.59v5.03h13.65
		c0.68,0.63,0.97,0.92,1.45,1.45c0.39,0.34,0.68,0.63,1.07,1.02v3.63c-0.77,0.92-1.55,1.69-2.37,2.57h-9.2l-4.89,5.76v13.46
		l21.78,0.05v-5.03h-9.05C371.71,30.94,369.2,30.89,366.58,30.89z"/>
	<path class="st0" d="M405.78,35.92l5.86-5.47V8.62l-5.71-5.66h-12.54l-5.71,5.71v21.78l5.71,5.47
		C393.39,35.92,405.78,35.92,405.78,35.92z M392.76,10.75l2.76-2.76h8.28l1.74,1.79c0.34,0.34,0.63,0.68,1.02,1.06v17.47
		c-0.92,0.92-1.74,1.65-2.71,2.57h-8.32c-0.58-0.63-0.97-0.92-1.5-1.4c-0.44-0.39-0.82-0.73-1.26-1.16L392.76,10.75L392.76,10.75z"
		/>
	<path class="st0" d="M421.03,30.89v-6.68c0.77-0.87,1.45-1.6,2.18-2.42h9.2l5.08-5.66V8.14l-5.61-5.13h-15.59v5.03h13.65
		c0.68,0.63,0.97,0.92,1.45,1.45c0.39,0.34,0.68,0.63,1.07,1.02v3.63c-0.77,0.92-1.55,1.69-2.37,2.57h-9.2L416,22.47v13.46
		l21.78,0.05v-5.03h-9.05C426.16,30.94,423.64,30.89,421.03,30.89z"/>
	<polygon class="st0" points="442.13,3.01 442.13,8.04 447.02,8.04 447.02,35.92 452.1,35.92 452.1,3.01 	"/>
	<polygon class="st0" points="76.69,9 73.44,5.08 70.12,8.87 73.37,12.79 	"/>
	<polygon class="st0" points="58.49,9 55.25,5.08 51.93,8.87 55.18,12.79 	"/>
	<path class="st0" d="M74.45,27.12v-2.4c0-0.16-0.12-0.28-0.28-0.28h-4.1v-3h3.49c0.16,0,0.28-0.12,0.28-0.28v-2.6
		c0-0.16-0.12-0.28-0.28-0.28H54.64c-0.16,0-0.28,0.12-0.28,0.28v2.6c0,0.16,0.12,0.28,0.28,0.28h3.82v2.76
		c-0.04,0.12-0.04,0.2-0.04,0.24h-4.47c-0.16,0-0.28,0.12-0.28,0.28v2.4c0,0.16,0.12,0.28,0.28,0.28h4.02
		c-0.57,1.83-1.95,3.49-4.22,5.11c-0.2,0.16-0.2,0.41,0,0.57l2.72,1.95c0.12,0.08,0.2,0.08,0.32,0c2.8-2.03,4.51-4.59,5.15-7.63
		h4.14v7.1c0,0.16,0.12,0.28,0.28,0.28h3.41c0.16,0,0.28-0.12,0.28-0.28v-7.1h4.1C74.32,27.41,74.45,27.28,74.45,27.12z
		 M66.08,24.44h-3.77v-3h3.77V24.44z"/>
	<path class="st0" d="M62.96,15.8V1.47c0-0.16-0.12-0.28-0.28-0.28H47.33c-0.16,0-0.28,0.12-0.28,0.28v34.14
		c0,0.16,0.12,0.28,0.28,0.28h3.61c0.16,0,0.28-0.12,0.28-0.28V16.09h11.45C62.84,16.08,62.96,15.96,62.96,15.8z M58.9,13.12h-7.67
		V4.56h7.67V13.12z"/>
	<path class="st0" d="M81.18,1.18H65.43c-0.16,0-0.28,0.12-0.28,0.28v14.33c0,0.16,0.12,0.28,0.28,0.28h11.85v13.92
		c0,1.02-0.08,1.58-0.28,1.79c-0.2,0.2-0.85,0.32-1.91,0.32c-0.28,0-1.3-0.08-3.08-0.16c-0.2-0.04-0.37,0.12-0.37,0.28l0.16,3
		c0,0.16,0.12,0.24,0.24,0.24c1.62,0.12,2.88,0.2,3.73,0.2c2.56,0,4.18-0.32,4.79-0.93s0.89-2.23,0.89-4.83V1.45
		C81.47,1.31,81.35,1.18,81.18,1.18z M77.29,7.44v5.68h-8.08v-2.88v-2.8V4.56h8.08V7.44z"/>
	<path class="st0" d="M111.98,0.15h-4.2v5.04l-3.49,2.75H90.77V6.08h12.17l3.91-2.55L104.63,0l-2.87,1.89H86.63v26.12l-2.84,5.03
		l3.53,2.12l2.64-4.6v5.05h16.35V22.98H90.77v-2.81h15.54v-8.79l0.09,0.11l2.47-1.92v5.21v1.26l3.96,7.52l-5.24,11.14l3.35,2.17
		l4.51-9.36l5.24,8.99l3.75-2.52l-6.37-10.43l4.03-7.16V8.95h2.51V4.13h-12.63C111.98,4.13,111.98,0.15,111.98,0.15z M94.1,27.17
		h8.11v4.18H94.1V27.17z M102.17,15.96h-11.4v-1.55v-2.23h11.4V15.96z M113.08,8.95h4.83v6.36l-2.45,5.36l-2.38-5.36
		C113.08,15.31,113.08,8.95,113.08,8.95z"/>
	<polygon class="st0" points="198.06,4.88 189.12,4.88 189.12,1.92 184.91,1.92 184.91,4.88 175.93,4.88 175.93,9.13 198.06,9.13 	
		"/>
	<path class="st0" d="M197.83,21.93h-21.66v15.32h21.66V21.93z M193.57,33h-13.16v-6.81h13.16V33z"/>
	<rect x="175.02" y="15.99" class="st0" width="23.95" height="4.21"/>
	<polygon class="st0" points="172.22,2.08 163.68,13.9 167.1,16.38 168.68,14.21 168.68,37.18 172.93,37.18 172.93,8.34 175.65,4.6 
			"/>
	<polygon class="st0" points="193.49,15.67 196.72,12.44 193.49,9.17 190.22,12.44 	"/>
	<polygon class="st0" points="180.5,15.67 183.76,12.44 180.5,9.17 177.27,12.44 	"/>
</g>
<g>
	<path class="st1" d="M72.68,170.34V143.8h42.39v-13.92H72.68v-20.74h38.4V95.23h-38.4V77.19h38.4V63.4H33.25v-8.5H19.33v12.37
		L0,90.08l10.56,8.89l18.68-21.78h29.51v18.04H19.19v34.66H3.08v13.92h55.66v26.54L72.68,170.34L72.68,170.34z M32.99,129.89v-20.74
		h25.77v20.74H32.99z"/>
	<path class="st1" d="M282.27,159.44c-2.72,1.47,8.22,7.11,8.63,7.99c9.55-4.37,15.21-15.03,17.39-24.22h13.14v22.55
		c-0.54,1.85,11.08,0.52,11.72,0.9c1.98,0.98,0.45-23.05,0.9-23.45c15.47-0.85,14.02,3.78,13.92-8.5c0.68-1.88-13.34-0.51-13.92-0.9
		v-9.54c0.5-0.38,12.62,0.95,11.98-0.9c-0.34-0.77,0.9-9.48-0.9-9.15h-60.04c-1.84-0.37-0.53,8.42-0.9,9.15
		c-0.7,1.86,12.47,0.52,13.01,0.9c0.01,0.45,0.04,9.33-0.13,9.54c-0.58,0.4-15.83-0.99-15.08,0.9c-0.11,12.27-1.51,7.66,13.66,8.5
		C293.86,149,289.48,154.29,282.27,159.44z M309.46,124.27h11.98v9.54h-11.98V124.27z"/>
	<path class="st1" d="M261.91,170.14c0.7-0.38,12.89,0.96,12.37-0.9v-61.98h36.34c0.52,0,0.9-0.39,0.9-0.9
		c-0.78-1.73,1.5-45.52-0.9-46.39h-48.71c-0.52,0-0.9,0.39-0.9,0.9C261.92,61.82,259.29,170.33,261.91,170.14z M274.28,70.67h24.35
		v27.19h-24.35V70.67L274.28,70.67z"/>
	<path class="st1" d="M319.38,107.27H357c-0.46,3.53,1.09,47.95-0.9,49.86c-4.4,1.95-7.3,0.69-15.85,0.51
		c-0.64-0.13-1.16,0.39-1.16,0.9l0.52,9.54c7.54,2.76,24.26,1.72,27.83-1.55c6.06-6.49,1.49-95.68,2.84-105.66
		c0-0.52-0.39-0.9-0.9-0.9h-49.99c-0.52,0-0.9,0.39-0.9,0.9v45.48C318.47,106.88,318.86,107.27,319.38,107.27z M331.36,88.71
		c0-4.49,0-13.54,0-18.04H357c0,5.79,0,21.21,0,27.19h-25.64V88.71L331.36,88.71z"/>
	<path class="st1" d="M498.96,157.51H465.2v-9.54h32.86c1.81,0.4,0.55-8.82,0.9-9.54c0-0.51-0.39-0.9-0.9-0.9H465.2v-5.67
		c0.82-0.48,29.2,1.13,28.73-0.9V92.44c0.57-2.07-28.06-0.38-28.73-0.9v-5.67h25.64c1.42,0.07,0.76-2.44,0.9-3.22
		c0.53-0.31,6.96,0.81,6.57-0.9c-0.47-0.4,1.08-22.82-0.9-21.78c-0.9,0.86-79.7-1.68-79.5,0.9v20.87c-0.25,1.76,5.81,0.57,6.57,0.9
		c0.16,0.79-0.53,3.28,0.9,3.22h26.29v5.67h-28.48c-0.52,0-0.9,0.39-0.9,0.9v38.53c0,0.51,0.39,0.9,0.9,0.9h28.48v5.67h-31.95
		c-1.81-0.4-0.55,8.82-0.9,9.53c-0.27,2.14,31.98,0.34,32.86,0.9v9.41c-51.04,0.03-35.59-20.65-37.88-56.97
		c1.25-1.98-26.05-0.44-26.29-0.9c-0.52,0-0.9,0.39-0.9,0.9c0.45,18.05-3.74,13.61,14.17,14.12v33.05
		c-15.36,15.13-19.56,6.65-10.18,22.42c4.15,0.68,15.72-11.43,18.43-13.53c18.89,18.65,62.2,10.54,89.42,12.37
		c1.73,0.43,1.12-9.62,1.55-10.31C499.99,157.9,499.6,157.51,498.96,157.51z M465.2,70.29h20.49v5.8H465.2V70.29z M465.2,100.95
		h16.11v6.31H465.2V100.95z M465.2,115.77h16.11v6.7H465.2V115.77z M451.67,122.47h-16.75v-6.7h16.75V122.47z M451.67,107.27h-16.75
		v-6.31h16.75V107.27z M451.67,76.09h-21.13v-5.8h21.13V76.09z"/>
	<path class="st1" d="M428.6,250.91l-15.68,10.99l-6.32-23.81l22.44-0.1l-0.06-13.91l-26.05,0.11l-7.66-28.7l-11.11,4.04
		c-0.01-0.7,0.18-2.01-0.9-1.97h-30.28c-0.51,0-0.9,0.39-0.9,0.9v27.06c0,0.51,0.39,0.9,0.9,0.9h27.41l0.02,4.17
		c-0.52-0.89-58.28,0.02-58.99-0.3c-0.51,0-0.9,0.39-0.9,0.9v41.23c0,0.51,0.39,0.9,0.9,0.9h23.06v6.31h-28.73
		c-1.8-0.37-0.56,8.42-0.9,9.15c0,0.52,0.39,0.9,0.9,0.9h28.73c1.02,20.28-4.6,17.54,10.57,17.59c1.9,1.07,0.5-17.22,0.9-17.59
		c1.1-0.58,30.59,1.26,30.54-0.9c-0.35-0.76,0.9-9.49-0.9-9.15h-29.51v-6.31c0.57-0.47,25.41,1.08,24.61-0.9c0,0,0-22.26-0.05-34.22
		l13.74-0.06l8.21,30.76l-16.66,9.79l5.84,12.09l14.36-8.23l7.54,23.93l18.26-0.08l-0.06-13.92l-9.64,0.04l-5.66-17.1L434.42,263
		L428.6,250.91z M373.48,217.15h-10.82V207.1h10.82V217.15z M344.87,264.18H331.6v-7.99h13.27V264.18z M344.87,247.3H331.6v-7.73
		h13.27V247.3z M369.61,264.18h-13.92v-7.99h13.92V264.18z M369.61,247.3h-13.92v-7.73h13.92V247.3z M384.16,224.28v-24.74
		l6.55,24.71L384.16,224.28z"/>
	<path class="st1" d="M317.69,226.43h29.76c0.52,0,0.9-0.39,0.9-0.9v-27.06c0.35-2.15-29.86-0.33-30.67-0.9
		c-0.52,0-0.9,0.39-0.9,0.9v27.06C316.78,226.04,317.17,226.43,317.69,226.43z M327.48,207.1h10.31v10.05h-10.31V207.1z"/>
	<polygon class="st1" points="134.49,191.39 120.72,191.39 120.72,221.8 69.82,221.8 69.82,235.59 116.08,235.59 70.08,298.6 
		81.16,306.84 127.67,243.32 174.05,306.84 185.26,298.6 139.13,235.59 185.39,235.59 185.39,221.8 134.49,221.8 	"/>
	<polygon class="st1" points="222.62,192.3 194.53,230.95 205.61,239.07 211.02,231.72 211.02,307.1 224.94,307.1 224.94,212.65 
		233.83,200.41 	"/>
	<polygon class="st1" points="256.12,191.52 242.2,191.52 242.2,208.4 228.68,226.83 239.89,234.95 250.45,220.64 250.45,307.1 
		264.37,307.1 264.37,285.07 309.85,285.07 309.85,271.15 264.37,271.15 264.37,252.98 309.85,252.98 309.85,239.07 264.37,239.07 
		264.37,219.35 309.85,219.35 309.85,205.44 256.12,205.44 	"/>
	<path class="st1" d="M240.63,113.58h-26.67l-2.45-14.82h16.75l11.21-7.6l-7.86-11.47l-7.47,5.15h-67.9v84.65h26.54v-13.92h-12.63
		v-28.09h31.95l6.96,42.01h23.19l8.25-18.17l-12.5-5.8l-4.64,10.05h-2.58l-4.64-28.09h24.48L240.63,113.58L240.63,113.58z
		 M170.15,113.58V98.76h27.32l2.45,14.82H170.15z"/>
	<polygon class="st1" points="152.17,152.23 152.17,77.5 244.17,77.5 244.17,63.59 200.87,63.59 200.87,53.92 186.96,53.92 
		186.96,63.59 138.25,63.59 138.25,147.97 128.59,161.37 139.93,169.36 	"/>
</g>
</svg>
