<svg version="1.1"  xmlns="http://www.w3.org/2000/svg" xmlns:xlink="http://www.w3.org/1999/xlink" x="0px" y="0px" viewBox="0 0 50 50" style="enable-background:new 0 0 50 50;" xml:space="preserve">
<style type="text/css">
	.st0{fill:#C01304;}
	.st1{fill-rule:evenodd;clip-rule:evenodd;fill:#FFFFFF;}
</style>
<circle id="橢圓_1" class="st0" cx="25" cy="25" r="25"/>
<path id="形狀_3" class="st1" d="M19.2,43c-0.1,0-0.1,0-0.2,0c-1.2-0.1-2.3-0.8-2.8-1.9L9.1,26c-0.8-1.7-0.1-3.7,1.6-4.5
	c1.6-0.8,3.6-0.1,4.4,1.5c0,0,0,0,0,0.1l4.6,9.7L35.1,8.5c1-1.5,3-2,4.5-1c0,0,0,0,0.1,0c1.5,1,2,3.1,1,4.7L22,41.5
	C21.4,42.4,20.4,43,19.2,43z"/>
</svg>
