<svg version="1.1" xmlns="http://www.w3.org/2000/svg" xmlns:xlink="http://www.w3.org/1999/xlink" x="0px" y="0px" viewBox="0 0 28.3 50" style="enable-background:new 0 0 28.3 50;" xml:space="preserve">
<style type="text/css">
	.st0{fill-rule:evenodd;clip-rule:evenodd;fill:#FFFFFF;}
</style>
<path id="icon-arrow.svg" class="st0" d="M1.3,43.7L19.7,25L1,6l0,0C0.4,5.4,0,4.5,0,3.6C0,1.6,1.6,0,3.5,0c0,0,0,0,0,0
	C4.5,0,5.3,0.4,6,1l0,0l21.2,21.4l0,0c0.7,0.7,1.1,1.6,1.1,2.6v0l0,0c0,1-0.4,1.9-1.1,2.6l0,0L6,49l0,0c-0.6,0.6-1.5,1-2.4,1
	c-2,0-3.6-1.6-3.5-3.6C0,45.4,0.5,44.4,1.3,43.7z"/>
</svg>
