<svg version="1.1" xmlns="http://www.w3.org/2000/svg" xmlns:xlink="http://www.w3.org/1999/xlink" x="0px" y="0px" viewBox="0 0 50 36.6" style="enable-background:new 0 0 50 36.6;" xml:space="preserve">
<style type="text/css">
	.st0{fill-rule:evenodd;clip-rule:evenodd;fill:#A18142;}
</style>
<path class="st0" d="M24.6,36.9c-0.4,0-0.8-0.2-1.1-0.5c-0.6-0.6-0.6-1.6,0-2.2c0,0,0,0,0,0l3.8-3.6C28,30,29,30,29.6,30.7
	c0.6,0.6,0.6,1.6,0,2.2c0,0,0,0,0,0l-3.8,3.6C25.4,36.7,25,36.9,24.6,36.9z"/>
<path class="st0" d="M21.6,33.7c-0.4,0-0.8-0.2-1.1-0.5c-0.6-0.6-0.6-1.6,0-2.2c0,0,0,0,0,0l3.8-3.6c0.6-0.6,1.6-0.6,2.2,0.1
	c0.6,0.6,0.6,1.6,0,2.2c0,0,0,0,0,0l-3.8,3.6C22.3,33.5,22,33.7,21.6,33.7z"/>
<path class="st0" d="M22.3,27.5c-0.4,0-0.8-0.2-1.1-0.5l-3.6-3.8c-0.6-0.6-0.6-1.6,0-2.2c0,0,0,0,0,0c0.6-0.6,1.6-0.6,2.2,0.1
	l3.6,3.8c0.6,0.6,0.6,1.6-0.1,2.2C23.1,27.3,22.7,27.5,22.3,27.5L22.3,27.5z"/>
<path class="st0" d="M19.1,30.5c-0.4,0-0.8-0.2-1.1-0.5l-3.6-3.8c-0.6-0.6-0.6-1.6,0-2.2c0,0,0,0,0,0c0.6-0.6,1.6-0.6,2.2,0.1
	l3.6,3.8c0.6,0.6,0.6,1.6,0,2.2c0,0,0,0,0,0C19.9,30.4,19.5,30.5,19.1,30.5L19.1,30.5z"/>
<path class="st0" d="M21.4,21.2c-0.4,0-0.8-0.2-1.1-0.5c-0.6-0.6-0.6-1.6,0-2.2c0,0,0,0,0,0l3.8-3.6c0.6-0.6,1.6-0.6,2.2,0.1
	c0.6,0.6,0.6,1.6,0,2.2c0,0,0,0,0,0l-3.8,3.6C22.2,21,21.8,21.2,21.4,21.2L21.4,21.2z"/>
<path class="st0" d="M24.5,24.4c-0.4,0-0.8-0.2-1.1-0.5c-0.6-0.6-0.6-1.6,0-2.2c0,0,0,0,0,0l3.8-3.6c0.6-0.6,1.6-0.6,2.2,0.1
	c0.6,0.6,0.6,1.6,0,2.2c0,0,0,0,0,0L25.6,24C25.3,24.2,24.9,24.4,24.5,24.4L24.5,24.4z"/>
<path class="st0" d="M34.3,27.7c-0.4,0-0.8-0.2-1.1-0.5l-3.6-3.8c-0.6-0.6-0.6-1.6,0-2.2c0,0,0,0,0,0c0.6-0.6,1.6-0.6,2.2,0.1
	l3.6,3.8c0.6,0.6,0.6,1.6,0,2.2c0,0,0,0,0,0C35.1,27.6,34.7,27.7,34.3,27.7L34.3,27.7z"/>
<path class="st0" d="M31.1,30.8c-0.4,0-0.8-0.2-1.1-0.5l-3.6-3.8c-0.6-0.6-0.6-1.6,0-2.2c0,0,0,0,0,0c0.6-0.6,1.6-0.6,2.2,0.1
	l3.6,3.8c0.6,0.6,0.6,1.6,0,2.2c0,0,0,0,0,0C31.9,30.6,31.5,30.8,31.1,30.8L31.1,30.8z"/>
<path class="st0" d="M19.6,17.2c-0.4,0-0.8-0.2-1.1-0.5c-1.8-1.8-2.9-4.3-2.9-6.9C15.6,4.4,20,0,25.4,0c5.4,0,9.8,4.3,9.8,9.7
	c0,2.6-1,5.1-2.9,7c-0.6,0.6-1.6,0.6-2.2,0c-0.6-0.6-0.6-1.6,0-2.2c0,0,0,0,0,0c2.6-2.6,2.6-6.8,0-9.4s-6.8-2.6-9.4,0
	c-2.6,2.6-2.6,6.8,0,9.4c0,0,0,0,0,0c0.6,0.6,0.6,1.6,0,2.2C20.4,17,20,17.2,19.6,17.2L19.6,17.2z"/>
<path class="st0" d="M27.5,13.3c-0.9,0-1.6-0.7-1.6-1.6c0-0.4,0.2-0.8,0.5-1.1c0.5-0.5,0.6-1.4,0-2c0,0,0,0-0.1-0.1
	c-0.3-0.3-0.7-0.4-1.1-0.3c-0.6,0.1-1.1,0.5-1.2,1.1c-0.1,0.5,0.1,0.9,0.4,1.2c0.6,0.6,0.6,1.6,0,2.2c0,0,0,0,0,0
	c-0.6,0.6-1.6,0.6-2.2,0c-1.1-1-1.5-2.5-1.3-4c0.3-2,1.9-3.5,4-3.8c1.3-0.1,2.6,0.3,3.6,1.1c1.9,1.6,2.1,4.5,0.4,6.3
	c-0.1,0.1-0.2,0.2-0.2,0.2C28.3,13.1,27.9,13.3,27.5,13.3L27.5,13.3z"/>
<path class="st0" d="M40.2,35.2c-2.6,0-5.1-1-6.9-2.9c-0.6-0.6-0.6-1.6,0-2.2c0,0,0,0,0,0c0.6-0.6,1.6-0.6,2.2,0
	c2.6,2.6,6.7,2.6,9.3,0c2.6-2.6,2.6-6.7,0-9.3c-2.6-2.6-6.7-2.6-9.3,0c0,0,0,0,0,0c-0.6,0.6-1.6,0.6-2.2,0c-0.6-0.6-0.6-1.6,0-2.2
	c0,0,0,0,0,0c3.8-3.8,9.9-3.9,13.8-0.1s3.9,9.9,0.1,13.8C45.4,34.1,42.9,35.2,40.2,35.2L40.2,35.2z"/>
<path class="st0" d="M40.5,30c-1.2,0-2.4-0.5-3.2-1.3c-0.6-0.6-0.6-1.6,0-2.2c0,0,0,0,0,0c0.6-0.6,1.6-0.6,2.2,0
	c0.3,0.3,0.6,0.4,1,0.4c0.8,0,1.4-0.6,1.4-1.4c0-0.8-0.6-1.4-1.4-1.4c-0.4,0-0.7,0.1-1,0.4c-0.6,0.6-1.6,0.6-2.2,0
	c-0.6-0.6-0.6-1.6,0-2.2c0,0,0,0,0,0c1.8-1.8,4.6-1.8,6.4-0.1c1.8,1.8,1.8,4.6,0.1,6.4C42.9,29.5,41.7,30,40.5,30L40.5,30z"/>
<path class="st0" d="M9.6,35.2c-5.4,0-9.7-4.4-9.6-9.8c0-5.4,4.4-9.7,9.8-9.6c2.6,0,5,1,6.8,2.8c0.6,0.6,0.6,1.6,0,2.2c0,0,0,0,0,0
	c-0.6,0.6-1.6,0.6-2.2,0c-2.6-2.6-6.7-2.6-9.3,0c-2.6,2.6-2.6,6.7,0,9.3s6.7,2.6,9.3,0c0,0,0,0,0,0c0.6-0.6,1.6-0.6,2.2,0
	c0.6,0.6,0.6,1.6,0,2.2c0,0,0,0,0,0C14.7,34.2,12.2,35.2,9.6,35.2L9.6,35.2z"/>
<path class="st0" d="M9.4,30c-2.5,0-4.5-2-4.5-4.5c0-2.5,2-4.5,4.5-4.5c1.2,0,2.3,0.5,3.2,1.3c0.6,0.6,0.6,1.6,0,2.2c0,0,0,0,0,0
	c-0.6,0.6-1.6,0.6-2.2,0c-0.5-0.6-1.4-0.6-2,0c-0.6,0.5-0.6,1.4,0,2c0.3,0.3,0.6,0.4,1,0.4c0.4,0,0.7-0.1,1-0.4
	c0.6-0.6,1.6-0.6,2.2,0c0.6,0.6,0.6,1.6,0,2.2c0,0,0,0,0,0C11.8,29.5,10.6,30,9.4,30L9.4,30z"/>
</svg>
