<svg id="圖層_1" data-name="圖層 1" xmlns="http://www.w3.org/2000/svg" viewBox="0 0 1070.42 160"><path d="M183,272.89h22.17c34.14,0,55.77-16.51,61.4-54.18C272,182.1,252,166.23,219.67,166.23H159.78L135.94,325.8h39.13Zm11-73.23h6.59c15.17,0,28.12.21,25.11,20.32-2.93,19.46-16.91,19.46-31.08,19.46H188Z" transform="translate(-135.94 -165.94)" style="fill:#9c7a39"/><path d="M407.94,319,414.75,273c1.56-10.5,7-21.34,18.85-21.34s11.91,10.84,10.34,21.34L437.12,319h30l8.2-54.87c3.39-22.74-4.76-37.74-26.18-37.74-11.71,0-20.8,4.54-29.2,14.34h-.34l10-66.77h-30l-21.69,145Z" transform="translate(-135.94 -165.94)" style="fill:#9c7a39"/><path d="M527.86,321.94c27.2,0,53.52-17.31,58.07-47.74s-16.6-47.86-43.82-47.86S488.6,243.63,484,274.2,500.8,321.94,527.86,321.94Zm-12.2-47.72c1.66-11,10.13-20.26,22.34-20.26s17.9,9.27,16.26,20.25c-1.71,11.38-10.1,20.13-22.32,20.13S513.94,285.6,515.66,274.22Z" transform="translate(-135.94 -165.94)" style="fill:#9c7a39"/><path d="M602.86,229.34,589.55,319h30l6.4-42.8c1.49-10,3.75-25.17,17.11-25.17s11.09,15.17,9.6,25.17l-6.4,42.8h30l6.39-42.8c1.6-10.67,4.14-24.48,18-24.48,12.71,0,10.09,15.21,8.71,24.48L703,319h30l8.49-57.15c3-20.63-2.14-35.47-23.59-35.47a38.06,38.06,0,0,0-31.23,17.1c-4.3-11.88-14.1-17.12-26.3-17.12-10.87,0-20.24,4.16-28.82,14.16h-.34l1.69-11.14Z" transform="translate(-135.94 -165.94)" style="fill:#9c7a39"/><path d="M791.43,321.94c19.3,0,39.7-9.62,47.63-30.77H810.24c-4.18,6-9.14,8.22-15.56,8.22-12.37,0-17.76-7-15.83-19.93H842l.5-3.33c4.57-30.56-9.56-49.79-38.9-49.79-27.53,0-49.5,18-54,47.86C745,305.2,763.41,321.94,791.43,321.94Zm10.58-75c8.08,0,14.67,5.59,14.88,14.16H782.1A20.5,20.5,0,0,1,802,247Z" transform="translate(-135.94 -165.94)" style="fill:#9c7a39"/><path d="M590.32,202.34c10,0,18.23-8.3,19.69-18.15,1.41-9.62-4.33-18-14.35-18s-18.25,8.43-19.66,18.05C574.54,194.05,580.29,202.34,590.32,202.34ZM583,183.93c.82-5.59,5.84-11.17,11.72-11.17s9.26,5.61,8.44,11.17c-.78,5.19-6.13,11.8-11.82,11.8S582.2,189.12,583,183.93Z" transform="translate(-135.94 -165.94)" style="fill:#9c7a39"/><polygon points="507.76 12.15 507.85 12.15 522.41 36.15 527.24 36.15 532.41 1.09 525.71 1.09 522.3 24.22 522.21 24.22 507.64 0.22 502.81 0.22 497.62 35.5 504.32 35.5 507.76 12.15" style="fill:#9c7a39"/><polygon points="572.06 29.66 562.58 29.66 566.78 1.12 560.09 1.12 555.01 35.5 571.2 35.5 572.06 29.66" style="fill:#9c7a39"/><polygon points="607.92 1.12 601.21 1.12 596.14 35.5 602.84 35.5 607.92 1.12" style="fill:#9c7a39"/><polygon points="640.67 12.15 640.75 12.15 655.31 36.15 660.14 36.15 665.32 1.09 658.61 1.09 655.21 24.22 655.11 24.22 640.55 0.22 635.72 0.22 630.52 35.5 637.22 35.5 640.67 12.15" style="fill:#9c7a39"/><polygon points="706.57 29.66 695.48 29.66 696.85 20.37 707.53 20.37 708.39 14.53 697.72 14.53 698.83 6.96 709.93 6.96 710.79 1.12 693.01 1.12 687.92 35.5 705.7 35.5 706.57 29.66" style="fill:#9c7a39"/><path d="M282.6,303.59c12.69,14.29,30.5,22.35,50.46,22.35a64.29,64.29,0,0,0,6.94-.4c8.66-.93,16.69-3.45,27-6.65l7-47.36a51.36,51.36,0,0,1-28.14,15.52,38.42,38.42,0,0,1-6.33.59c-23.2,0-36.19-17.3-32.56-41.3,3.52-23.57,21.68-42.12,44.5-42.12a41.38,41.38,0,0,1,6.85.65h0c9.88,1.75,18.43,7.2,23.3,16.06l7.08-47.33a77.44,77.44,0,0,0-24.54-7.16h0a71.94,71.94,0,0,0-8.3-.5c-20.15,0-41.87,9.27-58.23,24.57a96.65,96.65,0,0,0-29.4,55.63C264.86,268.72,269.09,288.44,282.6,303.59Z" transform="translate(-135.94 -165.94)" style="fill:#9c7a39"/><path d="M887.31,264.88H1034.1a.9.9,0,0,0,.9-.9h0V252h0a.9.9,0,0,0-.9-.9H970.8a.9.9,0,0,1-.9-.9h0v-4.17a.9.9,0,0,1,.9-.9h51.25a.9.9,0,0,0,.9-.9h0V234.14a.9.9,0,0,0-.9-.9H970.86a.9.9,0,0,1-.9-.9h0v-4h0a.9.9,0,0,1,.86-.94h44.42a.9.9,0,0,0,.9-.9h0V210.56a.9.9,0,0,1,.9-.9h17.08a.9.9,0,0,0,.9-.9h0V197h0a.9.9,0,0,0-.9-.9H1017a.9.9,0,0,1-.9-.9h0V179.44h0a.9.9,0,0,0-.9-.9H970.8a.9.9,0,0,1-.9-.9h0V169h0a.9.9,0,0,0-.9-.9H951.09a.9.9,0,0,0-.9.9h0v8.64a.9.9,0,0,1-.9.9H904.37a.9.9,0,0,0-.9.9h0v9.63a.9.9,0,0,0,.9.9h44.92a.9.9,0,0,1,.9.9h0v4.33h0a.9.9,0,0,1-.9.9H887.48a.9.9,0,0,0-.9.9h0v11.77h0a.9.9,0,0,0,.9.9h61.81a.9.9,0,0,1,.9.9h0v4.5h0a.9.9,0,0,1-.9.9H902.55a.9.9,0,0,0-.9.9h0v9.59h0a.9.9,0,0,0,.9.9h46.77a.9.9,0,0,1,.9.9h0v4h0a.9.9,0,0,1-.9.9H898.94a.9.9,0,0,0-.9.9h0v10.17a.9.9,0,0,0,.9.9h50.37a.9.9,0,0,1,.9.9h0v4.17h0a.9.9,0,0,1-.9.9h-62a.9.9,0,0,0-.9.9h0v12a.9.9,0,0,0,.9.9Zm82.59-74a.9.9,0,0,1,.9-.9h24.87a.9.9,0,0,1,.9.9h0v4.33a.9.9,0,0,1-.9.9H970.8a.9.9,0,0,1-.9-.9h0Zm0,19.71h0a.9.9,0,0,1,.9-.9h24.87a.9.9,0,0,1,.9.9h0v4.5a.9.9,0,0,1-.9.9H970.8a.9.9,0,0,1-.9-.9h0Z" transform="translate(-135.94 -165.94)" style="fill:#9c7a39"/><path d="M1016.06,270H908a.91.91,0,0,0-.81,1v52h0a.9.9,0,0,0,.9.9h17.22a.9.9,0,0,0,.9-.9h0v-3.17h0a.9.9,0,0,1,.9-.9h69.1a.9.9,0,0,1,.9.9h0v3a.9.9,0,0,0,.9.9h18.08a.9.9,0,0,0,.9-.9h0V270.91h0a.9.9,0,0,0-.9-.9Zm-19,35.54v-.05a.9.9,0,0,1-.86.9H927.1a.9.9,0,0,1-.9-.9h0v-4.66a.9.9,0,0,1,.9-.9h69.1a.9.9,0,0,1,.9.9h0Zm0-17.89a.9.9,0,0,1-.9.9h-69.1a.9.9,0,0,1-.9-.9h0V283.5h0a.91.91,0,0,1,.94-.85h69.1a.9.9,0,0,1,.9.9h0Z" transform="translate(-135.94 -165.94)" style="fill:#9c7a39"/><path d="M1201.45,226.23h-48.89a.91.91,0,0,1-.9-.89V211.72a.9.9,0,0,0-.9-.9h-18.57a.9.9,0,0,0-.9.9h0v46.57h0a.9.9,0,0,1-.9.9h-32.66a.9.9,0,0,0-.9.9h0v60.35h0a.9.9,0,0,0,.9.9h17.58a.9.9,0,0,0,.9-.9h0v-4.66h0a.9.9,0,0,1,.9-.9h56.35a.9.9,0,0,1,.9.9h0v4.66h0a.9.9,0,0,0,.9.9h18.41a.9.9,0,0,0,.9-.9h0v-60.3a.92.92,0,0,0-.9-.9h-41.11a.9.9,0,0,1-.9-.9h0V244.85a.9.9,0,0,1,.9-.9h48.89a.9.9,0,0,0,.9-.9h0V227.13h0a.9.9,0,0,0-.9-.9Zm-28,51h0a.9.9,0,0,1,.9.9h0v18.41h0a.9.9,0,0,1-.9.9H1117.1a.9.9,0,0,1-.9-.9h0V278.13h0a.9.9,0,0,1,.9-.9h56.35Z" transform="translate(-135.94 -165.94)" style="fill:#9c7a39"/><path d="M1053.17,312.28a91.84,91.84,0,0,1,15.69,10.33l.14.1a.89.89,0,0,0,1.21-.34c14.93-26.06,17.35-66.81,17.35-93.33V206.75h0a.9.9,0,0,1,.9-.9h117a.9.9,0,0,0,.9-.9h0V188a.91.91,0,0,0-.88-.9H1152.2a.89.89,0,0,1-.85-.62,83.87,83.87,0,0,0-7.76-17.39.9.9,0,0,0-1-.41l-18,3.77-.21.07a.89.89,0,0,0-.41,1.2h0A92.75,92.75,0,0,1,1128.9,186a1.22,1.22,0,0,1,0,.27.9.9,0,0,1-.91.89h-59.77a.92.92,0,0,0-.9.9v40.85c-.43,26.35-1.66,61.28-14.52,82.12l-.06.11A.89.89,0,0,0,1053.17,312.28Z" transform="translate(-135.94 -165.94)" style="fill:#9c7a39"/></svg>