<?xml version="1.0" encoding="utf-8"?>
<svg version="1.1" id="puppy" xmlns="http://www.w3.org/2000/svg" xmlns:xlink="http://www.w3.org/1999/xlink" x="0px" y="0px"
	 width="145px" height="136px" viewBox="0 0 145 136" enable-background="new 0 0 145 136" xml:space="preserve" style="cursor:pointer">
<g id="leg-rr">
	<path fill="#D68A27" d="M127.171,117.335c-3.103,2.162-8.022,0.457-10.995-3.807c-2.975-4.26-2.873-9.469,0.227-11.631
		c3.104-2.166,8.027-0.461,11,3.802C130.376,109.962,130.271,115.171,127.171,117.335z"/>
</g>
<g id="leg-fr">
	<path fill="#D68A27" d="M55.827,103.222c-3.728-5.716-14.337-5.303-20.194-3.572c-4.25,1.256-12.333,5.766-17.597,10.521
		c-1.127-0.638-2.336-0.818-3.425-0.406c-2.469,0.938-3.388,4.571-2.051,8.121c1.26,3.354,4.078,5.43,6.467,4.865
		c9.654,1.706,27.071-4.07,27.071-4.07S62.587,113.586,55.827,103.222z"/>
</g>
<g id="tail">
	<path fill="#E49D2F" d="M119.707,97.801c-4.938,3.572-10.656,6.065-16.443,7.017c-4.229,0.693-13.721-0.076-14.168-6.166
		c-0.545-7.393,17.689-7.223,20.319-14.033c0.787-2.039,0.213-4.176-0.782-6.033c-3.055-5.704-10.564-8.146-19.627-1.639
		c-1.357,2.099-7.521,1.813-7.32-4.489c0.156-4.968,3.047-10.584,7.356-13.129c3.625-2.141,13.646-3.395,15.797,2.596
		c-0.771-2.14-0.864-4.148-2.405-6.036c-2.353-2.877-3.871-8.688,0.409-9.264c9.741-1.313,11.953,7.406,14.952,15.386
		c5.299-7.911,10.493-11.359,14.971,0.33C138.027,76.085,130.885,89.71,119.707,97.801z"/>
	<path fill="#FFF3DE" d="M111.756,42.125c5.52,3.089,6.081,10.4,6.08,10.402c-4.386-10.602-14.111-11.359-22.672-9.591
		c-8.563,1.771-12.577,9.666-12.6,13.3c8.602-5.618,15.252-2.329,16.483-0.289c-11.049-3.879-25.327,7.154-18.687,22.705
		c0.326,0.98,0.805,1.933,1.406,2.822c0,0.004,0.002,0.006,0.004,0.01l0,0c1.285,1.896,3.146,3.521,5.424,4.592
		c7.978,3.744,16.963-0.157,17.768-7.729c0.412-3.864-1.677-7.838-5.253-10.334c2.94-0.455,7.715-0.341,11.019,4.021
		c0,0,2.015-3.226-1.574-10.816c0,0,10.188,1.746,10.965,11.614c2.479-2.326,3.673-7.92,2.852-11.895
		c1.854,0.582,4.561,3.875,4.623,11.8C139.559,61.672,128.139,39.45,111.756,42.125z"/>
</g>
<g id="body">
	<g>
		<path fill="#E49D2F" d="M72.461,83.58c-4.862,2.958-11.952,2.147-11.952,2.147c-16.694-1.828-22.646,7.644-22.647,7.644
			c-6.537,8.251-2.793,21.069,5.564,26.956c7.731,5.443,21.224,6.244,30.109,5.626c9.818-0.775,20.146-1.701,28.023-8.17
			c8.978-7.366,8.838-26.203-1.396-32.738C92.882,80.392,80.123,78.92,72.461,83.58z"/>
	</g>
	<path fill="#D68A27" d="M72.461,83.581c-4.862,2.958-11.952,2.146-11.952,2.146c-4.617-0.504-8.409-0.146-11.484,0.641
		c1.3,9.1,5.364,17.396,16.051,18.656c17.096,2.021,10.753-12.676,23.191-17.854c8.006-3.333,10.381-1.805,14.521,0.028
		c-0.786-0.814-1.659-1.54-2.624-2.156C92.882,80.392,80.123,78.92,72.461,83.581z"/>
	<path fill="#FFF3DE" d="M58.557,119.405c-7.156-6.109-1.492-19.489-1.492-19.489L46.996,80.468
		c-6.934,2.743-9.712,7.356-9.713,7.357c-7.354,9.792-3.142,25.005,6.26,31.986c8.698,6.461,23.876,7.412,33.871,6.676
		c8.396-0.697,17.113-1.508,24.71-5.223C85.777,125.313,63.859,123.935,58.557,119.405z"/>
</g>
<g id="leg-lr">
	<path fill="#E49D2F" d="M132.707,112.416c-2.828-4.056-7.42-5.786-10.53-4.082c-2.149-0.908-4.495-1.752-6.845-2.521
		c-0.021-1.539-0.085-3.033-0.111-4.416c-0.197-10-11.229-19.399-21.378-19.201c-10.149,0.199-15.575,9.925-15.379,19.923
		c0.126,6.446,1.415,13.166,5.035,17.467l-1.953,2.147c0,0,1.974,0.264,5.121,0.586c1.465,0.877,3.163,1.479,5.14,1.722
		c5.877,0.712,10.289,0.435,13.615-0.531c6.391,0.108,12.883-0.163,17.809-1.245c2.918,2.725,6.697,3.565,9.248,1.787
		C135.578,121.89,135.68,116.681,132.707,112.416z"/>
</g>
<g id="scraf">
	<path fill="#699B49" d="M90.805,99.325c0,0-2.816-3.817-9.574-3.721c-6.76,0.098-8.213,3.967-8.213,3.967s0.328,0.666,1.072,1.471
		c-1.602,0.271-2.424,0.977-2.424,0.977s-0.278,5.754,6.62,8.287c6.897,2.531,9.124-0.004,9.124-0.004s-0.498-3.604-4.643-6.609
		c0.008-0.002,0.019-0.002,0.023-0.002C90.063,102.616,90.805,99.325,90.805,99.325z"/>
	<path fill="#72A950" d="M21.405,69.748c1.517,0.541,56.693,30.771,56.693,30.771c-4.603,17.842-41.679,10.307-45.965,23.002
		c-18.742-21.373-10.505-40.271-9.024-45.41"/>
	<path fill="#C9E79F" d="M45.822,91.587c0.094-0.877-0.224-1.977-1.424-2.179c-0.742-0.126-1.674,0.136-2.018,0.883
		c-0.223,0.481-0.115,0.92,0.293,1.203c0.223,0.153,0.451,0.19,0.679,0.112c0.254-0.088,0.471-0.315,0.552-0.582
		c0.077-0.252,0.344-0.396,0.596-0.314c0.253,0.077,0.395,0.344,0.317,0.598c-0.17,0.555-0.611,1.018-1.151,1.201
		c-0.517,0.18-1.063,0.1-1.536-0.229c-0.79-0.547-1.032-1.484-0.616-2.389c0.545-1.185,1.944-1.611,3.045-1.427
		c1.307,0.224,2.149,1.231,2.229,2.593c0.012,0.201,0.007,0.414-0.017,0.629c-0.169,1.588-1.448,3.209-3.297,3.178
		c-1.656-0.027-3.244-1.246-3.775-2.896c-0.081-0.251,0.058-0.52,0.309-0.601s0.52,0.057,0.601,0.308
		c0.403,1.253,1.643,2.215,2.883,2.235C44.792,93.933,45.698,92.746,45.822,91.587z M50.089,99.181
		c0.263-0.021,0.458-0.255,0.435-0.518c-0.022-0.264-0.254-0.458-0.517-0.436c-1.728,0.146-3.27,1.424-3.667,3.03
		c-0.444,1.798,0.852,3.404,2.359,3.925c0.207,0.069,0.411,0.123,0.611,0.155c1.343,0.228,2.515-0.37,3.023-1.594
		c0.429-1.031,0.323-2.491-0.708-3.286c-0.788-0.605-1.756-0.581-2.465,0.066c-0.426,0.391-0.627,0.901-0.567,1.445
		c0.063,0.566,0.413,1.104,0.915,1.391c0.229,0.133,0.521,0.055,0.652-0.176c0.131-0.229,0.054-0.521-0.175-0.65
		c-0.24-0.141-0.414-0.4-0.443-0.667c-0.026-0.239,0.063-0.454,0.262-0.638c0.366-0.334,0.817-0.342,1.237-0.019
		c0.651,0.502,0.699,1.47,0.41,2.163c-0.467,1.125-1.607,1.188-2.441,0.9c-1.103-0.379-2.057-1.526-1.744-2.791
		C47.565,100.287,48.779,99.294,50.089,99.181z M27.326,92.802c0.207,0.071,0.411,0.123,0.611,0.157
		c1.343,0.228,2.516-0.371,3.023-1.597c0.429-1.029,0.323-2.489-0.708-3.284c-0.788-0.606-1.756-0.581-2.465,0.067
		c-0.425,0.39-0.626,0.899-0.567,1.442c0.063,0.567,0.413,1.104,0.916,1.394c0.228,0.131,0.521,0.054,0.651-0.176
		c0.132-0.229,0.054-0.521-0.175-0.652c-0.24-0.137-0.414-0.398-0.443-0.666c-0.025-0.239,0.063-0.453,0.263-0.637
		c0.365-0.334,0.816-0.344,1.237-0.02c0.65,0.502,0.698,1.468,0.409,2.164c-0.467,1.125-1.607,1.188-2.441,0.898
		c-1.103-0.379-2.057-1.524-1.744-2.791c0.298-1.205,1.512-2.195,2.822-2.312c0.263-0.021,0.458-0.254,0.435-0.519
		c-0.022-0.264-0.254-0.457-0.517-0.437c-1.727,0.147-3.27,1.427-3.667,3.033C24.522,90.673,25.818,92.283,27.326,92.802z
		 M25.012,81.533c0.429-1.031,0.323-2.491-0.709-3.286c-0.392-0.303-0.828-0.447-1.255-0.438l0.061,0.299
		c-0.06,0.207-0.133,0.441-0.212,0.691c0.267-0.064,0.551-0.011,0.824,0.199c0.651,0.502,0.699,1.468,0.41,2.164
		c-0.436,1.049-1.455,1.17-2.268,0.947c-0.085,0.293-0.171,0.6-0.257,0.914c0.128,0.035,0.257,0.076,0.383,0.1
		C23.332,83.354,24.503,82.757,25.012,81.533z M35.732,79.47c-0.196,0.098-0.377,0.203-0.543,0.321
		c-1.109,0.79-1.516,2.041-1.01,3.267c0.427,1.031,1.534,1.988,2.826,1.82c0.986-0.128,1.651-0.831,1.693-1.792
		c0.026-0.575-0.194-1.081-0.621-1.423c-0.446-0.355-1.071-0.486-1.631-0.335c-0.255,0.067-0.405,0.331-0.337,0.585
		c0.068,0.255,0.331,0.404,0.585,0.337c0.268-0.072,0.575-0.01,0.785,0.158c0.188,0.149,0.277,0.362,0.266,0.635
		c-0.022,0.495-0.337,0.817-0.863,0.888c-0.815,0.105-1.533-0.544-1.82-1.238c-0.465-1.125,0.296-1.979,1.089-2.363
		c1.048-0.514,2.533-0.375,3.207,0.736c0.641,1.063,0.486,2.623-0.36,3.629c-0.17,0.203-0.145,0.506,0.058,0.676
		c0.202,0.17,0.503,0.145,0.673-0.061c1.115-1.326,1.304-3.316,0.447-4.738C39.219,78.991,37.166,78.771,35.732,79.47z
		 M40.607,111.039c-1.24-0.021-2.479-0.981-2.883-2.235c-0.08-0.251-0.35-0.389-0.601-0.308s-0.389,0.351-0.308,0.603
		c0.53,1.648,2.118,2.867,3.775,2.896c1.848,0.029,3.127-1.592,3.297-3.18c0.022-0.217,0.027-0.426,0.016-0.629
		c-0.079-1.357-0.923-2.369-2.229-2.593c-1.101-0.188-2.5,0.242-3.045,1.427c-0.416,0.901-0.174,1.84,0.617,2.389
		c0.474,0.326,1.019,0.406,1.535,0.229c0.54-0.188,0.981-0.646,1.151-1.201c0.077-0.252-0.064-0.521-0.316-0.599
		c-0.252-0.078-0.52,0.063-0.597,0.313c-0.081,0.268-0.298,0.494-0.552,0.582c-0.228,0.078-0.456,0.041-0.679-0.111
		c-0.408-0.282-0.515-0.723-0.293-1.203c0.345-0.747,1.275-1.009,2.018-0.883c1.2,0.204,1.518,1.302,1.424,2.179
		C42.815,109.876,41.909,111.063,40.607,111.039z M20.318,93.579c-0.015-0.174-0.124-0.311-0.268-0.38
		c-0.008,0.278-0.006,0.565-0.008,0.85C20.219,93.967,20.336,93.785,20.318,93.579z M51.583,88.056
		c0.206,0.07,0.41,0.122,0.611,0.156c0.896,0.15,1.71-0.07,2.308-0.595c-0.31-0.171-0.62-0.339-0.932-0.509
		c-0.52,0.266-1.158,0.224-1.677,0.043c-0.841-0.289-1.59-1.024-1.762-1.92c-0.328-0.181-0.655-0.355-0.983-0.535
		C49.067,86.256,50.235,87.591,51.583,88.056z M21.419,95.376c-0.429-0.331-0.91-0.467-1.375-0.423
		c0.006,0.317,0.017,0.642,0.031,0.967c0.249-0.042,0.509,0.021,0.761,0.213c0.651,0.502,0.699,1.47,0.41,2.164
		c-0.198,0.479-0.521,0.756-0.888,0.905c0.042,0.32,0.093,0.648,0.145,0.977c0.722-0.225,1.305-0.744,1.625-1.516
		C22.557,97.631,22.452,96.171,21.419,95.376z M59.109,112.965c0.361-1.694-0.408-3.543-1.831-4.394
		c-1.587-0.946-3.505-0.178-4.44,1.113c-0.128,0.178-0.238,0.355-0.328,0.539c-0.608,1.219-0.38,2.514,0.643,3.355
		c0.27,0.223,0.599,0.398,0.951,0.523c0.902-0.166,1.805-0.334,2.706-0.511c0.561-0.573,0.703-1.366,0.347-2.112
		c-0.247-0.521-0.68-0.859-1.217-0.963c-0.562-0.104-1.174,0.072-1.598,0.471c-0.192,0.181-0.202,0.479-0.022,0.676
		c0.181,0.191,0.482,0.203,0.675,0.021c0.202-0.188,0.504-0.276,0.768-0.229c0.237,0.044,0.416,0.188,0.532,0.437
		c0.214,0.446,0.089,0.881-0.345,1.188c-0.67,0.479-1.608,0.24-2.188-0.238c-0.939-0.771-0.668-1.885-0.15-2.599
		c0.685-0.944,2.061-1.521,3.179-0.854c1.064,0.635,1.661,2.086,1.387,3.373c-0.044,0.209,0.058,0.407,0.232,0.508
		c0.209-0.043,0.417-0.088,0.625-0.133C59.068,113.089,59.095,113.028,59.109,112.965z M22.187,81.149
		c0.229,0.134,0.521,0.055,0.652-0.174c0.131-0.229,0.053-0.521-0.176-0.651c-0.078-0.046-0.134-0.118-0.195-0.188
		c-0.1,0.313-0.204,0.645-0.311,0.991C22.168,81.135,22.176,81.146,22.187,81.149z M32.305,96.92
		c-1.108,0.79-1.516,2.041-1.009,3.267c0.426,1.031,1.533,1.988,2.825,1.82c0.986-0.128,1.651-0.831,1.694-1.792
		c0.025-0.573-0.195-1.081-0.622-1.422c-0.445-0.356-1.07-0.485-1.631-0.336c-0.254,0.067-0.405,0.331-0.337,0.585
		c0.068,0.255,0.331,0.404,0.586,0.337c0.267-0.071,0.575-0.01,0.784,0.158c0.188,0.149,0.277,0.364,0.266,0.635
		c-0.022,0.495-0.336,0.819-0.863,0.888c-0.814,0.105-1.532-0.543-1.819-1.238c-0.466-1.125,0.295-1.979,1.088-2.363
		c1.048-0.514,2.534-0.375,3.207,0.736c0.642,1.063,0.486,2.623-0.36,3.633c-0.17,0.199-0.144,0.503,0.058,0.673
		c0.202,0.169,0.504,0.146,0.673-0.06c1.116-1.328,1.304-3.318,0.447-4.736c-0.956-1.583-3.01-1.807-4.443-1.104
		C32.652,96.694,32.471,96.802,32.305,96.92z M25.053,110.088c1.344,0.228,2.516-0.37,3.024-1.595
		c0.429-1.031,0.323-2.491-0.708-3.286c-0.787-0.606-1.755-0.581-2.465,0.067c-0.425,0.39-0.626,0.899-0.566,1.442
		c0.062,0.569,0.412,1.104,0.915,1.394c0.229,0.133,0.521,0.054,0.652-0.176c0.131-0.229,0.053-0.521-0.176-0.65
		c-0.239-0.139-0.413-0.4-0.442-0.667c-0.026-0.24,0.062-0.454,0.262-0.638c0.365-0.334,0.816-0.344,1.237-0.02
		c0.65,0.502,0.699,1.471,0.41,2.164c-0.468,1.125-1.607,1.188-2.442,0.898c-1.103-0.379-2.057-1.524-1.743-2.791
		c0.297-1.203,1.511-2.195,2.822-2.312c0.263-0.022,0.457-0.254,0.435-0.517c-0.023-0.264-0.254-0.459-0.517-0.438
		c-1.728,0.148-3.27,1.426-3.668,3.032c-0.039,0.153-0.047,0.308-0.061,0.458c0.271,0.82,0.585,1.654,0.924,2.496
		c0.421,0.438,0.943,0.775,1.497,0.969C24.649,110.002,24.853,110.054,25.053,110.088z M71.792,97.065
		c-0.157,0.547-0.13,1.145,0.113,1.732c0.428,1.032,1.535,1.989,2.828,1.821c0.983-0.127,1.648-0.831,1.69-1.792
		c0.026-0.575-0.192-1.08-0.618-1.424c-0.152-0.12-0.328-0.205-0.515-0.271c-0.442,0.282-0.812,0.572-1.104,0.855
		c0.076,0.019,0.152,0.023,0.232,0.004c0.27-0.072,0.575-0.012,0.785,0.156c0.188,0.149,0.275,0.365,0.268,0.637
		c-0.021,0.494-0.339,0.816-0.863,0.887c-0.813,0.104-1.53-0.543-1.818-1.236c-0.133-0.322-0.157-0.617-0.118-0.893
		C72.392,97.396,72.089,97.229,71.792,97.065z M87.043,99.329c-0.273,1.104,0.114,2.133,0.801,2.886
		c0.319-0.163,0.596-0.328,0.852-0.493c-0.576-0.546-0.932-1.326-0.725-2.162c0.166-0.677,0.627-1.275,1.225-1.703
		c-0.254-0.182-0.541-0.363-0.857-0.549C87.707,97.84,87.234,98.544,87.043,99.329z M22.87,76.937
		c0.207-0.064,0.351-0.262,0.332-0.484c-0.022-0.266-0.254-0.458-0.517-0.438c-0.001,0-0.002,0-0.003,0L22.87,76.937z
		 M28.502,116.784c0.426,1.031,1.533,1.988,2.825,1.82c0.986-0.127,1.651-0.832,1.694-1.793c0.025-0.574-0.195-1.08-0.622-1.422
		c-0.445-0.356-1.07-0.486-1.631-0.334c-0.254,0.065-0.405,0.327-0.337,0.584c0.068,0.256,0.331,0.403,0.586,0.338
		c0.267-0.072,0.575-0.013,0.784,0.155c0.188,0.151,0.277,0.365,0.266,0.638c-0.022,0.496-0.336,0.816-0.863,0.888
		c-0.814,0.104-1.532-0.543-1.819-1.239c-0.466-1.125,0.295-1.979,1.089-2.363c1.047-0.513,2.533-0.375,3.206,0.738
		c0.642,1.063,0.486,2.622-0.36,3.629c-0.17,0.202-0.144,0.503,0.059,0.674c0.201,0.17,0.503,0.146,0.672-0.059
		c1.116-1.327,1.304-3.32,0.447-4.738c-0.956-1.583-3.01-1.804-4.443-1.104c-0.195,0.097-0.377,0.205-0.543,0.32
		C28.403,114.31,27.996,115.56,28.502,116.784z M60.162,91.442c-1.588-0.947-3.505-0.178-4.441,1.113
		c-0.128,0.176-0.237,0.354-0.328,0.536c-0.607,1.222-0.379,2.517,0.644,3.357c0.861,0.71,2.288,1.032,3.351,0.278
		c0.811-0.576,1.066-1.511,0.653-2.377c-0.248-0.521-0.68-0.86-1.217-0.965c-0.563-0.104-1.175,0.073-1.598,0.471
		c-0.192,0.182-0.203,0.48-0.022,0.677c0.18,0.19,0.482,0.2,0.675,0.021c0.202-0.188,0.503-0.279,0.768-0.229
		c0.236,0.045,0.416,0.189,0.532,0.438c0.213,0.446,0.088,0.881-0.345,1.188c-0.67,0.478-1.608,0.24-2.189-0.238
		c-0.938-0.771-0.668-1.885-0.149-2.6c0.685-0.943,2.061-1.521,3.178-0.854c1.065,0.637,1.662,2.088,1.388,3.372
		c-0.056,0.261,0.109,0.515,0.367,0.567c0.258,0.055,0.512-0.11,0.566-0.368C62.354,94.142,61.583,92.293,60.162,91.442z
		 M30.177,75.862c0.207,0.07,0.411,0.123,0.611,0.156c0.693,0.115,1.339,0.01,1.874-0.285c-0.396-0.215-0.795-0.433-1.178-0.639
		c-0.341,0.025-0.689-0.029-0.997-0.138c-0.598-0.206-1.145-0.646-1.477-1.197c-0.426-0.229-0.838-0.45-1.236-0.666
		C27.972,74.396,29.005,75.46,30.177,75.862z M47.73,115.261c-0.022-0.263-0.254-0.458-0.517-0.435
		c-0.926,0.079-1.791,0.489-2.463,1.094c0.966-0.221,1.96-0.43,2.976-0.63C47.727,115.278,47.731,115.272,47.73,115.261z
		 M90.348,100.207c-0.043-0.088-0.091-0.177-0.102-0.271c-0.025-0.24,0.063-0.455,0.263-0.64c0.058-0.052,0.119-0.082,0.179-0.116
		c-0.123-0.146-0.351-0.393-0.688-0.689c-0.045,0.033-0.091,0.063-0.134,0.104c-0.427,0.391-0.628,0.902-0.567,1.445
		c0.037,0.333,0.182,0.646,0.389,0.913C89.969,100.687,90.188,100.433,90.348,100.207z M64.806,106.642
		c-1.24-0.021-2.479-0.98-2.883-2.236c-0.081-0.25-0.35-0.389-0.601-0.309c-0.251,0.08-0.39,0.35-0.309,0.604
		c0.531,1.648,2.119,2.867,3.775,2.896c1.849,0.031,3.128-1.591,3.297-3.177c0.022-0.217,0.027-0.428,0.017-0.63
		c-0.08-1.359-0.923-2.369-2.229-2.594c-1.101-0.188-2.5,0.24-3.045,1.427c-0.416,0.901-0.174,1.84,0.616,2.387
		c0.475,0.327,1.02,0.409,1.536,0.229c0.54-0.188,0.981-0.646,1.151-1.201c0.077-0.253-0.064-0.52-0.316-0.598
		c-0.253-0.078-0.52,0.063-0.597,0.314c-0.081,0.268-0.298,0.493-0.552,0.581c-0.228,0.079-0.456,0.041-0.679-0.11
		c-0.408-0.283-0.515-0.723-0.293-1.203c0.344-0.746,1.275-1.011,2.018-0.885c1.2,0.204,1.518,1.303,1.424,2.182
		C67.013,105.478,66.107,106.663,64.806,106.642z M77.456,101.058c1.112-1.328,1.304-3.32,0.444-4.738
		c-0.053-0.088-0.118-0.153-0.18-0.232c-0.347,0.1-0.669,0.204-0.969,0.318c0.123,0.119,0.234,0.254,0.331,0.408
		c0.642,1.063,0.483,2.621-0.36,3.629c-0.168,0.201-0.145,0.502,0.062,0.672C76.984,101.284,77.287,101.257,77.456,101.058z
		 M77.352,109.185c0.86,0.709,2.287,1.033,3.354,0.278c0.813-0.576,1.064-1.509,0.65-2.377c-0.248-0.521-0.681-0.86-1.217-0.964
		c-0.563-0.105-1.175,0.072-1.599,0.47c-0.192,0.181-0.202,0.482-0.022,0.677c0.185,0.19,0.482,0.201,0.676,0.021
		c0.201-0.188,0.507-0.279,0.771-0.229c0.236,0.045,0.416,0.189,0.532,0.438c0.214,0.445,0.088,0.88-0.348,1.188
		c-0.67,0.478-1.605,0.239-2.188-0.24c-0.938-0.772-0.668-1.883-0.148-2.598c0.688-0.945,2.063-1.521,3.181-0.854
		c1.063,0.636,1.659,2.086,1.388,3.374c-0.056,0.258,0.105,0.512,0.367,0.563c0.258,0.055,0.512-0.106,0.563-0.365
		c0.361-1.695-0.408-3.543-1.83-4.396c-1.588-0.948-3.506-0.178-4.438,1.113c-0.128,0.176-0.235,0.354-0.328,0.539
		C76.1,107.044,76.329,108.339,77.352,109.185z"/>
	<g opacity="0.4">
		<path fill="#396B30" d="M78.361,96.976c-1.137,6.76-16.486,10.783-31.367,8.278C32.112,102.749,22.17,90.619,23.308,83.86
			c1.138-6.76,15.289-6.164,30.171-3.658C68.359,82.707,79.501,90.217,78.361,96.976z"/>
	</g>
</g>
<g id="leg-fl">
	<path fill="#E49D2F" d="M77.525,113.276c-4.174-5.396-14.714-4.129-20.417-1.936c-4.135,1.596-11.829,6.738-16.693,11.904
		c-1.174-0.544-2.394-0.629-3.446-0.13c-2.386,1.13-3.009,4.827-1.39,8.261c1.525,3.239,4.501,5.082,6.837,4.328
		c9.76,0.923,26.656-6.237,26.656-6.237S85.102,123.063,77.525,113.276z"/>
</g>
<g id="head">
	<g>
		<path fill="#E49D2F" d="M18.163,47.513c0.265-1.058,0.535-2.114,0.812-3.167c2.53-9.633,4.976-19.987,9.513-28.886
			c5.714-11.208,20.19,7.532,24.026,12.418"/>
		<path fill="#FFF3DE" d="M19.614,44.527c1.174-5.141,5.688-33.401,14.96-28.099c4.85,2.776,10.562,11.542,10.562,11.542
			S32.51,31.816,19.614,44.527z"/>
		<path fill="#B79177" d="M38.731,30.682c-2.075-4.018-4.69-8.06-6.83-8.103c-2.613-0.052-4.78,8.187-4.998,14.719
			C31.287,34.282,35.379,32.154,38.731,30.682z"/>
		<path fill="#E49D2F" d="M88.326,67.154c0.335-1.035,0.66-2.075,0.984-3.115c2.967-9.508,6.383-19.586,7.254-29.535
			c1.102-12.533-21.107-4.32-26.958-2.214"/>
		<path fill="#FFF3DE" d="M89.313,64.04c1.736-4.979,13.017-31.302,2.002-31.817c-5.754-0.267-15.498,4.065-15.498,4.065
			S84.837,46.341,89.313,64.04z"/>
		<path fill="#B79177" d="M79.811,41.979c3.893-2.307,8.25-4.346,10.086-3.248c2.244,1.343-0.287,9.477-3.565,15.13
			C84.212,48.979,81.872,45.005,79.811,41.979z"/>
	</g>
	<path fill="#E49D2F" d="M87.797,55.029c-2.98-14.185-13.773-23.086-26.937-26.862c-12.711-3.647-26.243-2.126-35.963,8.037
		c-7.821,8.178-12.971,21.741-13.838,33.016c-1.328,17.271,20.117,27.67,32.862,31.325c9.209,2.646,23.939,3.222,32.69-4.478
		c2.992-2.631,5.57-5.795,7.518-9.283C89.303,77.509,89.936,65.209,87.797,55.029z"/>
	<path fill="#FFF3DE" d="M76.611,96.067c0.322-0.281,0.619-0.596,0.934-0.892c0.264-1.396-0.719-2.665-1.879-3.435
		c-0.438-0.291-0.889-0.491-1.348-0.635c-1.434-0.444-2.949-0.317-4.491-0.633c-4.696-0.955-7.045-6.076-9.312-9.76
		c-2.885-4.689-5.663-9.37-11.385-10.839c-7.179-1.843-13.271,2.985-20.08,4.146c-2.919,0.498-5.86,0.123-8.518-1.193
		c-1.547-0.769-2.765-1.967-4.644-1.65c-2.692,0.453-3.85,3.163-3.884,5.688C15.44,87.114,27.07,94.209,37.078,98.192
		c0.158,0.063,0.315,0.127,0.473,0.188c2.253,0.879,4.415,1.602,6.371,2.162C53.13,103.188,67.861,103.767,76.611,96.067z"/>
	<circle fill="#523A1E" cx="34.598" cy="64.141" r="4.372"/>
	<path fill="#523A1E" d="M69.222,75.24c-0.665,2.319-3.087,3.661-5.41,2.995c-2.317-0.666-3.659-3.088-2.992-5.406
		c0.665-2.321,3.087-3.664,5.405-2.998C68.548,70.498,69.888,72.919,69.222,75.24z"/>
	<path fill="#DD6558" d="M30.573,70.759c-0.543,1.882-3.451,2.697-6.495,1.823c-3.051-0.875-5.084-3.11-4.545-4.992
		c0.54-1.881,3.451-2.695,6.499-1.822C29.081,66.645,31.111,68.877,30.573,70.759z"/>
	<path fill="#DD6558" d="M75.721,85.224c-0.541,1.883-3.45,2.697-6.498,1.822c-3.047-0.875-5.079-3.107-4.539-4.988
		c0.538-1.885,3.446-2.699,6.493-1.824C74.229,81.104,76.26,83.34,75.721,85.224z"/>
	<path fill="#FFF3DE" d="M70.171,64.523c0.037,2.351-1.842,4.284-4.191,4.321l-2.3,0.035c-2.354,0.036-4.285-1.84-4.323-4.191l0,0
		c-0.036-2.35,1.839-4.286,4.19-4.322l2.301-0.035C68.2,60.296,70.133,62.172,70.171,64.523L70.171,64.523z"/>
	<path fill="#FFF3DE" d="M43.063,58.354c-1.071,2.093-3.638,2.921-5.73,1.85l-2.049-1.048c-2.092-1.072-2.92-3.638-1.848-5.73l0,0
		c1.072-2.09,3.637-2.92,5.729-1.849l2.047,1.047C43.305,53.695,44.134,56.26,43.063,58.354L43.063,58.354z"/>
	<path fill="#E49D2F" d="M60.625,80.33c-1.482,4.292-8.828,6.631-16.068,4.433c-5.752-1.744-11.314-9.09-9.832-13.381
		s8.482-5.769,15.635-3.296C57.513,70.559,62.107,76.039,60.625,80.33z"/>
	<path fill="none" stroke="#523A1E" stroke-width="3.3978" stroke-linecap="round" stroke-linejoin="round" d="M33.409,82.256
		c0,0,3.015,5.853,11.529,2.601c0,0,3.152,6.597,10.481,4.722"/>
	<g>
		<path fill="#523A1E" d="M54.745,82.681c-1.1,2.879-5.662,3.813-10.188,2.082c-4.525-1.728-7.302-5.463-6.203-8.343
			c1.102-2.881,5.658-3.816,10.185-2.088C53.066,76.06,55.842,79.796,54.745,82.681z"/>
		
			<ellipse transform="matrix(0.9343 0.3566 -0.3566 0.9343 30.7332 -11.5792)" fill="#7C5935" cx="46.774" cy="77.57" rx="4.779" ry="2.093"/>
	</g>
	<g>
		<path d="M70.386,26.704"/>
		<path fill="#FFE600" d="M76.794,20.671c-4.029,0.612-10.734-2.076-10.734-2.076s-6.708-2.688-9.194-5.913
			c-2.488-3.226-9.121-3.967-11.435,4.662c-2.235,8.354,2.591,16.285,12.938,20.433c10.345,4.148,19.316,1.752,23.471-5.832
			C86.13,24.105,80.816,20.059,76.794,20.671"/>
		<path fill="#FFCE00" d="M77.292,20.87c-0.76,0.116-2.655,0.041-2.733,0.042c-0.227-2.462-1.125-5.755-5.446-7.56
			c4.684,1.955,0.189,6.735-3.025,7.313c-3.213,0.577-10.369-1.428-6.865-5.348c-1.839,0.025-3.151,0.504-3.528,1.45
			c-0.828,2.063,3.034,5.554,8.632,7.798c2.577,1.034,7.242,0.61,9.334,2.06c3.641,2.524,0.114,9.297-6.091,10.01
			c-10.255,1.177-26.695-8.489-21.776-18.458c-3.684,7.465,2.987,15.754,13.073,19.797c10.346,4.15,19.313,1.752,23.468-5.832
			C86.625,24.303,81.314,20.258,77.292,20.87"/>
		<path fill="#FFE600" d="M77.18,22.277c0.209,2.814-0.758,4.106-3.152,4.073c-4.32-0.059-12.007-1.104-18.987-6.877
			c-1.95-1.612-1.856-2.791-0.193-4.873c2.242-2.798,6.591-6.205,13.582-3.763C75.658,13.367,76.908,18.577,77.18,22.277"/>
		<path fill="#FFF59A" d="M59.676,13.544c0,0,3.075-2.044,5.7-0.972c2.625,1.071,3.549,2.274-0.369,3.503
			C61.087,17.299,55.976,15.684,59.676,13.544"/>
		<path fill="#FFCE00" d="M77.188,22.253c-0.33-4.474-2.455-8.585-6.688-10.517c3.48,4.759,5.361,11.61-2.516,11.979
			c-4.699,0.218-9.663-2.438-13.543-4.823c0.175,0.184,0.373,0.365,0.605,0.56c6.979,5.771,14.666,6.817,18.991,6.878
			C76.432,26.361,77.396,25.068,77.188,22.253"/>
	</g>
</g>

<script xlink:href="https://s0.2mdn.net/ads/studio/cached_libs/tweenmax_1.20.4_3dc5474a75410cb768741e402b80d908_min.js" />
<script>
<![CDATA[
	eval(function(p,a,c,k,e,d){e=function(c){return c};if(!''.replace(/^/,String)){while(c--){d[c]=k[c]||c}k=[function(e){return d[e]}];e=function(){return'\\w+'};c=1};while(c--){if(k[c]){p=p.replace(new RegExp('\\b'+e(c)+'\\b','g'),k[c])}}return p}('37.40("39",11(){6.4("#35",.2,{9:5,7:"0% 32%",19:17,25:-1,14:22.24});6.4("#34",.8,{9:-2,7:"10% 41%",19:17,25:-1,14:22.24});11 28(){6.4("#21",.1,{18:-1,9:2.5,7:"10% 26%",16:3,14:23.36,42:11(){6.4("#13-30",.15,{9:12,7:"10% 20%"});6.4("#13-27",.1,{9:15,7:"10% 20%",16:.29})},31:11(){6.4("#21",.1,{18:0,9:0,7:"10% 26%",14:23.33,31:11(){6.4("#13-30",.15,{9:0,7:"10% 20%"});6.4("#13-27",.1,{9:0,7:"10% 20%",16:.29});28()}})}})}},38);',10,43,'||||to||TweenMax|transformOrigin||rotation|50|function||leg|ease||delay|true|y|yoyo||puppy|Linear|Power1|easeNone|repeat|90|fl|puppyJump|05|fr|onComplete|100|easeIn|head|tail|easeOut|window|false|load|addEventListener|85|onStart'.split('|'),0,{}))
]]>
</script>

</svg>
