<?xml version="1.0" encoding="utf-8"?>
<svg version="1.1" xmlns="http://www.w3.org/2000/svg" x="0px" y="0px" viewBox="0 0 40 40">
<path fill-rule="evenodd" clip-rule="evenodd" fill="#FFFFFF" d="M38.53,27.7c-2.375,5.591-6.768,9.58-12.846,11.477
	c-0.981,0.306-2.036,0.435-3.129,0.634c-0.555,0.043-1.109,0.087-1.664,0.131c-0.764,0.127-2.049,0.026-2.714-0.088
	c-0.642-0.08-1.284-0.16-1.925-0.24c-1.459-0.322-2.802-0.716-4.027-1.245c-5.521-2.387-9.454-6.614-11.336-12.636
	c-0.667-2.137-1.2-5.665-0.678-8.438c0.257-1.364,0.442-2.676,0.897-3.847C3.415,7.514,7.284,3.472,13.209,1.161
	c1.18-0.46,2.477-0.693,3.852-0.962c0.715-0.065,1.43-0.131,2.145-0.196c9.936-0.144,16.527,5.507,19.368,12.416
	C40.479,17.055,40.485,23.096,38.53,27.7z M35.116,12.966c-2.141-4.855-6.333-8.143-12.103-9.378
	c-1.149-0.247-2.443-0.234-3.83-0.24c-0.569,0.059-1.138,0.116-1.707,0.175c-1.101,0.217-2.153,0.438-3.107,0.809
	C9.443,6.247,6.208,9.602,4.303,14.54c-0.374,0.968-0.556,2.046-0.766,3.169c-0.45,2.409,0.016,5.239,0.591,7.083
	c1.591,5.104,4.933,8.568,9.651,10.559c1.117,0.472,2.341,0.809,3.698,1.071c0.569,0.051,1.138,0.102,1.707,0.153
	c0.577,0.007,1.152,0.015,1.729,0.021c1.309-0.199,2.495-0.252,3.611-0.591c5.113-1.55,8.796-4.8,10.811-9.443
	c0.483-1.112,0.834-2.312,1.116-3.629C37.244,19.242,36.245,15.526,35.116,12.966z M10.649,22.313
	c-0.368,0.607-0.136,1.376,0.087,1.945c0.527,1.348,1.236,2.726,2.276,3.563c1.293,1.04,2.505,1.945,4.333,2.492
	c5.035,1.506,9.404-1.447,11.205-4.372c0.46-0.747,0.937-1.644,1.116-2.646c0.269-1.504-1.656-2.232-2.713-1.464
	c-0.634,0.461-0.79,1.64-1.204,2.317c-0.947,1.548-3.512,3.635-6.368,3.146c-2.199-0.375-3.715-1.257-4.771-2.754
	c-0.775-1.098-0.81-3.066-2.626-3.061C11.368,21.737,10.97,21.785,10.649,22.313z M29.092,15.16c0,1.81-0.485,3.275-2.182,3.275
	s-2.182-1.466-2.182-3.275c0-1.808,0.727-3.273,2.182-3.273C28.364,11.887,29.092,13.353,29.092,15.16z M15.516,15.16
	c0,1.81-0.485,3.275-2.182,3.275s-2.182-1.466-2.182-3.275c0-1.808,0.727-3.273,2.182-3.273
	C14.789,11.887,15.516,13.353,15.516,15.16z"/>
</svg>
