<?xml version="1.0" encoding="utf-8"?>
<svg version="1.1" xmlns="http://www.w3.org/2000/svg" xmlns:xlink="http://www.w3.org/1999/xlink" x="0px" y="0px"
	 width="50px" height="50px" viewBox="0 0 50 50" enable-background="new 0 0 50 50" xml:space="preserve">
<path fill-rule="evenodd" clip-rule="evenodd" fill="#FFFFFF" d="M25,0c13.807,0,25,11.193,25,25S38.807,50,25,50S0,38.807,0,25
	S11.193,0,25,0z M24.938,3c12.181,0,22.055,9.85,22.055,22s-9.874,22-22.055,22S2.883,37.15,2.883,25S12.757,3,24.938,3z
	 M26.357,37.809c-0.064,0.026-0.136,0.021-0.202,0.042C25.922,37.926,25.687,38,25.429,38s-0.493-0.074-0.727-0.149
	c-0.066-0.021-0.138-0.016-0.202-0.042c-0.303-0.127-0.576-0.311-0.804-0.544c-0.001-0.001-0.003-0.002-0.004-0.003l-8.074-8.25
	c-0.955-0.977-0.955-2.56,0-3.535c0.956-0.977,2.514-0.977,3.469,0L23,29.465V15.5c0-1.381,1.148-2.5,2.5-2.5s2.5,1.119,2.5,2.5
	v13.965l3.84-3.988c0.957-0.977,2.475-0.977,3.43,0c0.956,0.976,0.94,2.559-0.016,3.535l-8.081,8.25
	c-0.001,0.001-0.007,0.002-0.007,0.003C26.938,37.498,26.66,37.682,26.357,37.809z"/>
</svg>
