<?xml version="1.0" encoding="utf-8"?>
<svg version="1.1" xmlns="http://www.w3.org/2000/svg" x="0px" y="0px" viewBox="0 0 41 46" >
<path fill-rule="evenodd" clip-rule="evenodd" fill="#FFFFFF" d="M24.879,5.406c1.55-0.008,4.568-0.313,5.219,0.54
	c0.499,0.652,0.265,3.127,0.265,4.273c0,3.101,0,6.202,0,9.302c0,0.899,0,1.799,0,2.698c0,0.444,0.046,0.972-0.088,1.295
	c-0.496,1.188-2.691,0.842-4.36,0.842c-4.536,0-9.074,0-13.61,0c-1.288-0.24-1.189-1.389-1.189-2.892c0-1.683,0-3.367,0-5.05
	c0-2.489,0-4.979,0-7.467c0-1.008-0.167-2.43,0.287-3.022C12.033,5.1,15.109,5.4,16.621,5.406c-0.009-0.787-0.067-1.697,0.11-2.331
	c0.52-1.86,2.628-3.701,5.263-2.871c0.487,0.154,0.95,0.412,1.322,0.691C24.57,1.837,24.89,3.181,24.879,5.406z M19.374,5.406
	c0.91,0,1.821,0,2.73,0c0.023-1.232,0.065-2.111-0.748-2.525c-0.181-0.092-0.475-0.208-0.793-0.152
	C19.343,2.945,19.35,3.968,19.374,5.406z M13.89,8.104c0,4.517,0,9.036,0,13.554c4.573,0,9.147,0,13.721,0c0-4.518,0-9.037,0-13.554
	c-0.911,0-1.821,0-2.731,0c0.022,1.239,0.046,2.13-0.771,2.546c-0.186,0.095-0.485,0.21-0.815,0.151
	c-1.216-0.219-1.213-1.259-1.189-2.698c-0.91,0-1.82,0-2.73,0c0.023,1.289,0.063,2.223-0.859,2.59
	c-0.17,0.067-0.441,0.161-0.727,0.108c-1.207-0.226-1.191-1.262-1.167-2.698C15.71,8.104,14.8,8.104,13.89,8.104z M39.018,21.658
	c1.221-0.034,2.382,0.593,1.85,1.856c-2.261,4.208-4.522,8.417-6.783,12.626c-1.295,2.019-3.292,3.478-5.968,4.144
	c-1.406,0.35-3.314,0.237-5.043,0.237c-2.885,0-5.771,0-8.655,0c-1.373,1.338-2.746,2.677-4.118,4.015
	c-0.501,0.491-1.009,1.299-1.828,1.446c-0.979,0.177-1.713-0.924-2.158-1.36c-1.629-1.59-3.26-3.18-4.889-4.77
	c-0.463-0.453-1.648-1.215-1.388-2.223c0.167-0.644,0.791-1.033,1.211-1.446c0.969-0.949,1.938-1.899,2.907-2.849
	c1.049-1.029,2.1-2.058,3.149-3.086c1.1-1.078,2.066-2.176,3.656-2.784c1.619-0.62,4.225-0.432,6.453-0.432
	c4.096,0,8.193,0,12.289,0c1.25-2.251,3.786-4.067,6.497-4.899c0.583-0.179,1.208-0.277,1.85-0.388
	C38.372,21.715,38.695,21.687,39.018,21.658z M37.058,24.701c-0.549,0.304-1.195,0.393-1.718,0.691
	c-1.348,0.769-2.483,1.76-3.304,3.043c-0.594,1.093-1.189,2.187-1.784,3.281c-1.087,1.832-1.368,3.009-3.986,3.41
	c-0.815,0-1.629,0-2.444,0c-1.828,0-3.656,0-5.484,0c-1.648,0-2.918,0.146-3.105-1.295c-0.034-0.258,0.093-0.512,0.176-0.669
	c0.432-0.819,1.349-0.734,2.62-0.734c2.738-0.007,5.477-0.015,8.215-0.022c0.944-0.217,1.558-1.847,1.96-2.654
	c-3.707,0-7.415,0-11.122,0c-1.738,0-4.043-0.229-5.307,0.302c-1.15,0.483-1.924,1.497-2.753,2.309
	c-1.894,1.849-3.789,3.698-5.682,5.547c1.637,1.604,3.274,3.209,4.911,4.813c0.257-0.251,0.514-0.503,0.771-0.755
	c1.064-1.029,2.129-2.057,3.193-3.086c0.375-0.367,0.724-0.879,1.3-1.036c0.374-0.015,0.749-0.029,1.123-0.043
	c0.756,0,1.513,0,2.269,0c2.305,0,4.61,0,6.915,0c1.443,0,2.998,0.076,4.096-0.259c3.476-1.06,4.605-4.23,6.145-7.165
	c0.771-1.424,1.542-2.849,2.313-4.274C36.48,25.904,37.097,24.758,37.058,24.701z"/>
</svg>
