<?xml version="1.0" encoding="utf-8"?>
<svg version="1.1" id="puppy" xmlns="http://www.w3.org/2000/svg" xmlns:xlink="http://www.w3.org/1999/xlink" x="0px" y="0px"
	 width="145px" height="135px" viewBox="0 0 145 135" enable-background="new 0 0 145 135" xml:space="preserve" style="cursor:pointer">
<g id="tail">
	<path fill="#E49D2F" d="M105.445,96.43c-5.727,1.036-11.684,0.819-17.059-0.754c-3.935-1.148-11.781-5.732-9.652-11.162
		c2.586-6.589,18.218,1.094,23.298-3.688c1.521-1.432,1.905-3.506,1.815-5.521c-0.271-6.171-5.729-11.376-16.225-9.516
		c-2.036,1.244-7.225-1.546-4.445-6.891c2.188-4.214,6.993-7.855,11.758-8.268c4.006-0.344,13.151,2.718,12.528,8.763
		c0.224-2.159,0.972-3.931,0.425-6.19c-0.836-3.45,0.256-9.081,4.182-7.81c8.931,2.896,7.23,11.316,6.519,19.427
		c7.831-4.623,13.729-5.446,12.753,6.468C130.193,85.3,118.415,94.081,105.445,96.43z"/>
	<path fill="#FFF3DE" d="M121.604,45.206c3.478,4.939,0.938,11.468,0.938,11.469c0.604-10.938-7.458-15.612-15.563-17.624
		c-8.104-2.012-14.821,3.125-16.34,6.246c9.727-1.284,14.094,4.296,14.313,6.563c-7.915-7.905-24.771-4.307-25.476,11.829
		c-0.125,0.979-0.104,1.992,0.043,3.007c0,0.005,0,0.009,0,0.014h0.002c0.322,2.163,1.252,4.332,2.772,6.195
		c5.319,6.52,14.668,6.873,18.49,0.687c1.95-3.157,1.793-7.437-0.251-11.062c2.722,0.821,6.779,2.886,7.822,8.008
		c0,0,3.063-1.945,3.112-9.963c0,0,8.05,5.712,4.642,14.527c3.098-0.979,6.437-5.303,7.367-9.062
		c1.354,1.267,2.323,5.219-0.896,12.07C137.465,73.521,136.813,49.669,121.604,45.206z"/>
</g>
<g id="leg-rr">
	<path fill="#D68A27" d="M107.248,103.087c-2.611-7.821-6.359-15.979-14.377-19.75c-5.104-2.396-10.98,0.815-13.916,5.194
		c-3.564,5.324-2.296,10.111,1.123,14.672c2.746,3.664,7.886,7.018,10.939,10.463c2.092,2.357,4.562,5.789,7.461,8.182
		c-1.232,1.896-1.539,3.875-0.594,5.237c1.502,2.17,5.604,1.94,9.158-0.512c2.334-1.609,3.846-3.775,4.188-5.688
		C112.682,115.907,108.29,106.209,107.248,103.087z"/>
</g>
<g id="leg-fr">
	<path fill="#E49D2F" d="M52.396,108.865l-10.88-26.418c-6.004,3.02-6.101,18.751-6.101,18.751s-2.009,12.7-0.633,21.854
		c-1.693,0.499-2.951,1.568-3.292,3.021c-0.605,2.567,1.897,5.362,5.588,6.237c3.662,0.871,7.117-0.473,7.762-3.002
		C49.354,123.083,52.396,108.865,52.396,108.865z"/>
</g>
<g id="body">
	<path fill="#E49D2F" d="M35.23,88.305c-1.29,2.024-2.226,4.209-2.658,6.545c-1.328,7.188,0.115,15.822,5.547,21.18
		c2.055,2.023,4.682,3.443,7.613,3.984c8.477,1.563,16.724,0.604,24.959-1.111c5.575-1.156,12.901-2.245,18.131-4.551
		c6.965-3.063,10.447-11.313,11.109-18.088c0.805-8.229-2.604-15.035-11.105-17.596c-5.438-1.637-11.629-1.257-16.753-4.057
		c-6.525-3.563-14.015-2.957-20.606,0.388C45.525,78.014,38.929,82.502,35.23,88.305z"/>
	<path fill="#FFF3DE" d="M80.982,111.809c-3.355,0.783-6.776,1.236-10.203,1.601c-2.304,0.241-6.806,1.532-8.922,0.362
		c-4.951-2.734-1.472-8.773-0.342-12.701c1.236-4.299,2.373-21.967,7.997-23.612l-36.73,10.786c0,0,2.372,3.967,3.939,14.025
		c1.019,6.537,4.476,13.305,10.286,17.062c7.388,4.774,16.536,3.017,24.531,0.892c5.958-1.582,12.352-2.795,17.977-5.343
		c1.326-0.603,2.573-1.487,3.721-2.595C92.354,110.759,86.898,110.426,80.982,111.809z"/>
</g>
<g id="leg-rl">
	<path fill="#E49D2F" d="M112.02,101.08c-1.063-1.771-2.195-3.551-3.438-5.25c-0.563-1.755-1.286-3.396-2.124-4.824
		c-3.159-5.39-7.719-10.249-13.723-12.461c-10.358-3.818-16.783,0.688-18.825,7.707c-1.134,3.896-0.917,8.57,0.729,13.023
		c3.186,8.617,11.809,20.674,22.754,19.89c1.934-0.14,3.604-0.56,5.043-1.198c1.594,1.213,3.299,2.42,5.062,3.321
		c-0.797,2.114-0.667,4.116,0.548,5.244c1.938,1.795,5.895,0.688,8.835-2.476c1.933-2.07,2.94-4.511,2.866-6.449
		C120.085,112.436,113.707,103.904,112.02,101.08z"/>
</g>
<g id="leg-fl">
	<path fill="#E49D2F" d="M73.447,105.327l-8.532-16.149c-6.773,0.827-11.754,9.772-13.181,15.711
		c-1.036,4.313-1.167,13.563,0.323,20.5c-1.114,0.656-1.876,1.612-2.063,2.764c-0.424,2.604,2.268,5.22,6.012,5.834
		c3.533,0.582,6.738-0.821,7.444-3.172C69.749,123.302,73.447,105.327,73.447,105.327z"/>
</g>
<g id="scraf">
	<path fill="#699B49" d="M88.846,79.927c0.008-0.003,0.016-0.005,0.021-0.008c6.772-2.853,6.672-6.224,6.672-6.224
		s-3.679-2.995-10.2-1.215c-6.521,1.776-6.965,5.891-6.965,5.891s0.484,0.563,1.404,1.156c-1.482,0.66-2.104,1.549-2.104,1.549
		s1.166,5.643,8.479,6.375c7.312,0.73,8.834-2.278,8.834-2.278S93.604,81.807,88.846,79.927z"/>
	<path fill="#72A950" d="M20.958,62.358c1.604,0.146,62.574,15.659,62.574,15.659c-0.007,18.426-37.791,20.373-38.775,33.736
		C21.274,95.732,24.54,75.374,24.691,70.031"/>
	<path fill="#C9E79F" d="M27.958,64.015c0.439,0.107,0.893,0.22,1.363,0.336c0.46,0.455,1.098,0.74,1.729,0.791
		c0.324,0.026,0.675-0.006,1-0.114c0.424,0.104,0.859,0.214,1.299,0.323c-0.444,0.418-1.043,0.685-1.744,0.743
		c-0.202,0.018-0.412,0.02-0.63,0C29.741,65.997,28.475,65.22,27.958,64.015z M54.748,72.563c0.218,0.02,0.429,0.02,0.631,0
		c0.906-0.076,1.639-0.494,2.087-1.149c-0.342-0.086-0.685-0.174-1.029-0.261c-0.438,0.387-1.066,0.505-1.613,0.459
		c-0.886-0.068-1.796-0.598-2.186-1.42c-0.361-0.092-0.723-0.184-1.085-0.271C51.86,71.448,53.327,72.449,54.748,72.563z
		 M72.187,87.262c-1.207,0.289-2.646-0.332-3.351-1.443c-0.141-0.226-0.436-0.291-0.657-0.147c-0.225,0.142-0.29,0.438-0.149,0.659
		c0.926,1.466,2.768,2.25,4.379,1.863c1.797-0.433,2.632-2.319,2.399-3.897c-0.031-0.216-0.08-0.421-0.144-0.614
		c-0.417-1.297-1.483-2.063-2.806-1.953c-1.113,0.096-2.361,0.856-2.594,2.142c-0.179,0.979,0.291,1.825,1.191,2.157
		c0.541,0.197,1.089,0.143,1.545-0.16c0.477-0.315,0.788-0.872,0.814-1.451c0.013-0.264-0.191-0.486-0.455-0.499
		c-0.264-0.013-0.486,0.192-0.499,0.455c-0.012,0.274-0.165,0.551-0.389,0.7c-0.201,0.134-0.433,0.152-0.687,0.06
		c-0.466-0.171-0.679-0.569-0.584-1.091c0.147-0.809,0.983-1.295,1.733-1.357c1.214-0.102,1.792,0.881,1.921,1.756
		C74.033,85.585,73.453,86.959,72.187,87.262z M56.076,83.708c0.249-0.087,0.38-0.36,0.292-0.608
		c-0.088-0.25-0.36-0.381-0.608-0.293c-1.636,0.575-2.812,2.195-2.796,3.854c0.019,1.849,1.674,3.084,3.264,3.21
		c0.218,0.018,0.429,0.018,0.631,0c1.357-0.116,2.344-0.986,2.531-2.299c0.157-1.104-0.309-2.491-1.506-3.004
		c-0.915-0.396-1.845-0.125-2.37,0.68c-0.314,0.48-0.382,1.029-0.188,1.541c0.201,0.535,0.674,0.964,1.233,1.119
		c0.253,0.068,0.517-0.079,0.587-0.333c0.071-0.255-0.078-0.519-0.332-0.589c-0.267-0.073-0.5-0.283-0.595-0.535
		c-0.086-0.229-0.054-0.455,0.095-0.684c0.271-0.416,0.706-0.533,1.193-0.324c0.756,0.322,1.044,1.246,0.938,1.992
		c-0.173,1.205-1.261,1.553-2.141,1.479c-1.162-0.092-2.372-0.966-2.385-2.269C53.907,85.409,54.833,84.145,56.076,83.708z
		 M35.576,95.21c-0.914-0.392-1.845-0.125-2.37,0.681c-0.314,0.482-0.382,1.03-0.188,1.541c0.202,0.535,0.675,0.965,1.233,1.119
		c0.254,0.071,0.517-0.078,0.588-0.333c0.07-0.254-0.078-0.517-0.333-0.587c-0.267-0.074-0.5-0.285-0.595-0.535
		c-0.085-0.227-0.054-0.455,0.095-0.683c0.271-0.415,0.706-0.534,1.194-0.325c0.755,0.324,1.043,1.248,0.937,1.993
		c-0.173,1.206-1.261,1.552-2.141,1.479c-1.162-0.093-2.372-0.965-2.385-2.269c-0.012-1.24,0.916-2.505,2.157-2.94
		c0.249-0.086,0.38-0.357,0.292-0.605c-0.087-0.249-0.36-0.38-0.608-0.292c-1.636,0.575-2.812,2.192-2.795,3.853
		c0.001,0.159,0.03,0.312,0.055,0.459c0.468,0.729,0.98,1.457,1.518,2.188c0.517,0.317,1.107,0.521,1.69,0.563
		c0.217,0.02,0.428,0.02,0.63,0c1.357-0.113,2.344-0.984,2.531-2.299C37.24,97.111,36.771,95.725,35.576,95.21z M81.492,76.802
		c-0.119-0.563-0.459-0.997-0.957-1.223c-0.18-0.08-0.369-0.118-0.563-0.138c-0.359,0.385-0.645,0.757-0.856,1.104
		c0.077-0.001,0.155-0.014,0.229-0.055c0.237-0.139,0.555-0.153,0.799-0.042c0.221,0.099,0.356,0.282,0.416,0.549
		c0.103,0.483-0.121,0.876-0.615,1.073c-0.764,0.307-1.619-0.146-2.07-0.745c-0.209-0.278-0.307-0.56-0.336-0.833
		c-0.313-0.079-0.639-0.162-0.971-0.247c-0.02,0.569,0.158,1.141,0.543,1.651c0.671,0.895,1.979,1.543,3.188,1.061
		C81.223,78.59,81.688,77.743,81.492,76.802z M88.323,83.566c-0.369-0.44-0.873-0.664-1.421-0.629
		c-0.568,0.035-1.116,0.361-1.43,0.854c-0.144,0.223-0.076,0.518,0.146,0.659c0.222,0.141,0.52,0.075,0.658-0.146
		c0.147-0.234,0.418-0.396,0.687-0.414c0.241-0.018,0.451,0.082,0.625,0.291c0.318,0.379,0.306,0.828-0.036,1.234
		c-0.531,0.628-1.498,0.634-2.181,0.313c-1.104-0.518-1.117-1.655-0.793-2.479c0.427-1.085,1.614-1.986,2.862-1.62
		c1.19,0.353,2.131,1.606,2.187,2.921c0.013,0.266,0.231,0.469,0.497,0.457c0.266-0.011,0.471-0.232,0.457-0.496
		c-0.072-1.729-1.277-3.33-2.869-3.798c-1.771-0.521-3.438,0.701-4.021,2.188c-0.08,0.203-0.142,0.402-0.184,0.604
		c-0.285,1.332,0.26,2.529,1.461,3.092c1.012,0.477,2.475,0.435,3.313-0.563C88.923,85.271,88.938,84.305,88.323,83.566z
		 M92.854,74.626c-0.006-0.694,0.289-1.394,0.763-1.953c-0.291-0.112-0.616-0.219-0.97-0.315c-0.479,0.675-0.754,1.473-0.748,2.277
		c0.012,1.139,0.644,2.037,1.496,2.598c0.269-0.235,0.494-0.469,0.701-0.689C93.396,76.156,92.857,75.489,92.854,74.626z
		 M57.189,99.577c-0.876,0.308-1.613,0.921-2.112,1.674c0.88-0.455,1.791-0.905,2.726-1.353c-0.002-0.012,0-0.021-0.004-0.029
		C57.71,99.62,57.438,99.489,57.189,99.577z M48.371,80.25c-1.206,0.289-2.646-0.333-3.349-1.445
		c-0.141-0.223-0.436-0.289-0.659-0.146c-0.223,0.141-0.289,0.436-0.148,0.657c0.926,1.468,2.768,2.25,4.379,1.863
		c1.798-0.431,2.633-2.318,2.4-3.896c-0.032-0.22-0.079-0.423-0.142-0.615c-0.416-1.297-1.484-2.063-2.806-1.954
		c-1.112,0.094-2.36,0.855-2.593,2.141c-0.178,0.979,0.29,1.824,1.192,2.156c0.54,0.199,1.089,0.145,1.544-0.16
		c0.477-0.313,0.789-0.873,0.815-1.449c0.012-0.267-0.192-0.486-0.455-0.5c-0.264-0.014-0.487,0.189-0.499,0.457
		c-0.013,0.272-0.165,0.551-0.39,0.697c-0.2,0.133-0.431,0.152-0.686,0.063c-0.465-0.172-0.678-0.569-0.583-1.092
		c0.146-0.813,0.983-1.297,1.733-1.358c1.213-0.104,1.794,0.882,1.922,1.755C50.215,78.572,49.637,79.947,48.371,80.25z
		 M68.248,94.809c-0.073-1.729-1.279-3.326-2.869-3.797c-1.774-0.521-3.438,0.701-4.023,2.188c-0.08,0.202-0.141,0.403-0.184,0.604
		c-0.284,1.33,0.26,2.527,1.461,3.09c0.317,0.147,0.68,0.238,1.053,0.271c0.832-0.387,1.664-0.771,2.491-1.168
		c0.399-0.696,0.34-1.499-0.189-2.133c-0.37-0.441-0.874-0.665-1.419-0.631c-0.571,0.037-1.119,0.361-1.431,0.854
		c-0.141,0.226-0.075,0.521,0.146,0.659c0.223,0.143,0.519,0.076,0.659-0.146c0.149-0.231,0.418-0.396,0.687-0.414
		c0.24-0.017,0.45,0.082,0.625,0.291c0.317,0.379,0.305,0.83-0.038,1.235c-0.53,0.628-1.498,0.636-2.18,0.313
		c-1.103-0.517-1.116-1.656-0.793-2.479c0.428-1.085,1.616-1.983,2.865-1.618c1.188,0.353,2.129,1.604,2.184,2.92
		c0.01,0.215,0.158,0.383,0.354,0.437c0.191-0.095,0.381-0.19,0.572-0.286C68.239,94.938,68.249,94.875,68.248,94.809z
		 M63.627,74.62c1.189,0.35,2.128,1.604,2.185,2.921c0.011,0.264,0.232,0.468,0.497,0.457c0.263-0.012,0.468-0.234,0.457-0.497
		c-0.073-1.731-1.28-3.329-2.869-3.797c-1.773-0.522-3.438,0.701-4.023,2.187c-0.079,0.202-0.141,0.403-0.183,0.604
		c-0.285,1.332,0.259,2.528,1.46,3.091c1.011,0.473,2.474,0.432,3.313-0.563c0.642-0.763,0.658-1.729,0.041-2.467
		c-0.37-0.439-0.874-0.666-1.419-0.631c-0.571,0.037-1.119,0.364-1.43,0.854c-0.142,0.223-0.076,0.519,0.146,0.656
		c0.222,0.146,0.518,0.076,0.659-0.146c0.148-0.233,0.418-0.396,0.686-0.413c0.24-0.016,0.451,0.082,0.625,0.29
		c0.317,0.38,0.305,0.831-0.038,1.237c-0.53,0.628-1.497,0.634-2.18,0.313c-1.103-0.516-1.116-1.656-0.793-2.479
		C61.19,75.155,62.378,74.252,63.627,74.62z M50.073,98.486c1.798-0.432,2.632-2.32,2.4-3.898c-0.032-0.216-0.079-0.421-0.142-0.615
		c-0.416-1.297-1.484-2.063-2.806-1.953c-1.112,0.095-2.36,0.857-2.593,2.143c-0.178,0.979,0.29,1.824,1.192,2.156
		c0.54,0.197,1.089,0.144,1.544-0.158c0.477-0.316,0.789-0.873,0.815-1.452c0.012-0.265-0.192-0.485-0.455-0.499
		c-0.264-0.014-0.487,0.191-0.499,0.455c-0.013,0.275-0.166,0.551-0.39,0.699c-0.2,0.135-0.432,0.152-0.686,0.061
		c-0.465-0.171-0.678-0.566-0.583-1.091c0.146-0.81,0.983-1.295,1.733-1.356c1.213-0.104,1.794,0.883,1.922,1.756
		c0.17,1.15-0.411,2.524-1.678,2.83c-1.206,0.289-2.646-0.334-3.349-1.445c-0.141-0.225-0.436-0.289-0.659-0.147
		c-0.223,0.144-0.289,0.438-0.148,0.659C46.62,98.087,48.458,98.871,50.073,98.486z M45.496,106.938
		c0.749-1.563,0.435-3.537-0.749-4.696c-1.32-1.296-3.364-0.996-4.578,0.038c-0.166,0.144-0.314,0.291-0.445,0.445
		c-0.877,1.041-0.959,2.354-0.163,3.414c0.67,0.896,1.981,1.543,3.19,1.063c0.924-0.37,1.393-1.217,1.194-2.157
		c-0.119-0.563-0.459-0.998-0.957-1.224c-0.521-0.234-1.158-0.203-1.663,0.082c-0.229,0.13-0.311,0.421-0.181,0.648
		c0.13,0.23,0.422,0.313,0.651,0.18c0.24-0.135,0.555-0.149,0.799-0.039c0.221,0.1,0.359,0.281,0.416,0.55
		c0.102,0.481-0.121,0.877-0.614,1.071c-0.764,0.309-1.62-0.145-2.072-0.744c-0.73-0.977-0.207-1.988,0.465-2.563
		c0.887-0.757,2.36-0.995,3.29-0.083c0.886,0.868,1.125,2.418,0.556,3.604c-0.114,0.238-0.014,0.521,0.225,0.639
		C45.096,107.275,45.378,107.176,45.496,106.938z M41.314,90.428c0.924-0.369,1.393-1.216,1.194-2.154
		c-0.119-0.563-0.459-0.998-0.957-1.226c-0.521-0.233-1.158-0.204-1.663,0.082c-0.229,0.13-0.31,0.421-0.18,0.651
		c0.129,0.229,0.421,0.31,0.65,0.18c0.24-0.136,0.555-0.152,0.8-0.042c0.22,0.099,0.359,0.284,0.415,0.549
		c0.103,0.485-0.121,0.876-0.614,1.074c-0.764,0.306-1.62-0.144-2.072-0.746c-0.73-0.974-0.206-1.989,0.465-2.562
		c0.887-0.76,2.36-0.995,3.29-0.084c0.886,0.867,1.125,2.418,0.556,3.604c-0.113,0.238-0.014,0.521,0.225,0.639
		c0.237,0.112,0.523,0.016,0.637-0.226c0.75-1.563,0.435-3.54-0.749-4.7c-1.32-1.294-3.364-0.996-4.578,0.039
		c-0.165,0.143-0.314,0.291-0.445,0.446c-0.877,1.042-0.959,2.354-0.163,3.415C38.794,90.262,40.105,90.913,41.314,90.428z
		 M95.148,74.426c-0.084-0.226-0.053-0.455,0.098-0.682c0.042-0.064,0.095-0.109,0.146-0.159c-0.156-0.108-0.438-0.291-0.842-0.498
		c-0.033,0.045-0.07,0.085-0.104,0.134c-0.314,0.482-0.383,1.029-0.188,1.541c0.117,0.313,0.334,0.581,0.604,0.787
		c0.209-0.332,0.354-0.631,0.455-0.889C95.251,74.588,95.186,74.516,95.148,74.426z M81.624,74.682
		c0.89,0.869,1.125,2.418,0.56,3.605c-0.113,0.238-0.018,0.521,0.225,0.637c0.236,0.114,0.523,0.016,0.637-0.225
		c0.75-1.563,0.438-3.54-0.749-4.699c-0.071-0.07-0.153-0.12-0.229-0.182c-0.313,0.18-0.6,0.361-0.856,0.552
		C81.354,74.454,81.495,74.555,81.624,74.682z M32.289,77.046c0.249-0.087,0.38-0.36,0.292-0.608
		c-0.087-0.25-0.359-0.381-0.608-0.293c-1.636,0.575-2.811,2.195-2.795,3.854c0.018,1.849,1.673,3.084,3.264,3.21
		c0.217,0.018,0.428,0.018,0.63,0c1.357-0.116,2.344-0.986,2.531-2.298c0.158-1.104-0.309-2.493-1.506-3.005
		c-0.914-0.396-1.845-0.125-2.37,0.68c-0.314,0.482-0.382,1.03-0.188,1.541c0.202,0.535,0.675,0.964,1.233,1.119
		c0.254,0.068,0.518-0.079,0.588-0.333c0.07-0.254-0.078-0.521-0.333-0.588c-0.267-0.074-0.5-0.284-0.595-0.536
		c-0.085-0.229-0.053-0.455,0.095-0.684c0.271-0.416,0.706-0.533,1.194-0.322c0.756,0.322,1.043,1.246,0.937,1.99
		c-0.172,1.207-1.261,1.555-2.141,1.48c-1.162-0.092-2.372-0.966-2.384-2.27C30.12,78.747,31.044,77.482,32.289,77.046z
		 M39.835,73.121c0.923-0.37,1.392-1.216,1.193-2.157c-0.118-0.563-0.459-0.998-0.957-1.223c-0.521-0.235-1.158-0.204-1.663,0.082
		c-0.229,0.129-0.31,0.421-0.18,0.647c0.13,0.229,0.421,0.313,0.65,0.184c0.241-0.139,0.555-0.153,0.8-0.043
		c0.22,0.1,0.359,0.285,0.415,0.55c0.103,0.483-0.121,0.876-0.614,1.073c-0.764,0.307-1.62-0.146-2.071-0.745
		c-0.731-0.976-0.207-1.988,0.464-2.563c0.887-0.757,2.36-0.994,3.29-0.084c0.886,0.869,1.125,2.417,0.556,3.605
		c-0.113,0.236-0.014,0.521,0.225,0.637c0.238,0.114,0.523,0.016,0.637-0.227c0.75-1.562,0.435-3.539-0.749-4.698
		c-1.32-1.294-3.364-0.996-4.577,0.04c-0.166,0.142-0.314,0.291-0.445,0.444c-0.878,1.042-0.959,2.354-0.164,3.417
		C37.315,72.955,38.625,73.605,39.835,73.121z M27.289,91.143c0.121,0.303,0.252,0.605,0.383,0.909
		c0.644-0.396,1.079-1.047,1.197-1.872c0.158-1.104-0.309-2.494-1.506-3.006c-0.498-0.213-0.998-0.225-1.438-0.064
		c0.085,0.308,0.177,0.615,0.271,0.93c0.23-0.104,0.498-0.107,0.79,0.018c0.756,0.322,1.043,1.246,0.937,1.992
		C27.851,90.557,27.604,90.906,27.289,91.143z M25.146,72.874c0.07-0.254-0.079-0.517-0.333-0.588
		c-0.086-0.024-0.159-0.081-0.235-0.131c-0.019,0.325-0.037,0.672-0.054,1.036c0.012,0.004,0.022,0.012,0.034,0.015
		C24.812,73.277,25.076,73.128,25.146,72.874z M25.493,85.407c0.062,0.271,0.135,0.55,0.205,0.825
		c0.151-0.123,0.219-0.33,0.15-0.523C25.791,85.544,25.648,85.439,25.493,85.407z M27.39,72.872
		c0.158-1.104-0.309-2.493-1.506-3.005c-0.455-0.195-0.914-0.228-1.325-0.109l0.134,0.274c-0.006,0.215-0.019,0.463-0.033,0.725
		c0.242-0.132,0.531-0.146,0.848-0.012c0.755,0.324,1.043,1.248,0.937,1.992c-0.161,1.125-1.118,1.498-1.96,1.483
		c-0.009,0.308-0.016,0.622-0.021,0.948c0.133,0.002,0.268,0.012,0.395,0C26.213,75.055,27.202,74.184,27.39,72.872z M24.167,68.957
		c0.183-0.117,0.275-0.34,0.2-0.555c-0.087-0.248-0.36-0.379-0.609-0.291c-0.001,0-0.001,0-0.002,0L24.167,68.957z"/>
	<g opacity="0.4">
		<path fill="#396B30" d="M79.563,76.213c0.584,6.829-13.279,14.555-28.315,15.84c-15.035,1.285-27.688-7.979-28.271-14.811
			c-0.583-6.831,13.27-9.782,28.305-11.067C66.313,64.892,78.979,69.385,79.563,76.213z"/>
	</g>
</g>
<g id="head">
	<g>
		<path fill="#E49D2F" d="M13.496,49.292c-0.098-0.998-0.191-1.996-0.277-2.992c-0.79-9.121-1.876-18.841-0.701-27.942
			c1.479-11.471,19.806,0.272,24.638,3.314"/>
		<path fill="#FFF3DE" d="M13.828,46.259c-0.573-4.812-5.409-30.671,4.258-28.948c5.056,0.903,12.711,6.726,12.711,6.726
			S21.059,31.269,13.828,46.259z"/>
		<path fill="#B79177" d="M26.089,28.36c-3.04-2.836-6.553-5.524-8.418-4.9c-2.278,0.764-1.605,8.564,0.227,14.286
			C20.763,33.781,23.646,30.672,26.089,28.36z"/>
		<path fill="#E49D2F" d="M80.298,44.588c-0.028-1-0.065-2.001-0.106-3.001c-0.373-9.146-0.534-18.927-2.856-27.808
			c-2.927-11.188-19.606,2.791-24.018,6.421"/>
		<path fill="#FFF3DE" d="M80.188,41.587c-0.035-4.847,1.582-31.118-8.105-28.159c-5.063,1.549-12.159,8.313-12.159,8.313
			S70.84,27.653,80.188,41.587z"/>
		<path fill="#B79177" d="M65.143,25.433c2.651-3.198,5.797-6.313,7.725-5.932c2.358,0.468,2.682,8.291,1.59,14.199
			C71.118,30.129,67.86,27.416,65.143,25.433z"/>
	</g>
	<path fill="#E49D2F" d="M76.09,34.258c-6.965-11.354-19.063-15.722-31.625-14.919c-12.131,0.774-23.372,6.277-28.641,18.08
		c-4.24,9.498-4.501,22.832-1.765,32.856C18.251,85.63,40.03,88.003,52.193,87.223c8.788-0.561,21.717-4.617,26.911-13.984
		c1.775-3.203,3.026-6.74,3.635-10.361C84.35,53.25,81.089,42.409,76.09,34.258z"/>
	<path fill="#FFF3DE" d="M79.104,73.238c0.189-0.346,0.354-0.707,0.528-1.062c-0.204-1.291-1.444-2.083-2.688-2.391
		c-0.471-0.116-0.92-0.149-1.357-0.133c-1.38,0.059-2.652,0.638-4.085,0.844c-4.359,0.626-7.977-3.08-11.078-5.567
		c-3.948-3.166-7.8-6.356-13.207-5.858c-6.783,0.625-10.563,6.688-16.098,9.8c-2.372,1.333-5.034,1.917-7.742,1.602
		c-1.577-0.188-3.001-0.85-4.53,0.008c-2.19,1.227-2.354,3.929-1.603,6.123c6.143,7.81,18.404,10.354,28.298,10.705
		c0.156,0.006,0.313,0.012,0.468,0.019c2.222,0.063,4.316,0.021,6.184-0.101C60.981,86.666,73.911,82.605,79.104,73.238z"/>
	<path fill="#DD6558" d="M28.451,65.071c-0.062,1.799-2.472,3.178-5.381,3.08c-2.916-0.097-5.229-1.634-5.17-3.433
		c0.061-1.798,2.473-3.177,5.386-3.08C26.2,61.737,28.507,63.272,28.451,65.071z"/>
	<path fill="#DD6558" d="M74.951,65.115c0.109,1.796-2.152,3.401-5.061,3.587c-2.909,0.185-5.358-1.119-5.473-2.915
		c-0.117-1.797,2.147-3.402,5.056-3.588C72.384,62.013,74.833,63.317,74.951,65.115z"/>
	<path fill="#E49D2F" d="M60.396,64.562c0.045,4.175-5.59,8.472-12.536,8.809c-5.519,0.269-12.604-4.368-12.648-8.541
		c-0.045-4.173,5.558-7.616,12.513-7.689C54.681,57.065,60.354,60.39,60.396,64.562z"/>
	<g>
		<path d="M52.259,15.125"/>
		<path fill="#FFE600" d="M55.939,7.921c-3.299,1.776-9.934,1.524-9.934,1.524s-6.64-0.254-9.788-2.275
			c-3.152-2.021-9.122-0.611-8.456,7.573c0.65,7.922,7.28,13.294,17.519,13.683c10.237,0.392,17.264-4.46,18.51-12.309
			C65.083,8.006,59.232,6.147,55.939,7.921"/>
		<path fill="#FFCE00" d="M56.434,7.94c-0.622,0.336-2.286,0.855-2.353,0.883c-0.958-2.063-2.754-4.633-7.053-4.857
			c4.658,0.244,2.248,5.771-0.357,7.267c-2.603,1.493-9.416,1.972-7.597-2.507c-1.583,0.593-2.57,1.412-2.604,2.35
			c-0.079,2.042,4.345,3.868,9.884,4.079c2.551,0.099,6.458-1.711,8.715-1.104c3.933,1.061,2.979,8.011-2.175,10.548
			c-8.513,4.19-25.732,0.91-24.559-9.239c-0.878,7.6,7.46,12.711,17.44,13.092c10.238,0.392,17.259-4.459,18.508-12.31
			C65.573,8.024,59.728,6.167,56.434,7.94"/>
		<path fill="#FFE600" d="M56.771,9.192c1.05,2.375,0.614,3.791-1.469,4.504c-3.761,1.287-10.737,2.759-18.565-0.08
			c-2.187-0.792-2.47-1.842-1.675-4.157C36.139,6.343,38.848,2.049,45.655,2C52.699,1.953,55.392,6.076,56.771,9.192"/>
		<path fill="#FFF59A" d="M38.917,7.047c0,0,2.029-2.72,4.633-2.604c2.604,0.114,3.776,0.871,0.764,3.146
			C41.303,9.862,36.376,10.044,38.917,7.047"/>
		<path fill="#FFCE00" d="M56.771,9.169c-1.669-3.771-4.78-6.672-9.043-7.034c4.487,3.042,8.235,8.394,1.529,11.147
			c-4.001,1.641-9.118,0.877-13.215,0.015c0.207,0.104,0.436,0.201,0.696,0.295c7.826,2.836,14.803,1.365,18.565,0.079
			C57.388,12.96,57.824,11.542,56.771,9.169"/>
	</g>
	<circle fill="#523A1E" cx="32.039" cy="61.381" r="4.019"/>
	<path fill="#FFF3DE" d="M61.299,49.199c0.749,2.024-0.291,4.276-2.316,5.026L57,54.957c-2.029,0.749-4.276-0.289-5.026-2.315l0,0
		c-0.748-2.025,0.287-4.275,2.313-5.025l1.984-0.732C58.299,46.132,60.548,47.17,61.299,49.199L61.299,49.199z"/>
	<path fill="#FFF3DE" d="M38.525,52.833c-0.29,2.142-2.263,3.642-4.404,3.351L32.024,55.9c-2.14-0.291-3.64-2.264-3.35-4.404l0,0
		c0.292-2.141,2.263-3.641,4.403-3.353l2.094,0.284C37.315,48.718,38.816,50.688,38.525,52.833L38.525,52.833z"/>
	<g>
		<g>
			
				<ellipse transform="matrix(0.9997 0.0264 -0.0264 0.9997 1.854 -1.2163)" fill="#523A1E" cx="47.004" cy="69.625" rx="8.066" ry="5.13"/>
			
				<ellipse transform="matrix(0.9996 0.0265 -0.0265 0.9996 1.8148 -1.2111)" fill="#7C5935" cx="46.583" cy="67.836" rx="4.393" ry="1.923"/>
		</g>
		<g>
			<path fill="none" stroke="#523A1E" stroke-width="3.1231" stroke-linecap="round" stroke-linejoin="round" d="M36.413,75.968
				c0,0,4.398,4.153,10.789-1.263c0,0,4.745,4.756,10.528,0.895"/>
		</g>
		<path fill="#523A1E" d="M55.555,77.611c0.109,1.693-3.684,4.734-9.152,4.541c-4.115-0.146-7.081-2.605-7.189-4.301
			c-0.109-1.692,3.243-1.588,7.354-1.854C50.673,75.736,55.443,75.917,55.555,77.611z"/>
		<g id="tongue">
			<path fill="#FF809E" d="M41.479,79.833c0.945-2.315,3.518-2.678,5.779-1.108c0.971-1.972,3.818-1.606,4.984-0.893
				c1.904,1.17,1.053,3.488-0.078,4.893c-1.493,1.854-3.594,2.428-5.842,2.364C42.725,84.989,40.75,81.616,41.479,79.833z"/>
			<path fill="#F76991" d="M47.244,78.716c-0.589-0.405-1.196-0.674-1.792-0.815c0.602,0.435,1.06,3.25,1.073,3.173
				C46.54,80.99,46.458,79.752,47.244,78.716z"/>
		</g>
	</g>
	
		<polyline fill="none" stroke="#523A1E" stroke-width="3.1231" stroke-linecap="round" stroke-linejoin="round" stroke-miterlimit="10" points="
		63.92,56.521 54.766,60.894 65.346,62.146 	"/>
</g>

<script xlink:href="https://s0.2mdn.net/ads/studio/cached_libs/tweenmax_1.20.4_3dc5474a75410cb768741e402b80d908_min.js" />
<script>
<![CDATA[
	eval(function(p,a,c,k,e,d){e=function(c){return c};if(!''.replace(/^/,String)){while(c--){d[c]=k[c]||c}k=[function(e){return d[e]}];e=function(){return'\\w+'};c=1};while(c--){if(k[c]){p=p.replace(new RegExp('\\b'+e(c)+'\\b','g'),k[c])}}return p}('39.40("42",13(){6.4("#44",.2,{9:5,7:"0% 36%",17:16,18:-1,11:22.21});6.4("#32",.8,{9:-2,7:"10% 34%",17:16,18:-1,11:22.21});6.4("#35",.2,{43:.8,17:16,18:-1,11:22.21});13 29(){6.4("#23",.1,{26:-1,9:2.5,7:"10% 25%",19:3,11:24.37,41:13(){6.4("#14-30",.15,{9:12,7:"10% 20%"});6.4("#14-28",.1,{9:15,7:"10% 20%",19:.27})},31:13(){6.4("#23",.1,{26:0,9:0,7:"10% 25%",11:24.33,31:13(){6.4("#14-30",.15,{9:0,7:"10% 20%"});6.4("#14-28",.1,{9:0,7:"10% 20%",19:.27});29()}})}})}},38);',10,45,'||||to||TweenMax|transformOrigin||rotation|50|ease||function|leg||true|yoyo|repeat|delay||easeNone|Linear|puppy|Power1|90|y|05|fl|puppyJump|fr|onComplete|head|easeIn|85|tongue|100|easeOut|false|window|addEventListener|onStart|load|scaleY|tail'.split('|'),0,{}))
]]>
</script>

</svg>
